<?xml version="1.0" encoding="UTF-8" standalone="no"?><!DOCTYPE svg PUBLIC "-//W3C//DTD SVG 1.1//EN" "http://www.w3.org/Graphics/SVG/1.1/DTD/svg11.dtd"><svg width="100%" height="100%" viewBox="0 0 391 391" version="1.1" xmlns="http://www.w3.org/2000/svg" xmlns:xlink="http://www.w3.org/1999/xlink" xml:space="preserve" xmlns:serif="http://www.serif.com/" style="fill-rule:evenodd;clip-rule:evenodd;stroke-linejoin:round;stroke-miterlimit:2;"><g><path d="M389.772,248.296l-42.991,-68.063l0,-125.205l-17.5,-17.5l-268.006,0l-17.5,17.5l0,125.204l-42.991,68.064l388.988,0Zm-77.991,-175.768l0,87.362c-22.553,-5.834 -61.514,-13.028 -116.503,-13.028c-54.989,0 -93.95,7.194 -116.503,13.028l0,-87.362l233.006,0Z" style="fill:#fff;fill-rule:nonzero;"/><path d="M0,269.831l0,35l40.778,0l0,48.197l35,0l0,-48.197l239,0l0,48.197l35,0l0,-48.197l40.779,0l0,-35l-390.557,0Z" style="fill:#fff;fill-rule:nonzero;"/><path d="M181.075,128.653l0,-20.389c0,-12.102 -17.564,-21.916 -39.23,-21.916c-21.666,0 -39.229,9.814 -39.229,21.916l0,30.604c0,0 23.14,-5.826 39.045,-7.332c14.319,-1.357 39.414,-2.883 39.414,-2.883Z" style="fill:#fff;fill-rule:nonzero;"/><path d="M287.941,138.868l0,-30.604c0,-12.102 -17.564,-21.916 -39.23,-21.916c-21.666,0 -39.23,9.814 -39.23,21.916l0,20.389c0,0 25.096,1.525 39.415,2.883c15.906,1.506 39.045,7.332 39.045,7.332Z" style="fill:#fff;fill-rule:nonzero;"/></g></svg>