<svg xmlns="http://www.w3.org/2000/svg" viewBox="0 0 452.86 106.98"><defs><style>.cls-1{fill:#fff;}.cls-2{fill:#eb611c;}.cls-3{fill:#e41221;}.cls-4{fill:#f59e1e;}</style></defs><title>White_MC</title><g id="Ebene_2" data-name="Ebene 2"><g id="Laag_1" data-name="Laag 1"><path class="cls-1" d="M144.94,85.58V81.1h1.7V92H145v-.76h-.1c-1.42,1.5-4.12,1.12-5.39-.24a3.81,3.81,0,0,1,1.32-6.15A3.86,3.86,0,0,1,144.94,85.58ZM145,88.4a2.24,2.24,0,0,0-.89-1.86,2.56,2.56,0,0,0-3.43.38,2.38,2.38,0,0,0,.57,3.45,2.55,2.55,0,0,0,2.48.11A2.15,2.15,0,0,0,145,88.4Z"/><path class="cls-1" d="M154.42,81.1v4.41h.09c1.45-1.54,4.43-1.12,5.7.65A3.8,3.8,0,0,1,158.32,92a3.5,3.5,0,0,1-3.77-.67l-.12-.07V92H152.7V81.1Zm-.11,7.48a2.08,2.08,0,0,0,1.3,1.91,2.55,2.55,0,0,0,2.52-.16,2.38,2.38,0,0,0,.33-3.59,2.57,2.57,0,0,0-2.64-.53A2.31,2.31,0,0,0,154.31,88.58Z"/><path class="cls-1" d="M78.84,85.35a3.9,3.9,0,0,0-4.45-.19c-.16.11-.32.25-.53.42v-.79h-1.7V95.06h1.7V91.19a3.6,3.6,0,0,0,3.92.8,3.52,3.52,0,0,0,2.54-3A3.57,3.57,0,0,0,78.84,85.35Zm-1.65,5.18a2.5,2.5,0,0,1-2.61-.34A2.37,2.37,0,0,1,74.22,87a2.55,2.55,0,0,1,3.09-.66,2.26,2.26,0,0,1,1.28,2.09A2.22,2.22,0,0,1,77.19,90.53Z"/><path class="cls-1" d="M94,90.09l.88,1.15a11.16,11.16,0,0,1-1.18.62,5.49,5.49,0,0,1-3.21.25,3.46,3.46,0,0,1-2.78-2.38,3.75,3.75,0,0,1,1-4.23,4,4,0,0,1,3.88-.77,3.34,3.34,0,0,1,2.47,2.57,11,11,0,0,1,.14,1.3c0,.29-.09.4-.44.4-1.67,0-3.34,0-5,0h-.47a1.92,1.92,0,0,0,1.15,1.59A3.63,3.63,0,0,0,94,90.09Zm-.56-2.32a1.89,1.89,0,0,0-1.24-1.66,2.19,2.19,0,0,0-2.2.35,1.47,1.47,0,0,0-.58,1.31Z"/><path class="cls-1" d="M112.19,89h-5.85a1.82,1.82,0,0,0,1,1.51,3.54,3.54,0,0,0,3.68-.41l.88,1.15a12.22,12.22,0,0,1-1.12.6,5.52,5.52,0,0,1-3.24.28,3.46,3.46,0,0,1-2.82-2.42,3.74,3.74,0,0,1,1-4.18,4,4,0,0,1,3.9-.79,3.35,3.35,0,0,1,2.47,2.57A3.7,3.7,0,0,1,112.19,89Zm-1.77-1.22A1.91,1.91,0,0,0,108.2,86a1.85,1.85,0,0,0-1.81,1.78Z"/><path class="cls-1" d="M131.3,89a1.94,1.94,0,0,0,1.1,1.57,3.63,3.63,0,0,0,3.57-.48l.85,1.11a4.41,4.41,0,0,1-2.26,1,5.17,5.17,0,0,1-2.81-.26,3.49,3.49,0,0,1-2.26-3,3.67,3.67,0,0,1,1.25-3.44,4.1,4.1,0,0,1,3.85-.75,3.31,3.31,0,0,1,2.47,2.53,8.11,8.11,0,0,1,.15,1.4c0,.25-.09.34-.38.33H131.3Zm4.08-1.23a2,2,0,0,0-4,0Z"/><path class="cls-1" d="M113.65,84.77h1.68v.71a8.24,8.24,0,0,1,1.4-.75A3.22,3.22,0,0,1,121,86.89a.86.86,0,0,1,0,.17v5H119.3V88.16a3.92,3.92,0,0,0-.08-.84,1.67,1.67,0,0,0-1.8-1.25,1.91,1.91,0,0,0-2,1.48,3.36,3.36,0,0,0-.06.63c0,1.16,0,2.31,0,3.47V92h-1.72Z"/><path class="cls-1" d="M96,91.3l.82-1.2a4.86,4.86,0,0,0,3.49.67,1.47,1.47,0,0,0,.28-.08c.44-.15.71-.43.68-.75s-.35-.58-.73-.66c-.67-.13-1.35-.21-2-.33a4.79,4.79,0,0,1-.74-.21,1.92,1.92,0,0,1-1.42-1.64A2,2,0,0,1,97.5,85a4.86,4.86,0,0,1,2.61-.44,6.05,6.05,0,0,1,2.72.77l-.7,1.16c-.59-.16-1.15-.36-1.73-.47a5.45,5.45,0,0,0-1.28,0,1.2,1.2,0,0,0-.63.23,1.16,1.16,0,0,0-.36.62c0,.27.19.47.46.54.49.11,1,.17,1.48.28a11.5,11.5,0,0,1,1.66.41,1.91,1.91,0,0,1,.35,3.48,4.59,4.59,0,0,1-2.32.66,6.88,6.88,0,0,1-3.08-.54C96.44,91.58,96.22,91.44,96,91.3Z"/><path class="cls-1" d="M160.83,84.76c.63,0,1.22,0,1.8,0,.11,0,.23.15.3.25.75,1.21,1.49,2.42,2.23,3.63l.18.27.86-1.43c.5-.84,1-1.68,1.49-2.51a.6.6,0,0,1,.39-.21c.52,0,1,0,1.62,0a2.15,2.15,0,0,1-.14.27c-2.58,4.26-4.49,7.41-6,9.87a.4.4,0,0,1-.42.24c-.53,0-1.06,0-1.63,0,.06-.12.1-.21.15-.29q1.26-2,2.53-4a.42.42,0,0,0,0-.52c-1.07-1.73-2.13-3.47-3.2-5.21Z"/><path class="cls-1" d="M125.24,86.19c0,1.19,0,2.32,0,3.45,0,.86.82,1.28,1.82,1a10.48,10.48,0,0,0,1.05-.39l.66,1.21a4.21,4.21,0,0,1-4,.42,2.09,2.09,0,0,1-1.21-1.79c-.06-1-.05-2-.07-3V86.2h-1.56V84.77h1.54v-2.2h1.77v2.19h3v1.43Z"/><path class="cls-1" d="M83.46,92H81.75V84.79h1.68v.67c.06,0,.09,0,.1,0a3.3,3.3,0,0,1,3.23-.79c.28,0,.35.16.26.42s-.21.8-.32,1.21c-.33-.07-.63-.15-.94-.19-1.39-.15-2.27.54-2.3,1.83s0,2.47,0,3.7Z"/><path class="cls-1" d="M271.4,94.92V87.3a4.52,4.52,0,0,0-4.77-4.82,4.72,4.72,0,0,0-4.27,2.16,4.45,4.45,0,0,0-4-2.16,4,4,0,0,0-3.56,1.8V82.79h-2.64V94.92h2.67V88.19c0-2.1,1.17-3.22,3-3.22s2.64,1.14,2.64,3.2v6.75h2.66V88.19c0-2.1,1.22-3.22,3-3.22s2.66,1.14,2.66,3.2v6.75Zm39.43-12.13h-4.31V79.11h-2.67v3.68h-2.46V85.2h2.46v5.53c0,2.82,1.09,4.49,4.21,4.49a6.11,6.11,0,0,0,3.3-.94L310.6,92a4.82,4.82,0,0,1-2.33.69c-1.32,0-1.75-.81-1.75-2V85.2h4.31Zm22.51-.31a3.58,3.58,0,0,0-3.2,1.78V82.79h-2.61V94.92h2.64v-6.8c0-2,.86-3.12,2.58-3.12a4.22,4.22,0,0,1,1.65.3l.82-2.49a5.65,5.65,0,0,0-1.88-.33Zm-34,1.27a9.05,9.05,0,0,0-4.95-1.27c-3.07,0-5.05,1.47-5.05,3.89,0,2,1.47,3.19,4.19,3.57l1.24.18c1.45.2,2.13.58,2.13,1.27,0,.94-1,1.47-2.76,1.47a6.45,6.45,0,0,1-4-1.27l-1.24,2.06a8.79,8.79,0,0,0,5.25,1.57c3.5,0,5.53-1.65,5.53-4,0-2.13-1.59-3.25-4.23-3.63l-1.25-.17c-1.14-.16-2.05-.38-2.05-1.2s.86-1.42,2.31-1.42a7.9,7.9,0,0,1,3.78,1ZM370,82.48a3.56,3.56,0,0,0-3.2,1.78V82.79h-2.62V94.92h2.64v-6.8c0-2,.87-3.12,2.59-3.12a4.28,4.28,0,0,1,1.65.3l.81-2.49a5.55,5.55,0,0,0-1.87-.33Zm-34,6.37a6.13,6.13,0,0,0,6.47,6.37,6.32,6.32,0,0,0,4.37-1.45l-1.27-2.13a5.33,5.33,0,0,1-3.17,1.09,3.89,3.89,0,0,1,0-7.76,5.33,5.33,0,0,1,3.17,1.09l1.27-2.13a6.37,6.37,0,0,0-4.37-1.45A6.13,6.13,0,0,0,336,88.85Zm24.72,0V82.79h-2.64v1.47a4.61,4.61,0,0,0-3.83-1.78,6.38,6.38,0,0,0,0,12.74,4.61,4.61,0,0,0,3.83-1.77v1.47h2.64Zm-9.82,0a3.67,3.67,0,1,1,3.68,3.88,3.63,3.63,0,0,1-3.68-3.88Zm-31.85-6.37c-3.55,0-6,2.59-6,6.37a6,6,0,0,0,6.22,6.37,7.37,7.37,0,0,0,5-1.7l-1.29-2a5.81,5.81,0,0,1-3.53,1.27,3.37,3.37,0,0,1-3.63-3h9c0-.33.05-.66.05-1,0-3.78-2.36-6.37-5.76-6.37ZM319,84.84c1.7,0,2.79,1.07,3.07,3h-6.29a3.13,3.13,0,0,1,3.22-3Zm66.2,4V77.92h-2.63v6.34a4.62,4.62,0,0,0-3.84-1.78,6.38,6.38,0,0,0,0,12.74,4.61,4.61,0,0,0,3.84-1.77v1.47h2.63Zm-9.82,0a3.68,3.68,0,1,1,3.68,3.88,3.64,3.64,0,0,1-3.68-3.88Zm-89.11,0V82.79h-2.64v1.47a4.61,4.61,0,0,0-3.83-1.78,6.38,6.38,0,0,0,0,12.74,4.61,4.61,0,0,0,3.83-1.77v1.47h2.64Zm-9.82,0a3.67,3.67,0,1,1,3.68,3.88A3.63,3.63,0,0,1,276.45,88.85ZM389.6,93.16a1.28,1.28,0,0,1,.48.09,1.33,1.33,0,0,1,.39.26,1.16,1.16,0,0,1,.26.39,1,1,0,0,1,.1.46,1,1,0,0,1-.1.47,1.12,1.12,0,0,1-.26.38,1.16,1.16,0,0,1-.39.26,1.2,1.2,0,0,1-1,0,1.16,1.16,0,0,1-.39-.26,1.12,1.12,0,0,1-.26-.38,1,1,0,0,1-.1-.47,1,1,0,0,1,.1-.46,1.16,1.16,0,0,1,.26-.39,1.33,1.33,0,0,1,.39-.26A1.28,1.28,0,0,1,389.6,93.16Zm0,2.14a.9.9,0,0,0,.37-.07,1,1,0,0,0,.29-.2.88.88,0,0,0,.2-.3.9.9,0,0,0,.07-.37.86.86,0,0,0-.07-.36.79.79,0,0,0-.2-.3,1,1,0,0,0-.29-.2.9.9,0,0,0-.37-.07.94.94,0,0,0-.37.07,1.21,1.21,0,0,0-.3.2.93.93,0,0,0-.2.3,1,1,0,0,0-.07.36,1.11,1.11,0,0,0,.07.37,1,1,0,0,0,.2.3,1.21,1.21,0,0,0,.3.2A.94.94,0,0,0,389.6,95.3Zm.08-1.5a.48.48,0,0,1,.33.1.3.3,0,0,1,.11.26.32.32,0,0,1-.09.23.48.48,0,0,1-.26.11l.36.42h-.28l-.34-.42h-.11v.42h-.24V93.8Zm-.28.21v.3h.27a.21.21,0,0,0,.15,0,.13.13,0,0,0,0-.22.21.21,0,0,0-.15,0Z"/><rect class="cls-2" x="202.05" y="74.41" width="15.95" height="28.67"/><path class="cls-3" d="M203.06,88.75a18.21,18.21,0,0,1,7-14.34,18.24,18.24,0,1,0,0,28.67A18.2,18.2,0,0,1,203.06,88.75Z"/><path class="cls-4" d="M239.52,88.75A18.23,18.23,0,0,1,210,103.08a18.24,18.24,0,0,0,0-28.67,18.24,18.24,0,0,1,29.5,14.34ZM237.78,100v-.58H238v-.12h-.61v.12h.24V100Zm1.17,0v-.7h-.18l-.22.48-.21-.48h-.18v.7h.13v-.53l.19.46h.14l.2-.46V100Z"/><path class="cls-1" d="M164.12,9.67l2.77,3.68V25.79H152V13.35l2.77-3.68V9.22H138.9v.45l2.76,3.68v32.7l-2.76,4.14v.46h15.89v-.46L152,46.05V29.93h14.87V46.05l-2.77,4.14v.46H180v-.46l-2.76-4.14V13.35L180,9.67V9.22H164.12Zm-43.48,0,2.58,5.53L116,40,106.62,9.21H95.78v.46l2.58,6.79L90.6,43.12,82,14.89l1.8-5.22V9.21H41.9v.45l2.66,3.68.11,32.7L41.9,50.19v.46H73.22V40.06h-.46L66.31,46.5H54.8V29.93H64l3.69,3.68h.46V22.1h-.46L64,25.79H54.8V13.35H70.18l1.23,1.74,11,35.56H93.94L101.3,26l7.83,24.66h9.67L128.93,15.2l3.23-5.53V9.21H120.64Zm-90.25,0,2.76,3.68v25.4L13.07,9.22H0v.45l2.76,3.68v32.7L0,50.19v.46H10.13v-.46L7.37,46.05V19.76L29,50.67l8.75,0V13.35l2.76-3.68V9.21H30.39Zm381.28,0,2.76,4.14V38.75L394.34,9.22H381.28v.45L384,13.35v32.7l-2.76,4.14v.46h10.13v-.46l-2.77-4.14V19.76l21.65,30.91,8.74,0V13.81l2.77-4.14V9.21H411.67ZM359.1,8.29c-11,0-22,7.92-22,22,0,12.37,9.11,21.25,21.81,21.25,11.07,0,22.09-7.81,22.09-22C381,17.06,371.64,8.29,359.1,8.29Zm.29,38.79c-7.71,0-12-8.74-12-18.23s4-16,11.23-16c7.71,0,12,8.7,12,18.18S366.65,47.08,359.39,47.08ZM328.32,47h-12L338,9.67V9.21H304.84V20.26h.43l6.47-7.37H325.1L303,50.19v.46h32.7v-11h-.46ZM279,46.44,270.3,32.69c5.93-2.66,9.2-7.63,9.2-12.43,0-7-6.33-11-18.87-11h-17.5v.45l2.76,3.68v32.7l-2.76,4.14v.46h15.66v-.46L256,46.05V13.35h3.68c2.3,0,8.75,0,8.75,7.37,0,6.46-8.5,6.9-10.59,6.91v.46L268.26,46.3l-2.1,3.89v.48h16.57v-.46Zm5.59-36.77,2.77,3.68V46l-2.77,4.15v.46h15.66v-.46L297.47,46V13.35l2.76-3.68V9.22H284.57Zm-73.44,17.5h.46l4.6-6L211.59,0h-.46l-4.61,21.18Zm22.05-3,7.84,1.7A30,30,0,0,0,215.42.27l1.7,7.84A22.64,22.64,0,0,1,233.18,24.17ZM205.6,8.11,207.3.27a30,30,0,0,0-25.6,25.6l7.84-1.7A22.62,22.62,0,0,1,205.6,8.11Zm6,24.58h-.46l-4.61,6,4.61,21.18h.46l4.6-21.18Zm5.53,19.06-1.7,7.83A29.93,29.93,0,0,0,241,34l-7.83,1.7A22.67,22.67,0,0,1,217.12,51.75Zm-3-22v.46l6,4.61,21.18-4.61h0V29.7l-21.18-4.6Zm-24.58,6L181.7,34a30,30,0,0,0,25.6,25.59l-1.7-7.83A22.67,22.67,0,0,1,189.54,35.69Zm19.06-5.53V29.7l-6-4.6-21.18,4.6v.46h0l21.18,4.61Zm232.18-5.6c-7.49-4.51-8.76-6.22-8.76-8.32,0-2.42,1.6-3.8,4.38-3.8a26.72,26.72,0,0,1,5.58.9L448,19.8h.46v-11h-12a16.61,16.61,0,0,0-9.4,3,10.05,10.05,0,0,0-4.41,8.2c0,5.61,4.39,9.25,12,13.63,7.07,4.08,8.49,6.19,8.49,8.26,0,3.3-2.21,5.12-6.21,5.12a15.24,15.24,0,0,1-5.91-.91L425,39.6h-.46v11s5.79.46,12,.46,16.33-3.16,16.33-13.3C452.86,32.26,447.86,28.82,440.78,24.56Z"/></g></g></svg>