<?xml version="1.0" standalone="no"?>
<!DOCTYPE svg PUBLIC "-//W3C//DTD SVG 20010904//EN"
 "http://www.w3.org/TR/2001/REC-SVG-20010904/DTD/svg10.dtd">
<svg version="1.0" xmlns="http://www.w3.org/2000/svg"
 width="270.000000pt" height="270.000000pt" viewBox="0 0 270.000000 270.000000"
 preserveAspectRatio="xMidYMid meet">
<metadata>
Created by potrace 1.11, written by Peter Selinger 2001-2013
</metadata>
<g transform="translate(0.000000,270.000000) scale(0.100000,-0.100000)"
fill="#000000" stroke="none">
<path d="M1323 2686 c4 -9 2 -16 -3 -16 -6 0 -9 -3 -8 -7 3 -8 -32 -176 -59
-288 -8 -33 -14 -70 -14 -82 1 -13 -4 -23 -10 -23 -6 0 -8 -7 -5 -16 3 -9 3
-21 -1 -27 -4 -7 -9 -22 -10 -34 -6 -46 -11 -78 -13 -78 -3 0 -12 -38 -15 -65
-2 -14 -4 -25 -5 -25 -2 0 -4 -9 -6 -20 -2 -11 -14 -69 -28 -130 -14 -60 -25
-117 -25 -125 0 -8 36 -60 80 -115 44 -55 85 -109 91 -121 14 -29 44 -45 67
-36 11 4 19 9 18 12 -2 5 13 26 126 166 67 84 69 95 33 248 -14 57 -26 114
-28 127 -2 13 -7 29 -11 36 -4 6 -4 18 -1 27 3 9 1 16 -4 16 -6 0 -9 9 -7 20
2 11 0 22 -5 25 -5 3 -7 14 -5 25 2 11 0 22 -4 25 -5 2 -12 26 -16 52 -12 74
-13 82 -36 178 -11 50 -21 98 -20 107 0 10 -5 20 -10 23 -5 4 -7 9 -5 13 2 4
-1 32 -8 62 -10 45 -16 56 -36 58 -17 3 -21 0 -17 -12z"/>
<path d="M1090 2681 c-8 -6 -18 -7 -22 -5 -5 3 -25 0 -46 -7 -20 -7 -40 -12
-44 -11 -4 1 -22 -5 -41 -13 -19 -8 -37 -11 -41 -8 -3 4 -6 1 -6 -6 0 -6 -6
-11 -12 -10 -12 2 -116 -41 -148 -61 -8 -6 -25 -14 -37 -20 -12 -5 -41 -21
-65 -36 -24 -15 -44 -26 -44 -23 -1 2 -11 -7 -23 -21 -11 -14 -20 -21 -21 -15
0 5 -7 -1 -16 -13 -8 -12 -20 -22 -25 -22 -11 0 -209 -196 -209 -207 0 -5 -14
-23 -30 -42 -58 -66 -188 -308 -182 -338 2 -7 -1 -13 -6 -13 -5 0 -9 -6 -10
-12 -1 -14 -9 -50 -13 -58 -1 -3 -3 -9 -4 -15 -1 -5 -5 -17 -8 -25 -8 -22 -27
-118 -27 -140 0 -14 7 -20 23 -20 35 0 192 34 195 42 2 5 8 5 13 2 6 -3 33 0
62 7 29 7 56 13 61 14 5 0 10 7 12 15 8 47 84 220 96 220 5 0 7 4 3 9 -3 5 2
16 10 24 8 9 15 20 15 26 0 6 5 11 10 11 6 0 10 4 10 10 0 45 310 327 334 303
3 -3 6 -1 6 5 0 7 7 12 15 12 8 0 15 5 15 10 0 6 6 10 14 10 7 0 38 11 67 23
83 36 93 40 109 41 8 1 15 6 15 11 1 6 7 33 14 61 6 28 11 55 10 60 -1 5 0 16
4 24 10 27 37 158 37 184 0 22 -5 26 -27 26 -16 0 -35 -4 -43 -9z"/>
<path d="M1517 2684 c-4 -4 -3 -12 0 -18 4 -6 8 -15 9 -21 38 -195 68 -311 82
-320 9 -5 42 -17 72 -27 60 -19 123 -49 128 -61 2 -4 8 -5 13 -1 5 3 9 0 9 -6
0 -6 5 -8 10 -5 6 3 13 -1 16 -9 3 -9 9 -14 13 -11 12 7 160 -115 215 -176 27
-30 61 -72 75 -94 14 -22 29 -42 32 -45 16 -13 65 -114 94 -195 l33 -90 153
-32 c85 -18 167 -33 182 -33 28 0 28 0 21 48 -3 26 -10 54 -15 63 -5 9 -6 19
-2 22 3 4 1 13 -5 20 -7 8 -10 16 -7 19 3 2 -6 32 -19 67 -14 34 -26 65 -27
69 -22 80 -92 209 -164 303 -11 15 -29 39 -40 55 -34 48 -217 224 -234 224 -3
0 -21 14 -40 30 -18 17 -37 30 -42 30 -4 0 -14 6 -21 13 -19 18 -177 97 -194
97 -8 0 -14 5 -14 11 0 5 -4 8 -9 5 -4 -3 -26 3 -47 13 -21 11 -46 17 -56 16
-10 -2 -18 0 -18 6 0 5 -3 8 -7 7 -5 0 -15 1 -23 5 -49 19 -161 33 -173 21z"/>
<path d="M800 1550 c-69 -16 -125 -29 -125 -30 0 -1 -11 -3 -25 -5 -31 -4 -67
-11 -100 -20 -14 -4 -32 -7 -40 -7 -8 0 -19 -4 -25 -8 -5 -4 -20 -6 -32 -5
-13 1 -23 -1 -23 -5 0 -4 -17 -10 -37 -13 -55 -8 -335 -67 -353 -74 -8 -3 -21
-5 -27 -4 -8 1 -13 -9 -13 -23 0 -19 4 -24 20 -21 11 2 20 -1 20 -6 0 -6 8 -9
18 -8 9 2 26 0 37 -4 11 -3 31 -8 45 -11 67 -13 132 -26 199 -41 40 -10 80
-19 90 -20 9 -2 16 -4 16 -5 0 -1 16 -3 35 -6 19 -2 42 -7 50 -10 8 -4 22 -8
30 -9 8 -1 29 -6 45 -9 17 -4 39 -9 50 -11 11 -2 31 -7 45 -10 14 -3 36 -8 50
-10 14 -2 52 -11 85 -19 104 -26 129 -22 197 32 110 86 170 131 179 134 15 5
19 47 6 58 -102 86 -260 200 -274 199 -10 -1 -74 -14 -143 -29z"/>
<path d="M1635 1510 c-49 -39 -97 -77 -106 -85 -9 -8 -19 -15 -23 -15 -12 0
-45 -44 -46 -60 0 -8 10 -21 22 -29 13 -8 73 -54 134 -102 l111 -88 74 15 c41
9 83 18 94 20 19 5 67 14 92 18 7 1 15 5 19 8 3 4 12 4 20 1 8 -3 14 0 14 5 0
6 10 9 21 7 12 -3 27 -1 33 3 6 4 19 7 29 8 9 1 18 2 20 4 2 2 24 7 67 15 131
26 318 67 330 71 8 4 24 8 35 9 11 2 34 6 50 10 17 3 38 6 48 6 12 0 17 8 17
26 0 15 -3 23 -7 20 -3 -4 -11 -3 -17 2 -6 5 -31 12 -56 15 -47 6 -305 60
-341 71 -11 4 -31 9 -42 10 -28 5 -62 13 -62 15 0 1 -13 4 -30 6 -57 9 -70 11
-85 17 -15 6 -306 67 -319 67 -3 0 -46 -32 -96 -70z"/>
<path d="M1313 1221 c-13 -11 -23 -24 -23 -30 0 -6 -9 -16 -20 -23 -11 -7 -20
-17 -20 -22 0 -5 -25 -41 -57 -80 -31 -39 -60 -76 -65 -83 -10 -12 -4 -49 32
-213 11 -52 23 -106 25 -120 7 -36 13 -65 15 -67 2 -2 4 -12 5 -23 1 -11 3
-21 5 -22 5 -7 21 -91 24 -123 0 -11 4 -22 7 -25 3 -3 20 -77 38 -165 42 -201
39 -189 41 -195 1 -3 2 -8 1 -12 0 -5 8 -8 19 -8 22 0 29 11 34 51 2 13 6 35
9 49 13 55 59 266 61 280 9 63 20 111 26 115 5 3 6 14 3 25 -3 11 -1 20 5 20
6 0 9 11 7 25 -1 14 2 28 7 31 5 3 7 13 4 21 -3 8 -3 20 1 26 9 14 13 32 18
72 2 17 4 32 6 35 1 3 3 10 4 15 1 6 5 17 8 25 3 8 13 50 21 93 l16 79 -73 92
c-39 51 -81 105 -92 121 -45 62 -56 66 -92 36z"/>
<path d="M20 1180 c-12 -7 -12 -20 -1 -87 7 -43 16 -80 20 -83 3 -3 7 -14 9
-25 4 -29 7 -39 15 -52 5 -7 6 -13 2 -13 -3 0 0 -10 7 -22 7 -13 13 -26 14
-30 1 -5 3 -11 4 -15 1 -5 2 -11 1 -15 0 -5 4 -8 9 -8 6 0 10 -7 10 -16 0 -36
128 -248 184 -305 9 -9 16 -19 16 -22 0 -13 147 -153 207 -197 32 -24 60 -46
63 -49 13 -15 185 -111 198 -111 6 0 27 -9 47 -20 19 -11 37 -20 40 -20 3 0 7
-1 10 -1 3 -1 10 -3 15 -4 6 -1 12 -4 15 -5 3 -1 10 -4 15 -5 6 -1 12 -4 15
-5 3 -1 10 -4 15 -5 6 -1 11 -3 13 -5 4 -4 74 -19 165 -36 29 -6 32 -4 32 19
0 27 -46 263 -57 287 -3 8 -6 24 -7 34 -1 20 -70 51 -87 40 -5 -3 -9 -1 -9 4
0 5 -21 17 -47 27 -27 10 -56 25 -66 33 -9 8 -17 12 -17 8 0 -11 -141 88 -198
139 -53 48 -179 195 -167 195 4 0 -5 14 -19 31 -14 17 -24 35 -20 40 3 5 1 9
-4 9 -5 0 -12 8 -15 18 -3 9 -16 44 -30 77 -38 94 -40 99 -41 109 -1 12 -56
28 -73 21 -7 -2 -13 -1 -13 4 0 4 -28 13 -62 19 -128 24 -173 34 -183 42 -6 5
-17 5 -25 0z"/>
<path d="M2655 1180 c-4 -7 -18 -10 -31 -7 -13 2 -24 1 -24 -3 0 -4 -19 -10
-42 -14 -24 -4 -88 -16 -144 -28 l-101 -22 -17 -56 c-20 -67 -104 -240 -117
-240 -5 0 -9 -7 -9 -15 0 -8 -4 -15 -9 -15 -5 0 -12 -8 -15 -18 -12 -37 -145
-168 -226 -222 -12 -8 -28 -20 -34 -26 -6 -6 -14 -10 -18 -10 -4 1 -16 -6 -26
-15 -23 -20 -188 -89 -213 -89 -10 0 -19 -5 -19 -11 0 -5 -4 -8 -8 -5 -8 5
-25 -67 -64 -264 -7 -36 -16 -67 -20 -70 -4 -3 -3 -12 1 -19 7 -12 20 -12 77
0 38 7 71 13 74 14 3 0 11 4 18 8 6 5 12 6 12 3 0 -3 23 3 52 14 28 10 55 17
59 15 4 -3 9 0 11 5 2 6 10 12 18 14 28 4 180 79 180 88 0 5 4 7 9 4 5 -3 14
1 21 9 7 8 18 15 25 15 8 0 15 4 17 8 2 4 25 23 52 42 90 63 178 147 249 239
29 36 55 68 59 69 5 2 8 8 8 14 0 5 13 28 28 51 35 50 113 213 121 252 2 6 7
16 13 23 6 6 7 12 4 12 -4 0 -2 8 3 18 9 17 13 31 27 97 2 11 9 44 15 73 8 36
9 56 2 63 -8 8 -13 7 -18 -1z"/>
</g>
</svg>
