<?xml version="1.0" encoding="UTF-8"?>
<svg width="555px" height="115px" viewBox="0 0 555 115" version="1.1" xmlns="http://www.w3.org/2000/svg" xmlns:xlink="http://www.w3.org/1999/xlink">
    <!-- Generator: Sketch 50.2 (55047) - http://www.bohemiancoding.com/sketch -->
    <title>logo</title>
    <desc>Created with Sketch.</desc>
    <defs></defs>
    <g id="Page-1" stroke="none" stroke-width="1" fill="none" fill-rule="evenodd">
        <g id="logo" fill-rule="nonzero">
            <path d="M301.3,106.2 L301.3,105.5 L301.6,105.5 L301.6,105.4 L300.9,105.4 L300.9,105.5 L301.2,105.5 L301.2,106.2 L301.3,106.2 Z M302.6,106.2 L302.6,105.4 L302.4,105.4 L302.2,106 L302,105.4 L301.8,105.4 L301.8,106.2 L301.9,106.2 L301.9,105.6 L302.1,106.1 L302.3,106.1 L302.5,105.6 L302.5,106.2 L302.6,106.2 Z" id="Shape" fill="#000000"></path>
            <path d="M339.2,100.3 L339.2,91.6 C339.2,88.3 337.1,86.1 333.7,86.1 C331.9,86.1 330.1,86.6 328.8,88.6 C327.8,87.1 326.3,86.1 324.2,86.1 C322.7,86.1 321.3,86.5 320.1,88.2 L320.1,86.5 L317.1,86.5 L317.1,100.4 L320.2,100.4 L320.2,92.7 C320.2,90.3 321.5,89 323.6,89 C325.6,89 326.6,90.3 326.6,92.7 L326.6,100.4 L329.7,100.4 L329.7,92.7 C329.7,90.3 331.1,89 333.1,89 C335.2,89 336.2,90.3 336.2,92.7 L336.2,100.4 L339.2,100.4 L339.2,100.3 Z M384.3,86.4 L379.4,86.4 L379.4,82.2 L376.3,82.2 L376.3,86.4 L373.5,86.4 L373.5,89.2 L376.3,89.2 L376.3,95.5 C376.3,98.7 377.5,100.6 381.1,100.6 C382.4,100.6 383.9,100.2 384.9,99.5 L384,96.9 C383.1,97.4 382.1,97.7 381.3,97.7 C379.8,97.7 379.3,96.8 379.3,95.4 L379.3,89.1 L384.2,89.1 L384.2,86.4 L384.3,86.4 Z M410.1,86 C408.4,86 407.2,86.8 406.4,88 L406.4,86.3 L403.4,86.3 L403.4,100.2 L406.4,100.2 L406.4,92.4 C406.4,90.1 407.4,88.8 409.4,88.8 C410,88.8 410.6,88.9 411.3,89.1 L412.2,86.3 C411.6,86.2 410.7,86 410.1,86 Z M371.1,87.5 C369.6,86.5 367.6,86 365.4,86 C361.9,86 359.6,87.7 359.6,90.4 C359.6,92.7 361.3,94.1 364.4,94.5 L365.8,94.7 C367.5,94.9 368.2,95.4 368.2,96.2 C368.2,97.3 367.1,97.9 365,97.9 C362.9,97.9 361.4,97.2 360.4,96.4 L359,98.8 C360.7,100 362.7,100.6 365,100.6 C369,100.6 371.3,98.7 371.3,96.1 C371.3,93.7 369.5,92.4 366.4,91.9 L365,91.7 C363.7,91.5 362.6,91.3 362.6,90.3 C362.6,89.3 363.6,88.7 365.2,88.7 C367,88.7 368.7,89.4 369.5,89.9 L371.1,87.5 Z M452.1,86 C450.4,86 449.2,86.8 448.4,88 L448.4,86.3 L445.4,86.3 L445.4,100.2 L448.4,100.2 L448.4,92.4 C448.4,90.1 449.4,88.8 451.4,88.8 C452,88.8 452.6,88.9 453.3,89.1 L454.2,86.3 C453.6,86.2 452.7,86 452.1,86 Z M413.2,93.3 C413.2,97.5 416.1,100.6 420.6,100.6 C422.7,100.6 424.1,100.1 425.6,98.9 L424.1,96.5 C423,97.3 421.8,97.7 420.5,97.7 C418.1,97.7 416.3,95.9 416.3,93.3 C416.3,90.6 418.1,88.9 420.5,88.9 C421.8,88.9 423,89.3 424.1,90.1 L425.6,87.7 C424.1,86.5 422.7,86 420.6,86 C416.1,86 413.2,89.1 413.2,93.3 Z M441.5,93.3 L441.5,86.4 L438.5,86.4 L438.5,88.1 C437.5,86.9 436.1,86.1 434.1,86.1 C430.2,86.1 427.2,89.2 427.2,93.4 C427.2,97.6 430.3,100.7 434.1,100.7 C436.1,100.7 437.5,99.9 438.5,98.7 L438.5,100.4 L441.5,100.4 L441.5,93.3 Z M430.2,93.3 C430.2,90.9 431.8,88.9 434.4,88.9 C436.9,88.9 438.6,90.8 438.6,93.3 C438.6,95.8 436.9,97.7 434.4,97.7 C431.8,97.8 430.2,95.8 430.2,93.3 Z M393.8,86 C389.7,86 386.9,89 386.9,93.3 C386.9,97.7 389.9,100.6 394,100.6 C396.1,100.6 398,100.1 399.7,98.7 L398.2,96.5 C397,97.4 395.6,98 394.2,98 C392.3,98 390.5,97.1 390,94.6 L400.3,94.6 C400.3,94.2 400.4,93.8 400.4,93.4 C400.3,89 397.6,86 393.8,86 Z M393.7,88.7 C395.6,88.7 396.9,89.9 397.2,92.1 L390,92.1 C390.3,90.1 391.5,88.7 393.7,88.7 Z M469.5,93.3 L469.5,80.8 L466.5,80.8 L466.5,88.1 C465.5,86.9 464.1,86.1 462.1,86.1 C458.2,86.1 455.2,89.2 455.2,93.4 C455.2,97.6 458.3,100.7 462.1,100.7 C464.1,100.7 465.5,99.9 466.5,98.7 L466.5,100.4 L469.5,100.4 L469.5,93.3 Z M473,99 C473.1,99 473.2,99 473.3,99.1 C473.4,99.1 473.5,99.2 473.6,99.3 C473.7,99.4 473.7,99.5 473.8,99.6 C473.8,99.7 473.9,99.8 473.9,99.9 C473.9,100 473.9,100.1 473.8,100.2 C473.8,100.3 473.7,100.4 473.6,100.5 C473.5,100.6 473.4,100.6 473.3,100.7 C473.2,100.7 473.1,100.8 473,100.8 C472.9,100.8 472.8,100.8 472.6,100.7 C472.5,100.7 472.4,100.6 472.3,100.5 C472.2,100.4 472.2,100.3 472.1,100.2 C472.1,100.1 472,100 472,99.9 C472,99.8 472,99.7 472.1,99.6 C472.1,99.5 472.2,99.4 472.3,99.3 C472.4,99.2 472.5,99.2 472.6,99.1 C472.8,99 472.9,99 473,99 Z M473,100.6 C473.1,100.6 473.2,100.6 473.3,100.5 C473.4,100.5 473.5,100.4 473.5,100.4 C473.6,100.3 473.6,100.3 473.6,100.2 C473.6,100.1 473.7,100 473.7,99.9 C473.7,99.8 473.7,99.7 473.6,99.6 C473.6,99.5 473.5,99.4 473.5,99.4 C473.4,99.3 473.4,99.3 473.3,99.3 C473.2,99.3 473.1,99.2 473,99.2 C472.9,99.2 472.8,99.2 472.7,99.3 C472.6,99.3 472.5,99.4 472.5,99.4 C472.4,99.5 472.4,99.5 472.4,99.6 C472.4,99.7 472.3,99.8 472.3,99.9 C472.3,100 472.3,100.1 472.4,100.2 C472.4,100.3 472.5,100.4 472.5,100.4 C472.6,100.5 472.6,100.5 472.7,100.5 C472.8,100.5 472.9,100.6 473,100.6 Z M473.1,99.5 C473.2,99.5 473.3,99.5 473.3,99.6 C473.4,99.6 473.4,99.7 473.4,99.8 C473.4,99.9 473.4,99.9 473.3,100 C473.3,100 473.2,100.1 473.1,100.1 L473.4,100.4 L473.2,100.4 L473,100 L472.9,100 L472.9,100.3 L472.7,100.3 L472.7,99.5 L473.1,99.5 Z M472.9,99.6 L472.9,99.8 L473.1,99.8 L473.2,99.8 C473.2,99.8 473.2,99.8 473.2,99.7 L473.2,99.6 L473.1,99.6 L472.9,99.6 Z M458.2,93.3 C458.2,90.9 459.8,88.9 462.4,88.9 C464.9,88.9 466.6,90.8 466.6,93.3 C466.6,95.8 464.9,97.7 462.4,97.7 C459.8,97.8 458.2,95.8 458.2,93.3 Z M356.2,93.3 L356.2,86.4 L353.2,86.4 L353.2,88.1 C352.2,86.9 350.8,86.1 348.8,86.1 C344.9,86.1 341.9,89.2 341.9,93.4 C341.9,97.6 345,100.7 348.8,100.7 C350.8,100.7 352.2,99.9 353.2,98.7 L353.2,100.4 L356.2,100.4 L356.2,93.3 Z M345,93.3 C345,90.9 346.6,88.9 349.2,88.9 C351.7,88.9 353.4,90.8 353.4,93.3 C353.4,95.8 351.7,97.7 349.2,97.7 C346.6,97.8 345,95.8 345,93.3 Z" id="XMLID_3_" fill="#000000"></path>
            <g id="Group" transform="translate(111.000000, 84.000000)" fill="#000000">
                <g transform="translate(0.000000, 4.000000)" id="Shape">
                    <path d="M9.6,4.9 C9.6,7.4 7.8,9.3 5.4,9.3 C4,9.3 3,8.7 2.3,7.9 L2.3,12.7 L1,12.7 L1,0.7 L2.3,0.7 L2.3,1.9 C3,1 4,0.5 5.4,0.5 C7.8,0.6 9.6,2.4 9.6,4.9 Z M2.3,4.9 C2.3,6.7 3.5,8 5.3,8 C7.1,8 8.3,6.6 8.3,4.9 C8.3,3.2 7.1,1.8 5.3,1.8 C3.5,1.8 2.3,3.2 2.3,4.9 Z"></path>
                    <path d="M2.7,13 L0.8,13 L0.8,0.4 L2.7,0.4 L2.7,1.2 C3.4,0.6 4.4,0.2 5.5,0.2 C8.1,0.2 10,2.2 10,4.9 C10,7.6 8.1,9.6 5.5,9.6 C4.4,9.6 3.5,9.3 2.7,8.6 L2.7,13 Z M1.3,12.4 L2,12.4 L2,7 L2.5,7.7 C3.2,8.5 4.1,9 5.3,9 C7.5,9 9.2,7.2 9.2,4.9 C9.2,2.6 7.5,0.8 5.3,0.8 C4.1,0.8 3.1,1.2 2.5,2.1 L2,2.8 L2,1 L1.3,1 L1.3,12.4 Z M5.3,8.4 C3.4,8.4 2,7 2,5 C2,3 3.4,1.6 5.3,1.6 C7.2,1.6 8.6,3.1 8.6,5 C8.6,6.9 7.2,8.4 5.3,8.4 Z M5.3,2.1 C3.7,2.1 2.6,3.3 2.6,4.9 C2.6,6.5 3.7,7.7 5.3,7.7 C6.9,7.7 8,6.5 8,4.9 C8,3.3 6.8,2.1 5.3,2.1 Z"></path>
                </g>
                <g transform="translate(11.000000, 4.000000)" id="Shape">
                    <path d="M6.5,0.9 L6.2,2.2 C5.8,2 5.2,1.9 4.7,1.9 C3.4,1.9 2.4,2.9 2.4,4.5 L2.4,9.2 L1.1,9.2 L1.1,0.8 L2.4,0.8 L2.4,2 C3,1.1 3.9,0.6 4.9,0.6 C5.5,0.6 6,0.7 6.5,0.9 Z"></path>
                    <path d="M2.7,9.5 L0.8,9.5 L0.8,0.5 L2.7,0.5 L2.7,1.2 C3.3,0.7 4.1,0.4 4.9,0.4 C5.6,0.4 6.1,0.5 6.6,0.7 L6.8,0.8 L6.3,2.7 L6,2.5 C5.7,2.3 5.2,2.2 4.7,2.2 C3.5,2.2 2.7,3.1 2.7,4.5 L2.7,9.5 Z M1.4,8.9 L2.1,8.9 L2.1,4.5 C2.1,2.8 3.2,1.6 4.7,1.6 C5.1,1.6 5.6,1.7 5.9,1.8 L6.1,1.1 C5.8,1 5.4,0.9 4.9,0.9 C4,0.9 3.2,1.3 2.7,2.1 L2.1,2.9 L2.1,1 L1.4,1 L1.4,8.9 Z"></path>
                </g>
                <g transform="translate(18.000000, 4.000000)" id="Shape">
                    <path d="M8.6,4.9 C8.6,5.1 8.6,5.2 8.6,5.4 L1.9,5.4 C2.1,7.2 3.4,8.1 4.9,8.1 C5.9,8.1 6.8,7.7 7.6,7 L8.3,7.9 C7.3,8.9 6.1,9.2 4.8,9.2 C2.3,9.2 0.5,7.4 0.5,4.8 C0.5,2.2 2.3,0.4 4.7,0.4 C7,0.6 8.6,2.4 8.6,4.9 Z M1.9,4.3 L7.3,4.3 C7.1,2.7 6.1,1.7 4.7,1.7 C3.1,1.8 2.1,2.8 1.9,4.3 Z"></path>
                    <path d="M4.8,9.6 C2.1,9.6 0.2,7.7 0.2,4.9 C0.2,2.2 2.1,0.2 4.7,0.2 C7.2,0.2 8.9,2.2 9,4.9 C9,5.1 9,5.3 9,5.4 L9,5.7 L2.3,5.7 C2.6,7 3.5,7.8 4.9,7.8 C5.8,7.8 6.7,7.5 7.4,6.8 L7.6,6.6 L8.7,8 L8.5,8.2 C7.4,9.2 6.3,9.6 4.8,9.6 Z M4.7,0.9 C2.5,0.9 0.8,2.6 0.8,5 C0.8,7.4 2.4,9.1 4.8,9.1 C6,9.1 7,8.8 7.8,8.1 L7.5,7.7 C6.7,8.3 5.8,8.6 4.9,8.6 C3.1,8.6 1.8,7.4 1.6,5.6 L1.6,5.3 L8.4,5.3 C8.4,5.2 8.4,5.2 8.4,5.1 C8.3,2.5 6.8,0.9 4.7,0.9 Z M7.6,4.6 L1.5,4.6 L1.5,4.3 C1.7,2.5 2.9,1.5 4.6,1.5 C6.2,1.5 7.3,2.6 7.5,4.4 L7.6,4.6 Z M2.2,4 L6.9,4 C6.7,2.8 5.8,2 4.6,2 C3.4,2.1 2.5,2.8 2.2,4 Z"></path>
                </g>
                <g transform="translate(28.000000, 3.000000)" id="Shape">
                    <path d="M7.2,3.2 C6.5,2.7 5.5,2.4 4.4,2.4 C3.1,2.4 2.2,2.9 2.2,3.8 C2.2,4.6 2.9,5 4.3,5.1 L5.1,5.2 C6.8,5.4 8,6.1 8,7.5 C8,9.4 6.3,10.2 4.3,10.2 C2.9,10.2 1.5,9.8 0.6,9.1 L1.3,8.1 C2,8.6 3.2,9.1 4.4,9.1 C5.8,9.1 6.8,8.6 6.8,7.6 C6.8,6.8 6,6.5 4.6,6.3 L3.8,6.2 C2.1,6 1,5.3 1,3.8 C1,2.1 2.6,1.1 4.6,1.1 C6.1,1.1 7.1,1.5 8,2.1 L7.2,3.2 Z"></path>
                    <path d="M4.3,10.6 C2.9,10.6 1.3,10.1 0.4,9.4 L0.2,9.2 L1.2,7.7 L1.5,7.9 C2.1,8.4 3.3,8.8 4.4,8.8 C5.4,8.8 6.5,8.5 6.5,7.6 C6.5,7.3 6.3,6.8 4.6,6.6 L3.8,6.5 C1.8,6.3 0.7,5.3 0.7,3.8 C0.7,2 2.3,0.8 4.6,0.8 C5.9,0.8 7.1,1.1 8.2,1.8 L8.5,2 L7.6,3.5 L7.3,3.3 C6.8,3 5.9,2.5 4.6,2.5 C3.7,2.5 2.7,2.8 2.7,3.6 C2.7,4 2.9,4.4 4.6,4.6 L5.4,4.7 C7.4,4.9 8.6,5.9 8.6,7.3 C8.3,9.4 6.7,10.6 4.3,10.6 Z M0.9,9.1 C1.8,9.6 3.1,10 4.2,10 C5.9,10 7.6,9.4 7.6,7.6 C7.6,6.2 6.2,5.7 5,5.6 L4.2,5.5 C3.2,5.4 1.8,5.1 1.8,3.9 C1.8,2.9 2.8,2.2 4.3,2.2 C5.5,2.2 6.5,2.6 7,2.9 L7.3,2.4 C6.4,1.9 5.4,1.6 4.3,1.6 C2.7,1.6 1,2.3 1,4 C1,5.5 2.4,5.9 3.6,6.1 L4.4,6.2 C5.5,6.3 6.9,6.6 6.9,7.8 C6.9,8.9 5.9,9.6 4.2,9.6 C3.1,9.6 1.9,9.2 1.2,8.8 L0.9,9.1 Z"></path>
                </g>
                <g transform="translate(37.000000, 4.000000)" id="Shape">
                    <path d="M9,4.9 C9,5.1 9,5.2 9,5.4 L2.3,5.4 C2.5,7.2 3.8,8.1 5.3,8.1 C6.3,8.1 7.2,7.7 8,7 L8.7,7.9 C7.7,8.9 6.5,9.2 5.2,9.2 C2.7,9.2 0.9,7.4 0.9,4.8 C0.9,2.2 2.7,0.4 5.1,0.4 C7.4,0.6 9,2.4 9,4.9 Z M2.3,4.3 L7.7,4.3 C7.5,2.7 6.5,1.7 5.1,1.7 C3.5,1.8 2.5,2.8 2.3,4.3 Z"></path>
                    <path d="M5.2,9.6 C2.5,9.6 0.6,7.7 0.6,4.9 C0.6,2.2 2.5,0.2 5.1,0.2 C7.6,0.2 9.3,2.2 9.4,4.9 C9.4,5.1 9.4,5.3 9.4,5.4 L9.4,5.7 L2.7,5.7 C3,7 3.9,7.8 5.3,7.8 C6.2,7.8 7.1,7.5 7.8,6.8 L8,6.6 L9.1,8 L8.9,8.2 C7.8,9.2 6.7,9.6 5.2,9.6 Z M5.1,0.9 C2.9,0.9 1.2,2.6 1.2,5 C1.2,7.4 2.8,9.1 5.2,9.1 C6.4,9.1 7.4,8.8 8.2,8.1 L7.9,7.7 C7.1,8.3 6.2,8.6 5.3,8.6 C3.5,8.6 2.2,7.4 2,5.6 L2,5.3 L8.8,5.3 C8.8,5.2 8.8,5.2 8.8,5.1 C8.7,2.5 7.2,0.9 5.1,0.9 Z M8,4.6 L1.9,4.6 L1.9,4.3 C2.1,2.5 3.3,1.5 5,1.5 C6.6,1.5 7.7,2.6 7.9,4.4 L8,4.6 Z M2.6,4 L7.3,4 C7.1,2.8 6.2,2 5,2 C3.8,2.1 2.9,2.8 2.6,4 Z"></path>
                </g>
                <g transform="translate(48.000000, 4.000000)" id="Shape">
                    <path d="M8.2,3.9 L8.2,9.1 L6.9,9.1 L6.9,4.3 C6.9,2.7 6,1.8 4.5,1.8 C3.1,1.8 1.9,2.8 1.9,4.4 L1.9,9.1 L0.6,9.1 L0.6,0.7 L1.9,0.7 L1.9,1.9 C2.6,0.9 3.7,0.5 4.7,0.5 C6.7,0.6 8.2,1.9 8.2,3.9 Z"></path>
                    <path d="M8.5,9.5 L6.6,9.5 L6.6,4.4 C6.6,3 5.8,2.2 4.5,2.2 C3.2,2.2 2.2,3.1 2.2,4.5 L2.2,9.6 L0.3,9.6 L0.3,0.6 L2.2,0.6 L2.2,1.3 C3.1,0.6 4.1,0.4 4.7,0.4 C7,0.4 8.5,1.9 8.5,4.1 L8.5,9.5 Z M7.2,8.9 L7.9,8.9 L7.9,4 C7.9,2.2 6.6,0.9 4.7,0.9 C4,0.9 2.8,1.1 2.1,2.1 L1.5,2.9 L1.5,1 L0.8,1 L0.8,8.8 L1.5,8.8 L1.5,4.4 C1.5,2.7 2.7,1.5 4.4,1.5 C6.1,1.5 7.1,2.6 7.1,4.3 L7.1,8.9 L7.2,8.9 Z"></path>
                </g>
                <g transform="translate(57.000000, 1.000000)" id="Shape">
                    <path d="M7.8,4.9 L4.2,4.9 L4.2,9.2 C4.2,10.5 4.9,11.1 5.9,11.1 C6.5,11.1 7.2,10.9 7.7,10.5 L8.3,11.5 C7.7,12 6.8,12.3 5.8,12.3 C4,12.3 2.9,11.3 2.9,9.2 L2.9,4.9 L1,4.9 L1,3.7 L2.8,3.7 L2.8,1 L4.1,1 L4.1,3.7 L7.7,3.7 L7.8,4.9 Z"></path>
                    <path d="M5.7,12.6 C3.6,12.6 2.5,11.4 2.5,9.2 L2.5,5.2 L0.7,5.2 L0.7,3.4 L2.5,3.4 L2.5,0.7 L4.4,0.7 L4.4,3.4 L8,3.4 L8,5.2 L4.4,5.2 L4.4,9.1 C4.4,10.1 4.9,10.7 5.8,10.7 C6.3,10.7 6.9,10.5 7.4,10.2 L7.7,10 L8.6,11.5 L8.4,11.7 C7.6,12.3 6.7,12.6 5.7,12.6 Z M1.3,4.6 L3.1,4.6 L3.1,9.2 C3.1,11.1 4,12 5.7,12 C6.5,12 7.2,11.8 7.8,11.4 L7.5,10.9 C7,11.2 6.4,11.4 5.8,11.4 C4.6,11.4 3.8,10.6 3.8,9.2 L3.8,4.6 L7.4,4.6 L7.4,4 L3.8,4 L3.8,1.3 L3.1,1.3 L3.1,4 L1.3,4 L1.3,4.6 Z"></path>
                </g>
                <g transform="translate(66.000000, 4.000000)" id="Shape">
                    <path d="M8.6,4.9 C8.6,5.1 8.6,5.2 8.6,5.4 L1.9,5.4 C2.1,7.2 3.4,8.1 4.9,8.1 C5.9,8.1 6.8,7.7 7.6,7 L8.3,7.9 C7.3,8.9 6.1,9.2 4.8,9.2 C2.3,9.2 0.5,7.4 0.5,4.8 C0.5,2.2 2.3,0.4 4.7,0.4 C6.9,0.6 8.6,2.4 8.6,4.9 Z M1.8,4.3 L7.2,4.3 C7,2.7 6,1.7 4.6,1.7 C3.1,1.8 2.1,2.8 1.8,4.3 Z"></path>
                    <path d="M4.7,9.6 C2,9.6 0.1,7.7 0.1,4.9 C0.1,2.2 2,0.2 4.6,0.2 C7.1,0.2 8.8,2.2 8.9,4.9 C8.9,5.1 8.9,5.3 8.9,5.4 L8.9,5.7 L2.2,5.7 C2.5,7 3.4,7.8 4.8,7.8 C5.7,7.8 6.6,7.5 7.3,6.8 L7.5,6.6 L8.6,8 L8.4,8.2 C7.4,9.2 6.2,9.6 4.7,9.6 Z M4.6,0.9 C2.4,0.9 0.7,2.6 0.7,5 C0.7,7.4 2.3,9.1 4.7,9.1 C5.9,9.1 6.9,8.8 7.7,8.1 L7.4,7.7 C6.6,8.3 5.7,8.6 4.8,8.6 C3,8.6 1.7,7.4 1.5,5.6 L1.5,5.3 L8.3,5.3 C8.3,5.2 8.3,5.2 8.3,5.1 C8.3,2.5 6.8,0.9 4.6,0.9 Z M7.6,4.6 L1.5,4.6 L1.5,4.3 C1.7,2.5 2.9,1.5 4.6,1.5 C6.2,1.5 7.3,2.6 7.5,4.4 L7.6,4.6 Z M2.2,4 L6.9,4 C6.7,2.8 5.8,2 4.6,2 C3.4,2.1 2.5,2.8 2.2,4 Z"></path>
                </g>
                <g transform="translate(76.000000, 0.000000)" id="Shape">
                    <path d="M7.7,6 L7.7,0.4 L9,0.4 L9,13.2 L7.7,13.2 L7.7,11.9 C7,12.8 6,13.3 4.6,13.3 C2.2,13.3 0.4,11.5 0.4,8.9 C0.4,6.4 2.2,4.5 4.6,4.5 C6,4.6 7.1,5.1 7.7,6 Z M1.8,8.9 C1.8,10.6 3,12 4.8,12 C6.6,12 7.8,10.6 7.8,8.9 C7.8,7.1 6.6,5.8 4.8,5.8 C3,5.8 1.8,7.2 1.8,8.9 Z"></path>
                    <path d="M4.6,13.6 C2,13.6 0.1,11.6 0.1,8.9 C0.1,6.2 2,4.2 4.6,4.2 C5.7,4.2 6.6,4.5 7.4,5.2 L7.4,0 L9.3,0 L9.3,13.4 L7.4,13.4 L7.4,12.6 C6.7,13.3 5.7,13.6 4.6,13.6 Z M4.6,4.9 C2.4,4.9 0.7,6.7 0.7,9 C0.7,11.3 2.4,13.1 4.6,13.1 C5.8,13.1 6.8,12.6 7.4,11.8 L7.9,11.1 L7.9,12.9 L8.6,12.9 L8.6,0.7 L8,0.7 L8,6.9 L7.5,6.2 C6.8,5.3 5.8,4.9 4.6,4.9 Z M4.8,12.4 C2.9,12.4 1.5,10.9 1.5,9 C1.5,7 2.9,5.6 4.8,5.6 C6.7,5.6 8.1,7.1 8.1,9 C8.1,10.9 6.7,12.4 4.8,12.4 Z M4.8,6.1 C3.2,6.1 2.1,7.3 2.1,8.9 C2.1,10.5 3.2,11.7 4.8,11.7 C6.4,11.7 7.5,10.5 7.5,8.9 C7.5,7.3 6.4,6.1 4.8,6.1 Z"></path>
                </g>
                <g transform="translate(92.000000, 0.000000)" id="Shape">
                    <path d="M9.5,8.9 C9.5,11.4 7.7,13.3 5.3,13.3 C3.9,13.3 2.9,12.7 2.2,11.9 L2.2,13.1 L0.9,13.1 L0.9,0.3 L2.2,0.3 L2.2,5.9 C2.9,5 3.9,4.5 5.3,4.5 C7.7,4.6 9.5,6.4 9.5,8.9 Z M2.1,8.9 C2.1,10.7 3.3,12 5.1,12 C6.9,12 8.1,10.6 8.1,8.9 C8.1,7.2 6.9,5.8 5.1,5.8 C3.4,5.8 2.1,7.2 2.1,8.9 Z"></path>
                    <path d="M5.3,13.6 C4.2,13.6 3.3,13.3 2.5,12.6 L2.5,13.4 L0.6,13.4 L0.6,0 L2.5,0 L2.5,5.2 C3.2,4.6 4.2,4.2 5.3,4.2 C7.9,4.2 9.8,6.2 9.8,8.9 C9.8,11.6 7.9,13.6 5.3,13.6 Z M1.9,11 L2.4,11.7 C3.1,12.5 4,13 5.2,13 C7.4,13 9.1,11.2 9.1,8.9 C9.1,6.6 7.4,4.8 5.2,4.8 C4,4.8 3,5.2 2.4,6.1 L1.9,6.8 L1.9,0.6 L1.2,0.6 L1.2,12.8 L1.9,12.8 L1.9,11 Z M5.1,12.4 C3.2,12.4 1.8,11 1.8,9 C1.8,7 3.2,5.6 5.1,5.6 C7,5.6 8.4,7.1 8.4,9 C8.5,10.9 7.1,12.4 5.1,12.4 Z M5.1,6.1 C3.5,6.1 2.4,7.3 2.4,8.9 C2.4,10.5 3.5,11.7 5.1,11.7 C6.7,11.7 7.8,10.5 7.8,8.9 C7.8,7.3 6.7,6.1 5.1,6.1 Z"></path>
                </g>
                <g transform="translate(101.000000, 4.000000)" id="Shape">
                    <polygon points="3.5 12.8 2 12.8 5.1 7.4 1.2 0.8 2.7 0.8 5.8 6.1 8.8 0.8 10.3 0.8"></polygon>
                    <path d="M3.7,13.1 L1.5,13.1 L4.8,7.4 L0.8,0.5 L3,0.5 L6,5.5 L8.8,0.5 L11,0.5 L3.7,13.1 Z M2.6,12.5 L3.4,12.5 L9.9,1.1 L9.1,1.1 L6,6.7 L2.7,1.1 L1.9,1.1 L5.6,7.4 L2.6,12.5 Z"></path>
                </g>
            </g>
            <g id="Group" fill="#000000">
                <g transform="translate(516.000000, 2.000000)" id="Shape">
                    <path d="M33.6,25.8 C31.6,24.4 27.3,22.8 20.8,21.2 C15.7,20 12.1,18.7 9.8,17.1 C7.1,15.3 5.7,12.9 5.7,10.1 C5.7,7.1 7,4.9 9.5,3.3 C11.5,2 13.9,1.4 16.7,1.4 C20.7,1.4 24.3,3 27.4,6.1 C30.5,9.3 32.5,13.2 33.2,17.8 L33.8,18 L33.8,0.7 C33.4,1 31.7,2.5 28.6,5.3 C26.1,3.6 24.6,2.6 23.9,2.3 C21.7,1.3 18.9,0.8 15.5,0.8 C11.5,0.8 8,2.2 5.1,5.1 C2.2,8 0.7,11.4 0.7,15.6 C0.7,20.2 2.3,23.7 5.5,26.1 C7.7,27.7 11.6,29.3 17.1,30.8 C22.7,32.3 26.6,33.8 28.8,35.2 C32,37.2 33.7,40 33.7,43.5 C33.7,46.4 32.5,48.8 30.1,50.7 C28,52.4 25.7,53.2 23.2,53.2 C17.8,53.2 13.7,51.7 10.9,48.6 C9.5,47.1 8.2,45.1 7.1,42.8 C5.8,40 4.7,36.3 3.7,31.8 L3.1,31.9 L3.1,54 C3.3,53.8 4.9,51.7 8.1,47.4 C9.9,49.7 12.1,51.4 14.5,52.4 C17,53.4 19.8,53.9 22.9,53.9 C27,53.9 30.5,52.7 33.4,50.2 C36.8,47.3 38.5,43.3 38.5,38 C38.5,32.2 36.9,28.2 33.6,25.8 Z"></path>
                    <path d="M2.9,54 L2.9,31.4 L3.8,31.3 L3.8,31.4 C4.8,36 6,39.7 7.2,42.4 C8.3,44.7 9.5,46.7 10.9,48.2 C13.7,51.2 17.8,52.7 23.1,52.7 C25.6,52.7 27.8,51.9 29.9,50.3 C32.3,48.4 33.4,46 33.4,43.2 C33.4,39.8 31.8,37 28.6,35 C26.4,33.6 22.5,32.2 17,30.7 C11.4,29.2 7.5,27.6 5.3,26 C2.1,23.6 0.5,20 0.5,15.4 C0.5,11.3 2,7.7 4.9,4.8 C7.8,1.9 11.4,0.5 15.4,0.5 C18.8,0.5 21.7,1 23.9,2 C24.6,2.3 26.1,3.3 28.6,5 C31.5,2.4 33.3,0.9 33.7,0.5 L34,0.3 L34,18.3 L33,18 L33,17.9 C32.3,13.3 30.3,9.4 27.2,6.2 C24.1,3.1 20.5,1.5 16.6,1.5 C13.9,1.5 11.5,2.1 9.5,3.4 C7.1,4.9 5.8,7.2 5.8,10.1 C5.8,12.9 7.1,15.2 9.8,17 C12.1,18.5 15.7,19.9 20.8,21 C27.3,22.6 31.7,24.1 33.7,25.6 C37,28 38.7,32.1 38.7,37.7 C38.7,43 37,47.1 33.5,50 C30.6,52.5 27,53.7 22.9,53.7 C19.8,53.7 16.9,53.2 14.4,52.2 C12,51.2 9.8,49.5 8,47.3 C3.8,52.8 3.2,53.6 3.1,53.7 L2.9,54 Z M8,46.9 L8.1,47.1 C9.9,49.4 12,51.1 14.5,52.1 C17,53.1 19.8,53.6 22.9,53.6 C26.9,53.6 30.4,52.4 33.3,50 C36.7,47.2 38.4,43.1 38.4,37.9 C38.4,32.4 36.8,28.4 33.5,26 C31.5,24.6 27.2,23.1 20.7,21.5 C15.7,20.3 11.9,19 9.6,17.4 C6.9,15.6 5.5,13.2 5.5,10.2 C5.5,7.2 6.8,4.8 9.3,3.3 C11.3,2 13.8,1.4 16.6,1.4 C20.6,1.4 24.3,3 27.4,6.2 C30.5,9.3 32.5,13.3 33.3,17.9 L33.7,18 L33.7,1.1 C33,1.7 31.3,3.2 28.7,5.4 L28.6,5.5 L28.5,5.4 C26,3.7 24.5,2.7 23.8,2.4 C21.6,1.4 18.8,0.9 15.4,0.9 C11.4,0.9 8,2.3 5.1,5.1 C2.2,7.9 0.8,11.4 0.8,15.4 C0.8,19.9 2.4,23.4 5.5,25.8 C7.7,27.4 11.5,28.9 17.1,30.4 C22.6,31.9 26.6,33.4 28.8,34.8 C32.1,36.8 33.7,39.7 33.7,43.2 C33.7,46.1 32.5,48.6 30,50.5 C27.9,52.2 25.6,53 23,53 C17.6,53 13.4,51.4 10.6,48.4 C9.2,46.8 7.9,44.9 6.8,42.5 C5.5,39.8 4.4,36.1 3.4,31.6 L3,31.6 L3,53.1 C3.9,52 6.7,48.2 7.8,46.9 L8,46.9 Z"></path>
                </g>
                <g transform="translate(295.000000, 3.000000)" id="Shape">
                    <path d="M31.7,51.5 C29.6,51.5 27.6,51.5 25.7,51.4 C23.8,51.3 22.5,51.2 21.9,51 C21.3,50.8 20.9,50.4 20.7,50 C20.5,49.6 20.4,48.5 20.4,46.9 L20.4,25.3 L29.8,25.3 C32.3,25.3 34.2,25.8 35.6,26.8 C36.9,27.8 37.6,29.7 37.6,32.5 C37.5,33.1 37.5,33.7 37.5,34.2 L37.5,35.9 C37.5,42.2 38,46.5 39,48.8 C40.2,51.6 41.5,52.3 45.6,52.3 L79.1,52.3 L79.1,51.5 C74.3,51.5 71.1,51.2 69.6,50.6 C69.1,50.4 68.7,50.2 68.6,50 C68.4,49.6 68.3,48.6 68.3,47 L68.3,5.6 C68.3,3.8 68.5,2.8 68.9,2.5 L69.7,2.2 C70.4,1.9 71.6,1.7 73.3,1.6 C75,1.4 77,1.4 79.3,1.4 L79.3,0.7 L47.6,0.7 L47.6,1.4 C52.4,1.4 55.6,1.7 57.1,2.3 C57.7,2.5 58,2.7 58.1,2.9 C58.3,3.3 58.4,4.2 58.4,5.7 L58.4,47 C58.4,48.5 58.3,49.4 58.1,49.8 C57.4,51.3 55.2,51.6 53.5,51.6 C48.8,51.6 47.7,50.5 47.4,49.8 C47.1,49.1 47,48 47,46.4 C47,41.1 46.5,37.1 45.6,34.5 C43.8,29.3 40,26.1 34.3,24.9 C39.9,24.3 44,22.7 46.6,20.3 C48.8,18.3 49.8,15.8 49.8,12.6 C49.8,10 48.4,7.4 45.7,4.9 C42.3,1.8 37.7,0.2 31.9,0.2 L1,0.2 L1,0.9 C6.3,0.9 7.6,1.2 9.1,1.8 C9.7,2 10,2.2 10.1,2.4 C10.3,2.8 10.4,3.7 10.4,5.2 L10.4,46.7 C10.4,48.3 10.3,49.2 10.1,49.6 C9.9,50 9.5,50.3 9,50.5 C7.9,50.9 6.6,51.1 1,51.1 L1,51.9 L31.6,51.9 L31.6,51.5 L31.7,51.5 Z M20.4,5.5 C20.4,3.9 20.5,2.9 20.6,2.4 C20.7,1.9 21.1,1.6 21.6,1.4 C22.1,1.2 23,1.2 24.1,1.2 L27.9,1.2 C32.2,1.2 35.2,2.1 37.1,4 C38.9,5.9 39.9,9.1 39.9,13.6 C39.9,17.7 38.8,20.6 36.5,22.3 C34.6,23.8 31.7,24.5 27.9,24.5 L20.4,24.5 L20.4,5.5 Z"></path>
                    <path d="M79.2,52.4 L45.6,52.4 C41.4,52.4 40.1,51.7 38.9,48.8 C37.9,46.5 37.4,42.2 37.4,35.9 L37.4,34.2 C37.4,33.6 37.4,33.1 37.5,32.5 C37.5,29.7 36.8,27.8 35.6,26.9 C34.3,25.9 32.4,25.4 29.9,25.4 L20.6,25.4 L20.6,46.9 C20.6,48.5 20.7,49.5 20.9,49.9 C21.1,50.3 21.5,50.6 22,50.8 C22.6,51 23.9,51.2 25.7,51.2 C27.6,51.3 29.6,51.3 31.7,51.3 L31.9,51.3 L31.9,52.3 L1,52.3 L1,51.2 L1.2,51.2 C6.6,51.2 8,51 9.2,50.6 C9.7,50.4 10,50.1 10.2,49.7 C10.3,49.4 10.5,48.7 10.5,46.8 L10.5,5.4 C10.5,3.6 10.3,2.9 10.2,2.7 C10.1,2.6 9.9,2.4 9.2,2.1 C7.6,1.5 6.3,1.2 1.1,1.2 L0.9,1.2 L0.9,0.2 L31.9,0.2 C37.7,0.2 42.4,1.8 45.8,4.9 C48.6,7.4 50,10 50,12.7 C50,15.8 48.9,18.5 46.7,20.5 C44.2,22.8 40.4,24.3 35.2,25 C40.5,26.3 44,29.5 45.8,34.5 C46.7,37.1 47.2,41.1 47.2,46.4 C47.2,47.9 47.3,49 47.6,49.7 C47.8,50.3 48.9,51.4 53.6,51.4 C56.1,51.4 57.5,50.8 58.1,49.7 C58.2,49.5 58.4,48.9 58.4,47 L58.4,5.6 C58.4,3.8 58.2,3.1 58.1,2.9 C58,2.8 57.8,2.6 57.1,2.3 C55.6,1.7 52.4,1.4 47.6,1.4 L47.4,1.4 L47.4,0.4 L79.4,0.4 L79.4,1.4 L79.2,1.4 C76.9,1.4 74.9,1.5 73.2,1.6 C71.5,1.8 70.4,2 69.7,2.2 L68.9,2.5 C68.7,2.7 68.4,3.4 68.4,5.5 L68.4,47 C68.4,48.5 68.5,49.5 68.7,49.9 C68.8,50 69,50.2 69.6,50.5 C71.1,51.1 74.3,51.4 79.1,51.4 L79.3,51.4 L79.2,52.4 Z M20.3,25.1 L29.9,25.1 C32.4,25.1 34.4,25.6 35.8,26.6 C37.2,27.6 37.9,29.6 37.9,32.5 C37.8,33.1 37.8,33.6 37.8,34.2 L37.8,35.9 C37.8,42.2 38.3,46.5 39.2,48.7 C40.4,51.5 41.6,52.1 45.7,52.1 L79,52.1 L79,51.6 C74.3,51.6 71.1,51.3 69.6,50.7 C69,50.5 68.7,50.2 68.6,50 C68.4,49.5 68.3,48.6 68.3,47 L68.3,5.6 C68.3,3.7 68.5,2.7 68.9,2.3 L69.7,2 C70.4,1.7 71.6,1.5 73.3,1.3 C75,1.1 76.9,1.1 79.1,1.1 L79.1,0.7 L47.7,0.7 L47.7,1.1 C52.4,1.1 55.6,1.4 57.1,2 C57.7,2.2 58.1,2.5 58.2,2.7 C58.4,3.1 58.5,4 58.5,5.6 L58.5,47 C58.5,48 58.4,49.3 58.2,49.8 C57.6,51.1 56,51.7 53.5,51.7 C48.9,51.7 47.6,50.7 47.2,49.8 C46.9,49.1 46.8,47.9 46.8,46.4 C46.8,41.1 46.3,37.2 45.4,34.6 C43.6,29.4 39.8,26.3 34.2,25.1 L33.2,24.9 L34.2,24.8 C39.7,24.2 43.8,22.6 46.4,20.2 C48.5,18.3 49.6,15.7 49.6,12.7 C49.6,10.1 48.2,7.6 45.5,5.2 C42.1,2.1 37.5,0.6 31.8,0.6 L1.2,0.6 L1.2,1 C6.3,1 7.6,1.3 9.2,1.9 C9.8,2.1 10.2,2.4 10.3,2.6 C10.5,3 10.6,3.9 10.6,5.5 L10.6,47 C10.6,48.6 10.5,49.6 10.3,50 C10.1,50.4 9.7,50.8 9.1,51 C7.9,51.5 6.5,51.7 1.2,51.7 L1.2,52.2 L31.5,52.2 L31.5,51.8 C29.4,51.8 27.5,51.8 25.7,51.7 C23.8,51.6 22.5,51.5 21.9,51.2 C21.3,50.9 20.8,50.6 20.6,50.1 C20.4,49.6 20.3,48.6 20.3,47 L20.3,25.1 Z M27.9,24.6 L20.3,24.6 L20.3,5.5 C20.3,3.9 20.4,2.9 20.5,2.3 C20.6,1.7 21,1.4 21.6,1.2 C22.1,1 23,1 24.1,1 L27.9,1 C32.2,1 35.3,2 37.2,3.8 C39.1,5.7 40,8.9 40,13.5 C40,17.6 38.8,20.6 36.6,22.4 C34.7,23.8 31.8,24.6 27.9,24.6 Z M20.6,24.3 L27.9,24.3 C31.7,24.3 34.6,23.6 36.5,22.1 C38.7,20.4 39.8,17.5 39.8,13.5 C39.8,9 38.9,5.8 37.1,4 C35.3,2.2 32.2,1.3 28,1.3 L24.2,1.3 C23.1,1.3 22.3,1.4 21.8,1.5 C21.3,1.6 21,1.9 20.9,2.4 C20.8,2.9 20.7,3.9 20.7,5.5 L20.6,24.3 Z"></path>
                </g>
                <g transform="translate(411.000000, 0.000000)" id="Shape">
                    <path d="M8.5,9.6 L9.9,12.4 C9.3,13.1 8.8,13.8 8.3,14.5 L5.3,13.9 L4.3,15.6 L6.4,17.9 C6,18.7 5.7,19.5 5.4,20.3 L2.3,20.5 L1.8,22.4 L4.4,24.1 C4.2,24.9 4.1,25.8 4.1,26.7 L4,26.7 L1.1,27.7 L1.1,29.6 L4.1,30.6 C4.2,31.5 4.3,32.3 4.4,33.1 L4.3,33.1 L1.7,34.8 L2.2,36.7 L5.3,36.9 C5.6,37.7 5.9,38.6 6.3,39.4 L4.2,41.7 L5.2,43.4 L8.3,42.8 C8.8,43.5 9.3,44.2 9.8,44.8 L9.8,44.9 L8.4,47.6 L9.8,49 L12.6,47.6 C13.3,48.2 13.9,48.7 14.7,49.2 L14.7,49.3 L14.1,52.2 L15.8,53.2 L18.1,51.1 C18.9,51.5 19.7,51.8 20.5,52.1 L20.7,55.2 L22.6,55.7 L24.3,53.1 C25.2,53.3 26,53.4 26.9,53.4 L27.9,56.3 L29.9,56.3 L30.9,53.3 C31.8,53.2 32.6,53.1 33.5,53 L35.2,55.6 L37.1,55.1 L37.3,52 C38.1,51.7 38.9,51.4 39.7,51 L39.8,51 L42.1,53.1 L43.8,52.1 L43.2,49 C43.9,48.5 44.5,48 45.2,47.5 L45.4,47.5 L48.1,48.9 L49.5,47.5 L48.1,44.7 C48.7,44 49.2,43.3 49.7,42.6 L49.8,42.6 L52.8,43.2 L53.8,41.5 L51.7,39.2 C52.1,38.4 52.4,37.6 52.7,36.8 L52.8,36.8 L53.4,36.8 L55.7,36.7 L56.2,34.8 L53.6,33.1 C53.8,32.2 53.9,31.4 53.9,30.5 L56.9,29.5 L56.9,27.6 L53.9,26.6 C53.8,25.7 53.7,24.9 53.6,24 L56.2,22.3 L55.7,20.4 L52.6,20.2 C52.3,19.4 52,18.5 51.6,17.8 L53.7,15.5 L52.7,13.8 L49.6,14.4 C49.1,13.7 48.6,13 48,12.4 L49.4,9.6 L48,8.2 L45.2,9.6 C44.5,9 43.8,8.5 43.1,8 L43.2,8 L43.8,5 L42.1,4 L39.8,6.1 C39,5.7 38.2,5.4 37.4,5.1 L37.4,4.6 L37.4,4.4 L37,2 L35.1,1.5 L33.4,4.1 C32.5,3.9 31.7,3.8 30.8,3.8 L29.8,0.9 L27.9,0.9 L26.9,3.9 C26,4 25.2,4.1 24.3,4.2 L22.6,1.6 L20.7,2.1 L20.5,5.2 C19.7,5.5 18.9,5.8 18.1,6.2 L15.8,4.1 L14.1,5.1 L14.7,8.2 C14,8.7 13.3,9.2 12.7,9.7 L12.6,9.7 L9.9,8.3 L8.5,9.6 Z M32.6,31.6 C33,31.1 33.3,30.5 33.5,29.9 L35.1,29.9 C35.6,31.7 37.3,33.1 39.3,33.1 C41.7,33.1 43.7,31.1 43.7,28.7 C43.7,26.3 41.7,24.3 39.3,24.3 C37.4,24.3 35.8,25.5 35.2,27.2 L33.5,27.2 C33.3,26.6 33,26 32.6,25.5 L32.6,10.1 C41.2,11.9 47.6,19.4 47.6,28.6 C47.6,37.7 41.1,45.3 32.6,47.1 L32.6,31.6 Z M37.3,28.5 C37.3,27.4 38.2,26.5 39.3,26.5 C40.4,26.5 41.3,27.4 41.3,28.5 C41.3,29.6 40.4,30.5 39.3,30.5 C38.2,30.5 37.3,29.6 37.3,28.5 Z M30.8,28.5 C30.8,29.6 29.9,30.5 28.8,30.5 C27.7,30.5 26.8,29.6 26.8,28.5 C26.8,27.4 27.7,26.5 28.8,26.5 C29.9,26.5 30.8,27.4 30.8,28.5 Z M28.6,7.5 C29.7,7.5 30.6,8.4 30.6,9.5 C30.6,10.6 29.7,11.5 28.6,11.5 C27.5,11.5 26.6,10.6 26.6,9.5 C26.7,8.4 27.6,7.5 28.6,7.5 Z M28.6,45.5 C29.7,45.5 30.6,46.4 30.6,47.5 C30.6,48.6 29.7,49.5 28.6,49.5 C27.5,49.5 26.6,48.6 26.6,47.5 C26.7,46.4 27.6,45.5 28.6,45.5 Z M25,10.1 L25,25.5 C24.6,26 24.3,26.6 24.1,27.2 L22.5,27.2 C21.9,25.5 20.3,24.3 18.4,24.3 C16,24.3 14,26.3 14,28.7 C14,31.1 16,33.1 18.4,33.1 C20.4,33.1 22.1,31.7 22.6,29.9 L24.1,29.9 C24.3,30.5 24.6,31.1 25,31.6 L25,47 C16.4,45.2 10,37.7 10,28.5 C10,19.4 16.4,11.8 25,10.1 Z M20.2,28.5 C20.2,29.6 19.3,30.5 18.2,30.5 C17.1,30.5 16.2,29.6 16.2,28.5 C16.2,27.4 17.1,26.5 18.2,26.5 C19.4,26.5 20.2,27.4 20.2,28.5 Z"></path>
                    <path d="M29.9,56.4 L27.7,56.4 L26.7,53.5 C25.9,53.4 25.1,53.3 24.3,53.2 L22.6,55.8 L20.5,55.2 L20.3,52.1 C19.5,51.8 18.8,51.5 18.1,51.2 L15.8,53.3 L13.9,52.2 L14.5,49.1 C13.8,48.6 13.2,48.1 12.6,47.6 L9.8,49 L8.3,47.5 L9.7,44.7 C9.1,44 8.7,43.4 8.3,42.8 L5.2,43.4 L4.1,41.5 L6.2,39.2 C5.9,38.5 5.5,37.7 5.3,36.9 L2.2,36.7 L1.6,34.6 L4.2,32.9 L4.2,32.8 C4.1,32 4,31.3 3.9,30.5 L0.9,29.5 L0.9,27.3 L3.8,26.3 L3.8,26.2 L3.9,26.2 C4,25.4 4.1,24.6 4.2,23.8 L1.6,22.1 L2.2,20 L5.3,19.8 C5.6,19 5.9,18.3 6.2,17.6 L4.1,15.3 L5.2,13.4 L8.3,14 C8.8,13.3 9.3,12.7 9.8,12.1 L8.4,9.3 L9.9,7.8 L12.7,9.2 C13.3,8.7 14,8.2 14.6,7.7 L14,4.6 L15.9,3.5 L18.2,5.6 C18.9,5.3 19.7,4.9 20.5,4.7 L20.7,1.6 L22.8,1 L24.5,3.6 L24.6,3.6 L24.6,3.7 C25.4,3.6 26.2,3.5 26.9,3.4 L27.9,0.4 L30.1,0.4 L31.1,3.3 C31.9,3.4 32.7,3.5 33.5,3.6 L35.2,1 L37.3,1.6 L37.5,4.7 C38.3,5 39,5.3 39.7,5.6 L42,3.5 L43.9,4.6 L43.3,7.7 C44,8.2 44.6,8.7 45.2,9.2 L48,7.8 L49.5,9.3 L48.1,12.1 C48.6,12.7 49.1,13.4 49.6,14 L52.7,13.4 L53.8,15.3 L51.7,17.6 C52,18.3 52.4,19.1 52.6,19.9 L55.7,20.1 L56.3,22.2 L53.7,23.9 C53.8,24.7 53.9,25.5 54,26.3 L57,27.3 L57,29.5 L54,30.5 C53.9,31.3 53.8,32.1 53.7,32.9 L56.3,34.6 L55.7,36.7 L53.4,36.8 L52.6,36.8 C52.3,37.6 52,38.3 51.7,39 L53.8,41.3 L52.7,43.2 L49.6,42.6 C49.1,43.3 48.6,43.9 48.1,44.5 L49.5,47.3 L48,48.8 L45.3,47.4 L45.2,47.4 C44.6,47.9 44,48.4 43.4,48.8 L44,51.9 L42.1,53 L39.8,50.9 C39.1,51.2 38.3,51.6 37.5,51.8 L37.3,54.9 L35.2,55.5 L33.5,52.9 C32.7,53 31.9,53.1 31.1,53.2 L29.9,56.4 Z M27.9,56.1 L29.6,56.1 L30.6,53.1 L30.7,53.1 C31.6,53 32.4,52.9 33.3,52.8 L33.5,52.8 L34.4,52.8 L33.5,53.1 L35,55.4 L36.7,55 L36.9,51.9 L37,51.9 C37.8,51.6 38.6,51.3 39.4,50.9 L39.5,50.9 L39.6,50.9 L41.9,52.9 L43.4,52 L42.8,48.9 L42.9,48.8 C43.5,48.4 44.2,47.9 44.8,47.3 L45.1,47.3 L47.7,48.6 L48.9,47.4 L47.5,44.6 L47.6,44.5 C48.2,43.9 48.7,43.2 49.2,42.4 L49.2,42.3 L49.4,42.3 L52.3,42.9 L53.2,41.4 L51.1,39.1 L51.1,39 C51.5,38.3 51.8,37.5 52.1,36.6 L52.1,36.5 L52.8,36.5 L55.2,36.4 L55.7,34.7 L53.1,33 L53.1,32.9 C53.3,32.1 53.4,31.2 53.4,30.3 L53.4,30.2 L53.6,30.2 L56.4,29.3 L56.4,27.6 L53.4,26.6 L53.4,26.5 C53.3,25.6 53.2,24.8 53.1,23.9 L53.1,23.7 L53.3,23.7 L55.7,22.1 L55.3,20.4 L52.2,20.2 L52.2,20.1 C51.9,19.3 51.6,18.4 51.2,17.7 L51.1,17.5 L51.3,17.5 L53.3,15.3 L52.4,13.8 L49.3,14.4 L49.2,14.3 C48.7,13.6 48.2,13 47.6,12.3 L47.6,12 L47.7,12.1 L49,9.6 L47.8,8.4 L45,9.8 L44.9,9.7 C44.2,9.1 43.5,8.6 42.8,8.1 L42.7,8.1 L42.7,7.8 L42.8,7.9 L43.4,5.2 L41.9,4.3 L39.6,6.4 L39.5,6.4 C38.8,6 38,5.7 37.1,5.4 L37,5.4 L37,5.1 L36.8,2.3 L35.1,1.9 L33.4,4.5 L33.3,4.5 C32.5,4.3 31.6,4.2 30.7,4.2 L30.6,4.2 L30.6,4.1 L29.7,1.3 L28,1.3 L27,4.3 L26.9,4.3 C26.1,4.4 25.2,4.5 24.3,4.6 L24.1,4.6 L24.1,4.4 L22.5,1.9 L20.8,2.3 L20.6,5.4 L20.5,5.4 C19.7,5.7 18.9,6 18.1,6.4 L18,6.4 L17.3,6.4 L17.8,6.2 L15.7,4.3 L14.2,5.2 L14.8,8.3 L14.7,8.4 C14,8.9 13.4,9.4 12.7,9.9 L12.5,9.9 L9.8,8.5 L8.6,9.7 L10,12.5 L9.9,12.6 C9.3,13.2 8.8,13.9 8.3,14.7 L8.3,14.8 L8,14.8 L8,14.7 L5.2,14.1 L4.3,15.6 L6.4,17.9 L6.4,18 C6,18.7 5.7,19.6 5.4,20.4 L5.4,20.5 L5.1,20.5 L2.3,20.7 L1.9,22.4 L4.5,24.1 L4.5,24.2 C4.3,25 4.2,25.9 4.2,26.8 L4.2,26.9 L4.1,26.9 L1.2,27.9 L1.2,29.6 L4.2,30.6 L4.2,30.7 C4.3,31.5 4.4,32.4 4.5,33.2 L4.5,33.4 L4.3,33.4 L1.8,35 L2.2,36.7 L5.3,36.9 L5.3,37 C5.6,37.8 5.9,38.7 6.3,39.4 L6.3,39.5 L6.3,40 L6.1,39.7 L4.2,41.8 L5.1,43.3 L8.2,42.7 L8.3,42.8 C8.7,43.4 9.2,44.1 9.8,44.8 L9.8,45 L8.4,47.7 L9.6,48.9 L12.4,47.5 L12.5,47.6 C13.1,48.2 13.8,48.7 14.5,49.2 L14.6,49.2 L14.6,49.4 L14,52.2 L15.5,53.1 L17.8,51 L17.9,51 C18.6,51.4 19.4,51.7 20.3,52 L20.4,52 L20.4,52.3 L20.6,55.1 L22.3,55.5 L24,52.9 L24.1,52.9 C24.9,53.1 25.8,53.2 26.7,53.2 L26.8,53.2 L26.8,53.3 L27.9,56.1 Z M28.6,49.6 C27.4,49.6 26.5,48.6 26.5,47.5 C26.5,46.3 27.5,45.4 28.6,45.4 C29.8,45.4 30.7,46.4 30.7,47.5 C30.8,48.6 29.8,49.6 28.6,49.6 Z M28.6,45.6 C27.6,45.6 26.8,46.4 26.8,47.4 C26.8,48.4 27.6,49.2 28.6,49.2 C29.6,49.2 30.4,48.4 30.4,47.4 C30.5,46.5 29.7,45.6 28.6,45.6 Z M32.4,47.2 L32.4,31.6 C32.8,31.1 33.1,30.5 33.3,29.9 L33.3,29.8 L35.1,29.8 L35.1,29.9 C35.6,31.7 37.3,33 39.2,33 C41.5,33 43.5,31.1 43.5,28.7 C43.5,26.4 41.6,24.4 39.2,24.4 C37.4,24.4 35.8,25.5 35.2,27.2 L35.2,27.3 L33.3,27.3 L33.3,27.2 C33.1,26.6 32.8,26 32.4,25.5 L32.4,9.9 L32.6,9.9 C41.4,11.7 47.8,19.5 47.8,28.5 C47.8,37.5 41.4,45.3 32.6,47.1 L32.4,47.2 Z M32.7,31.7 L32.7,46.8 C41.3,45 47.4,37.3 47.4,28.5 C47.4,19.7 41.2,12.1 32.7,10.2 L32.7,25.3 C33.1,25.8 33.4,26.3 33.6,26.9 L35.1,26.9 C35.8,25.1 37.5,24 39.4,24 C41.9,24 44,26 44,28.6 C44,31.1 42,33.2 39.4,33.2 C37.4,33.2 35.6,31.9 35,30 L33.6,30 C33.4,30.6 33.1,31.2 32.7,31.7 Z M25.2,47.2 L25,47.2 C16.2,45.4 9.8,37.6 9.8,28.6 C9.8,19.6 16.2,11.8 25,10 L25.2,10 L25.2,25.6 C24.8,26.1 24.5,26.7 24.3,27.3 L24.3,27.4 L22.5,27.4 L22.5,27.3 C21.9,25.6 20.3,24.5 18.5,24.5 C16.2,24.5 14.2,26.4 14.2,28.8 C14.2,31.1 16.1,33.1 18.5,33.1 C20.4,33.1 22.1,31.8 22.6,30 L22.6,29.9 L24.4,29.9 L24.4,30 C24.6,30.6 24.9,31.2 25.3,31.7 L25.3,47.2 L25.2,47.2 Z M24.9,10.2 C16.3,12 10.2,19.7 10.2,28.5 C10.2,37.3 16.4,44.9 24.9,46.8 L24.9,31.7 C24.5,31.2 24.2,30.7 24,30.1 L22.7,30.1 C22.1,32 20.3,33.3 18.3,33.3 C15.8,33.3 13.7,31.3 13.7,28.7 C13.7,26.2 15.7,24.1 18.3,24.1 C20.2,24.1 21.9,25.3 22.6,27 L24,27 C24.2,26.4 24.5,25.8 24.9,25.4 L24.9,10.2 Z M39.3,30.6 C38.1,30.6 37.2,29.6 37.2,28.5 C37.2,27.3 38.2,26.4 39.3,26.4 C40.5,26.4 41.4,27.4 41.4,28.5 C41.4,29.7 40.4,30.6 39.3,30.6 Z M39.3,26.7 C38.3,26.7 37.5,27.5 37.5,28.5 C37.5,29.5 38.3,30.3 39.3,30.3 C40.3,30.3 41.1,29.5 41.1,28.5 C41.1,27.5 40.3,26.7 39.3,26.7 Z M28.8,30.6 C27.6,30.6 26.7,29.6 26.7,28.5 C26.7,27.3 27.7,26.4 28.8,26.4 C30,26.4 30.9,27.4 30.9,28.5 C30.9,29.7 30,30.6 28.8,30.6 Z M28.8,26.7 C27.8,26.7 27,27.5 27,28.5 C27,29.5 27.8,30.3 28.8,30.3 C29.8,30.3 30.6,29.5 30.6,28.5 C30.6,27.5 29.8,26.7 28.8,26.7 Z M18.3,30.6 C17.1,30.6 16.2,29.6 16.2,28.5 C16.2,27.3 17.2,26.4 18.3,26.4 C19.5,26.4 20.4,27.4 20.4,28.5 C20.4,29.7 19.4,30.6 18.3,30.6 Z M18.3,26.7 C17.3,26.7 16.5,27.5 16.5,28.5 C16.5,29.5 17.3,30.3 18.3,30.3 C19.3,30.3 20.1,29.5 20.1,28.5 C20.1,27.5 19.3,26.7 18.3,26.7 Z M28.6,11.6 C27.4,11.6 26.5,10.6 26.5,9.5 C26.5,8.3 27.5,7.4 28.6,7.4 C29.8,7.4 30.7,8.4 30.7,9.5 C30.8,10.7 29.8,11.6 28.6,11.6 Z M28.6,7.7 C27.6,7.7 26.8,8.5 26.8,9.5 C26.8,10.5 27.6,11.3 28.6,11.3 C29.6,11.3 30.4,10.5 30.4,9.5 C30.5,8.5 29.7,7.7 28.6,7.7 Z"></path>
                </g>
                <g transform="translate(372.000000, 3.000000)" id="Shape">
                    <path d="M6.1,0.4 L6.1,20.5 L7.2,20.5 C8.2,11.3 10.7,5.6 14.6,3.1 C16.8,1.8 21.7,1.1 29.2,1.1 C31,1.1 31.9,1.3 31.9,1.8 C31.9,2.2 30.6,4.4 28,8.3 L17,25.3 L20.9,25.3 C19.5,27.4 16.9,31.4 15.7,33.2 L15,32 L13.5,32.7 L12.4,31.5 L11.1,32.5 L9.7,31.6 L8.7,32.9 L7.1,32.4 L6.4,33.9 L4.8,33.7 L4.5,35.3 L2.9,35.5 L3,37.2 L1.5,37.8 L2,39.4 L0.7,40.4 L1.6,41.8 L0.5,43.1 L1.7,44.3 L1,45.8 L2.4,46.7 L2,48.3 L3.6,48.8 L3.6,50.5 L5.3,50.6 L5.7,52.2 L7.3,51.9 L8.1,53.3 L9.6,52.6 L10.7,53.8 L12,52.8 L13.4,53.7 L14.4,52.4 L16,52.9 L16.3,52.1 C16.4,52.1 16.5,52.1 16.6,52.1 C20.4,52.4 24.3,51.8 27.9,51.4 C28.8,51.3 29.7,51.1 30.4,51.2 C31,51.3 31.5,51.7 32,51.7 C32.7,51.7 33.3,51.2 33.9,51.2 C35,51.2 36.1,51.8 36.8,52.4 C37.8,53.2 38.4,54.4 39.9,53.6 C42.7,52 45.8,51.7 49,51.4 C50.1,51.3 53.1,51.1 53.2,51 C53.3,50.9 53.3,50.3 53.2,50.2 C53.1,50.1 50.1,49.9 49,49.8 C45.8,49.5 42.7,49.2 39.9,47.6 C38.4,46.7 37.7,48 36.8,48.8 C36.1,49.4 35,50 33.9,50 C33.3,50 32.7,49.5 32,49.5 C31.5,49.5 30.9,49.9 30.4,50 C29.7,50.1 28.8,49.9 27.9,49.8 C25.4,49.5 22.8,49.2 20.2,49.1 L20.1,48.1 L21.6,47.5 L21.1,45.9 L22.4,44.9 L21.6,43.5 L22.7,42.2 L21.5,41 L22.2,39.5 L20.8,38.6 L21.2,37 L19.6,36.5 L19.6,34.8 L18.7,34.7 C20.1,32.6 22.9,28.2 24,26.3 L24.7,25.2 L28.7,25.2 L44.9,0.3 L6.1,0.3 L6.1,0.4 Z M12.4,38.5 C12.6,38.1 13.1,37.9 13.6,38.1 C14,38.3 14.2,38.8 14,39.3 C13.8,39.7 13.3,39.9 12.8,39.7 C12.4,39.4 12.2,38.9 12.4,38.5 Z M7.4,36.3 C8,35.1 9.4,34.6 10.5,35.2 C11.7,35.8 12.2,37.2 11.6,38.3 C11,39.5 9.6,40 8.5,39.4 C7.3,38.9 6.8,37.5 7.4,36.3 Z M8.2,45.4 C7.6,46.6 6.2,47.1 5.1,46.5 C3.9,45.9 3.4,44.5 4,43.4 C4.6,42.2 6,41.7 7.1,42.3 C8.3,42.9 8.8,44.3 8.2,45.4 Z M8.5,41.2 C8.3,41.6 7.8,41.8 7.3,41.6 C6.9,41.4 6.7,40.9 6.9,40.4 C7.1,40 7.6,39.8 8.1,40 C8.5,40.3 8.7,40.8 8.5,41.2 Z M10.5,46.7 C10.3,47.1 9.8,47.3 9.3,47.1 C8.9,46.9 8.7,46.4 8.9,45.9 C9.1,45.5 9.6,45.3 10.1,45.5 C10.5,45.7 10.7,46.3 10.5,46.7 Z M15.5,48.9 C14.9,50.1 13.5,50.6 12.4,50 C11.2,49.4 10.7,48 11.3,46.9 C11.9,45.7 13.3,45.2 14.4,45.8 C15.6,46.3 16.1,47.7 15.5,48.9 Z M16,44.7 C15.8,45.1 15.3,45.3 14.8,45.1 C14.4,44.9 14.2,44.4 14.4,43.9 C14.6,43.5 15.1,43.3 15.6,43.5 C16,43.8 16.2,44.3 16,44.7 Z M18.9,41.8 C18.3,43 16.9,43.5 15.8,42.9 C14.6,42.3 14.1,40.9 14.7,39.8 C15.3,38.6 16.7,38.1 17.8,38.7 C19,39.2 19.5,40.6 18.9,41.8 Z"></path>
                    <path d="M38.9,54 C38.2,54 37.7,53.5 37.2,53 C37,52.8 36.9,52.7 36.7,52.5 C36.3,52.2 35.2,51.4 33.9,51.4 C33.9,51.4 33.9,51.4 33.8,51.4 C33.5,51.4 33.3,51.5 33,51.6 C32.7,51.7 32.3,51.9 31.9,51.9 C31.6,51.9 31.3,51.8 31,51.7 C30.7,51.6 30.5,51.5 30.2,51.5 C29.7,51.5 29.2,51.5 28.5,51.6 C28.2,51.6 28,51.7 27.7,51.7 C27.2,51.8 26.8,51.8 26.3,51.9 C23.1,52.3 19.7,52.7 16.4,52.4 C16.3,52.4 16.3,52.4 16.2,52.4 L15.8,53.2 L14.2,52.6 L13.2,53.9 L11.8,53 L10.5,54 L9.3,52.8 L7.8,53.5 L7,52 L5.3,52.3 L4.9,50.7 L3.2,50.6 L3.2,48.9 L1.6,48.4 L2,46.7 L0.6,45.8 L1.3,44.3 L0.1,43.1 L1.2,41.8 L0.3,40.3 L1.7,39.3 L1.2,37.7 L2.8,37.1 L2.7,35.4 L4.4,35.2 L4.7,33.5 L6.4,33.7 L7.1,32.2 L8.7,32.8 L9.7,31.5 L11.1,32.4 L12.4,31.4 L13.6,32.6 L15.1,31.9 L15.7,33 C16.7,31.5 19.1,27.8 20.6,25.6 L16.7,25.6 L27.9,8.4 C31.2,3.2 31.7,2.2 31.7,2 C31.7,1.8 31.5,1.4 29.2,1.4 C21.7,1.4 16.8,2.1 14.6,3.4 C10.7,5.8 8.3,11.6 7.3,20.7 L7.3,20.8 L5.9,20.8 L5.9,0.2 L45,0.2 L44.8,0.4 L28.5,25.4 L24.5,25.4 L23.9,26.4 C22.8,28.2 20.2,32.3 18.7,34.6 L19.5,34.7 L19.5,36.4 L21.1,36.9 L20.7,38.5 L22.1,39.4 L21.4,40.9 L22.6,42.1 L21.5,43.4 L22.4,44.8 L21,45.8 L21.5,47.4 L19.9,48 L19.9,48.7 C22,48.8 24.1,49 26.2,49.3 C26.6,49.4 27.1,49.4 27.5,49.5 C27.8,49.5 28,49.6 28.3,49.6 C28.9,49.7 29.5,49.8 30,49.7 C30.3,49.7 30.5,49.6 30.8,49.5 C31.1,49.4 31.4,49.3 31.7,49.3 C32.1,49.3 32.4,49.4 32.8,49.6 C33.1,49.7 33.4,49.8 33.6,49.8 C34.9,49.8 36,49 36.4,48.7 C36.6,48.5 36.8,48.4 36.9,48.2 C37.6,47.5 38.4,46.8 39.7,47.5 C42.4,49.1 45.4,49.4 48.7,49.7 C49,49.7 49.4,49.8 49.9,49.8 C52.5,50 52.9,50 53,50.1 C53.1,50.2 53.1,50.4 53.1,50.6 C53.1,50.9 53.1,51 53,51.1 C52.9,51.2 52.6,51.2 49.9,51.4 C49.4,51.4 49,51.5 48.7,51.5 C45.4,51.8 42.4,52.1 39.7,53.7 C39.5,53.9 39.2,54 38.9,54 Z M33.9,51.1 C35.3,51.1 36.4,51.9 36.9,52.3 C37.1,52.5 37.3,52.6 37.4,52.8 C38.1,53.5 38.7,54.1 39.8,53.4 C42.6,51.8 45.6,51.5 49,51.2 C49.3,51.2 49.7,51.1 50.2,51.1 C51.3,51 52.9,50.9 53.1,50.8 C53.1,50.7 53.1,50.4 53.1,50.2 C52.8,50.1 51.2,50 50.2,50 C49.7,50 49.3,49.9 49,49.9 C45.6,49.6 42.6,49.3 39.8,47.7 C38.7,47.1 38.1,47.7 37.4,48.3 C37.2,48.5 37,48.6 36.9,48.8 C36.4,49.2 35.3,50 33.9,50 C33.6,50 33.3,49.9 33,49.8 C32.7,49.7 32.4,49.6 32.1,49.6 C31.9,49.6 31.6,49.7 31.3,49.8 C31,49.9 30.7,50 30.5,50 C30,50 29.4,50 28.8,49.9 C28.6,49.9 28.3,49.8 28,49.8 C27.6,49.8 27.1,49.7 26.7,49.6 C24.6,49.4 22.5,49.1 20.3,49 L20.2,49 L20.1,47.8 L21.6,47.2 L21.1,45.6 L22.4,44.6 L21.6,43.2 L22.6,42 L21.5,40.8 L22.2,39.3 L20.8,38.5 L21.1,36.9 L19.5,36.4 L19.5,34.8 L18.5,34.7 L18.6,34.5 C20,32.2 22.8,27.9 23.9,26.1 L24.6,25 L28.6,25 L44.6,0.4 L6.3,0.4 L6.3,20.2 L7.1,20.2 C8.1,11.1 10.6,5.3 14.6,2.9 C16.8,1.5 21.8,0.9 29.3,0.9 C31.2,0.9 32.1,1.2 32.1,1.8 C32.1,2 32.1,2.4 28.2,8.4 L17.3,25.1 L21.2,25.1 L21,25.3 C19.5,27.6 16.7,31.8 15.8,33.2 L15.7,33.4 L15,32.1 L13.5,32.8 L12.4,31.6 L11.1,32.6 L9.7,31.7 L8.7,33 L7.2,32.5 L6.5,34 L4.9,33.8 L4.6,35.4 L3,35.6 L3.1,37.2 L1.6,37.8 L2.1,39.4 L0.8,40.4 L1.6,41.8 L0.6,43 L1.7,44.2 L1,45.7 L2.4,46.5 L2.1,48.1 L3.6,48.6 L3.6,50.2 L5.2,50.3 L5.6,51.9 L7.2,51.6 L8,53 L9.5,52.3 L10.6,53.5 L11.9,52.5 L13.3,53.4 L14.3,52.1 L15.8,52.6 L16.1,51.9 L16.3,51.9 C16.4,51.9 16.5,51.9 16.6,51.9 C19.9,52.1 23.3,51.7 26.5,51.4 C27,51.3 27.4,51.3 27.9,51.2 C28.2,51.2 28.4,51.1 28.7,51.1 C29.3,51 30,50.9 30.4,51 C30.7,51 31,51.1 31.2,51.2 C31.5,51.3 31.7,51.4 32,51.4 C32.3,51.4 32.6,51.3 32.9,51.2 C33.1,51.2 33.5,51.1 33.9,51.1 C33.8,51.1 33.8,51.1 33.9,51.1 Z M13.4,50.4 C13,50.4 12.7,50.3 12.3,50.2 C11.1,49.6 10.5,48.1 11.1,46.9 C11.7,45.7 13.2,45.1 14.4,45.7 C15,46 15.5,46.5 15.7,47.1 C15.9,47.7 15.9,48.4 15.6,49 C15.3,49.6 14.8,50.1 14.2,50.3 C14,50.4 13.7,50.4 13.4,50.4 Z M13.4,45.7 C12.6,45.7 11.8,46.2 11.4,47 C10.9,48.1 11.3,49.4 12.4,49.9 C12.9,50.2 13.5,50.2 14.1,50 C14.7,49.8 15.1,49.4 15.3,48.9 L15.4,49 L15.3,48.9 C15.6,48.4 15.6,47.8 15.4,47.2 C15.2,46.6 14.8,46.2 14.3,46 C14,45.8 13.7,45.7 13.4,45.7 Z M9.7,47.3 C9.6,47.3 9.4,47.3 9.3,47.2 C8.8,47 8.6,46.3 8.8,45.8 C8.9,45.6 9.1,45.4 9.4,45.3 C9.7,45.2 9.9,45.2 10.2,45.3 C10.7,45.5 10.9,46.2 10.7,46.7 C10.4,47.1 10.1,47.3 9.7,47.3 Z M9.7,45.6 C9.6,45.6 9.5,45.6 9.5,45.6 C9.3,45.7 9.2,45.8 9.1,46 C8.9,46.4 9.1,46.8 9.4,47 C9.8,47.2 10.2,47 10.4,46.7 C10.6,46.3 10.4,45.9 10.1,45.7 C9.9,45.6 9.8,45.6 9.7,45.6 Z M6.1,46.9 C5.7,46.9 5.4,46.8 5,46.7 C3.8,46.1 3.2,44.6 3.8,43.4 C4.1,42.8 4.6,42.3 5.2,42.1 C5.8,41.9 6.5,41.9 7.1,42.2 C7.7,42.5 8.2,43 8.4,43.6 C8.6,44.2 8.6,44.9 8.3,45.5 C8,46.1 7.5,46.6 6.9,46.8 C6.7,46.9 6.4,46.9 6.1,46.9 Z M6.1,42.2 C5.9,42.2 5.6,42.2 5.4,42.3 C4.8,42.5 4.4,42.9 4.2,43.4 C3.7,44.5 4.1,45.8 5.2,46.3 C5.7,46.6 6.3,46.6 6.9,46.4 C7.5,46.2 7.9,45.8 8.1,45.3 C8.4,44.8 8.4,44.2 8.2,43.6 C8,43 7.6,42.6 7.1,42.4 C6.7,42.3 6.4,42.2 6.1,42.2 Z M15.2,45.4 C15.1,45.4 14.9,45.4 14.8,45.3 C14.3,45.1 14.1,44.4 14.3,43.9 C14.5,43.4 15.2,43.2 15.7,43.4 C16.2,43.6 16.4,44.3 16.2,44.8 C15.9,45.2 15.6,45.4 15.2,45.4 Z M15.2,43.7 C14.9,43.7 14.7,43.9 14.6,44.1 C14.4,44.5 14.6,44.9 14.9,45.1 C15.3,45.3 15.7,45.1 15.9,44.8 C16.1,44.4 15.9,44 15.6,43.8 C15.4,43.7 15.3,43.7 15.2,43.7 Z M16.8,43.3 C16.4,43.3 16.1,43.2 15.7,43.1 C15.1,42.8 14.6,42.3 14.4,41.7 C14.2,41.1 14.2,40.4 14.5,39.8 C14.8,39.2 15.3,38.7 15.9,38.5 C16.5,38.3 17.2,38.3 17.8,38.6 C18.4,38.9 18.9,39.4 19.1,40 C19.3,40.6 19.3,41.3 19,41.9 C18.7,42.5 18.2,43 17.6,43.2 C17.4,43.2 17.1,43.3 16.8,43.3 Z M16.8,38.6 C16.6,38.6 16.3,38.6 16.1,38.7 C15.5,38.9 15.1,39.3 14.9,39.8 C14.6,40.3 14.6,40.9 14.8,41.5 C15,42.1 15.4,42.5 15.9,42.7 C16.4,43 17,43 17.6,42.8 C18.2,42.6 18.6,42.2 18.8,41.7 C19.1,41.2 19.1,40.6 18.9,40 C18.7,39.4 18.3,39 17.8,38.8 C17.4,38.6 17.1,38.6 16.8,38.6 Z M7.7,41.8 C7.6,41.8 7.4,41.8 7.3,41.7 C7.1,41.6 6.9,41.4 6.8,41.1 C6.7,40.8 6.7,40.6 6.8,40.3 C6.9,40.1 7.1,39.9 7.4,39.8 C7.7,39.7 7.9,39.7 8.2,39.8 C8.4,39.9 8.6,40.1 8.7,40.4 C8.8,40.7 8.8,40.9 8.7,41.2 C8.5,41.6 8.1,41.8 7.7,41.8 Z M7.7,40.1 C7.6,40.1 7.5,40.1 7.5,40.1 C7.3,40.2 7.2,40.3 7.1,40.5 C7,40.7 7,40.9 7.1,41 C7.2,41.2 7.3,41.3 7.5,41.4 C7.9,41.6 8.3,41.4 8.5,41.1 C8.6,40.9 8.6,40.7 8.5,40.6 C8.4,40.5 8.3,40.3 8.1,40.2 C7.9,40.1 7.8,40.1 7.7,40.1 Z M13.2,39.9 C13.1,39.9 12.9,39.9 12.8,39.8 C12.6,39.7 12.4,39.5 12.3,39.2 C12.2,38.9 12.2,38.7 12.3,38.4 C12.4,38.2 12.6,38 12.9,37.9 C13.2,37.8 13.4,37.8 13.7,37.9 C14.2,38.1 14.4,38.8 14.2,39.3 C14.1,39.5 13.9,39.7 13.6,39.8 C13.4,39.9 13.3,39.9 13.2,39.9 Z M13.2,38.2 C13.1,38.2 13,38.2 13,38.2 C12.8,38.3 12.7,38.4 12.6,38.6 C12.5,38.8 12.5,39 12.6,39.1 C12.7,39.3 12.8,39.4 13,39.5 C13.2,39.6 13.4,39.6 13.5,39.5 C13.7,39.4 13.8,39.3 13.9,39.1 C14.1,38.7 13.9,38.3 13.6,38.1 C13.4,38.2 13.3,38.2 13.2,38.2 Z M9.5,39.8 C9.1,39.8 8.8,39.7 8.4,39.6 C7.2,39 6.6,37.5 7.2,36.3 C7.8,35.1 9.3,34.5 10.5,35.1 C11.1,35.4 11.6,35.9 11.8,36.5 C12,37.1 12,37.8 11.7,38.4 C11.3,39.3 10.4,39.8 9.5,39.8 Z M7.5,36.4 C7,37.5 7.5,38.8 8.5,39.3 C9.6,39.8 10.9,39.4 11.4,38.3 C11.7,37.8 11.7,37.2 11.5,36.6 C11.3,36 10.9,35.6 10.4,35.4 C9.3,34.8 8,35.3 7.5,36.4 Z"></path>
                </g>
                <g transform="translate(365.000000, 6.000000)" id="Shape">
                    <path d="M0.8,28.7 C0.8,31 2.7,32.9 5,32.9 C7.3,32.9 9.2,31 9.2,28.7 C9.2,27.5 8.7,26.3 7.8,25.6 L8.2,25.6 C8.5,25.6 8.7,25.4 8.7,25.1 C8.7,25 8.7,25 8.7,24.9 C8.7,24.9 8.7,24.9 8.7,24.8 C8.6,24.7 8.6,24.7 8.5,24.6 L4.9,23.2 L8.4,23.2 C8.7,23.2 8.9,23 8.9,22.7 C8.9,22.5 8.8,22.2 8.6,22.2 L5,20.8 L8.5,20.8 C8.8,20.8 9,20.6 9,20.3 C9,20.2 9,20.2 9,20.1 C9,20.1 9,20.1 9,20 C8.9,19.9 8.9,19.9 8.8,19.8 L5.2,18.4 L8.4,18.4 C8.7,18.5 9,18.4 9.1,18.1 C9.1,18 9.1,17.9 9.1,17.9 C9.1,17.6 8.9,17.4 8.6,17.4 L8.5,17.4 L5.1,16.1 L8.6,16.1 C8.9,16.1 9.1,15.9 9.1,15.6 C9.1,15.5 9.1,15.5 9.1,15.4 C9.1,15.4 9.1,15.4 9.1,15.3 C9,15.2 9,15.2 8.9,15.1 L5.3,13.7 L8.5,13.7 C8.8,13.8 9.1,13.7 9.2,13.4 C9.2,13.3 9.2,13.2 9.2,13.2 C9.2,12.9 9,12.7 8.7,12.7 L8.6,12.7 L5.2,11.4 L8.7,11.4 C9,11.4 9.2,11.2 9.2,10.9 C9.2,10.8 9.2,10.8 9.2,10.7 C9.2,10.7 9.2,10.7 9.2,10.6 C9.1,10.5 9.1,10.5 9,10.4 L5.4,9 L5.5,9 L5.6,9 L5.7,9 L8.7,9 C9,9 9.2,8.8 9.2,8.5 C9.2,8.2 9,8 8.7,8 L8.3,8 C9.1,7.2 9.7,6.2 9.7,4.9 C9.7,2.6 7.8,0.7 5.5,0.7 C3.2,0.7 1.3,2.6 1.3,4.9 C1.3,6.1 1.8,7.2 2.7,8 L2.4,8 C2.2,8 1.9,8.1 1.8,8.3 C1.7,8.5 1.8,8.8 2,8.9 C2.1,9 2.1,9 2.2,9 L5.8,10.4 L2.4,10.4 C2.2,10.4 1.9,10.5 1.8,10.7 C1.7,10.9 1.8,11.2 2,11.3 C2.1,11.4 2.1,11.4 2.2,11.4 L5.6,12.7 L2.4,12.7 C2.2,12.7 1.9,12.8 1.8,13 C1.7,13.2 1.8,13.5 2,13.6 C2.1,13.7 2.1,13.7 2.2,13.7 L5.8,15.1 L2.4,15.1 C2.2,15.1 1.9,15.2 1.8,15.4 C1.7,15.6 1.8,15.9 2,16 C2.1,16.1 2.1,16.1 2.2,16.1 L5.6,17.4 L2.4,17.4 C2.2,17.4 1.9,17.5 1.8,17.7 C1.7,17.9 1.8,18.2 2,18.3 C2.1,18.4 2.1,18.4 2.2,18.4 L5.8,19.8 L2.4,19.8 C2.2,19.8 1.9,19.9 1.8,20.1 C1.7,20.3 1.8,20.6 2,20.7 C2.1,20.8 2.1,20.8 2.2,20.8 L5.9,22.3 L2.4,22.3 C2.2,22.3 1.9,22.4 1.8,22.6 C1.7,22.8 1.8,23.1 2,23.2 C2.1,23.3 2.1,23.3 2.2,23.3 L5.8,24.7 L2.4,24.7 C2.2,24.7 1.9,24.8 1.8,25 C1.7,25.2 1.8,25.5 2,25.6 C2.1,25.7 2.1,25.7 2.2,25.7 L2.7,25.7 C1.4,26.4 0.8,27.5 0.8,28.7 Z M3.5,4.2 C3.5,3.4 4.2,2.7 5,2.7 C5.8,2.7 6.5,3.4 6.5,4.2 C6.5,5 5.8,5.7 5,5.7 C4.2,5.7 3.5,5 3.5,4.2 Z M5,27.3 C5.8,27.3 6.5,28 6.5,28.8 C6.5,29.6 5.8,30.3 5,30.3 C4.2,30.3 3.5,29.6 3.5,28.8 C3.5,27.9 4.2,27.3 5,27.3 Z"></path>
                    <path d="M5,33 C2.6,33 0.7,31.1 0.7,28.7 C0.7,27.6 1.1,26.5 1.9,25.7 L1.7,25.7 C1.6,25.7 1.5,25.6 1.4,25.6 C1.2,25.4 1.1,25.1 1.2,24.8 C1.3,24.5 1.6,24.3 2,24.4 L4.5,24.4 L1.7,23.3 C1.6,23.3 1.5,23.2 1.4,23.2 C1.2,23 1.1,22.7 1.2,22.4 C1.3,22.1 1.6,21.9 2,22 L4.7,22 L1.7,20.8 C1.6,20.8 1.5,20.7 1.4,20.7 C1.2,20.5 1.1,20.2 1.2,19.9 C1.3,19.6 1.6,19.4 2,19.5 L4.5,19.5 L1.7,18.4 C1.6,18.4 1.5,18.3 1.4,18.3 C1.2,18.1 1.1,17.8 1.2,17.5 C1.3,17.2 1.6,17 2,17.1 L4.4,17.1 L1.7,16 C1.6,16 1.5,15.9 1.4,15.9 C1.2,15.7 1.1,15.4 1.2,15.1 C1.3,14.8 1.6,14.6 2,14.7 L4.5,14.7 L1.7,13.6 C1.6,13.6 1.5,13.5 1.4,13.5 C1.2,13.3 1.1,13 1.2,12.7 C1.3,12.4 1.6,12.2 2,12.3 L4.4,12.3 L1.7,11.2 C1.6,11.2 1.5,11.1 1.4,11.1 C1.2,10.9 1.1,10.6 1.2,10.3 C1.3,10 1.6,9.8 2,9.9 L4.5,9.9 L1.7,8.8 C1.6,8.8 1.5,8.7 1.4,8.7 C1.2,8.5 1.1,8.2 1.2,7.9 C1.3,7.6 1.6,7.5 1.8,7.5 C1.1,6.7 0.7,5.7 0.7,4.6 C0.7,2.2 2.6,0.3 5,0.3 C7.4,0.3 9.3,2.2 9.3,4.6 C9.3,5.7 8.9,6.7 8.2,7.5 C8.6,7.5 8.9,7.8 8.9,8.2 C8.9,8.6 8.6,8.9 8.2,8.9 L5.5,8.9 L8.4,10 C8.5,10 8.6,10.1 8.7,10.2 L8.7,10.3 C8.7,10.4 8.8,10.5 8.8,10.6 C8.8,10.6 8.8,10.6 8.8,10.7 L8.8,10.8 C8.7,11.1 8.5,11.4 8.2,11.4 L5.5,11.4 L8.2,12.4 C8.6,12.4 8.9,12.7 8.9,13.1 C8.9,13.2 8.9,13.3 8.9,13.4 C8.8,13.6 8.7,13.7 8.5,13.8 C8.3,13.9 8.1,13.9 8,13.8 L5.6,13.8 L8.5,14.9 L8.5,15 L8.6,14.9 C8.7,14.9 8.8,15 8.9,15.1 L8.9,15.2 C8.9,15.3 9,15.4 9,15.5 C9,15.5 9,15.5 9,15.6 L9,15.7 C8.9,16 8.7,16.3 8.4,16.3 L5.7,16.3 L8.4,17.3 C8.8,17.3 9.1,17.6 9.1,18 L8.9,18 L9.1,18 C9.1,18.1 9.1,18.2 9.1,18.3 C9,18.7 8.6,18.8 8.2,18.7 L5.8,18.7 L8.7,19.8 C8.8,19.9 8.9,19.9 9,20 L9,20.1 C9,20.2 9.1,20.3 9.1,20.4 C9.1,20.4 9.1,20.4 9.1,20.5 L9.1,20.6 C9,20.9 8.8,21.2 8.5,21.2 L5.8,21.2 L8.7,22.3 C9,22.4 9.2,22.7 9.1,23 C9.1,23.4 8.8,23.7 8.4,23.7 L5.7,23.7 L8.6,24.8 C8.7,24.8 8.8,24.9 8.9,25 L8.9,25.1 C8.9,25.2 9,25.3 9,25.4 C9,25.4 9,25.4 9,25.5 L9,25.6 C8.9,25.9 8.7,26.2 8.4,26.2 L8.3,26.2 C9.1,27 9.5,28.1 9.5,29.2 C9.3,31.1 7.4,33 5,33 Z M1.8,25.5 L2.7,25.5 L2.4,25.8 C1.5,26.6 1,27.7 1,28.8 C1,31 2.8,32.8 5,32.8 C7.2,32.8 9,31 9,28.8 C9,27.7 8.5,26.6 7.6,25.8 L7.3,25.5 L8.1,25.5 C8.3,25.5 8.4,25.4 8.4,25.2 L8.6,25.2 L8.4,25.2 L8.6,25.2 L8.4,25.2 C8.4,25.1 8.4,25.1 8.4,25.1 L8.5,25 L8.4,25.1 C8.3,25 8.3,25 8.2,25 L3.8,23.3 L8.1,23.3 C8.3,23.3 8.5,23.1 8.5,22.9 C8.5,22.7 8.4,22.6 8.3,22.5 L3.9,20.8 L8.2,20.8 C8.4,20.8 8.5,20.7 8.5,20.5 L8.7,20.5 L8.5,20.5 L8.7,20.5 L8.5,20.5 C8.5,20.4 8.5,20.4 8.5,20.4 L8.6,20.3 L8.5,20.4 C8.4,20.3 8.4,20.3 8.3,20.3 L3.9,18.6 L7.9,18.6 C8.1,18.7 8.3,18.6 8.4,18.4 C8.4,18.3 8.4,18.3 8.4,18.2 C8.4,18 8.2,17.8 8,17.8 L7.9,17.8 L3.8,16.2 L8.1,16.2 C8.3,16.2 8.4,16.1 8.4,15.9 L8.6,15.9 L8.4,15.9 L8.6,15.9 L8.4,15.9 C8.4,15.8 8.4,15.8 8.4,15.8 L8.5,15.7 L8.4,15.8 C8.3,15.7 8.3,15.7 8.2,15.7 L3.8,14 L7.8,14 C7.9,14 8,14 8.1,14 C8.2,14 8.3,13.9 8.3,13.8 C8.3,13.7 8.3,13.7 8.3,13.6 C8.3,13.4 8.1,13.2 7.9,13.2 L7.8,13.2 L3.7,11.6 L8,11.6 C8.2,11.6 8.3,11.5 8.3,11.3 L8.5,11.3 L8.3,11.3 L8.5,11.3 L8.3,11.3 C8.3,11.2 8.3,11.2 8.3,11.2 L8.4,11.1 L8.3,11.2 C8.2,11.1 8.2,11.1 8.1,11.1 L3.7,9.4 L4.7,9.4 L4.8,9.4 L4.9,9.4 L8,9.4 C8.2,9.4 8.4,9.2 8.4,9 C8.4,8.8 8.2,8.6 8,8.6 L7.2,8.6 L7.5,8.3 C8.3,7.5 8.8,6.5 8.8,5.4 C8.8,3.2 7,1.4 4.8,1.4 C2.6,1.4 0.8,3.2 0.8,5.4 C0.8,6.5 1.3,7.6 2.1,8.3 L2.4,8.6 L1.8,8.6 C1.6,8.6 1.4,8.7 1.3,8.8 C1.2,9 1.3,9.1 1.4,9.3 C1.5,9.3 1.5,9.4 1.6,9.4 L5.9,11.1 L1.7,11.1 C1.5,11.1 1.3,11.2 1.2,11.3 C1.1,11.5 1.2,11.6 1.3,11.8 C1.4,11.8 1.4,11.9 1.5,11.9 L5.7,13.5 L1.7,13.5 C1.5,13.5 1.3,13.6 1.2,13.7 C1.1,13.9 1.2,14 1.3,14.2 C1.4,14.2 1.4,14.3 1.5,14.3 L5.8,16 L1.6,16 C1.4,16 1.2,16.1 1.1,16.2 C1,16.4 1.1,16.5 1.2,16.7 C1.3,16.7 1.3,16.8 1.4,16.8 L5.6,18.4 L1.6,18.4 C1.4,18.4 1.2,18.5 1.1,18.6 C1,18.8 1.1,18.9 1.2,19.1 C1.3,19.1 1.3,19.2 1.4,19.2 L5.7,20.9 L1.5,20.9 C1.3,20.9 1.1,21 1,21.1 C0.9,21.3 1,21.4 1.1,21.6 C1.2,21.6 1.2,21.7 1.3,21.7 L5.8,23.5 L1.5,23.5 C1.3,23.5 1.1,23.6 1,23.7 C0.9,23.9 1,24 1.1,24.2 C1.2,24.2 1.2,24.3 1.3,24.3 L5.6,26 L1.4,26 C1.2,26 1,26.1 0.9,26.2 C0.8,26.4 0.9,26.5 1,26.7 C1.7,25.4 1.7,25.4 1.8,25.5 Z M5,30.4 C4.1,30.4 3.4,29.7 3.4,28.8 C3.4,27.9 4.1,27.2 5,27.2 C5.9,27.2 6.6,27.9 6.6,28.8 C6.6,29.6 5.9,30.4 5,30.4 Z M5,27.4 C4.3,27.4 3.7,28 3.7,28.7 C3.7,29.4 4.3,30 5,30 C5.7,30 6.3,29.4 6.3,28.7 C6.3,28 5.7,27.4 5,27.4 Z M5,5.8 C4.1,5.8 3.4,5.1 3.4,4.2 C3.4,3.3 4.1,2.6 5,2.6 C5.9,2.6 6.6,3.3 6.6,4.2 C6.6,5.1 5.9,5.8 5,5.8 Z M5,2.8 C4.3,2.8 3.7,3.4 3.7,4.1 C3.7,4.8 4.3,5.4 5,5.4 C5.7,5.4 6.3,4.8 6.3,4.1 C6.3,3.4 5.7,2.8 5,2.8 Z"></path>
                </g>
                <g transform="translate(460.000000, 3.000000)" id="Shape">
                    <path d="M12,11.2 L12,38.5 C12,43.5 11.2,46.9 9.7,48.6 C8.2,50.3 5.3,51.2 1.1,51.2 L1.1,52 L24.4,52 L24.4,51.2 C20,51.2 17.1,50.2 15.5,48.3 C13.9,46.4 13.1,42.5 13.1,36.6 L13.1,10.5 C13.1,9.5 13.2,9.1 13.3,9.1 L14.2,10.1 L18.2,15.4 L16.2,18.2 L17.5,20 L20.7,18.9 L22.4,21.2 L20.4,24 L21.7,25.8 L24.9,24.7 L27.2,27.7 L25.2,30.5 L26.5,32.3 L29.7,31.2 L31.7,33.9 L29.7,36.7 L31,38.5 L34.2,37.4 L36.2,40 L34.2,42.8 L35.5,44.6 L38.7,43.5 L40.5,45.9 L38.5,48.7 L39.8,50.5 L43.1,49.4 L45.3,52.3 L47.2,52.3 L47.2,13.8 C47.2,8.9 47.9,5.6 49.4,3.8 C50.9,2 53.5,1.1 57.3,1.1 L57.3,0.4 L34.6,0.4 L34.6,1.1 C38.9,1.1 41.9,2 43.6,3.8 C45.3,5.6 46.1,9 46.1,13.8 L46.1,36.1 C46.1,37.2 46,37.7 45.9,37.7 C45.7,37.7 45.3,37.2 44.6,36.3 L17,0.3 L0.4,0.3 L0.4,1 C4.1,1 7,2 8.9,4 C11.2,5.8 12,8.2 12,11.2 Z"></path>
                    <path d="M48,52.4 L45.9,52.4 L43.7,49.5 L40.4,50.6 L38.9,48.7 L40.9,45.9 L39.2,43.7 L36,44.8 L34.5,42.9 L36.5,40.1 L34.7,37.7 L31.5,38.8 L30,36.9 L32,34.1 L30.1,31.6 L26.9,32.7 L25.4,30.8 L27.4,28 L25.3,25.1 L22.1,26.2 L20.6,24.3 L22.6,21.5 L21,19.4 L17.8,20.5 L16.3,18.6 L18.3,15.8 L14.4,10.6 L13.6,9.7 C13.6,9.8 13.5,10.2 13.5,10.9 L13.5,37 C13.5,42.8 14.3,46.7 15.9,48.6 C17.5,50.5 20.4,51.4 24.7,51.4 L24.9,51.4 L24.9,52.5 L1.3,52.5 L1.3,51 L1.5,51 C5.6,51 8.4,50.2 9.9,48.5 C11.4,46.8 12.2,43.5 12.2,38.5 L12.2,11.2 C12.2,8.3 11.4,5.9 9.8,4.2 C7.9,2.2 5.1,1.2 1.4,1.2 L1.2,1.2 L1.2,0.2 L18,0.2 L18,0.3 L45.6,36.3 C46.3,37.3 46.6,37.5 46.7,37.6 C46.7,37.5 46.8,37.2 46.8,36.2 L46.8,13.9 C46.8,9.1 46,5.8 44.4,4 C42.8,2.2 39.8,1.3 35.6,1.3 L35.4,1.3 L35.4,0.3 L58.4,0.3 L58.4,1.3 L58.2,1.3 C54.5,1.3 51.9,2.2 50.4,4 C48.9,5.8 48.2,9.1 48.2,13.9 L48.2,52.4 L48,52.4 Z M46,52.1 L47.7,52.1 L47.7,13.8 C47.7,8.9 48.5,5.5 50,3.7 C51.5,1.9 54.1,0.9 57.9,0.9 L57.9,0.5 L35.5,0.5 L35.5,0.9 C39.8,0.9 42.8,1.9 44.4,3.7 C46.1,5.5 46.9,8.9 46.9,13.8 L46.9,36.1 C46.9,37.6 46.8,37.9 46.5,37.9 C46.3,37.9 46.1,37.8 45.1,36.5 L17.5,0.6 L1.2,0.6 L1.2,1 C4.9,1 7.7,2.1 9.6,4.1 C11.2,5.8 12,8.2 12,11.3 L12,38.6 C12,43.6 11.2,47.1 9.6,48.8 C8.1,50.5 5.2,51.4 1.1,51.4 L1.1,51.9 L24.1,51.9 L24.1,51.4 C19.8,51.4 16.8,50.4 15.2,48.5 C13.6,46.6 12.8,42.6 12.8,36.7 L12.8,10.6 C12.8,9.3 12.9,9 13.2,9 L13.3,9 L14.2,10.1 L18.3,15.5 L16.3,18.3 L17.5,19.9 L20.7,18.8 L22.6,21.3 L20.6,24.1 L21.8,25.7 L25,24.6 L27.4,27.8 L25.4,30.6 L26.6,32.2 L29.8,31.1 L32,34 L30,36.8 L31.2,38.4 L34.4,37.3 L36.5,40.1 L34.5,42.9 L35.7,44.5 L38.9,43.4 L40.9,46 L38.9,48.8 L40.1,50.4 L43.4,49.3 L46,52.1 Z"></path>
                </g>
                <g transform="translate(190.000000, 0.000000)" id="Shape">
                    <path d="M104.1,49 L105.7,47.4 L104.1,44.1 C104.5,43.7 104.8,43.2 105.2,42.7 L108.8,43.5 L110,41.5 L107.6,38.8 C107.9,38.2 108.1,37.7 108.3,37.1 L112,36.9 L112.6,34.7 L109.5,32.7 C109.6,32.1 109.7,31.6 109.7,31 L113.2,29.9 L113.2,27.6 L109.7,26.4 C109.6,25.8 109.6,25.2 109.5,24.6 L112.6,22.6 L112,20.4 L108.3,20.2 C108.1,19.7 107.9,19.1 107.7,18.6 L110.2,15.9 L109.1,13.9 L105.5,14.6 C105.2,14.1 104.8,13.6 104.4,13.2 L106.1,9.9 L104.5,8.3 L101.2,10 L101.3,10.1 C100.8,9.7 100.4,9.4 99.9,9 L100.7,5.4 L98.7,4.2 L95.9,6.7 L96,6.7 C95.5,6.5 94.9,6.2 94.4,6 L94.3,5.9 L94.1,2.2 L91.9,1.6 L89.8,4.7 C89.3,4.6 88.7,4.5 88.2,4.5 L88.1,4.4 L87,0.9 L84.7,0.9 L83.5,4.4 C82.9,4.5 82.4,4.5 81.8,4.6 L81.7,4.5 L79.8,1.5 L77.6,2.1 L77.4,5.8 C76.9,6 76.4,6.2 75.8,6.4 L75.7,6.3 L73.1,3.9 L71.1,5 L71.8,8.6 C71.3,8.9 70.8,9.3 70.4,9.7 L67.1,8 L65.5,9.6 L67.1,12.9 C66.7,13.3 66.4,13.8 66,14.3 L62.4,13.5 L61.2,15.5 L63.6,18.2 C63.3,18.8 63.1,19.3 62.9,19.9 L59.3,20.1 L58.7,22.3 L61.7,24.3 C61.6,24.9 61.5,25.5 61.5,26 L58.1,27.1 L55.9,27.1 L55.9,8.6 C55.9,6.8 56.1,5.7 56.5,5.4 L57.2,5.1 C58.1,4.8 59.3,4.5 60.8,4.4 C62.4,4.2 61.9,4.3 64.2,4.2 L64.4,3.5 L35,3.5 L35,4.2 C37,4.2 39,4.3 40.8,4.5 C42.6,4.7 43.8,4.9 44.4,5.1 C45,5.3 45.3,5.5 45.4,5.7 C45.7,6.1 45.8,7.1 45.8,8.6 L45.8,27.3 L21.6,27.3 L21.6,8.6 C21.6,7.1 21.7,6.2 22,5.7 C22.1,5.5 22.4,5.3 23,5.1 C24.7,4.5 27.9,4.1 32.4,4.1 L32.4,3.4 L1.2,3.4 L1.7,4.1 C3.9,4.2 4.9,4.2 6.7,4.4 C8.5,4.6 9.7,4.8 10.3,5 C10.9,5.2 11.3,5.4 11.4,5.6 C11.5,5.9 11.6,6.4 11.7,7.1 L8.4,8.2 L8.4,10.4 L11.7,11.5 L11.7,14.4 L8.4,15.5 L8.4,17.7 L11.7,18.8 L11.7,22.6 L8.4,23.7 L8.4,25.9 L11.7,27 L11.7,30.4 L8.4,31.5 L8.4,33.7 L11.7,34.8 L11.7,38.1 L8.4,39.2 L8.4,41.4 L11.7,42.5 L11.7,45.5 L8.4,46.6 L8.4,48.8 L11.7,49.9 L11.7,50.6 C11.7,51.7 11.6,52.4 11.4,52.7 C11.2,53 10.8,53.3 10.2,53.6 C9.6,53.8 8.4,54 6.7,54.2 C5,54.4 3,54.4 0.7,54.4 L0.7,55.2 L32.2,55.2 L32.2,54.4 C29.9,54.4 28,54.3 26.3,54.2 C24.6,54 23.5,53.8 22.9,53.6 C22.3,53.4 21.9,53.1 21.8,52.9 C21.6,52.5 21.5,51.5 21.5,49.9 L21.5,29.6 L45.7,29.6 L45.7,49.9 C45.7,51.5 45.6,52.5 45.4,52.9 C45.3,53.1 44.9,53.3 44.4,53.5 C42.8,54.1 39.7,54.4 35,54.4 L35,55.2 L66.5,55.2 L66.5,54.4 C61.7,54.4 58.5,54.1 56.9,53.5 C56.4,53.3 56,53.1 55.9,52.9 C55.7,52.5 55.6,51.5 55.6,49.9 L55.6,29.6 L57.8,29.6 L61.2,30.7 C61.3,31.3 61.3,31.9 61.4,32.5 L58.4,34.5 L59,36.7 L62.6,36.9 C62.8,37.5 63,38 63.3,38.6 L60.9,41.3 L62,43.3 L65.5,42.6 C65.9,43.1 66.2,43.6 66.6,44.1 L65,47.3 L66.6,48.9 L69.8,47.3 C70.3,47.7 70.7,48 71.2,48.4 L70.5,51.9 L72.5,53.1 L75.2,50.7 C75.8,51 76.4,51.2 76.9,51.4 L77.1,55 L79.3,55.6 L81.3,52.6 C81.9,52.7 82.5,52.8 83.1,52.8 L84.2,56.2 L86.5,56.2 L87.6,52.8 C88.2,52.7 88.8,52.7 89.4,52.6 L91.4,55.6 L93.6,55 L93.8,51.4 C94.4,51.2 94.9,51 95.4,50.7 L98.1,53.1 C98,53.2 97.9,53.4 97.9,53.5 C97.2,55.6 99.5,56.5 100.8,57.7 C102,58.7 103,60 103.9,61.3 C104,61.5 104,62.2 104.7,62 C105.2,61.6 104.6,61.2 104.5,61 C103.9,59.6 103.2,58 102.9,56.5 C102.6,54.7 102.9,52.3 100.7,51.9 C100.5,51.9 100.3,51.9 100.1,51.9 L99.4,48.4 C99.9,48 100.4,47.7 100.9,47.3 L104.1,49 Z M95.1,14.9 C95.7,16 95.3,17.4 94.2,18.1 C93.1,18.7 91.7,18.3 91,17.2 C90.4,16.1 90.8,14.7 91.9,14 C93,13.4 94.5,13.8 95.1,14.9 Z M68,18.3 C73.4,9.1 85,5.8 94.5,10.5 L94,11.4 C92.9,11.2 91.8,11.4 90.8,11.9 C88.5,13.2 87.7,16.1 89,18.3 C89.1,18.5 89.3,18.8 89.5,19 L85.8,25.3 L82.8,27 L75.5,26.9 C75.4,26.7 75.3,26.4 75.2,26.2 C73.9,23.9 71,23.1 68.8,24.4 C67.8,25 67.1,25.8 66.8,26.8 L65.5,26.8 C65.5,24 66.4,21 68,18.3 Z M72,30.6 C70.9,31.2 69.5,30.9 68.8,29.7 C68.2,28.6 68.6,27.2 69.7,26.5 C70.8,25.9 72.2,26.3 72.9,27.4 C73.5,28.6 73.1,30 72,30.6 Z M75.1,46.1 C69.3,42.6 65.8,36.7 65.2,30.4 L66.5,30.4 C66.6,30.6 66.7,30.8 66.8,31 C68.1,33.3 71,34.1 73.2,32.8 C74.1,32.3 74.8,31.5 75.2,30.5 L82.6,30.6 L85.3,32.2 L88.9,38.5 C87.8,40 87.6,42 88.6,43.7 C89.6,45.4 91.4,46.3 93.3,46.1 L93.9,47.1 C88.1,49.7 81.1,49.6 75.1,46.1 Z M93.9,43.3 C92.8,43.9 91.4,43.5 90.7,42.4 C90.1,41.3 90.5,39.9 91.6,39.2 C92.7,38.6 94.1,38.9 94.8,40.1 C95.4,41.2 95,42.6 93.9,43.3 Z M97,45.3 L96.5,44.3 C97.7,42.8 98,40.7 97,39 C96,37.3 94.1,36.4 92.2,36.7 L88.8,30.6 L88.8,27.2 L92.6,20.7 C93.6,20.8 94.6,20.6 95.5,20.1 C97.8,18.8 98.6,15.9 97.3,13.7 C97.2,13.6 97.1,13.4 97.1,13.3 L97.7,12.4 C106,18.5 108.4,30 103.1,39 C101.3,41.5 99.3,43.7 97,45.3 Z"></path>
                    <path d="M104.5,62.2 C104.1,62.2 104,61.8 103.9,61.6 C103.9,61.5 103.9,61.5 103.8,61.4 C102.9,60.1 101.9,58.8 100.7,57.8 C100.4,57.6 100.1,57.3 99.7,57.1 C98.5,56.2 97.1,55.3 97.7,53.5 C97.7,53.4 97.8,53.3 97.9,53.2 L95.4,50.9 C94.9,51.1 94.4,51.3 93.9,51.5 L93.7,55.1 L91.3,55.7 L89.3,52.7 C88.8,52.8 88.2,52.9 87.6,52.9 L86.5,56.3 L84,56.3 L83,53 C82.5,52.9 81.9,52.9 81.4,52.8 L79.4,55.8 L77,55.1 L76.8,51.5 C76.2,51.3 75.7,51.1 75.2,50.9 L72.5,53.3 L70.3,52 L71.1,48.5 C70.7,48.2 70.2,47.9 69.8,47.5 L66.6,49.1 L64.8,47.3 L66.4,44.1 C66.1,43.7 65.7,43.2 65.4,42.8 L61.9,43.5 L60.6,41.3 L63,38.6 C62.8,38.1 62.6,37.6 62.4,37.1 L58.8,36.9 L58.2,34.5 L61.2,32.5 C61.1,32 61,31.4 61,30.9 L57.7,29.8 L55.7,29.8 L55.7,50 C55.7,51.5 55.8,52.5 56,52.9 C56.1,53 56.3,53.2 56.9,53.5 C58.4,54.1 61.6,54.4 66.4,54.4 L66.6,54.4 L66.6,55.5 L34.8,55.5 L34.8,54.4 L35,54.4 C39.7,54.4 42.8,54.1 44.4,53.5 C45.1,53.3 45.3,53.1 45.4,52.9 C45.5,52.7 45.7,51.9 45.7,50 L45.7,29.8 L21.8,29.8 L21.8,50 C21.8,51.5 21.9,52.5 22.1,52.9 C22.2,53 22.3,53.2 23.1,53.5 C23.7,53.7 24.8,53.9 26.5,54.1 C28.1,54.3 30.1,54.3 32.4,54.3 L32.6,54.3 L32.6,55.4 L0.8,55.4 L0.8,54.3 L1,54.3 C3.3,54.3 5.3,54.2 7,54.1 C8.7,53.9 9.8,53.7 10.4,53.5 C11,53.3 11.4,53 11.5,52.7 C11.6,52.5 11.7,52.1 11.8,50.8 L11.8,50.7 L11.8,50 L8.5,48.9 L8.5,46.5 L11.8,45.4 L11.8,42.6 L8.5,41.5 L8.5,39.1 L11.8,38 L11.8,35 L8.5,33.9 L8.5,31.5 L11.8,30.4 L11.8,27.2 L8.5,26.1 L8.5,23.7 L11.8,22.6 L11.8,19 L8.5,17.9 L8.5,15.5 L11.8,14.4 L11.8,11.7 L8.5,10.6 L8.5,8.2 L11.8,7.1 C11.7,6.2 11.6,5.9 11.5,5.7 C11.4,5.6 11.2,5.4 10.5,5.1 C9.9,4.9 8.7,4.7 6.9,4.5 C5.1,4.3 4.2,4.2 2,4.2 L1.9,4.2 L1.1,3.2 L32.8,3.2 L32.8,4.2 L32.6,4.2 C28.1,4.2 24.9,4.5 23.2,5.2 C22.6,5.4 22.4,5.6 22.3,5.8 C22,6.3 21.9,7.2 21.9,8.6 L21.9,27.1 L45.8,27.1 L45.8,8.6 C45.8,7.1 45.7,6.2 45.4,5.8 C45.3,5.7 45.2,5.5 44.4,5.2 C43.8,5 42.6,4.8 40.8,4.6 C39,4.4 37,4.3 35,4.3 L34.8,4.3 L34.8,3.3 L64.5,3.3 L64.2,4.3 L63.9,4.3 C62.1,4.4 62.1,4.4 61.2,4.5 L60.6,4.6 C59.1,4.8 57.9,5 57,5.3 L56.3,5.6 C56.1,5.9 55.8,6.6 55.8,8.7 L55.8,27.3 L57.8,27.3 L61.1,26.2 C61.2,25.6 61.2,25.1 61.3,24.6 L58.3,22.6 L59,20.2 L62.6,20 C62.8,19.5 63,19 63.2,18.5 L60.8,15.8 L62.1,13.6 L65.7,14.4 C66,14 66.3,13.6 66.6,13.2 L65,9.9 L66.8,8.1 L70.1,9.8 C70.5,9.5 70.9,9.2 71.4,8.8 L70.7,5.2 L72.9,3.9 L75.5,6.3 L75.6,6.4 C76.1,6.2 76.5,6 77,5.8 L77.2,2.1 L79.6,1.5 L81.6,4.6 C82.2,4.5 82.7,4.4 83.1,4.4 L84.3,0.9 L86.8,0.9 L88,4.5 C88.5,4.6 89,4.6 89.5,4.7 L91.6,1.6 L94,2.3 L94.2,6 C94.7,6.2 95.2,6.4 95.6,6.6 L98.4,4.1 L100.6,5.4 L99.8,9.1 C100.3,9.4 100.6,9.7 101,10 L104.3,8.3 L106.1,10.1 L104.4,13.4 C104.8,13.9 105.1,14.3 105.3,14.6 L109,13.9 L110.3,16.1 L107.8,18.9 C108,19.4 108.2,19.8 108.4,20.3 L112.1,20.5 L112.7,22.9 L109.6,24.9 C109.7,25.4 109.8,26 109.8,26.5 L113.3,27.7 L113.3,30.2 L109.8,31.3 C109.7,31.8 109.7,32.3 109.6,32.8 L112.7,34.8 L112,37.2 L108.3,37.4 C108.1,38 107.9,38.4 107.7,38.9 L110.1,41.7 L108.8,43.9 L105.2,43.1 C104.9,43.6 104.6,44 104.3,44.3 L105.9,47.6 L104.1,49.4 L100.9,47.8 C100.5,48.1 100.1,48.5 99.6,48.8 L100.3,52 C100.5,52 100.6,52 100.8,52 C102.6,52.4 102.8,54.1 102.9,55.6 C102.9,56 103,56.4 103,56.8 C103.3,58.3 103.9,59.7 104.6,61.2 L104.7,61.3 C104.9,61.5 105.2,61.9 104.8,62.3 C104.7,62.2 104.6,62.2 104.5,62.2 Z M95.5,50.6 L98.3,53.2 L98.2,53.3 C98.1,53.4 98,53.5 98,53.7 C97.5,55.3 98.7,56.1 99.9,57 C100.2,57.2 100.6,57.5 100.9,57.7 C102.1,58.7 103.1,60 104,61.3 C104,61.4 104.1,61.5 104.1,61.6 C104.2,61.9 104.3,62.1 104.5,62 C104.7,61.8 104.6,61.7 104.4,61.4 C104.3,61.3 104.3,61.2 104.2,61.2 C103.5,59.7 102.9,58.2 102.6,56.7 C102.5,56.3 102.5,55.9 102.4,55.5 C102.3,54 102.1,52.5 100.5,52.2 C100.3,52.2 100.2,52.2 100,52.2 L99.9,52.2 L99.2,48.5 L99.3,48.4 C99.8,48 100.3,47.7 100.7,47.3 L100.8,47.2 L104,48.8 L105.5,47.3 L103.9,44.1 L104,44 C104.3,43.6 104.7,43.1 105,42.6 L105.1,42.5 L108.7,43.3 L109.7,41.5 L107.3,38.8 L107.3,38.7 C107.5,38.2 107.7,37.7 108,37 L108.1,37 L108.1,36.9 L111.7,36.7 L112.2,34.7 L109.1,32.7 L109.1,32.6 C109.2,32.1 109.3,31.5 109.3,30.9 L109.3,30.8 L109.6,30.5 L109.6,30.6 L112.8,29.6 L112.8,27.5 L109.3,26.3 L109.3,26.2 C109.2,25.6 109.2,25.1 109.1,24.5 L109.1,24.4 L109.4,24.1 L109.4,24.2 L112.2,22.4 L111.7,20.4 L108,20.2 L108,20.1 C107.8,19.6 107.6,19.1 107.4,18.5 L107.4,18.4 L107.6,18.2 L109.9,15.7 L108.9,13.9 L105.4,14.6 L105.4,14.5 L105.3,14.6 C105,14.2 104.7,13.7 104.2,13.2 L104.1,13.1 L104.3,12.9 L105.9,9.8 L104.4,8.3 L101.2,9.9 L101.1,10 C100.7,9.7 100.3,9.3 99.7,8.9 L99.5,8.8 L99.7,8.7 L100.4,5.3 L98.6,4.2 L95.9,6.6 L95.8,6.7 C95.3,6.5 94.8,6.3 94.2,6 L94.1,5.8 L93.9,2.2 L91.9,1.7 L89.9,4.8 L89.8,4.8 C89.3,4.7 88.7,4.6 88.2,4.6 L88.1,4.6 L87.9,4.4 L86.8,1.1 L84.7,1.1 L83.5,4.6 L83.4,4.6 C82.9,4.6 82.4,4.7 81.7,4.8 L81.6,4.8 L81.4,4.6 L79.5,1.7 L77.5,2.2 L77.3,5.9 L77.2,5.9 C76.7,6.1 76.2,6.3 75.7,6.5 L75.6,6.5 L75.5,6.4 L75.4,6.4 L72.8,4.1 L71,5.1 L71.7,8.7 L71.6,8.8 C71,9.2 70.6,9.5 70.2,9.9 L70.1,10 L66.8,8.3 L65.3,9.8 L66.9,13.1 L66.8,13.2 C66.4,13.6 66.1,14.1 65.7,14.6 L65.6,14.7 L62,13.9 L61,15.7 L63.4,18.4 L63.4,18.5 C63.2,19 62.9,19.6 62.7,20.2 L62.7,20.3 L59.1,20.5 L58.6,22.5 L61.6,24.5 L61.6,24.6 C61.5,25.1 61.4,25.7 61.4,26.3 L61.4,26.4 L57.8,27.6 L55.4,27.6 L55.4,8.6 C55.4,6.8 55.6,5.7 56,5.3 L56.7,5 C57.6,4.7 58.8,4.4 60.4,4.3 L61,4.2 C61.8,4.1 61.8,4.1 63.7,4 L63.8,3.6 L34.8,3.6 L34.8,4 C36.8,4 38.7,4.1 40.5,4.3 C42.4,4.5 43.5,4.7 44.2,5 C44.8,5.2 45.2,5.5 45.3,5.7 C45.6,6.1 45.7,7.1 45.7,8.7 L45.7,27.6 L21.2,27.6 L21.2,8.6 C21.2,7.1 21.3,6.1 21.6,5.6 C21.7,5.4 22.1,5.1 22.6,4.9 C24.3,4.3 27.4,3.9 31.9,3.9 L31.9,3.5 L1.2,3.5 L1.5,3.9 C3.7,4 4.6,4 6.4,4.2 C8.2,4.4 9.4,4.6 10.1,4.9 C10.8,5.1 11.1,5.4 11.3,5.6 C11.5,5.9 11.5,6.4 11.6,7.2 L11.6,7.3 L8.3,8.4 L8.3,10.4 L11.6,11.5 L11.6,14.6 L8.3,15.7 L8.3,17.7 L11.6,18.8 L11.6,22.8 L8.3,23.9 L8.3,25.9 L11.6,27 L11.6,30.6 L8.3,31.7 L8.3,33.7 L11.6,34.8 L11.6,38.3 L8.3,39.4 L8.3,41.4 L11.6,42.5 L11.6,45.8 L8.3,46.9 L8.3,48.9 L11.6,50 L11.6,50.8 C11.6,51.9 11.5,52.6 11.3,52.9 C11.1,53.3 10.7,53.6 10,53.9 C9.4,54.1 8.2,54.4 6.5,54.5 C4.9,54.7 2.9,54.7 0.6,54.7 L0.6,55.2 L32,55.2 L32,54.7 C29.8,54.7 27.9,54.6 26.3,54.5 C24.6,54.3 23.5,54.1 22.8,53.9 C22.1,53.6 21.8,53.4 21.6,53.1 C21.4,52.6 21.3,51.6 21.3,50 L21.3,29.5 L45.8,29.5 L45.8,50 C45.8,51.7 45.7,52.7 45.5,53.1 C45.4,53.4 45,53.6 44.4,53.8 C42.9,54.4 39.7,54.7 35.1,54.7 L35.1,55.2 L66.3,55.2 L66.3,54.7 C61.6,54.7 58.4,54.4 56.8,53.8 C56.2,53.6 55.9,53.3 55.8,53.1 C55.6,52.6 55.5,51.6 55.5,50 L55.5,29.5 L58,29.5 L61.4,30.6 L61.4,30.7 C61.5,31.3 61.5,31.9 61.6,32.5 L61.6,32.6 L58.6,34.6 L59.1,36.6 L62.7,36.8 L62.7,36.9 C62.9,37.4 63.1,37.9 63.4,38.5 L63.4,38.6 L61,41.3 L62,43.1 L65.5,42.4 L65.6,42.5 C66,43.1 66.4,43.5 66.7,44 L66.8,44.1 L65.2,47.3 L66.7,48.8 L69.9,47.2 L70,47.3 C70.5,47.7 70.9,48 71.4,48.4 L71.5,48.5 L70.8,52 L72.6,53 L75.3,50.6 L75.4,50.6 C75.9,50.8 76.5,51.1 77.1,51.3 L77.2,51.3 L77.4,54.9 L79.4,55.4 L81.4,52.4 L81.5,52.4 C82.1,52.5 82.7,52.6 83.3,52.6 L83.4,52.6 L84.5,56 L86.6,56 L87.7,52.6 L87.8,52.6 C88.5,52.5 89.1,52.5 89.6,52.4 L89.7,52.4 L91.7,55.4 L93.7,54.9 L93.9,51.3 L94,51.3 C94.3,51.1 94.9,50.9 95.5,50.6 Z M85.4,49.1 C81.8,49.1 78.2,48.1 75,46.3 C69.4,43 65.6,37.1 65.1,30.5 L65.1,30.3 L66.7,30.3 L66.7,30.4 C66.8,30.6 66.9,30.8 67,30.9 C68.3,33.1 71.1,33.9 73.2,32.6 C74.1,32.1 74.7,31.3 75.1,30.4 L75.1,30.3 L82.6,30.4 L85.4,32 L89.1,38.4 L89,38.5 C87.9,40 87.8,41.9 88.7,43.5 C89.6,45.1 91.4,46 93.2,45.8 L93.3,45.8 L94,47 L93.8,47.1 C91.3,48.4 88.3,49.1 85.4,49.1 Z M65.4,30.6 C66,37 69.7,42.7 75.2,46 C80.8,49.3 87.8,49.7 93.7,47 L93.3,46.2 C91.4,46.4 89.6,45.4 88.6,43.8 C87.6,42.1 87.8,40.1 88.9,38.5 L85.4,32.3 L82.8,30.7 L75.5,30.6 C75.1,31.5 74.4,32.3 73.5,32.8 C71.2,34.1 68.2,33.3 66.8,31 C66.7,30.8 66.6,30.7 66.6,30.5 L65.4,30.6 Z M96.9,45.5 L96.2,44.3 L96.3,44.2 C97.5,42.7 97.7,40.7 96.7,39 C95.8,37.4 93.9,36.5 92,36.8 L91.9,36.8 L88.4,30.6 L88.4,27.1 L92.3,20.5 L92.4,20.5 C93.4,20.6 94.3,20.4 95.2,19.9 C96.3,19.3 97,18.3 97.3,17.1 C97.6,15.9 97.5,14.7 96.9,13.6 C96.8,13.5 96.7,13.3 96.7,13.2 L96.6,13.1 L97.3,11.9 L97.4,12 C105.8,18.2 108.2,29.7 102.8,38.8 C101.3,41.3 99.3,43.5 96.9,45.2 L96.9,45.5 Z M96.6,44.3 L97,45 C99.3,43.4 101.2,41.3 102.7,38.8 C107.9,29.9 105.7,18.7 97.5,12.5 L97.1,13.2 C97.2,13.3 97.2,13.4 97.3,13.5 C97.9,14.6 98.1,15.9 97.8,17.2 C97.5,18.5 96.6,19.5 95.5,20.2 C94.6,20.7 93.6,20.9 92.6,20.8 L88.9,27.1 L88.9,30.4 L92.3,36.4 C94.3,36.1 96.2,37.1 97.2,38.8 C98,40.6 97.8,42.8 96.6,44.3 Z M92.8,43.7 C92.6,43.7 92.4,43.7 92.1,43.6 C91.5,43.4 90.9,43 90.6,42.4 C89.9,41.2 90.3,39.7 91.5,39 C92.1,38.7 92.7,38.6 93.4,38.8 C94,39 94.6,39.4 94.9,40 C95.2,40.6 95.3,41.2 95.1,41.9 C94.9,42.5 94.5,43.1 93.9,43.4 C93.6,43.6 93.2,43.7 92.8,43.7 Z M92.8,39.1 C92.4,39.1 92.1,39.2 91.7,39.4 C90.7,40 90.3,41.3 90.9,42.4 C91.2,42.9 91.7,43.3 92.2,43.4 C92.8,43.6 93.3,43.5 93.8,43.2 C94.3,42.9 94.7,42.4 94.8,41.9 C95,41.3 94.9,40.8 94.6,40.3 C94.3,39.8 93.8,39.4 93.3,39.3 C93.1,39.1 92.9,39.1 92.8,39.1 Z M70.9,31.1 C70.7,31.1 70.5,31.1 70.2,31 C69.6,30.8 69,30.4 68.7,29.8 C68,28.6 68.4,27.1 69.6,26.4 C70.8,25.7 72.3,26.1 73,27.3 C73.7,28.5 73.3,30 72.1,30.7 C71.7,31 71.3,31.1 70.9,31.1 Z M70.9,26.4 C70.5,26.4 70.2,26.5 69.8,26.7 C68.8,27.3 68.4,28.6 69,29.7 C69.3,30.2 69.8,30.6 70.3,30.7 C70.9,30.9 71.4,30.8 71.9,30.5 C72.9,29.9 73.3,28.6 72.7,27.5 C72.3,26.8 71.6,26.4 70.9,26.4 Z M82.7,27.2 L75.2,27.1 L75.2,27 C75.1,26.7 75,26.5 74.9,26.4 C73.6,24.2 70.8,23.4 68.7,24.7 C67.8,25.2 67.1,26 66.7,27 L66.7,27.1 L65.1,27.1 L65.1,26.9 C65.4,23.8 66.3,20.9 67.9,18.3 C73.3,9.1 85,5.7 94.6,10.4 L94.7,10.5 L94.1,11.6 L94,11.6 C92.9,11.4 91.8,11.6 90.9,12.1 C88.7,13.4 87.9,16.1 89.2,18.3 C89.3,18.5 89.5,18.7 89.7,19 L89.8,19.1 L86,25.5 L82.7,27.2 Z M75.5,26.8 L82.7,26.9 L85.6,25.3 L89.3,19.1 C89.1,18.9 89,18.7 88.9,18.5 C87.6,16.2 88.4,13.2 90.7,11.8 C91.7,11.2 92.8,11 93.9,11.2 L94.3,10.6 C84.9,6 73.5,9.4 68.2,18.4 C66.7,21 65.8,23.8 65.5,26.7 L66.6,26.7 C67,25.7 67.7,24.9 68.7,24.4 C71,23.1 74,23.9 75.4,26.2 C75.3,26.4 75.4,26.6 75.5,26.8 Z M93.1,18.6 C92.2,18.6 91.4,18.2 91,17.4 C90.7,16.8 90.6,16.2 90.8,15.5 C91,14.9 91.4,14.3 92,14 C92.6,13.7 93.2,13.6 93.9,13.8 C94.5,14 95.1,14.4 95.4,15 C96.1,16.2 95.7,17.7 94.5,18.4 C93.9,18.4 93.5,18.6 93.1,18.6 Z M93.1,13.9 C92.7,13.9 92.4,14 92,14.2 C91.5,14.5 91.1,15 91,15.5 C90.8,16.1 90.9,16.6 91.2,17.1 C91.8,18.1 93.1,18.5 94.2,17.9 C95.2,17.3 95.6,16 95,14.9 C94.7,14.4 94.2,14 93.7,13.9 C93.5,13.9 93.3,13.9 93.1,13.9 Z M107.3,18.4 L107.5,18.2 L107.5,18.3 L107.3,18.4 Z"></path>
                </g>
                <g transform="translate(0.000000, 3.000000)" id="Shape">
                    <g transform="translate(29.000000, 46.000000)">
                        <path d="M4.8,3.3 C4.5,3.1 4,3 3.3,2.8 C2.6,2.6 2.2,2.5 2,2.4 C1.6,2.2 1.4,2 1.4,1.6 C1.4,1.3 1.5,1.1 1.8,0.8 C2.1,0.6 2.4,0.5 2.8,0.5 C3.5,0.5 4.1,0.9 4.6,1.6 C4.8,1.9 4.9,2.3 5.1,2.8 L5.3,2.8 L5.3,0.3 L5.1,0.3 C4.9,0.6 4.8,0.8 4.7,0.8 C4.7,0.8 4.5,0.7 4.1,0.5 C3.7,0.3 3.3,0.2 2.8,0.2 C2.1,0.2 1.5,0.4 1.1,0.9 C0.6,1.3 0.4,1.8 0.4,2.4 C0.4,3 0.6,3.4 1.1,3.8 C1.4,4 1.9,4.2 2.7,4.4 C2.9,4.4 3.5,4.4 4.3,4.9 C4.7,5.1 4.8,5.4 4.8,5.7 C4.8,6.1 4.7,6.4 4.4,6.7 C4.1,7 3.7,7.1 3.2,7.1 C2.5,7.1 2,6.9 1.6,6.4 C1.2,5.9 0.9,5.2 0.6,4.2 L0.4,4.2 L0.4,7.3 L0.6,7.3 C0.7,7 0.8,6.8 0.8,6.8 C0.9,6.7 0.9,6.6 1,6.6 C1.1,6.6 1.2,6.7 1.4,6.8 C1.7,7 1.9,7.1 2.1,7.1 C2.5,7.2 2.8,7.3 3.2,7.3 C3.9,7.3 4.5,7.1 5,6.6 C5.5,6.1 5.8,5.6 5.8,4.9 C5.9,4.2 5.5,3.6 4.8,3.3 Z"></path>
                        <path d="M3.3,7.5 C2.9,7.5 2.5,7.4 2.1,7.3 C1.9,7.2 1.6,7.1 1.3,6.9 C1,6.8 1,6.7 0.9,6.7 C0.9,6.7 0.8,6.7 0.8,6.8 C0.8,6.8 0.7,7 0.6,7.3 L0.6,7.4 L0.2,7.4 L0.2,4 L0.6,4 L0.6,4.1 C0.9,5.1 1.2,5.8 1.6,6.2 C2,6.7 2.5,6.9 3.1,6.9 C3.5,6.9 3.9,6.8 4.2,6.5 C4.5,6.3 4.6,6 4.6,5.7 C4.6,5.4 4.4,5.2 4.1,5 C3.4,4.6 2.9,4.5 2.6,4.5 C2.5,4.5 2.5,4.5 2.5,4.5 C1.7,4.3 1.2,4.1 0.8,3.8 C0.3,3.4 0.1,2.9 0.1,2.3 C0.1,1.7 0.4,1.2 0.8,0.7 C1.3,0.2 1.9,0 2.6,0 C3,0 3.5,0.1 3.9,0.3 C4.2,0.4 4.4,0.5 4.5,0.6 C4.5,0.6 4.6,0.5 4.8,0.2 L4.8,0.1 L5.2,0.1 L5.2,2.9 L5,2.9 L5,2.8 C4.8,2.3 4.7,1.9 4.5,1.6 C4.1,0.9 3.5,0.5 2.9,0.5 C2.5,0.5 2.2,0.6 2,0.8 C1.8,1 1.7,1.2 1.7,1.4 C1.7,1.7 1.9,1.9 2.2,2.1 C2.4,2.2 2.8,2.3 3.5,2.5 C4.2,2.7 4.7,2.8 5,3 C5.8,3.4 6.2,4 6.2,4.8 C6.2,5.5 5.9,6.1 5.4,6.6 C4.7,7.2 4,7.5 3.3,7.5 Z M2,0.6 C1.7,0.7 1.5,0.9 1.3,1.1 C0.9,1.5 0.7,1.9 0.7,2.5 C0.7,3 0.9,3.4 1.3,3.7 C1.6,3.9 2.1,4.1 2.8,4.3 L2.9,4.3 C3.2,4.3 3.7,4.4 4.5,4.8 C4.9,5 5.1,5.4 5.1,5.8 C5.1,6.2 4.9,6.6 4.6,6.9 C4.5,7 4.4,7 4.3,7.1 C4.6,7 4.9,6.8 5.1,6.6 C5.6,6.2 5.8,5.6 5.8,5 C5.8,4.3 5.5,3.8 4.8,3.4 C4.5,3.2 4,3.1 3.3,2.9 C2.6,2.7 2.2,2.6 2,2.5 C1.6,2.3 1.4,2 1.4,1.6 C1.4,1.3 1.5,1 1.8,0.7 C1.8,0.7 1.9,0.6 2,0.6 Z M0.6,4.7 L0.6,7 C0.7,6.9 0.7,6.8 0.7,6.8 C0.8,6.6 1,6.5 1.1,6.5 C1.2,6.5 1.3,6.5 1.6,6.7 C1.8,6.8 1.9,6.9 2.1,6.9 C1.9,6.8 1.8,6.6 1.6,6.5 C1.1,6.1 0.8,5.5 0.6,4.7 Z M4,0.7 C4.3,0.9 4.6,1.2 4.8,1.6 C4.9,1.8 5.1,2.1 5.2,2.5 L5.2,0.7 C5.1,1 4.9,1.1 4.8,1.1 L4.6,1.1 L4.6,1 C4.5,0.9 4.3,0.8 4,0.7 Z"></path>
                    </g>
                    <g transform="translate(0.000000, 21.000000)">
                        <path d="M8.7,0.7 C9.4,0.8 9.7,1.1 9.7,1.6 C9.7,1.9 9.6,2.5 9.3,3.3 L8.6,5.5 L7.5,1.8 C7.4,1.5 7.4,1.3 7.4,1.2 C7.4,1.1 7.5,1 7.6,0.9 C7.7,0.8 7.9,0.8 8.3,0.8 L8.3,0.6 L4.9,0.6 L4.9,0.8 C5.2,0.8 5.4,0.9 5.5,1 C5.6,1.1 5.7,1.3 5.8,1.5 L6.1,2.4 L5.2,5.6 L4,1.8 C3.9,1.5 3.9,1.3 3.9,1.2 C3.9,0.9 4.1,0.8 4.6,0.7 L4.6,0.5 L1,0.5 L1,0.7 C1.4,0.8 1.7,0.9 1.8,1 C1.9,1.1 2,1.4 2.2,2 L3.9,7.4 L4.7,7.4 L6.1,2.8 L7.5,7.4 L8.2,7.4 L9.5,3.3 C9.8,2.4 10.1,1.7 10.4,1.4 C10.7,1.1 11,0.8 11.5,0.8 L11.5,0.6 L8.7,0.7 C8.7,0.6 8.7,0.7 8.7,0.7 Z"></path>
                        <path d="M8.4,7.6 L7.5,7.6 L6.2,3.3 L4.9,7.6 L3.9,7.6 L2.1,2.1 C1.9,1.4 1.8,1.2 1.7,1.2 C1.6,1.1 1.3,1 1,0.9 L0.9,0.9 L0.9,0.4 L4.6,0.4 L4.6,0.9 L4.5,0.9 C4,1 4,1.2 4,1.2 C4,1.2 4,1.3 4.1,1.7 L5.1,5 L5.9,2.3 L5.6,1.4 C5.5,1.1 5.4,1 5.4,0.9 C5.3,0.8 5.2,0.8 4.9,0.8 L4.8,0.8 L4.8,0.3 L8.5,0.3 L8.5,0.8 L8.4,0.8 C8,0.8 7.8,0.9 7.8,0.9 C7.7,1 7.7,1 7.7,1.1 C7.7,1.1 7.7,1.3 7.8,1.7 L8.8,5 L9.4,3.3 C9.6,2.5 9.8,2 9.8,1.7 C9.8,1.4 9.7,1 8.9,0.9 L8.8,0.9 L8.8,0.4 L11.9,0.4 L11.9,0.9 L11.8,0.9 C11.4,1 11.1,1.2 10.8,1.5 C10.5,1.8 10.3,2.5 10,3.4 L8.4,7.6 Z M7.6,7.3 L8.1,7.3 L8.5,6 L7.3,1.8 C7.2,1.4 7.2,1.2 7.2,1.2 C7.2,1.1 7.3,0.9 7.5,0.7 L5.4,0.7 L5.5,0.8 C5.6,0.9 5.7,1.1 5.8,1.4 L6.1,2.3 L7.6,7.3 Z M4.1,7.3 L4.6,7.3 L5,6 L3.7,1.8 C3.6,1.4 3.6,1.3 3.6,1.2 C3.6,1 3.7,0.8 3.9,0.7 L1.6,0.7 C1.8,0.8 1.9,0.9 2,1 C2.1,1.1 2.2,1.3 2.4,2 L4.1,7.3 Z M9.2,0.7 C9.7,0.9 9.8,1.3 9.8,1.7 C9.8,1.9 9.8,2.2 9.7,2.5 C9.9,2 10.1,1.6 10.3,1.3 C10.5,1 10.7,0.9 11,0.7 C11,0.7 9.2,0.7 9.2,0.7 Z"></path>
                    </g>
                    <g transform="translate(13.000000, 0.000000)">
                        <path d="M153.6,0.4 L123.6,0.4 L113,0.4 L95.6,0.4 L46,0.4 L46,1.1 C50.3,1.1 53.3,2 55,3.8 C56.6,5.6 57.5,9 57.5,13.8 L57.5,36.1 C57.5,37.2 57.4,37.7 57.3,37.7 C57.1,37.7 56.7,37.2 56,36.3 L28.4,0.3 L11.7,0.3 L11.7,1 C14.4,1 16.6,1.5 18.4,2.6 C18.5,3.8 18.6,4.9 18.6,6.1 C18.6,7.2 18.5,8.4 18.3,9.7 C18.1,11 17.8,12.2 17.4,13.4 L17.1,14.3 C16.5,15.6 17,16.2 18.7,16.2 L18.7,18.1 L18.4,18.1 C18.2,18.1 18.1,18.2 18.1,18.4 L18.1,18.5 C18.1,18.6 18.2,18.8 18.4,18.8 L18.7,18.8 C18.7,18.8 18.7,20.6 18.7,21.2 C18.6,21.2 18.4,21.2 18.3,21.3 L17.9,20.8 L17.5,21 L17.5,21.7 C17.4,21.8 17.2,21.8 17.1,21.9 L16.5,21.5 L16.2,21.8 L16.5,22.4 C16.4,22.5 16.3,22.6 16.2,22.7 L15.5,22.6 L15.3,23 L15.8,23.5 C15.7,23.6 15.7,23.8 15.6,23.9 L14.9,24 L14.8,24.4 C13.7,24.4 12.5,24.6 11.5,24.7 C11.2,24.7 10.8,24.8 10.5,24.8 C10.3,24.8 10.1,24.6 9.9,24.6 C9.6,24.6 9.4,24.8 9.2,24.8 C8.8,24.8 8.3,24.6 8.1,24.3 C7.7,24 7.5,23.5 6.9,23.8 C5.8,24.5 4.6,24.6 3.4,24.7 C3,24.7 0.7,24.8 0.7,24.8 C0.7,24.8 0.7,24.9 0.7,25 C0.7,25.1 0.7,25.2 0.7,25.2 C0.7,25.2 3,25.3 3.4,25.3 C4.6,25.4 5.8,25.5 6.9,26.2 C7.5,26.6 7.7,26 8.1,25.7 C8.4,25.4 8.8,25.2 9.2,25.2 C9.4,25.2 9.7,25.4 9.9,25.4 C10.1,25.4 10.3,25.2 10.5,25.2 C10.8,25.2 11.1,25.2 11.5,25.3 C12.6,25.4 13.7,25.6 14.8,25.6 L14.9,26 L15.6,26.1 C15.6,26.2 15.7,26.4 15.8,26.5 L15.3,27 L15.5,27.4 L16.2,27.3 C16.3,27.4 16.4,27.5 16.5,27.6 L16.2,28.2 L16.5,28.5 L17.1,28.1 C17.2,28.2 17.4,28.3 17.5,28.3 L17.5,29 L17.9,29.2 L18.3,28.7 C18.4,28.7 18.5,28.7 18.6,28.8 C18.5,30.2 18.7,31.7 18.9,33 C18.9,33.3 19,33.7 19,34 C19,34.2 18.8,34.4 18.8,34.6 C18.8,34.9 19,35.1 19,35.3 C19,35.7 18.8,36.2 18.5,36.4 C18.2,36.8 17.7,37 18,37.6 C18.7,38.7 18.8,39.9 18.9,41.1 C18.9,41.5 19,43.8 19,43.8 C19,43.8 19.1,43.8 19.2,43.8 C19.3,43.8 19.4,43.8 19.4,43.8 C19.4,43.8 19.5,41.5 19.5,41.1 C19.6,39.9 19.7,38.7 20.4,37.6 C20.8,37 20.2,36.8 19.9,36.4 C19.6,36.1 19.4,35.7 19.4,35.3 C19.4,35.1 19.6,34.8 19.6,34.6 C19.6,34.4 19.4,34.2 19.4,34 C19.4,33.7 19.4,33.4 19.5,33 C19.7,31.7 19.9,30.2 19.8,28.8 C19.9,28.8 20,28.8 20.1,28.7 L20.5,29.2 L20.9,29 L20.9,28.3 C21,28.2 21.2,28.2 21.3,28.1 L21.9,28.5 L22.2,28.2 L21.9,27.6 C22,27.5 22.1,27.4 22.2,27.3 L22.9,27.4 L23.1,27 L22.6,26.5 C22.7,26.4 22.7,26.2 22.8,26.1 L23.5,26 L23.6,25.6 C24.7,25.6 25.9,25.4 26.9,25.3 C27.2,25.3 27.6,25.2 27.9,25.2 C28.1,25.2 28.3,25.4 28.5,25.4 C28.8,25.4 29,25.2 29.2,25.2 C29.6,25.2 30.1,25.4 30.3,25.7 C30.7,26 30.9,26.5 31.5,26.2 C32.6,25.5 33.8,25.4 35,25.3 C35.2,25.3 35.7,25.3 36.2,25.3 L49.2,42.5 L50.3,43.9 L56.6,52.2 L57.5,52.2 L58.5,52.2 L63.3,52.2 L68.7,52.2 L114.6,52.2 L114.6,31.5 L122.4,52.2 L125.2,52.2 L135.3,13.3 L147.1,52.2 L149.8,52.2 L162.9,14.7 C164.6,10 165.6,7.4 165.9,6.8 C167.7,2.9 170.5,0.9 174.3,0.9 L174.3,0.2 L153.6,0.2 L153.6,0.4 Z M20.2,4.1 L22.1,6.5 L23.9,8.9 L24,9 L24.9,10 L35.9,24.6 C35.6,24.6 35.3,24.6 35.1,24.6 C33.9,24.5 32.7,24.4 31.6,23.7 C31,23.3 30.8,23.9 30.4,24.2 C30.1,24.5 29.7,24.7 29.3,24.7 C29.1,24.7 28.8,24.5 28.6,24.5 C28.4,24.5 28.2,24.7 28,24.7 C27.7,24.7 27.4,24.7 27,24.6 C25.9,24.5 24.8,24.3 23.7,24.3 L23.6,23.9 L22.9,23.8 C22.9,23.7 22.8,23.5 22.7,23.4 L23.2,22.9 L23,22.5 L22.3,22.6 C22.2,22.5 22.1,22.4 22,22.3 L22.3,21.7 L22,21.4 L21.4,21.8 C21.3,21.7 21.1,21.6 21,21.6 L21,20.9 L20.6,20.7 L20.2,21.2 C20.1,21.2 19.9,21.1 19.8,21.1 C19.8,21.1 19.8,18.8 19.8,18.7 L20.1,18.7 C20.3,18.7 20.4,18.6 20.4,18.4 L20.4,18.3 C20.4,18.2 20.3,18 20.1,18 L19.8,18 L19.8,16.1 C21.5,16.1 22,15.5 21.4,14.2 L21.1,13.3 C20.7,12.1 20.3,10.9 20.2,9.6 C20,8.3 19.9,7.1 19.9,6 C19.9,5.2 19.9,4.3 20,3.5 C19.9,3.9 20.1,4 20.2,4.1 Z M19.2,26.9 C18.1,26.9 17.3,26 17.3,25 C17.3,23.9 18.2,23.1 19.2,23.1 C20.3,23.1 21.1,24 21.1,25 C21.1,26.1 20.2,26.9 19.2,26.9 Z M74.2,11.7 L71.4,12.6 L71.4,14.8 L74.2,15.7 L74.2,19.8 L71.4,20.7 L71.4,22.9 L74.2,23.8 L74.2,27.5 L71.4,28.4 L71.4,30.6 L74.2,31.5 L74.2,35.1 L71.4,36 L71.4,38.2 L74.2,39.1 L74.2,42.4 L71.4,43.3 L71.4,45.5 L74.2,46.4 L74.2,46.6 C74.2,48.1 74.1,49 73.9,49.4 C73.7,49.8 73.3,50 72.8,50.2 C71.8,50.6 70.2,50.8 67.9,51 L58.5,39.2 L58.5,13.5 C58.5,8.6 59.2,5.3 60.7,3.5 C61.9,2 63.4,0.8 66.6,0.8 C70,0.8 72.2,1.6 72.8,1.8 C73.4,2 73.7,2.2 73.8,2.4 C74,2.7 74,3.2 74.1,4.1 L71.3,5 L71.3,7.2 L74.1,8.1 L74.1,11.7 L74.2,11.7 Z M107.7,45.8 C104.6,49.4 100,51.3 93.9,51.3 C91,51.3 90,51.3 88.9,51.2 C87.8,51.1 86.8,51 85.9,50.7 C85,50.4 84.5,50.1 84.4,49.7 C84.2,49.3 84.2,48.4 84.2,46.9 L84.2,25.4 C89.7,25.4 93.2,26 94.6,27.2 C96.6,28.9 98,33.5 98.8,40.8 L99.8,40.8 L99.8,9 L98.8,9 C98,16.5 96.6,21.1 94.6,22.8 C93.3,23.9 89.8,24.5 84.3,24.5 L84.3,5.6 C84.3,4 84.4,3.1 84.6,2.7 C84.8,2.3 85.1,2.1 85.6,1.8 C87.2,1.3 89,1.1 91.1,1 C93,1 94.9,1 96.7,1 C97.2,1 97.7,1 98.1,1 C100.2,1.1 102,1.7 103.7,2.7 C104.1,3.4 104.6,4.3 105,5.4 L113.7,28.5 C112.7,36.6 110.8,42.3 107.7,45.8 Z M127.3,39.2 L114.7,5.6 C114.4,4.9 114.2,4.2 114.2,3.7 C114.2,2.7 114.8,2 116.1,1.7 C117.4,1.4 120.2,1.2 123.5,1.2 C127.3,1.2 129.6,1.4 130.5,1.8 C131.4,2.2 132.2,3.5 132.8,5.7 L134.5,11.4 L127.3,39.2 Z M161.9,14.3 L153.1,39.3 L142.8,5.6 C142.6,5 142.5,4.4 142.5,3.8 C142.5,2.7 143.1,1.9 144.4,1.6 C145.7,1.3 150.5,1.1 153.7,1.1 C160.1,1.1 163.3,3.4 163.3,7.9 C163.2,9.6 162.8,11.7 161.9,14.3 Z"></path>
                        <path d="M149.9,52.4 L147,52.4 L147,52.3 L135.4,13.9 L125.4,52.4 L122.4,52.4 L114.9,32.4 L114.9,52.4 L56.5,52.4 L36.2,25.4 C35.7,25.4 35.3,25.4 35.1,25.4 C33.8,25.5 32.7,25.6 31.6,26.3 C31,26.6 30.7,26.3 30.4,26 C30.3,25.9 30.3,25.9 30.2,25.8 C30,25.7 29.6,25.3 29.2,25.3 C29.1,25.3 29,25.3 28.9,25.4 C28.8,25.5 28.6,25.5 28.5,25.5 C28.4,25.5 28.2,25.4 28.1,25.4 C28,25.4 27.9,25.3 27.8,25.3 C27.6,25.3 27.4,25.3 27.2,25.3 C27.1,25.3 27,25.3 26.9,25.3 L26.4,25.4 C25.5,25.5 24.6,25.6 23.7,25.6 L23.6,26 L22.9,26.1 C22.9,26.2 22.8,26.3 22.8,26.4 L23.3,26.9 L23,27.5 L22.3,27.4 C22.2,27.5 22.2,27.5 22.1,27.6 L22.4,28.2 L21.9,28.6 L21.3,28.2 C21.2,28.2 21.1,28.3 21.1,28.3 L21.1,29 L20.5,29.2 L20.1,28.7 L20,28.7 C20.1,29.9 19.9,31.1 19.8,32.3 L19.7,32.8 C19.7,32.9 19.7,33 19.7,33.1 C19.7,33.3 19.6,33.6 19.7,33.7 C19.7,33.8 19.7,33.9 19.8,34 C19.9,34.1 19.9,34.2 19.9,34.4 C19.9,34.6 19.8,34.7 19.8,34.8 C19.8,34.9 19.7,35 19.7,35.1 C19.7,35.6 20,36 20.2,36.1 C20.3,36.2 20.3,36.2 20.4,36.3 C20.7,36.6 21.1,36.9 20.7,37.5 C20.1,38.5 19.9,39.7 19.8,41 C19.8,41.2 19.8,41.6 19.8,42.1 C19.7,43.8 19.7,43.8 19.7,43.8 C19.6,43.9 19.5,43.9 19.4,43.9 C19.3,43.9 19.1,43.9 19.1,43.8 C19,43.7 19,43.7 19,42.1 C19,41.6 19,41.2 19,41 C18.9,39.7 18.8,38.6 18.1,37.5 C17.8,36.9 18.1,36.6 18.4,36.3 C18.5,36.2 18.5,36.2 18.6,36.1 C18.7,35.9 19.1,35.5 19.1,35.1 C19.1,35 19.1,34.9 19,34.8 C18.9,34.7 18.9,34.5 18.9,34.4 C18.9,34.3 19,34.1 19,34 C19,33.9 19.1,33.8 19.1,33.7 C19.1,33.5 19.1,33.3 19.1,33.1 C19.1,33 19.1,32.9 19.1,32.8 L19,32.3 C18.9,31.1 18.7,29.9 18.8,28.7 L18.7,28.7 L18.3,29.2 L17.7,29 L17.7,28.3 C17.6,28.3 17.5,28.2 17.5,28.2 L16.9,28.6 L16.4,28.2 L16.7,27.6 C16.6,27.5 16.6,27.5 16.5,27.4 L15.8,27.5 L15,27 L15.5,26.5 C15.5,26.4 15.4,26.3 15.4,26.2 L14.7,26.1 L14.6,25.7 C13.7,25.7 12.8,25.6 11.9,25.5 L11.4,25.4 C11.3,25.4 11.2,25.4 11.1,25.4 C10.9,25.4 10.6,25.3 10.5,25.4 C10.4,25.4 10.3,25.4 10.2,25.5 C10.1,25.6 10,25.6 9.8,25.6 C9.6,25.6 9.5,25.5 9.4,25.5 C9.3,25.5 9.2,25.4 9.1,25.4 C8.6,25.4 8.2,25.7 8.1,25.9 C8,26 8,26 7.9,26.1 C7.6,26.4 7.3,26.8 6.7,26.4 C5.7,25.8 4.5,25.6 3.2,25.5 C3,25.5 2.6,25.5 2.1,25.5 C0.4,25.4 0.4,25.4 0.4,25.4 C0.3,25.3 0.3,25.2 0.3,25.1 C0.3,25 0.3,24.8 0.4,24.8 C0.5,24.7 0.5,24.7 2.1,24.7 C2.6,24.7 3,24.7 3.2,24.7 C4.5,24.6 5.6,24.5 6.7,23.8 C7.3,23.5 7.6,23.8 7.9,24.1 C8,24.2 8,24.2 8.1,24.3 C8.3,24.4 8.7,24.8 9.1,24.8 C9.2,24.8 9.3,24.8 9.4,24.7 C9.5,24.6 9.7,24.6 9.8,24.6 C9.9,24.6 10.1,24.7 10.2,24.7 C10.3,24.7 10.4,24.8 10.5,24.8 C10.7,24.8 10.9,24.8 11.1,24.8 C11.2,24.8 11.3,24.8 11.4,24.8 L11.9,24.7 C12.8,24.6 13.7,24.5 14.6,24.5 L14.7,24.1 L15.4,24 C15.4,23.9 15.5,23.8 15.5,23.7 L15,23 L15.3,22.4 L16,22.5 C16.1,22.4 16.1,22.4 16.2,22.3 L15.9,21.6 L16.4,21.2 L17,21.6 C17.1,21.6 17.2,21.5 17.2,21.5 L17.2,20.8 L17.8,20.6 L18.2,21.2 C18.3,21.2 18.3,21.2 18.4,21.2 L18.4,19 L18.3,19 C18,19 17.8,18.8 17.8,18.6 L17.8,18.5 C17.8,18.3 18,18.1 18.3,18.1 L18.4,18.1 L18.4,16.5 C17.5,16.5 17,16.3 16.7,15.9 C16.5,15.5 16.5,15 16.8,14.4 L17.1,13.5 C17.5,12.3 17.9,11.1 18,9.8 C18.2,8.5 18.3,7.3 18.3,6.2 C18.3,5.1 18.2,3.9 18.1,2.7 C16.4,1.7 14.2,1.2 11.6,1.2 L11.4,1.2 L11.4,0.2 L28.2,0.2 L28.2,0.3 L55.8,36.3 C56.5,37.3 56.8,37.5 56.9,37.6 C56.9,37.5 57,37.2 57,36.2 L57,13.9 C57,9.1 56.2,5.8 54.6,4 C53,2.2 50,1.3 45.8,1.3 L45.6,1.3 L45.6,0.3 L174.2,0.3 L174.2,1.3 L174,1.3 C170.3,1.3 167.5,3.2 165.7,7.1 C165.4,7.7 164.4,10.3 162.7,15 L149.9,52.4 Z M147.2,52.1 L149.7,52.1 L162.8,14.7 C164.5,10.1 165.5,7.4 165.8,6.8 C167.6,2.9 170.4,0.9 174.2,0.9 L174.2,0.5 L46.2,0.5 L46.2,0.9 C50.5,0.9 53.5,1.9 55.1,3.7 C56.8,5.5 57.6,8.9 57.6,13.8 L57.6,36.1 C57.6,37.6 57.5,37.9 57.2,37.9 C57,37.9 56.8,37.8 55.8,36.5 L28.2,0.5 L11.9,0.5 L11.9,0.9 C14.5,0.9 16.8,1.5 18.5,2.5 L18.6,2.5 L18.6,2.6 C18.8,3.8 18.8,5 18.8,6.2 C18.8,7.3 18.7,8.5 18.5,9.8 C18.3,11.1 18,12.4 17.6,13.5 L17.3,14.4 C17,14.9 17,15.3 17.2,15.6 C17.4,15.9 17.9,16.1 18.8,16.1 L19,16.1 L19,18.3 L18.6,18.3 C18.5,18.3 18.4,18.4 18.4,18.4 L18.4,18.5 C18.4,18.6 18.5,18.6 18.6,18.6 L19,18.6 L19,21.3 L18.9,21.3 C18.8,21.3 18.6,21.3 18.5,21.4 L18.4,21.4 L18,20.9 L17.8,21 L17.8,21.7 L17.7,21.7 C17.6,21.8 17.5,21.8 17.3,21.9 L17.2,22 L16.6,21.6 L16.4,21.7 L16.7,22.3 L16.6,22.4 C16.5,22.5 16.4,22.6 16.3,22.7 L16.2,22.8 L15.5,22.7 L15.4,22.9 L15.9,23.4 L15.9,23.5 C15.8,23.6 15.8,23.8 15.8,23.9 L15.8,24 L15.1,24.1 L15,24.5 L14.9,24.5 C14,24.5 13,24.6 12.1,24.7 L11.6,24.8 C11.5,24.8 11.4,24.8 11.3,24.8 C11,24.8 10.8,24.9 10.6,24.8 C10.5,24.8 10.4,24.7 10.2,24.7 C10.1,24.7 10,24.6 9.9,24.6 C9.8,24.6 9.7,24.6 9.6,24.7 C9.5,24.7 9.3,24.8 9.2,24.8 C8.6,24.8 8.1,24.4 8,24.3 C7.9,24.2 7.9,24.2 7.8,24.1 C7.5,23.8 7.3,23.6 7,23.8 C5.9,24.5 4.7,24.6 3.4,24.7 C3.2,24.7 2.8,24.7 2.3,24.7 C1.8,24.7 1,24.7 0.8,24.8 C0.8,24.8 0.8,24.8 0.8,24.9 L0.8,25 C1,25 1.8,25 2.3,25.1 C2.8,25.1 3.2,25.1 3.4,25.1 C4.7,25.2 5.9,25.3 7,26 C7.4,26.2 7.5,26.1 7.8,25.7 C7.9,25.6 7.9,25.6 8,25.5 C8.2,25.3 8.7,25 9.2,25 C9.3,25 9.5,25.1 9.6,25.1 C9.7,25.1 9.8,25.2 9.9,25.2 C10,25.2 10.1,25.2 10.2,25.1 C10.3,25.1 10.4,25 10.6,25 C10.8,25 11,25 11.3,25 C11.4,25 11.5,25 11.6,25 L12.1,25.1 C13,25.2 13.9,25.3 14.9,25.3 L15,25.3 L15.1,25.7 L15.8,25.8 L15.8,25.9 C15.8,26 15.9,26.2 15.9,26.3 L15.9,26.4 L15.5,26.9 L15.6,27.1 L16.3,27 L16.4,27.1 C16.5,27.2 16.6,27.3 16.7,27.4 L16.8,27.5 L16.6,28.1 L16.8,28.2 L17.4,27.8 L17.5,27.9 C17.6,28 17.7,28.1 17.9,28.1 L18,28.1 L18,28.8 L18.2,28.9 L18.6,28.4 L18.7,28.4 C18.8,28.4 18.9,28.4 19,28.5 L19.1,28.5 L19.1,28.6 C19,29.8 19.2,31.1 19.3,32.2 L19.4,32.7 C19.4,32.8 19.4,32.9 19.4,33 C19.4,33.3 19.5,33.5 19.4,33.7 C19.4,33.8 19.3,33.9 19.3,34.1 C19.3,34.2 19.2,34.3 19.2,34.4 C19.2,34.5 19.2,34.6 19.3,34.7 C19.3,34.8 19.4,35 19.4,35.1 C19.4,35.7 19,36.2 18.9,36.3 C18.8,36.4 18.8,36.4 18.7,36.5 C18.4,36.8 18.2,37 18.4,37.3 C19.1,38.4 19.2,39.6 19.3,40.9 C19.3,41.1 19.3,41.5 19.3,42 C19.3,42.5 19.3,43.3 19.4,43.5 C19.4,43.5 19.4,43.5 19.5,43.5 L19.6,43.5 C19.6,43.3 19.6,42.5 19.7,42 C19.7,41.5 19.7,41.1 19.7,40.9 C19.8,39.6 19.9,38.4 20.6,37.3 C20.8,36.9 20.7,36.8 20.3,36.5 C20.2,36.4 20.2,36.4 20.1,36.3 C19.9,36.1 19.6,35.6 19.6,35.1 C19.6,35 19.7,34.8 19.7,34.7 C19.7,34.6 19.8,34.5 19.8,34.4 C19.8,34.3 19.8,34.2 19.7,34.1 C19.7,34 19.6,33.9 19.6,33.7 C19.6,33.5 19.6,33.3 19.6,33 C19.6,32.9 19.6,32.8 19.6,32.7 L19.7,32.2 C19.8,31 20,29.8 19.9,28.5 L19.9,28.4 L20,28.4 C20.1,28.4 20.2,28.4 20.3,28.3 L20.4,28.3 L20.8,28.8 L21,28.7 L21,28 L21.1,28 C21.2,27.9 21.4,27.9 21.5,27.8 L21.6,27.7 L22.2,28.1 L22.4,28 L22.2,27.4 L22.3,27.3 C22.4,27.2 22.5,27.1 22.6,27 L22.7,26.9 L23.4,27 L23.5,26.8 L23.1,26.3 L23.1,26.2 C23.2,26.1 23.2,25.9 23.2,25.8 L23.2,25.7 L23.9,25.6 L24,25.2 L24.1,25.2 C25,25.2 26,25.1 26.9,25 L27.4,24.9 C27.5,24.9 27.6,24.9 27.7,24.9 C28,24.9 28.2,24.8 28.4,24.9 C28.5,24.9 28.6,25 28.8,25 C28.9,25 29,25.1 29.1,25.1 C29.2,25.1 29.3,25.1 29.4,25 C29.5,25 29.7,24.9 29.8,24.9 C30.4,24.9 30.9,25.3 31,25.4 C31.1,25.5 31.1,25.5 31.2,25.6 C31.5,25.9 31.7,26.1 32,25.9 C33.1,25.2 34.3,25.1 35.6,25 C35.8,25 36.2,25 36.7,25 L36.9,25 L36.9,25.1 L57.2,52 L115,52 L115,30.7 L123,52 L125.6,52 L135.8,12.7 L147.2,52.1 Z M67.9,51.5 L58.4,39.5 L58.4,13.8 C58.4,8.9 59.2,5.5 60.7,3.7 C62.1,2 63.6,0.9 66.7,0.9 C69.8,0.9 71.9,1.5 72.9,1.9 C73.5,2.1 73.9,2.4 74,2.6 C74.2,2.9 74.3,3.5 74.3,4.4 L74.3,4.5 L71.5,5.4 L71.5,7.4 L74.3,8.3 L74.3,11.7 L71.5,12.6 L71.5,14.6 L74.3,15.5 L74.3,19.8 L71.5,20.7 L71.5,22.7 L74.3,23.6 L74.3,27.5 L71.5,28.4 L71.5,30.4 L74.3,31.3 L74.3,35.1 L71.5,36 L71.5,38 L74.3,38.9 L74.3,42.4 L71.5,43.3 L71.5,45.3 L74.3,46.2 L74.3,46.5 C74.3,48 74.2,49 74,49.4 C73.8,49.8 73.4,50.1 72.8,50.3 C71.9,51.1 70.2,51.4 67.9,51.5 Z M58.7,39.4 L68,51.1 C70.2,51 71.8,50.7 72.7,50.3 C73.2,50.1 73.5,49.8 73.7,49.5 C73.8,49.3 74,48.6 74,46.8 L74,46.7 L71.2,45.8 L71.2,43.4 L74,42.5 L74,39.4 L71.2,38.5 L71.2,36.1 L74,35.2 L74,31.9 L71.2,31 L71.2,28.6 L74,27.7 L74,24 L71.2,23.1 L71.2,20.7 L74,19.8 L74,15.9 L71.2,15 L71.2,12.6 L74,11.7 L74,8.7 L71.2,7.8 L71.2,5.4 L74,4.5 C73.9,3.5 73.8,3.1 73.7,3 C73.6,2.9 73.5,2.7 72.7,2.4 C71.9,2.1 69.7,1.4 66.6,1.4 C63.6,1.4 62.2,2.5 60.8,4.1 C59.3,5.9 58.6,9.2 58.6,14 L58.7,39.4 Z M93.8,51.5 C91,51.5 89.9,51.5 88.8,51.4 C87.7,51.3 86.6,51.2 85.8,50.9 C84.9,50.6 84.4,50.2 84.2,49.8 C84,49.4 83.9,48.5 83.9,46.9 L83.9,25.2 L84.1,25.2 C89.7,25.2 93.2,25.8 94.6,27 C96.6,28.7 98,33.3 98.8,40.6 L99.5,40.6 L99.5,9.2 L98.8,9.2 C98,16.6 96.6,21.3 94.5,23 C93.1,24.2 89.7,24.7 84.1,24.7 L83.9,24.7 L83.9,5.7 C83.9,4.1 84,3.1 84.2,2.8 C84.4,2.4 84.8,2.1 85.3,1.9 C86.9,1.4 88.8,1.1 90.9,1.1 C92.6,1.1 94.5,1.1 96.5,1.1 C97,1.1 97.5,1.1 97.9,1.1 C100,1.2 101.9,1.8 103.6,2.8 C104,3.5 104.5,4.4 104.9,5.6 L113.6,28.8 C112.8,36.6 110.8,42.4 107.7,46 C104.6,49.6 99.9,51.5 93.8,51.5 Z M84.2,25.5 L84.2,46.9 C84.2,48.4 84.3,49.3 84.4,49.7 C84.5,50 85,50.3 85.8,50.6 C86.6,50.9 87.6,51.1 88.7,51.1 C89.8,51.2 90.9,51.2 93.7,51.2 C99.7,51.2 104.3,49.4 107.4,45.8 C110.4,42.3 112.4,36.6 113.2,28.8 L104.5,5.7 C104.1,4.6 103.7,3.7 103.2,3 C101.6,2 99.7,1.5 97.7,1.3 C97.3,1.3 96.8,1.3 96.3,1.3 C94.2,1.3 92.4,1.3 90.7,1.3 C88.7,1.3 86.8,1.6 85.2,2.1 C84.8,2.3 84.5,2.6 84.3,2.9 C84.2,3.1 84,3.8 84,5.7 L84,24.4 C89.4,24.4 92.8,23.8 94.1,22.7 C96.1,21 97.5,16.4 98.3,9 L98.3,8.9 L99.6,8.9 L99.6,40.9 L98.3,40.9 L98.3,40.8 C97.5,33.5 96.1,29 94.2,27.3 C93,26.1 89.6,25.5 84.2,25.5 Z M153,39.8 L152.9,39.4 L142.6,5.7 C142.4,5.1 142.3,4.5 142.3,3.9 C142.3,2.7 143,1.9 144.3,1.5 C145.6,1.1 150.6,1 153.7,1 C160.2,1 163.5,3.3 163.5,8 C163.5,9.7 163,11.8 162.1,14.5 L153,39.8 Z M153.6,1.2 C150,1.2 145.4,1.4 144.3,1.7 C143.1,2 142.5,2.7 142.5,3.8 C142.5,4.4 142.6,5 142.8,5.5 L153,38.8 L161.7,14.3 C162.6,11.7 163,9.6 163,7.9 C163.1,3.4 160,1.2 153.6,1.2 Z M127.3,39.7 L127.1,39.3 L114.5,5.7 C114.2,4.9 114,4.3 114,3.7 C114,2.6 114.7,1.9 116,1.5 C117.2,1.2 119.9,1 123.4,1 C127.2,1 129.5,1.2 130.5,1.7 C131.5,2.2 132.3,3.5 132.9,5.7 L134.6,11.5 L127.3,39.7 Z M123.6,1.2 C120.1,1.2 117.4,1.4 116.2,1.7 C115,2 114.4,2.7 114.4,3.6 C114.4,4.1 114.6,4.7 114.9,5.5 L127.3,38.7 L134.5,11.3 L132.8,5.6 C132.2,3.5 131.4,2.2 130.5,1.8 C129.6,1.5 127.3,1.2 123.6,1.2 Z M19.2,27.1 C18,27.1 17.1,26.2 17.1,25 C17.1,23.8 18,22.9 19.2,22.9 C20.4,22.9 21.3,23.8 21.3,25 C21.3,26.2 20.3,27.1 19.2,27.1 Z M19.2,23.2 C18.2,23.2 17.4,24 17.4,25 C17.4,26 18.2,26.8 19.2,26.8 C20.2,26.8 21,26 21,25 C20.9,24 20.1,23.2 19.2,23.2 Z M27.7,24.9 C27.5,24.9 27.3,24.9 27.1,24.8 C27,24.8 26.9,24.8 26.8,24.8 L26.3,24.7 C25.4,24.6 24.5,24.5 23.5,24.5 L23.4,24.5 L23.3,24.1 L22.6,24 L22.6,23.9 C22.6,23.8 22.5,23.6 22.5,23.5 L22.5,23.4 L23,22.9 L22.9,22.7 L22.2,22.8 L22.1,22.7 C22,22.6 21.9,22.5 21.8,22.4 L21.7,22.3 L22,21.7 L21.8,21.6 L21.2,22 L21.1,21.9 C21,21.8 20.9,21.8 20.7,21.7 L20.6,21.7 L20.6,21 L20.4,20.9 L20,21.4 L19.9,21.4 C19.8,21.4 19.6,21.3 19.5,21.3 L19.5,21.1 L19.4,21.1 L19.4,18.6 L19.8,18.6 C19.9,18.6 20,18.5 20,18.5 L20,18.4 C20,18.3 19.9,18.3 19.8,18.3 L19.4,18.3 L19.4,16.1 L19.6,16.1 C20.4,16.1 21,15.9 21.2,15.6 C21.4,15.3 21.3,14.9 21.1,14.4 L20.8,13.5 C20.4,12.3 20,11.1 19.9,9.8 C19.7,8.5 19.6,7.3 19.6,6.2 C19.6,5.4 19.6,4.5 19.7,3.7 L19.7,3.4 L19.9,3.6 C20,3.7 20.2,3.9 20.3,4 L24.1,8.9 L25,9.9 L36.2,24.8 L35.9,24.8 C35.5,24.8 35.3,24.8 35.1,24.8 C33.8,24.7 32.6,24.6 31.5,23.9 C31.1,23.7 31,23.8 30.7,24.2 C30.6,24.3 30.6,24.3 30.5,24.4 C30.3,24.6 29.8,25 29.3,24.9 C29.2,24.9 29,24.8 28.9,24.8 C28.8,24.8 28.7,24.7 28.6,24.7 C28.5,24.7 28.4,24.7 28.3,24.8 C28.2,24.8 28.1,24.9 27.9,24.9 C27.8,24.9 27.8,24.9 27.7,24.9 Z M23.7,24.2 C24.6,24.2 25.5,24.3 26.4,24.4 L26.9,24.5 C27,24.5 27.1,24.5 27.2,24.5 C27.4,24.5 27.7,24.6 27.8,24.5 C27.9,24.5 28,24.5 28.1,24.4 C28.2,24.3 28.3,24.3 28.5,24.3 C28.7,24.3 28.8,24.4 28.9,24.4 C29,24.4 29.1,24.5 29.2,24.5 C29.7,24.5 30.1,24.2 30.2,24 C30.3,23.9 30.3,23.9 30.4,23.8 C30.7,23.5 31,23.1 31.6,23.5 C32.6,24.1 33.8,24.3 35.1,24.4 C35.2,24.4 35.3,24.4 35.5,24.4 L24.7,10 L23.8,8.9 L20.1,4.1 C20,4 20,4 19.9,3.9 C19.8,4.6 19.8,5.4 19.8,6.1 C19.8,7.2 19.9,8.4 20.1,9.7 C20.3,11 20.6,12.2 21,13.4 L21.3,14.3 C21.6,14.9 21.6,15.4 21.4,15.8 C21.2,16.2 20.6,16.4 19.7,16.4 L19.7,18 L19.8,18 C20.1,18 20.3,18.2 20.3,18.4 L20.3,18.5 C20.3,18.7 20.1,18.9 19.8,18.9 L19.7,18.9 L19.7,21 C19.8,21 19.8,21 19.9,21 L20.3,20.4 L20.9,20.6 L20.9,21.3 C21,21.3 21.1,21.4 21.1,21.4 L21.7,21 L22.2,21.4 L21.9,22.1 C22,22.2 22,22.2 22.1,22.3 L22.8,22.2 L23.1,22.8 L22.6,23.3 C22.6,23.4 22.7,23.5 22.7,23.6 L23.4,23.7 L23.7,24.2 Z"></path>
                    </g>
                </g>
            </g>
            <rect id="Rectangle-path" fill="#D5652C" x="260.3" y="76.8" width="18.3" height="32.8"></rect>
            <path d="M261.5,93.2 C261.5,86.5 264.6,80.6 269.5,76.8 C265.9,74 261.5,72.3 256.6,72.3 C245.1,72.3 235.7,81.6 235.7,93.2 C235.7,104.7 245,114.1 256.6,114.1 C261.5,114.1 266,112.4 269.5,109.6 C264.6,105.8 261.5,99.9 261.5,93.2 Z" id="XMLID_2_" fill="#C42129"></path>
            <path d="M303.3,93.2 C303.3,104.7 294,114.1 282.4,114.1 C277.5,114.1 273,112.4 269.5,109.6 C274.4,105.8 277.5,99.8 277.5,93.2 C277.5,86.6 274.4,80.6 269.5,76.8 C273.1,74 277.5,72.3 282.4,72.3 C293.9,72.4 303.3,81.7 303.3,93.2 Z" id="Shape" fill="#E39D30"></path>
        </g>
    </g>
</svg>