<?xml version="1.0" encoding="UTF-8" standalone="no"?><!DOCTYPE svg PUBLIC "-//W3C//DTD SVG 1.1//EN" "http://www.w3.org/Graphics/SVG/1.1/DTD/svg11.dtd"><svg width="100%" height="100%" viewBox="0 0 227 21" version="1.1" xmlns="http://www.w3.org/2000/svg" xmlns:xlink="http://www.w3.org/1999/xlink" xml:space="preserve" xmlns:serif="http://www.serif.com/" style="fill-rule:evenodd;clip-rule:evenodd;stroke-linejoin:round;stroke-miterlimit:1.41421;"><g><path d="M10.135,20.217c-2.002,0 -3.771,-0.398 -5.309,-1.193c-1.537,-0.795 -2.726,-1.926 -3.566,-3.392c-0.84,-1.466 -1.26,-3.191 -1.26,-5.175c0,-1.984 0.42,-3.713 1.26,-5.188c0.84,-1.475 2.029,-2.61 3.566,-3.405c1.538,-0.796 3.307,-1.194 5.309,-1.194c1.359,0 2.561,0.139 3.607,0.416c1.045,0.277 2.006,0.71 2.882,1.3l0,3.888c-0.786,-0.643 -1.685,-1.112 -2.695,-1.407c-1.01,-0.295 -2.158,-0.443 -3.445,-0.443c-1.198,0 -2.275,0.246 -3.231,0.738c-0.956,0.491 -1.712,1.193 -2.266,2.104c-0.554,0.912 -0.831,1.976 -0.831,3.191c0,1.234 0.255,2.311 0.764,3.231c0.51,0.921 1.229,1.631 2.159,2.132c0.929,0.5 2.002,0.751 3.217,0.751c1.109,0 2.074,-0.197 2.896,-0.59l0,-3.62l-3.03,0l0,-3.003l6.972,0l0,9.036c-1.77,1.215 -4.103,1.823 -6.999,1.823Z" style="fill:#cf2d1e;fill-rule:nonzero;"/><path d="M19.413,6.945l3.914,0l0,1.85c0.519,-0.626 1.243,-1.104 2.172,-1.435c0.93,-0.33 1.985,-0.496 3.164,-0.496l0,3.084c-1.233,0 -2.319,0.187 -3.258,0.563c-0.938,0.375 -1.586,0.947 -1.943,1.716l0,7.588l-4.049,0l0,-12.87Z" style="fill:#cf2d1e;fill-rule:nonzero;"/><path d="M33.972,20.217c-1.573,0 -2.855,-0.398 -3.847,-1.193c-0.992,-0.795 -1.489,-1.881 -1.489,-3.258c0,-1.43 0.474,-2.543 1.422,-3.338c0.947,-0.796 2.288,-1.193 4.022,-1.193c0.768,0 1.501,0.08 2.198,0.241c0.697,0.161 1.314,0.384 1.85,0.67l0,-0.321c0,-0.805 -0.286,-1.395 -0.858,-1.77c-0.572,-0.375 -1.448,-0.563 -2.627,-0.563c-1.573,0 -3.021,0.295 -4.344,0.885l0,-2.95c0.572,-0.25 1.314,-0.46 2.225,-0.63c0.912,-0.17 1.824,-0.255 2.735,-0.255c2.324,0 4.058,0.479 5.202,1.435c1.144,0.956 1.716,2.292 1.716,4.008l0,7.83l-3.807,0l0,-1.18c-1.091,1.055 -2.557,1.582 -4.398,1.582Zm1.1,-2.681c0.661,0 1.26,-0.125 1.796,-0.376c0.536,-0.25 0.956,-0.598 1.26,-1.045l0,-1.287c-0.911,-0.608 -1.912,-0.912 -3.003,-0.912c-0.75,0 -1.327,0.156 -1.729,0.469c-0.402,0.313 -0.603,0.773 -0.603,1.381c0,0.572 0.196,1.01 0.589,1.314c0.394,0.304 0.957,0.456 1.69,0.456Z" style="fill:#cf2d1e;fill-rule:nonzero;"/><path d="M44.858,6.945l3.915,0l0,1.582c0.59,-0.662 1.292,-1.158 2.105,-1.489c0.813,-0.33 1.667,-0.496 2.561,-0.496c1.751,0 3.061,0.47 3.928,1.408c0.867,0.939 1.3,2.203 1.3,3.794l0,8.071l-4.049,0l0,-7.615c0,-1.662 -0.768,-2.494 -2.305,-2.494c-0.68,0 -1.314,0.166 -1.904,0.496c-0.59,0.331 -1.091,0.818 -1.502,1.462l0,8.151l-4.049,0l0,-12.87Z" style="fill:#cf2d1e;fill-rule:nonzero;"/><path d="M67.623,20.217c-1.323,0 -2.498,-0.281 -3.526,-0.844c-1.028,-0.564 -1.832,-1.359 -2.413,-2.387c-0.581,-1.028 -0.872,-2.221 -0.872,-3.579c0,-1.341 0.286,-2.53 0.858,-3.567c0.572,-1.036 1.377,-1.845 2.414,-2.426c1.036,-0.581 2.216,-0.872 3.539,-0.872c0.965,0 1.85,0.134 2.654,0.403c0.805,0.268 1.484,0.652 2.038,1.153l0,-8.098l4.049,0l0,19.815l-3.915,0l0,-1.394c-0.661,0.625 -1.381,1.081 -2.158,1.367c-0.778,0.286 -1.667,0.429 -2.668,0.429Zm1.046,-3.137c0.84,0 1.586,-0.223 2.238,-0.67c0.653,-0.447 1.122,-1.046 1.408,-1.797l0,-2.44c-0.25,-0.733 -0.71,-1.327 -1.381,-1.783c-0.67,-0.456 -1.425,-0.684 -2.265,-0.684c-1.091,0 -1.98,0.34 -2.668,1.019c-0.689,0.68 -1.033,1.573 -1.033,2.682c0,1.108 0.344,1.997 1.033,2.668c0.688,0.67 1.577,1.005 2.668,1.005Z" style="fill:#cf2d1e;fill-rule:nonzero;"/><path d="M88.564,1.073l7.883,0c2.127,0 3.825,0.558 5.095,1.675c1.269,1.118 1.903,2.668 1.903,4.652c0,2.038 -0.63,3.602 -1.89,4.693c-1.26,1.09 -2.963,1.635 -5.108,1.635l-3.807,0l0,6.087l-4.076,0l0,-18.742Zm7.293,9.25c2.306,0 3.459,-0.974 3.459,-2.923c0,-1.09 -0.308,-1.85 -0.925,-2.279c-0.617,-0.429 -1.461,-0.643 -2.534,-0.643l-3.217,0l0,5.845l3.217,0Z" style="fill:#cf2d1e;fill-rule:nonzero;"/><path d="M105.322,6.945l3.915,0l0,1.85c0.518,-0.626 1.242,-1.104 2.172,-1.435c0.929,-0.33 1.984,-0.496 3.164,-0.496l0,3.084c-1.234,0 -2.32,0.187 -3.258,0.563c-0.938,0.375 -1.586,0.947 -1.944,1.716l0,7.588l-4.049,0l0,-12.87Z" style="fill:#cf2d1e;fill-rule:nonzero;"/><path d="M118.514,4.96c-0.625,0 -1.153,-0.205 -1.582,-0.616c-0.429,-0.411 -0.643,-0.93 -0.643,-1.555c0,-0.608 0.214,-1.122 0.643,-1.542c0.429,-0.42 0.957,-0.63 1.582,-0.63c0.626,0 1.153,0.21 1.582,0.63c0.429,0.42 0.644,0.934 0.644,1.542c0,0.625 -0.215,1.144 -0.644,1.555c-0.429,0.411 -0.956,0.616 -1.582,0.616Zm-2.037,1.985l4.075,0l0,12.87l-4.075,0l0,-12.87Z" style="fill:#cf2d1e;fill-rule:nonzero;"/><path d="M128.516,13.165l-5.149,-6.22l4.532,0l2.869,3.485l2.896,-3.485l4.531,0l-5.175,6.22l5.524,6.65l-4.478,0l-3.298,-3.942l-3.271,3.942l-4.505,0l5.524,-6.65Z" style="fill:#cf2d1e;fill-rule:nonzero;"/><path d="M151.092,6.945l2.628,0l0,2.306c0.536,-0.787 1.292,-1.368 2.266,-1.743c0.974,-0.376 2.105,-0.563 3.392,-0.563l0,2.118c-1.377,0 -2.557,0.223 -3.54,0.67c-0.983,0.447 -1.662,1.153 -2.038,2.118l0,7.964l-2.708,0l0,-12.87Z" style="fill-rule:nonzero;"/><path d="M168.065,20.217c-2.377,0 -4.241,-0.594 -5.59,-1.783c-1.35,-1.189 -2.025,-2.864 -2.025,-5.027c0,-2.11 0.603,-3.781 1.81,-5.014c1.207,-1.234 2.927,-1.851 5.162,-1.851c1.483,0 2.743,0.282 3.78,0.845c1.037,0.563 1.819,1.341 2.346,2.333c0.528,0.992 0.791,2.122 0.791,3.392l0,1.34l-11.315,0c0.09,1.216 0.604,2.123 1.542,2.722c0.938,0.599 2.212,0.898 3.821,0.898c0.822,0 1.653,-0.076 2.493,-0.228c0.841,-0.152 1.582,-0.353 2.226,-0.603l0,2.172c-0.572,0.232 -1.327,0.424 -2.266,0.576c-0.938,0.152 -1.863,0.228 -2.775,0.228Zm3.727,-7.668c-0.036,-1.216 -0.433,-2.159 -1.193,-2.829c-0.76,-0.671 -1.837,-1.006 -3.231,-1.006c-1.359,0 -2.413,0.349 -3.164,1.046c-0.751,0.697 -1.144,1.627 -1.18,2.789l8.768,0Z" style="fill:#222;fill-rule:nonzero;"/><path d="M178.871,4.424c-0.447,0 -0.822,-0.152 -1.126,-0.456c-0.304,-0.304 -0.456,-0.679 -0.456,-1.126c0,-0.447 0.152,-0.822 0.456,-1.126c0.304,-0.304 0.679,-0.456 1.126,-0.456c0.465,0 0.853,0.152 1.166,0.456c0.313,0.304 0.469,0.679 0.469,1.126c0,0.447 -0.156,0.822 -0.469,1.126c-0.313,0.304 -0.701,0.456 -1.166,0.456Zm-1.368,2.521l2.762,0l0,12.87l-2.762,0l0,-12.87Z" style="fill:#222;fill-rule:nonzero;"/><path d="M183.456,18.072l7.32,-9.036l-7.159,0l0,-2.091l10.537,0l0,1.769l-7.32,9.01l7.588,0l0,2.091l-10.966,0l0,-1.743Z" style="fill:#222;fill-rule:nonzero;"/><path d="M204.451,20.217c-2.378,0 -4.241,-0.594 -5.591,-1.783c-1.35,-1.189 -2.024,-2.864 -2.024,-5.027c0,-2.11 0.603,-3.781 1.81,-5.014c1.206,-1.234 2.927,-1.851 5.161,-1.851c1.484,0 2.744,0.282 3.781,0.845c1.037,0.563 1.819,1.341 2.346,2.333c0.527,0.992 0.791,2.122 0.791,3.392l0,1.34l-11.315,0c0.089,1.216 0.603,2.123 1.541,2.722c0.939,0.599 2.213,0.898 3.821,0.898c0.823,0 1.654,-0.076 2.494,-0.228c0.84,-0.152 1.582,-0.353 2.225,-0.603l0,2.172c-0.572,0.232 -1.327,0.424 -2.265,0.576c-0.939,0.152 -1.864,0.228 -2.775,0.228Zm3.727,-7.668c-0.036,-1.216 -0.434,-2.159 -1.194,-2.829c-0.759,-0.671 -1.836,-1.006 -3.231,-1.006c-1.358,0 -2.413,0.349 -3.164,1.046c-0.75,0.697 -1.144,1.627 -1.179,2.789l8.768,0Z" style="fill:#222;fill-rule:nonzero;"/><path d="M213.674,6.945l2.628,0l0,1.85c0.608,-0.769 1.354,-1.336 2.239,-1.703c0.885,-0.366 1.81,-0.55 2.775,-0.55c1.716,0 2.994,0.456 3.834,1.368c0.841,0.912 1.261,2.136 1.261,3.673l0,8.232l-2.709,0l0,-7.964c0,-2.091 -1.001,-3.137 -3.003,-3.137c-0.858,0 -1.658,0.201 -2.399,0.604c-0.742,0.402 -1.381,1.014 -1.918,1.836l0,8.661l-2.708,0l0,-12.87Z" style="fill:#222;fill-rule:nonzero;"/></g></svg>