<?xml version="1.0" encoding="UTF-8" standalone="no"?>
<!DOCTYPE svg PUBLIC "-//W3C//DTD SVG 1.1//EN" "http://www.w3.org/Graphics/SVG/1.1/DTD/svg11.dtd">
<svg width="100%" height="100%" viewBox="0 0 438 35" version="1.1" xmlns="http://www.w3.org/2000/svg" xmlns:xlink="http://www.w3.org/1999/xlink" xml:space="preserve" xmlns:serif="http://www.serif.com/" style="fill-rule:evenodd;clip-rule:evenodd;stroke-linejoin:round;stroke-miterlimit:1.41421;">
    <g transform="matrix(1,0,0,1,0,-0.396)">
        <g id="Group" transform="matrix(1,0,0,1,0,-12)">
            <g id="sportstadion">
                <g transform="matrix(1,0,0,1,0,39)">
                    <path d="M6.948,0.54C5.7,0.54 4.404,0.396 3.06,0.108C1.716,-0.18 0.696,-0.576 0,-1.08L0.828,-4.932C1.644,-4.356 2.658,-3.894 3.87,-3.546C5.082,-3.198 6.264,-3.024 7.416,-3.024C8.568,-3.024 9.432,-3.126 10.008,-3.33C10.584,-3.534 10.932,-3.912 11.052,-4.464C11.076,-4.56 11.088,-4.68 11.088,-4.824C11.088,-5.328 10.806,-5.724 10.242,-6.012C9.678,-6.3 8.616,-6.672 7.056,-7.128C5.4,-7.608 4.176,-8.19 3.384,-8.874C2.592,-9.558 2.196,-10.44 2.196,-11.52C2.196,-11.856 2.232,-12.216 2.304,-12.6C2.664,-14.328 3.624,-15.63 5.184,-16.506C6.744,-17.382 8.688,-17.82 11.016,-17.82C12.168,-17.82 13.314,-17.7 14.454,-17.46C15.594,-17.22 16.476,-16.908 17.1,-16.524L16.308,-12.816C15.66,-13.224 14.844,-13.566 13.86,-13.842C12.876,-14.118 11.868,-14.256 10.836,-14.256C9.66,-14.256 8.748,-14.142 8.1,-13.914C7.452,-13.686 7.056,-13.248 6.912,-12.6C6.888,-12.528 6.876,-12.42 6.876,-12.276C6.876,-11.94 7.026,-11.658 7.326,-11.43C7.626,-11.202 8.112,-10.98 8.784,-10.764C9.456,-10.548 10.2,-10.332 11.016,-10.116C12.744,-9.636 13.968,-9.042 14.688,-8.334C15.408,-7.626 15.768,-6.756 15.768,-5.724C15.768,-5.364 15.732,-4.968 15.66,-4.536C15.348,-2.904 14.52,-1.65 13.176,-0.774C11.832,0.102 9.756,0.54 6.948,0.54Z" style="fill:rgb(207,45,30);fill-rule:nonzero;"/>
                    <path d="M21.996,-17.28L26.388,-17.28L25.92,-15.192C27.048,-16.08 28.212,-16.74 29.412,-17.172C30.612,-17.604 31.92,-17.82 33.336,-17.82C35.568,-17.82 37.362,-17.196 38.718,-15.948C40.074,-14.7 40.752,-13.008 40.752,-10.872C40.752,-10.296 40.668,-9.564 40.5,-8.676C39.9,-5.892 38.622,-3.66 36.666,-1.98C34.71,-0.3 32.292,0.54 29.412,0.54C28.092,0.54 26.892,0.354 25.812,-0.018C24.732,-0.39 23.856,-0.948 23.184,-1.692L21.168,7.884L16.632,7.884L21.996,-17.28ZM29.052,-3.024C30.684,-3.024 32.142,-3.552 33.426,-4.608C34.71,-5.664 35.532,-7.02 35.892,-8.676C35.988,-9.132 36.036,-9.624 36.036,-10.152C36.036,-11.448 35.646,-12.456 34.866,-13.176C34.086,-13.896 32.952,-14.256 31.464,-14.256C30.168,-14.256 28.944,-13.908 27.792,-13.212C26.64,-12.516 25.728,-11.58 25.056,-10.404L24.3,-6.912C24.42,-5.736 24.918,-4.794 25.794,-4.086C26.67,-3.378 27.756,-3.024 29.052,-3.024Z" style="fill:rgb(207,45,30);fill-rule:nonzero;"/>
                    <path d="M50.616,0.54C48.096,0.54 46.068,-0.09 44.532,-1.35C42.996,-2.61 42.228,-4.332 42.228,-6.516C42.228,-7.044 42.312,-7.752 42.48,-8.64C43.056,-11.472 44.406,-13.71 46.53,-15.354C48.654,-16.998 51.324,-17.82 54.54,-17.82C57.084,-17.82 59.118,-17.178 60.642,-15.894C62.166,-14.61 62.928,-12.864 62.928,-10.656C62.928,-10.032 62.856,-9.36 62.712,-8.64C62.088,-5.76 60.72,-3.51 58.608,-1.89C56.496,-0.27 53.832,0.54 50.616,0.54ZM51.372,-3.024C53.028,-3.024 54.462,-3.546 55.674,-4.59C56.886,-5.634 57.672,-6.984 58.032,-8.64C58.176,-9.288 58.248,-9.9 58.248,-10.476C58.248,-12.996 56.76,-14.256 53.784,-14.256C52.104,-14.256 50.67,-13.758 49.482,-12.762C48.294,-11.766 47.52,-10.392 47.16,-8.64C47.016,-7.992 46.944,-7.404 46.944,-6.876C46.944,-5.652 47.304,-4.704 48.024,-4.032C48.744,-3.36 49.86,-3.024 51.372,-3.024Z" style="fill:rgb(207,45,30);fill-rule:nonzero;"/>
                    <path d="M68.148,-17.28L72.54,-17.28L71.928,-14.508C72.816,-15.444 73.956,-16.14 75.348,-16.596C76.74,-17.052 78.264,-17.28 79.92,-17.28L79.164,-13.824C77.412,-13.824 75.834,-13.554 74.43,-13.014C73.026,-12.474 71.952,-11.628 71.208,-10.476L69.012,0L64.476,0L68.148,-17.28Z" style="fill:rgb(207,45,30);fill-rule:nonzero;"/>
                    <path d="M85.932,0.54C84.42,0.54 83.256,0.168 82.44,-0.576C81.624,-1.32 81.216,-2.376 81.216,-3.744C81.216,-4.272 81.288,-4.86 81.432,-5.508L83.196,-13.824L80.604,-13.824L81.36,-17.28L83.952,-17.28L85.032,-22.464L89.568,-22.464L88.488,-17.28L92.628,-17.28L91.872,-13.824L87.732,-13.824L86.076,-6.084C85.956,-5.436 85.896,-4.968 85.896,-4.68C85.896,-4.08 86.064,-3.654 86.4,-3.402C86.736,-3.15 87.312,-3.024 88.128,-3.024C88.968,-3.024 89.784,-3.192 90.576,-3.528L89.856,-0.072C88.752,0.336 87.444,0.54 85.932,0.54Z" style="fill:rgb(207,45,30);fill-rule:nonzero;"/>
                </g>
                <g transform="matrix(1,0,0,1,93.636,39)">
                    <path d="M7.02,0.54C5.724,0.54 4.374,0.402 2.97,0.126C1.566,-0.15 0.492,-0.54 -0.252,-1.044L0.648,-5.292C1.488,-4.716 2.538,-4.248 3.798,-3.888C5.058,-3.528 6.264,-3.348 7.416,-3.348C8.4,-3.348 9.138,-3.432 9.63,-3.6C10.122,-3.768 10.416,-4.08 10.512,-4.536C10.584,-4.896 10.512,-5.19 10.296,-5.418C10.08,-5.646 9.726,-5.85 9.234,-6.03C8.742,-6.21 7.908,-6.48 6.732,-6.84C5.052,-7.368 3.816,-7.968 3.024,-8.64C2.232,-9.312 1.836,-10.176 1.836,-11.232C1.836,-11.64 1.884,-12.036 1.98,-12.42C2.388,-14.244 3.372,-15.6 4.932,-16.488C6.492,-17.376 8.544,-17.82 11.088,-17.82C12.288,-17.82 13.506,-17.694 14.742,-17.442C15.978,-17.19 16.896,-16.86 17.496,-16.452L16.596,-12.312C15.996,-12.768 15.168,-13.14 14.112,-13.428C13.056,-13.716 12,-13.86 10.944,-13.86C9.96,-13.86 9.18,-13.764 8.604,-13.572C8.028,-13.38 7.68,-13.02 7.56,-12.492C7.488,-12.132 7.59,-11.844 7.866,-11.628C8.142,-11.412 8.616,-11.202 9.288,-10.998C9.96,-10.794 10.704,-10.584 11.52,-10.368C13.272,-9.864 14.508,-9.294 15.228,-8.658C15.948,-8.022 16.308,-7.188 16.308,-6.156C16.308,-5.772 16.248,-5.28 16.128,-4.68C15.792,-3.048 14.886,-1.77 13.41,-0.846C11.934,0.078 9.804,0.54 7.02,0.54Z" style="fill:rgb(207,45,30);fill-rule:nonzero;"/>
                    <path d="M24.768,0.54C23.184,0.54 21.96,0.102 21.096,-0.774C20.232,-1.65 19.8,-2.796 19.8,-4.212C19.8,-4.668 19.86,-5.196 19.98,-5.796L21.564,-13.356L19.044,-13.356L19.908,-17.28L22.428,-17.28L23.508,-22.464L28.944,-22.464L27.864,-17.28L31.932,-17.28L31.068,-13.356L27,-13.356L25.56,-6.516C25.44,-5.868 25.38,-5.4 25.38,-5.112C25.38,-4.56 25.542,-4.182 25.866,-3.978C26.19,-3.774 26.76,-3.672 27.576,-3.672C28.344,-3.672 29.148,-3.864 29.988,-4.248L29.124,-0.18C27.9,0.3 26.448,0.54 24.768,0.54Z" style="fill:rgb(207,45,30);fill-rule:nonzero;"/>
                    <path d="M39.348,0.54C37.14,0.54 35.352,-0.096 33.984,-1.368C32.616,-2.64 31.932,-4.344 31.932,-6.48C31.932,-7.152 32.004,-7.86 32.148,-8.604C32.532,-10.404 33.264,-12 34.344,-13.392C35.424,-14.784 36.738,-15.87 38.286,-16.65C39.834,-17.43 41.496,-17.82 43.272,-17.82C45.912,-17.82 47.856,-17.124 49.104,-15.732L49.464,-17.28L54.9,-17.28L51.228,0L45.972,0L46.368,-1.872C45.288,-1.032 44.19,-0.42 43.074,-0.036C41.958,0.348 40.716,0.54 39.348,0.54ZM41.472,-3.672C42.696,-3.672 43.818,-3.966 44.838,-4.554C45.858,-5.142 46.668,-5.952 47.268,-6.984L47.952,-10.26C47.832,-11.244 47.388,-12.042 46.62,-12.654C45.852,-13.266 44.904,-13.572 43.776,-13.572C42.312,-13.572 41.016,-13.116 39.888,-12.204C38.76,-11.292 38.04,-10.092 37.728,-8.604C37.584,-7.956 37.512,-7.356 37.512,-6.804C37.512,-5.748 37.824,-4.962 38.448,-4.446C39.072,-3.93 40.08,-3.672 41.472,-3.672Z" style="fill:rgb(207,45,30);fill-rule:nonzero;"/>
                    <path d="M63.108,0.54C61.716,0.54 60.456,0.246 59.328,-0.342C58.2,-0.93 57.312,-1.758 56.664,-2.826C56.016,-3.894 55.692,-5.148 55.692,-6.588C55.692,-7.212 55.764,-7.884 55.908,-8.604C56.292,-10.428 57,-12.036 58.032,-13.428C59.064,-14.82 60.354,-15.9 61.902,-16.668C63.45,-17.436 65.16,-17.82 67.032,-17.82C69.672,-17.82 71.616,-17.124 72.864,-15.732L75.204,-26.604L80.64,-26.604L74.988,0L69.732,0L70.128,-1.872C69.048,-1.032 67.95,-0.42 66.834,-0.036C65.718,0.348 64.476,0.54 63.108,0.54ZM65.412,-3.672C66.54,-3.672 67.608,-3.972 68.616,-4.572C69.624,-5.172 70.428,-5.976 71.028,-6.984L71.712,-10.26C71.592,-11.244 71.148,-12.042 70.38,-12.654C69.612,-13.266 68.664,-13.572 67.536,-13.572C66.072,-13.572 64.776,-13.116 63.648,-12.204C62.52,-11.292 61.8,-10.092 61.488,-8.604C61.392,-8.148 61.344,-7.68 61.344,-7.2C61.344,-6.072 61.692,-5.202 62.388,-4.59C63.084,-3.978 64.092,-3.672 65.412,-3.672Z" style="fill:rgb(207,45,30);fill-rule:nonzero;"/>
                    <path d="M85.968,-19.944C85.224,-19.944 84.63,-20.154 84.186,-20.574C83.742,-20.994 83.52,-21.54 83.52,-22.212C83.52,-23.196 83.898,-24.036 84.654,-24.732C85.41,-25.428 86.268,-25.776 87.228,-25.776C87.948,-25.776 88.53,-25.566 88.974,-25.146C89.418,-24.726 89.64,-24.18 89.64,-23.508C89.64,-22.524 89.268,-21.684 88.524,-20.988C87.78,-20.292 86.928,-19.944 85.968,-19.944ZM82.692,-17.28L88.164,-17.28L84.492,0L79.02,0L82.692,-17.28Z" style="fill:rgb(207,45,30);fill-rule:nonzero;"/>
                    <path d="M98.028,0.54C96.324,0.54 94.818,0.252 93.51,-0.324C92.202,-0.9 91.188,-1.728 90.468,-2.808C89.748,-3.888 89.388,-5.16 89.388,-6.624C89.388,-7.296 89.46,-7.968 89.604,-8.64C90.18,-11.424 91.56,-13.65 93.744,-15.318C95.928,-16.986 98.664,-17.82 101.952,-17.82C104.64,-17.82 106.752,-17.178 108.288,-15.894C109.824,-14.61 110.592,-12.876 110.592,-10.692C110.592,-10.044 110.52,-9.36 110.376,-8.64C109.776,-5.808 108.396,-3.57 106.236,-1.926C104.076,-0.282 101.34,0.54 98.028,0.54ZM98.928,-3.708C100.392,-3.708 101.652,-4.158 102.708,-5.058C103.764,-5.958 104.46,-7.152 104.796,-8.64C104.916,-9.288 104.976,-9.828 104.976,-10.26C104.976,-12.468 103.668,-13.572 101.052,-13.572C99.564,-13.572 98.292,-13.134 97.236,-12.258C96.18,-11.382 95.496,-10.176 95.184,-8.64C95.064,-7.992 95.004,-7.464 95.004,-7.056C95.004,-4.824 96.312,-3.708 98.928,-3.708Z" style="fill:rgb(207,45,30);fill-rule:nonzero;"/>
                    <path d="M115.272,-17.28L120.528,-17.28L120.06,-15.156C121.044,-16.044 122.13,-16.71 123.318,-17.154C124.506,-17.598 125.7,-17.82 126.9,-17.82C128.772,-17.82 130.188,-17.322 131.148,-16.326C132.108,-15.33 132.588,-14.052 132.588,-12.492C132.588,-12.036 132.528,-11.484 132.408,-10.836L130.14,0L124.704,0L126.864,-10.224C126.96,-10.632 127.008,-11.052 127.008,-11.484C127.008,-12.204 126.804,-12.732 126.396,-13.068C125.988,-13.404 125.352,-13.572 124.488,-13.572C123.576,-13.572 122.676,-13.35 121.788,-12.906C120.9,-12.462 120.084,-11.808 119.34,-10.944L117.036,0L111.6,0L115.272,-17.28Z" style="fill:rgb(207,45,30);fill-rule:nonzero;"/>
                </g>
            </g>
            <g transform="matrix(1,0,0,1,239,36)">
                <g id="_--Offical-Formula-On" serif:id="|-Offical-Formula-On">
                    <text x="0px" y="0px" style="font-family:'Prompt-Light', 'Prompt';font-weight:300;font-size:24px;fill:rgb(21,21,30);">| F<tspan x="24.792px " y="0px ">o</tspan>rmule 1 r<tspan x="139.464px " y="0px ">e</tspan>izen</text>
                </g>
            </g>
        </g>
    </g>
</svg>
