<?xml version="1.0" encoding="utf-8"?>
<!-- Generator: Adobe Illustrator 21.1.0, SVG Export Plug-In . SVG Version: 6.00 Build 0)  -->
<svg version="1.1" id="_x35_" xmlns="http://www.w3.org/2000/svg" xmlns:xlink="http://www.w3.org/1999/xlink" x="0px" y="0px"
	 viewBox="0 0 200 200" style="enable-background:new 0 0 200 200;" xml:space="preserve">
<style type="text/css">
	.st0{display:none;stroke:#FFFFFF;stroke-width:2;stroke-miterlimit:10;}
	.st1{display:none;}
</style>
<path d="M100,0C44.9,0,0,44.9,0,100s44.9,100,100,100s100-44.9,100-100S155.1,0,100,0z M100,189.5c-49.3,0-89.5-40.1-89.5-89.5
	S50.7,10.5,100,10.5s89.5,40.1,89.5,89.5S149.3,189.5,100,189.5z M99.5,96.5v-9.1v-6.3c0-3.8,3.1-6.8,6.8-6.8s6.8,3.1,6.8,6.8v13.8
	C109,92.2,103.3,92.7,99.5,96.5C99.6,96.4,99.6,96.4,99.5,96.5z M116.4,97.5V81.1V47.4c0-3.8,3.1-6.8,6.8-6.8s6.8,3.1,6.8,6.8v63.8
	L116.4,97.5z M108.5,159.5H87.4c-11.9,0-21.6-9.7-21.6-21.6v-18c1.8,1.7,4.2,2.7,6.8,2.7c3.5,0,6.6-1.9,8.4-4.6
	c1.8,2.8,4.9,4.6,8.4,4.6c5.5,0,10-4.5,10-10v-0.7c0,0,0.1,0.1,0.1,0.1l6.8,6.8c2.5,2.5,4.4,5.6,5.4,9l3-0.9
	c-1.2-3.9-3.3-7.4-6.2-10.3l-6.8-6.8c-3.1-3.1-3.1-8.1,0-11.2c3.1-3.1,8.1-3.1,11.2,0l1.1-1.1l0,0l-1.1,1.1l14.8,14.8
	c6.3,6.3,8.1,15.9,4.4,24l-4.3,9.6C124.4,154.6,116.8,159.5,108.5,159.5z M82.7,93.7v-6.3c0-3.8,3.1-6.8,6.8-6.8
	c3.8,0,6.8,3.1,6.8,6.8v18.3v7c0,3.8-3.1,6.8-6.8,6.8c-3.8,0-6.8-3.1-6.8-6.8V93.7z M65.8,112.6V93.7c0-3.8,3.1-6.8,6.8-6.8
	s6.8,3.1,6.8,6.8v18.9c0,3.8-3.1,6.8-6.8,6.8S65.8,116.4,65.8,112.6z"/>
</svg>
