<?xml version="1.0" encoding="utf-8"?>
<!-- Generator: Adobe Illustrator 21.1.0, SVG Export Plug-In . SVG Version: 6.00 Build 0)  -->
<svg version="1.1" id="_x35_" xmlns="http://www.w3.org/2000/svg" xmlns:xlink="http://www.w3.org/1999/xlink" x="0px" y="0px"
	 viewBox="0 0 200 200" style="enable-background:new 0 0 200 200;" xml:space="preserve">
<style type="text/css">
	.st0{display:none;stroke:#FFFFFF;stroke-width:2;stroke-miterlimit:10;}
	.st1{display:none;}
</style>
<path d="M137.6,90c1.9,3.3,2.9,7,2.9,10.8v25.3c0,11.9-9.7,21.6-21.6,21.6H96.7c1.7-1.8,2.7-4.2,2.7-6.8c0-3.1-1.5-5.9-3.7-7.8
	c3.4-1.6,5.8-5.1,5.8-9.1c0-3.5-1.9-6.6-4.6-8.4c2.8-1.8,4.6-4.9,4.6-8.4c0-4-2.4-7.5-5.8-9.1c2.3-1.8,3.7-4.6,3.7-7.8
	c0-2.6-1-5.1-2.7-6.8h9.7v13.2c0,13.6,11.1,24.7,24.7,24.7v-3.2c-11.9,0-21.6-9.7-21.6-21.6V81.9h0c0-0.3-0.1-0.6-0.2-0.8l-7.6-12.5
	c-5.2-9-2.5-20.4,5.9-26.2L137.6,90z M200,100c0,55.1-44.9,100-100,100S0,155.1,0,100S44.9,0,100,0S200,44.9,200,100z M189.5,100
	c0-49.3-40.1-89.5-89.5-89.5S10.5,50.7,10.5,100s40.1,89.5,89.5,89.5S189.5,149.3,189.5,100z M59.5,124c0,3.8,3.1,6.8,6.8,6.8h6.3
	h16.8h2.1c3.8,0,6.8-3.1,6.8-6.8s-3.1-6.8-6.8-6.8H66.3C62.5,117.1,59.5,120.2,59.5,124z M59.5,107.1c0,3.8,3.1,6.8,6.8,6.8h25.3
	c3.8,0,6.8-3.1,6.8-6.8c0-3.8-3.1-6.8-6.8-6.8h-2.1H70.5h-4.2C62.5,100.3,59.5,103.4,59.5,107.1z M70.5,97.1h18.9
	c3.8,0,6.8-3.1,6.8-6.8s-3.1-6.8-6.8-6.8h-5.8H70.5c-3.8,0-6.8,3.1-6.8,6.8S66.8,97.1,70.5,97.1z M83.7,147.7h5.8
	c3.8,0,6.8-3.1,6.8-6.8c0-3.8-3.1-6.8-6.8-6.8H72.6c-3.8,0-6.8,3.1-6.8,6.8c0,3.8,3.1,6.8,6.8,6.8H83.7z"/>
</svg>
