<?xml version="1.0" encoding="utf-8"?>
<!-- Generator: Adobe Illustrator 21.1.0, SVG Export Plug-In . SVG Version: 6.00 Build 0)  -->
<svg version="1.1" id="_x35_" xmlns="http://www.w3.org/2000/svg" xmlns:xlink="http://www.w3.org/1999/xlink" x="0px" y="0px"
	 viewBox="0 0 200 200" style="enable-background:new 0 0 200 200;" xml:space="preserve">
<style type="text/css">
	.st0{display:none;stroke:#FFFFFF;stroke-width:2;stroke-miterlimit:10;}
	.st1{display:none;}
</style>
<path d="M100,0C44.9,0,0,44.9,0,100s44.9,100,100,100s100-44.9,100-100S155.1,0,100,0z M100,189.5c-49.3,0-89.5-40.1-89.5-89.5
	S50.7,10.5,100,10.5s89.5,40.1,89.5,89.5S149.3,189.5,100,189.5z M149.5,117.9c2.7,2.7,2.7,7,0,9.7c-2.7,2.7-7,2.7-9.7,0l-13.4-13.4
	l-2.2,2.2l13.4,13.4l2.1,2.1c2.7,2.7,2.7,7,0,9.7c-2.7,2.7-7,2.7-9.7,0L114.5,126l-2.2,2.2l15.5,15.5c2.7,2.7,2.7,7,0,9.7
	c-2.7,2.7-7,2.7-9.7,0l-5.1-5.1l-10.4-10.4l-2.2,2.2l10.4,10.4c2.7,2.7,2.7,7,0,9.7c-2.3,2.3-5.9,2.6-8.6,0.9
	c2.7-3.9,2.4-9.3-1.1-12.8c-0.2-0.2-0.5-0.5-0.8-0.7c-0.2-0.1-0.3-0.3-0.5-0.4c-0.1-0.1-0.2-0.2-0.3-0.2c-0.8-0.5-1.7-0.9-2.6-1.2
	c0,0-0.1,0-0.1,0c-0.3-0.1-0.5-0.1-0.8-0.2c-0.1,0-0.1,0-0.2,0c-0.3,0-0.5-0.1-0.8-0.1c-0.1,0-0.1,0-0.2,0c-0.2,0-0.4,0-0.6,0
	c-0.1,0-0.2,0-0.3,0c1.1-1.7,1.8-3.6,1.8-5.7c0-2.7-1-5.2-2.9-7.1c-1.9-1.9-4.4-2.9-7.1-2.9c-0.7,0-1.5,0.1-2.2,0.2
	c0.7-3.2-0.2-6.7-2.7-9.2c-2.5-2.5-6-3.4-9.2-2.7c0.7-3.2-0.2-6.7-2.7-9.2c-3.9-3.9-10.2-3.9-14.1,0l-2.6,2.6L29.4,88.6l34-33.7
	c6.4-6.3,16.8-6.3,23.1,0l7.7,7.7L63,93.8c-0.6,0.6-0.6,1.6,0,2.2c4.2,4.4,9.9,6.9,16,7.1c6.1,0.1,11.9-2.1,16.4-6.4l11.7-11.7
	c2.7-2.7,7-2.7,9.7,0l19.4,19.4l11.9,11.9L149.5,117.9z M150.6,128.6L150.6,128.6L150.6,128.6L150.6,128.6z M57.2,111.1
	c1.3-1.3,3.1-2,4.8-2c1.8,0,3.5,0.7,4.8,2c2.7,2.7,2.7,7,0,9.7l-6.7,6.7c-2.7,2.7-7,2.7-9.7,0c-2.7-2.7-2.7-7,0-9.7L57.2,111.1z
	 M72.1,139.4c-2.7,2.7-7,2.7-9.7,0c-2.7-2.7-2.7-7,0-9.7l6.7-6.7c1.3-1.3,3.1-2,4.8-2c1.8,0,3.5,0.7,4.8,2c2.7,2.7,2.7,7,0,9.7
	L72.1,139.4z M84,151.3c-2.7,2.7-7,2.7-9.7,0c-2.7-2.7-2.7-7,0-9.7L81,135c1.3-1.3,3-2,4.8-2c1.8,0,3.5,0.7,4.8,2c1.3,1.3,2,3,2,4.8
	c0,1.8-0.7,3.5-2,4.8L84,151.3z M89.2,160.3c-2.7-2.7-2.7-7,0-9.7c2.7-2.7,7-2.7,9.7,0c2.7,2.7,2.7,7,0,9.7
	C96.2,162.9,91.9,162.9,89.2,160.3z M173.5,88.6L149.1,113l-10.8-10.8L119,82.9c-2-2-4.5-2.9-7.1-2.9c-2.6,0-5.1,1-7.1,2.9
	L93.2,94.5c-3.8,3.6-8.8,5.6-14.1,5.5c-4.8-0.1-9.2-1.9-12.7-5l41.3-41.3c1.7-1.7,5.4-3.3,7.9-3.3h14.7c2.5,0,6.1,1.5,7.9,3.2
	L173.5,88.6z"/>
</svg>
