<?xml version="1.0" encoding="UTF-8"?>
<svg width="632px" height="106px" viewBox="0 0 632 106" version="1.1" xmlns="http://www.w3.org/2000/svg" xmlns:xlink="http://www.w3.org/1999/xlink">
    <!-- Generator: Sketch 50.2 (55047) - http://www.bohemiancoding.com/sketch -->
    <title>TIKTAK LOGO EPS(1)</title>
    <desc>Created with Sketch.</desc>
    <defs>
        <polygon id="path-1" points="0.06 0.946 44.289 0.946 44.289 106 0.06 106"></polygon>
    </defs>
    <g id="TIKTAK-LOGO-EPS(1)" stroke="none" stroke-width="1" fill="none" fill-rule="evenodd">
        <g id="Group-3">
            <mask id="mask-2" fill="white">
                <use xlink:href="#path-1"></use>
            </mask>
            <g id="Clip-2"></g>
            <polyline id="Fill-1" fill="#000105" mask="url(#mask-2)" points="0 0.946 0 24.511 20.584 24.511 20.584 106 43.974 106 43.974 24.511 44.289 0.946 0 0.946"></polyline>
        </g>
        <polyline id="Fill-4" fill="#000105" points="52.772 0.946 53.086 24.511 53.086 106 76.478 106 76.478 24.511 97.061 24.511 97.061 0.946 52.772 0.946"></polyline>
        <polygon id="Fill-5" fill="#000105" points="107.672 105.999 134.504 105.999 134.504 0.945 107.672 0.945"></polygon>
        <polyline id="Fill-6" fill="#000105" points="237.36 0.946 207.691 48.219 207.406 48.219 207.406 0.946 180.576 0.946 180.576 106 207.406 106 207.406 60.569 207.691 60.569 236.367 106 267.741 106 230.689 53.33 233.982 48.369 277.256 106 307.481 106 247.363 28.219 265.47 0.946 237.36 0.946"></polyline>
        <polygon id="Fill-7" fill="#000105" points="141.901 105.999 168.734 105.999 168.734 0.946 141.901 0.946"></polygon>
        <polyline id="Fill-8" fill="#000105" points="561.475 0.945 531.805 48.22 531.52 48.22 531.52 0.945 504.689 0.945 504.689 106 531.52 106 531.52 60.57 531.805 60.57 560.48 106 591.856 106 554.802 53.331 558.096 48.369 601.37 106 631.595 106 571.475 28.219 589.584 0.945 561.475 0.945"></polyline>
        <polyline id="Fill-9" fill="#000105" points="296.474 0.945 296.474 24.51 319.351 24.51 319.351 106 342.744 106 342.744 24.51 343.059 0.945 296.474 0.945"></polyline>
        <polyline id="Fill-10" fill="#000105" points="351.54 0.945 351.854 24.51 351.854 106 375.246 106 375.246 24.51 395.828 24.51 395.828 0.945 351.54 0.945"></polyline>
        <polyline id="Fill-11" fill="#000105" points="464.98 1.772 457.711 1.772 382.337 105.172 414.091 105.172 435.5 74.573 435.5 105.172 456.813 105.172 456.815 44.105 464.98 32.437 464.98 105.172 491.39 105.172 491.39 1.772 464.98 1.772"></polyline>
    </g>
</svg>