<?xml version="1.0" encoding="UTF-8" standalone="no"?><!DOCTYPE svg PUBLIC "-//W3C//DTD SVG 1.1//EN" "http://www.w3.org/Graphics/SVG/1.1/DTD/svg11.dtd"><svg width="100%" height="100%" viewBox="0 0 434 279" version="1.1" xmlns="http://www.w3.org/2000/svg" xmlns:xlink="http://www.w3.org/1999/xlink" xml:space="preserve" xmlns:serif="http://www.serif.com/" style="fill-rule:evenodd;clip-rule:evenodd;stroke-linejoin:round;stroke-miterlimit:1.41421;"><path d="M61.8,278.1l17.7,-88.3l28.8,0l-17.6,88.3l-28.9,0Zm86.9,-28.9l18.3,0l-4.7,-32.4l-13.6,32.4Zm-40.4,28.9l43.6,-88.3l28.4,0l17.9,88.3l-26.7,0l-1.6,-10.5l-28.4,0l-4.5,10.5l-28.7,0Zm116.4,0l9.9,-66.4l-25.2,0l4.3,-22.3l77.4,0l-4.3,22.3l-24,0l-9.7,66.4l-28.4,0Zm96.8,-28.9l18.3,0l-4.7,-32.4l-13.6,32.4Zm-40.3,28.9l43.5,-88.3l28.4,0l17.9,88.3l-26.9,0l-1.3,-10.5l-28.4,0l-4.5,10.5l-28.7,0Zm152.7,-188.1l-135.5,0c-5,24.8 -22.2,45.5 -56.5,59.8c3.9,11.8 17.2,22.7 31,22.7l73.5,0c11.2,0 20.1,-9.4 23.7,-17l-74.7,0c-4.6,-0.8 -4.8,-4.5 -0.2,-4.9l73.4,0c9.5,0 18.1,-8.1 23.1,-16.9l-85.5,0c-4.3,-0.7 -4.3,-4.3 0,-5l86.2,0c8.7,0 16.6,-10.1 19.9,-16.9l-94.6,0c-4.7,-0.6 -4.7,-5 0,-5.1l96.3,0c7.5,0 14.8,-8.2 19.9,-16.7Zm-433.9,0l135.5,0c4.9,24.8 22.2,45.5 56.4,59.8c-3.9,11.8 -17.2,22.7 -31,22.7l-73.4,0c-11.2,0 -20.1,-9.4 -23.7,-17l74.7,0c4.5,-0.8 4.8,-4.5 0.2,-4.9l-73.5,0c-9.5,0 -18.1,-8.1 -23,-16.9l85.6,0c4.3,-0.7 4.3,-4.3 0,-5l-86.2,0c-8.7,0 -16.6,-10.1 -19.9,-16.9l94.6,0c4.7,-0.6 4.7,-5 0,-5.1l-96.3,0c-7.6,0 -14.9,-8.2 -20,-16.7Zm173,-74.4c5,4.3 10.6,8.1 16.6,10.5c5.1,-10 12.2,-18.6 20.4,-26.2c-13.5,1.8 -26.2,6.9 -37,15.7Zm-24,49.3l30.2,0c0.7,-12.4 3.3,-23.3 8.2,-34.5c-6.7,-3 -12.5,-6.6 -18.1,-11.4c-12.5,12.5 -19.4,28.6 -20.3,45.9Zm65.6,-28.3l0,28.3l-30.2,0c0.2,-11.1 2.8,-22.5 7.5,-32.8c7.2,2.6 15,4.3 22.7,4.5Zm46.3,-21c-4.9,4.3 -10.7,8.1 -16.6,10.5c-5.4,-10.2 -12.1,-18.4 -20.5,-26.1c13.6,1.7 26.3,6.8 37.1,15.6Zm23.9,49.3l-30.1,0c-0.4,-12.2 -3.2,-23.6 -8,-34.5c6.4,-3 12.5,-6.8 17.8,-11.4c13,13 19.7,29 20.3,45.9Zm-65.3,-28.3l0,28.3l30,0c0,-11.4 -2.8,-22.3 -7.5,-32.8c-7.2,2.6 -14.9,4.3 -22.5,4.5Zm-46.5,82.6c5,-3.9 10.8,-8.2 16.6,-10.3c5.4,10.1 12.1,18.4 20.4,25.9c-13.5,-1.8 -26.4,-6.9 -37,-15.6Zm-24,-49.4l30.2,0c0.7,12.5 3.3,23.5 8.2,34.8c-6.7,3 -12.5,6.6 -18.1,11.3c-12.3,-12.4 -19.4,-28.5 -20.3,-46.1Zm65.6,28.4l0,-28.4l-30.2,0c0.2,11.4 2.8,22.7 7.5,32.8c7.2,-2.6 15,-4.2 22.7,-4.4Zm46.3,21c-4.7,-4.1 -10.7,-7.9 -16.6,-10.3c-5.4,10.1 -12.1,18.4 -20.5,25.9c13.6,-1.8 26.3,-6.9 37.1,-15.6Zm23.9,-49.4l-30.1,0c-0.4,12.5 -3.1,23.6 -8,34.8c6.4,3 12.2,6.6 17.8,11.3c12.4,-12.4 19.7,-28.9 20.3,-46.1Zm-65.3,28.4l0,-28.4l30,0c0,11.4 -2.8,22.5 -7.5,32.8c-7,-2.6 -15.1,-4.2 -22.5,-4.4Zm-4.9,-95.4c-8.2,6.6 -15.5,15.6 -20.3,25c6.5,2.2 13.4,4 20.3,4l0,-29Zm4.9,0c8,6.6 15.3,15.3 20.1,25c-6.5,2.4 -13.4,4 -20.1,4l0,-29Zm-4.9,129.2c-8.2,-6.5 -15.5,-15.5 -20.3,-25.1c6.5,-2.3 13.4,-3.6 20.3,-3.6l0,28.7Zm4.9,0.2c8,-6.7 15.3,-15.7 20.1,-25.3c-6.5,-2.1 -13.4,-3.6 -20.1,-3.6l0,28.9Z" style="fill:#fff;fill-rule:nonzero;"/></svg>