<?xml version="1.0" encoding="utf-8"?>
<!-- Generator: Adobe Illustrator 16.0.0, SVG Export Plug-In . SVG Version: 6.00 Build 0)  -->
<!DOCTYPE svg PUBLIC "-//W3C//DTD SVG 1.1//EN" "http://www.w3.org/Graphics/SVG/1.1/DTD/svg11.dtd">
<svg version="1.1" id="Layer_1" xmlns="http://www.w3.org/2000/svg" xmlns:xlink="http://www.w3.org/1999/xlink" x="0px" y="0px"
	 width="841.89px" height="595.28px" viewBox="0 0 841.89 595.28" enable-background="new 0 0 841.89 595.28" xml:space="preserve">
<g>
	<g>
		<path fill-rule="evenodd" clip-rule="evenodd" fill="#FEC66D" d="M300.547,50.656c2.349,2.328,3.431,5.181,4.289,8.386
			c12.07,45.092,30.995,87.01,58.295,125.012c0.804,1.119,1.473,2.334,2.205,3.505c-1.224,1.154-2.474,2.283-3.668,3.468
			c-16.682,16.542-33.356,33.093-50.032,49.642c-25.079-25.02-50.158-50.039-75.237-75.058
			c11.122-15.118,21.845-30.496,30.902-46.976c10.622-19.328,19.486-39.404,25.568-60.628c0.899-3.14,2.275-5.558,4.899-7.35
			C298.694,50.656,299.621,50.656,300.547,50.656z"/>
		<path fill-rule="evenodd" clip-rule="evenodd" fill="#FEC66D" d="M478.21,183.545c6.338-10.735,13.648-20.859,19.749-31.752
			c16.577-29.604,29.236-60.779,37.747-93.614c0.821-3.167,2.054-5.692,4.711-7.522c0.617,0,1.234,0,1.852,0
			c1.972,1.601,3.986,2.824,4.822,5.748c11.144,38.942,30.254,73.813,54.624,105.956c1.204,1.588,2.392,3.19,3.588,4.786
			c-23.881,23.828-47.762,47.656-71.642,71.485c-0.205-0.026-0.411-0.05-0.618-0.073
			C514.765,220.219,496.487,201.882,478.21,183.545z"/>
	</g>
	<path fill-rule="evenodd" clip-rule="evenodd" fill="#6072B6" d="M311.509,241.377c0.05-0.235,0.093-0.472,0.126-0.709
		c16.676-16.548,33.35-33.099,50.032-49.641c1.194-1.185,2.444-2.313,3.668-3.468c6.826,8.128,13.32,16.525,20.56,24.319
		c9.577,10.31,20.019,19.621,30.954,28.44c2.496,2.013,4.121,1.983,6.69-0.024c19.7-15.391,36.72-33.337,51.646-53.332
		c0.908-1.218,1.538-2.701,3.023-3.417c18.277,18.337,36.555,36.674,54.834,55.012c-5.28,5.877-10.667,11.625-16.818,16.649
		c-2.148,1.755-4.777,3.382-5.434,6.502c-12.162,0.05-24.325,0.14-36.486,0.144c-45.738,0.018-91.477,0.009-137.214,0
		c-1.689,0-3.379-0.104-5.069-0.159C325.458,254.646,318.831,247.66,311.509,241.377z"/>
	<g>
		<path fill-rule="evenodd" clip-rule="evenodd" fill="#3C74BA" d="M34.745,523.912c3.722-3.518,5.328-8.419,8.173-12.513
			c1.998-2.874,3.876-5.831,5.808-8.75c1.67-0.316,2.497-1.738,3.565-2.8c8.531-8.469,17.009-16.991,25.538-25.461
			c14.32-14.222,28.666-28.417,43-42.622c-1.407,16.85-5.886,32.698-15.735,46.662c-1.885,2.671-1.812,3.688,1.148,5.364
			c22.377,12.676,44.64,25.552,66.937,38.368c1.146,0.659,2.275,1.345,4.523,2.678c-48.515,0-95.736,0-142.957,0
			C34.745,524.53,34.745,524.221,34.745,523.912z"/>
		<path fill-rule="evenodd" clip-rule="evenodd" fill="#3C74BA" d="M193.115,526.69c-7.363-5.831-15.737-10.073-23.667-15.009
			c-13.972-8.696-28.056-17.209-42.266-25.903c1.111-1.222,2.381-0.716,3.459-0.735c19.557-0.357,39.118-0.565,58.67-1.089
			c3.937-0.105,4.827,1.074,4.76,4.85c-0.224,12.625-0.051,25.258-0.03,37.887C193.732,526.69,193.423,526.69,193.115,526.69z"/>
		<path fill-rule="evenodd" clip-rule="evenodd" fill="#3C74BA" d="M290.336,481.36c-1.075,0.061-2.15,0.175-3.225,0.175
			c-57.726,0.009-115.453,0.008-173.179,0.008c-1.217,0-2.434,0-4.43,0c11.131-17.111,15.207-35.707,16.124-55.187
			c24.908-24.827,49.815-49.655,74.723-74.482c26.667-0.056,53.333-0.142,80-0.158c44.398-0.026,88.796-0.009,133.195,0.002
			c1.844,0.001,3.688,0.129,5.533,0.198c-16.375,16.445-32.777,32.863-49.068,49.391c-1.232,1.25-2.525,1.369-3.94,1.676
			c-0.288-0.699-0.636-1.38-0.854-2.1c-2.454-8.087-2.444-7.996-10.843-7.64c-2.387,0.1-2.843,0.631-2.067,2.915
			c1.975,5.811,3.71,11.701,5.542,17.56c-3.424,3.21-6.849,6.419-10.979,10.291c0-10.548,0-20.149,0-29.75
			c-0.238,0.001-0.475,0.004-0.713,0.006c0,10.277,0,20.554,0,30.83c-0.022,4.772-0.045,9.544-0.067,14.316
			c-3.892,3.013-8.989,3.072-11.217,0.13c1.682,0.136,3.375,0.188,5.043,0.425c4.039,0.571,5.576-0.699,5.455-5.163
			c-0.329-12.184-0.292-24.387,0.033-36.57c0.112-4.215-1.192-5.096-5.166-5.081c-4.066,0.015-5.512,0.863-5.413,5.292
			c0.287,12.798,0.013,25.608-0.042,38.414c-8.298,8.152-16.68,16.222-24.869,24.481C303.34,467.967,296.354,474.192,290.336,481.36
			z M306.128,402.592c-3.332,0-6.664,0-9.995,0c1.228,0.913,2.462,1.072,3.642,0.886c4.594-0.729,5.658,1.344,5.493,5.655
			c-0.329,8.587-0.135,17.196-0.063,25.794c0.013,1.583-0.726,3.434,1.028,4.673c3.631,2.763,7.262,1.901,10.892-0.003
			c1.56-1.123,0.979-2.792,0.989-4.245c0.053-7.516,0.024-15.033,0.024-22.549c0-8.925,0-8.922,8.619-9.36
			c0.18-0.011,0.346-0.297,0.935-0.834c-3.769,0-7.116,0-10.462,0c2.63-1.885,5.606-0.737,8.377-0.745
			c3.716-0.01,2.75-2.453,2.811-4.403c0.063-2.064,0.653-4.303-2.951-4.228c-9.231,0.195-18.47,0.186-27.702,0.007
			c-3.656-0.071-2.895,2.275-2.894,4.29c0.001,2.012-0.761,4.348,2.889,4.338C300.523,401.86,303.495,400.729,306.128,402.592z
			 M200.542,402.6c1.473-1.694,3.424-0.772,5.115-0.785c12.279-0.098,12.28-0.055,12.297-4.161
			c0.019-4.353,0.019-4.353-12.514-4.353c-1.692,0-3.385,0-5.077,0c-10.26,0-10.156,0.001-10.288,10.297
			c-0.151,11.821,0.584,23.652-0.418,35.463c0-14.851,0-29.703,0-44.554c-0.39,0.003-0.78,0.005-1.169,0.008
			c0,14.133-0.001,28.267,0.001,42.4c0,1.094,0.017,2.191,1.321,2.639c3.53,2.681,7.076,2.289,10.632,0.056
			c2.186-3.717,0.835-7.766,0.901-11.633c0.056-3.274,1.146-4.097,4.283-4.198c3.205-0.104,6.708,1.485,9.656-1.081
			c-0.003-2.885-0.007-5.771-0.01-8.656c-1.558-2.343-3.971-0.739-5.906-1.292c-2.983-0.854-7.977,2.77-8.077-4.482
			c-0.098-7.089,4.648-4.337,7.831-4.7c2.618-0.3,5.297-0.062,7.95-0.062c-0.003-0.302-0.006-0.603-0.01-0.905
			C211.554,402.6,206.048,402.6,200.542,402.6z M236.585,402.587c4.673-1.888,9.542-0.654,14.301-0.72
			c3.897-0.053,2.971-2.473,3.106-4.619c0.146-2.333,0.092-4.104-3.214-4.013c-8.259,0.23-16.528,0.128-24.792,0.158
			c-1.77,0.649-1.371,2.193-1.374,3.502c-0.022,13.159-0.019,26.317-0.003,39.475c0.001,1.181-0.286,2.515,1.153,3.199
			c0.256,0.236,0.512,0.473,0.767,0.708c0.448,0.373,0.894,1.067,1.345,1.071c8.314,0.065,16.629,0.066,24.944,0.001
			c0.453-0.004,0.9-0.693,1.35-1.064c1.029-2.966,0.95-5.937,0.049-8.913c-4.354-2.155-8.986-0.741-13.474-0.909
			c-3.334-0.124-3.195-1.989-3.183-4.246c0.012-2.227-0.23-4.406,3.158-4.22c3.202,0.178,6.421,0.038,9.632,0.038
			c-0.003-0.308-0.006-0.615-0.008-0.922c-4.582,0-9.164,0-13.745,0c3.74-1.735,7.698-0.356,11.527-0.811
			c1.122-0.133,2.458,0.448,3.185-1.05c1.832-3.77-0.407-7.364-4.624-7.401c-3.049-0.027-6.097-0.1-9.146-0.151
			c0.013-1.071,0.178-2.168,0.011-3.211c-0.664-4.144,1.111-5.455,5.116-5.048c3.137,0.318,6.333,0.063,9.503,0.063
			c-0.01-0.307-0.02-0.612-0.03-0.918C246.955,402.587,241.77,402.587,236.585,402.587z M276.711,440.597
			c2.195,0.19,4.918-0.301,7.547-1.252c9.32-3.374,12.72-13.419,6.873-20.326c-2.242-2.649-5.251-4.216-8.351-5.64
			c-2.654-1.218-5.325-2.419-7.882-3.82c-1.703-0.934-2.851-2.456-2.383-4.572c0.52-2.345,2.384-3.081,4.5-3.241
			c2.728-0.206,5.279,0.54,7.247,2.408c1.689,1.604,2.781,1.39,4.014-0.399c0.783-1.136,1.677-2.227,2.673-3.176
			c1.854-1.769,1.443-3.047-0.541-4.357c-3.165-2.092-6.629-3.25-10.373-3.53c-8.667-0.649-16.098,3.803-17.95,10.678
			c-1.859,6.899,1.745,12.478,10.649,16.572c2.791,1.283,5.592,2.568,8.275,4.055c1.539,0.854,2.545,2.321,2.154,4.24
			c-0.421,2.073-1.893,3.062-3.908,3.36c-3.675,0.544-7.411,0.094-10.013-2.428c-3.425-3.32-5.001-1.663-6.673,1.432
			c-0.363,0.673-0.799,1.338-1.326,1.886c-1.771,1.843-1.185,3.06,0.8,4.291C266.367,439.461,271.034,440.701,276.711,440.597z"/>
		<path fill-rule="evenodd" clip-rule="evenodd" fill="#3C74BA" d="M311.509,241.377c7.321,6.283,13.948,13.269,20.513,20.316
			c-9.845,0.061-19.69,0.168-29.535,0.149c-2.302-0.004-3.646,0.229-3.722,3.146c-0.397,15.126-4.429,29.423-10.346,43.254
			c-0.354,0.827-0.514,1.736-0.765,2.607c0,0-0.106,0.062-0.106,0.062c-3.081,2.721-4.198,6.512-5.545,10.178l0.016-0.022
			c-2.263,1.584-3.027,4.023-3.719,6.505l0.015-0.021c-1.82,1.017-2.43,2.759-2.792,4.65l0.013-0.019
			c-0.641,0.472-1.958,0.615-0.927,1.902c-3.315,4.081-6.916,7.958-9.25,12.751c-19.831,0.04-39.662,0.081-59.493,0.12
			c0.688-0.815,1.321-1.688,2.074-2.44c33.821-33.792,67.654-67.575,101.492-101.351
			C310.076,242.522,310.814,241.972,311.509,241.377z"/>
	</g>
	<g>
		<path fill-rule="evenodd" clip-rule="evenodd" fill="#95CA56" d="M236.399,165.61c25.079,25.019,50.158,50.039,75.237,75.058
			c-0.034,0.238-0.076,0.474-0.126,0.709c-0.695,0.595-1.433,1.146-2.078,1.789c-33.838,33.776-67.671,67.559-101.492,101.351
			c-0.753,0.752-1.385,1.625-2.074,2.44c-23.581,0.054-47.163,0.076-70.744,0.204c-2.464,0.014-3.114-0.827-3.108-3.204
			c0.07-26.975,0.06-53.949,0.01-80.924c-0.003-1.894,0.502-3.095,2.208-4.107c40.107-23.792,72.027-56.562,101.168-92.372
			C235.687,166.202,236.064,165.923,236.399,165.61z"/>
		<path fill-rule="evenodd" clip-rule="evenodd" fill="#95C957" d="M120.829,431.767c-14.335,14.205-28.681,28.4-43,42.622
			c-8.529,8.47-17.007,16.992-25.538,25.461c-1.068,1.062-1.895,2.483-3.565,2.8c2.222-6.107,6.263-11.201,9.415-16.787
			c3.479-6.166,7.087-12.271,10.934-18.213c1.803-2.785,1.905-4.94,0.309-7.938c-9.908-18.613-19.589-37.348-29.337-56.046
			c-2.447-4.693-2.432-4.736,2.914-4.689c24.811,0.216,49.62,0.484,74.431,0.633c2.387,0.014,3.598,0.409,3.805,3.125
			C121.931,412.432,122.337,422.105,120.829,431.767z"/>
		<path fill-rule="evenodd" clip-rule="evenodd" fill="#95C957" d="M200.348,351.874c-24.907,24.827-49.815,49.655-74.723,74.482
			c0.268-25.706-5.039-50.317-15.011-74.482C140.816,351.874,170.582,351.874,200.348,351.874z"/>
	</g>
	<g>
		<path fill-rule="evenodd" clip-rule="evenodd" fill="#F05C73" d="M533.659,238.629c23.882-23.828,47.763-47.656,71.644-71.484
			c24.027,30.234,51.524,56.907,82.253,80.284c5.435,4.135,11.371,7.411,17.28,10.732c2.432,1.366,3.424,2.906,3.411,5.789
			c-0.117,26.391-0.081,52.781-0.049,79.172c0.003,2.316,0.146,4.091-3.223,4.058c-21.138-0.201-42.277-0.205-63.417-0.273
			c-1.031-1.134-2.017-2.312-3.099-3.393c-19.387-19.374-38.802-38.722-58.177-58.107
			C564.72,269.836,549.199,254.223,533.659,238.629z"/>
		<path fill-rule="evenodd" clip-rule="evenodd" fill="#F05C73" d="M789.979,493.422c-2.058,0.11-2.801-1.708-3.931-2.827
			c-21.15-20.916-42.256-41.878-63.371-62.833c-1.369-8.59-0.762-17.17-0.012-25.764c0.189-2.171,1.376-2.352,3.089-2.351
			c26.48,0.024,52.962,0.017,79.673,0.017c0.373,1.345-1.038,2.592-1.766,3.991c-9.784,18.842-19.57,37.685-29.511,56.445
			c-1.41,2.66-1.312,4.57,0.275,7.131C779.775,475.86,784.818,484.677,789.979,493.422z"/>
		<path fill-rule="evenodd" clip-rule="evenodd" fill="#F05C73" d="M717.994,422.619c-16.917-16.796-33.847-33.576-50.742-50.394
			c-6.756-6.726-13.435-13.528-20.148-20.296c26.844-0.074,53.686-0.149,80.528-0.223c1.657-0.005,3.315-0.001,5.495-0.001
			c-3.807,9.453-6.912,18.599-9.324,27.971C720.177,393.767,718.361,408.094,717.994,422.619z"/>
	</g>
	<path fill-rule="evenodd" clip-rule="evenodd" fill="#6474B8" d="M443.375,343.221c-0.494,4.312-3.205,3.946-5.882,3.937
		c-9.188-0.031-12.938-3.852-12.824-13.227c0.062-5.13,3.659-8.757,8.71-8.784c4.584-0.025,7.658,3.187,7.714,8.376
		c0.024,2.231,0.872,4.137,1.452,6.909c0-5.38-0.225-9.992,0.047-14.576c0.625-10.617,3.168-20.598,10.586-28.75
		c1.035-1.137,2.049-2.744,3.788-1.856c1.896,0.968,3.813,2.41,4.231,4.589c0.337,1.755-1.614,2.896-2.894,3.155
		c-7.029,1.421-6.407,6.879-6.682,11.944c-0.469,8.667,1.054,17.117,2.634,25.578c0.728,3.893,2.501,3.846,5.213,1.836
		c3.658-2.714,4.817-7.184,2.717-13.312c-1.586-4.629-2.863-9.443-5.774-13.535c-1.118-1.57-1.321-3.36-1.337-5.267
		c-0.02-2.426,0.18-4.153,3.38-4.148c2.961,0.005,4.592,0.475,4.467,4.005c-0.131,3.715,0.958,7.265,3.243,10.349
		c2.921,3.939,4.286,8.647,6.393,13.1c0.149-5.826,1.13-11.606-0.364-17.285c-0.937-3.562-0.022-6.491,2.336-9.083
		c0.66-0.725,2.399-1.795,2.394-1.506c-0.041,1.986,2.965,0.897,2.81,3.553c-0.169,2.906,0.119,6.479,4.28,7.924
		c2.465,0.856,1.83,3.657,1.192,5.718c-0.732,2.363-0.6,3.188,2.357,3.03c7.724-0.414,9.794,1.5,11.364,9.457
		c2.324,11.781,2.324,11.781-9.54,11.781c-13.574,0-27.149-0.041-40.723,0.036C446.052,347.184,443.951,346.909,443.375,343.221z
		 M477.794,332.178c2.379-9.808,2.354-10.383,0-14.417C477.794,322.692,477.794,327.435,477.794,332.178z"/>
	<path fill-rule="evenodd" clip-rule="evenodd" fill="#6474B8" d="M313.834,318.502c2.967-2.135,5.785-2.521,7.857-4.911
		c1.662-1.917,6.483-1.923,7.06,1.836c1.129,7.357,6.063,12.324,9.845,18.155c3.846-2.553,2.653-5.307-0.087-7.95
		c-1.339-1.292-3.115-2.243-1.312-4.426c0.222-0.269,0.22-1.161,0.091-1.216c-6.51-2.75-0.122-8.244-2.504-11.923
		c-0.454-0.701-0.288-2.242,1.066-2.686c1.605-0.526,2.093,0.76,2.742,1.815c1.449,2.355,2.37,4.771,2.988,7.575
		c0.854,3.872,4.522,6.189,8.241,10.029c-0.924-9.076,1.034-15.649,10.099-18.34c-2.333,2.343,0.156,4.183,0.67,5.874
		c1.165,3.832-0.951,4.558-3.301,5.184c-2.703,0.721-3.129,2.287-2.999,4.713c0.225,4.209-0.746,8.511,2.946,12.063
		c1.202,1.155,1.911,4.036,1.341,5.568c-1.183,3.179-0.045,4.899,2.391,6.277c-0.375,1.332-1.29,0.972-1.941,0.973
		c-17.581,0.023-35.162-0.011-52.743,0.046c-2.77,0.009-4.606-0.134-3.026-3.726c0.847-1.925,1.245-4.143,1.391-6.26
		c0.333-4.847,2.89-7.273,7.591-7.547c2.775-0.162,3.088-1.444,1.979-3.642c-1.044-2.068-0.336-4.108,1.466-4.833
		c2.088-0.839,2.771,1.34,3.3,2.941c0.66,2.001,1.082,3.798,0.352,6.173c-0.963,3.133,1.675,5.745,4.151,7.08
		c1.886,1.018,3.747,1.847,5.029,3.907C331.475,331.711,324.406,320.448,313.834,318.502z"/>
	<path fill-rule="evenodd" clip-rule="evenodd" fill="#6474B8" d="M551.152,325.367c-1.151,2.874-0.486,4.254,2.915,4.331
		c3.565,0.081,5.403,2.47,6.202,5.82c2.77,11.619,2.787,11.614-9.041,11.614c-13.119,0-26.238,0-39.356,0c-1.483,0-2.967,0-5.423,0
		c2.547-2.681,3.615-4.92,2.631-7.846c-0.604-1.795,0-3.863,1.266-5.219c3.789-4.059,2.237-8.977,2.514-13.604
		c0.055-0.918,0.06-2.14-1.061-2.278c-4.775-0.594-4.724-4.405-5.859-7.803c-0.898-2.687,2.908-1.051,2.345-3.438
		c-0.222-0.942,1.157,0.183,1.772,0.645c6.287,4.721,6.293,4.714,7.937,16.585c3.039-4.286,8.107-6.397,7.596-12.331
		c-0.059-0.682,0.354-1.578,0.842-2.099c1.427-1.52,1.513-5.436,4.458-4.102c2.301,1.043,1.748,3.904,0.073,5.943
		c-0.653,0.796-0.361,1.39,0.373,1.879c0.938,0.626,1.174,2.028,0.743,2.425c-2.978,2.747-1.273,7.353-4.236,10.092
		c-2.495,2.306-3.351,4.804,0.14,7.116c3.518-5.358,8.873-9.667,8.896-16.959c0.005-1.757,1.582-3.398,3.836-3.294
		c1.88,0.087,4.467-0.801,5.003,1.96c0.575,2.963,3.756,0.899,4.835,3.211c-10.551,3.822-13.472,12.245-13.4,22.505
		c2.181-1.312,4.604-2.382,6.071-3.865c1.764-1.782,5.071-3.912,2.947-7.698c-0.896-1.595,0.033-3.287,0.556-4.896
		c0.546-1.677,1.13-3.474,3.353-3.01c3.413,0.712-1.816,2.588,0.383,3.579C550.691,324.878,550.922,325.122,551.152,325.367z"/>
	<path fill-rule="evenodd" clip-rule="evenodd" fill="#6474B8" d="M397.009,287.024c1.805,0.01,1.206,2.277,2.628,2.323
		c0.78,0.136,0.864-0.496,0.797-0.836c-0.401-2.047,0.553-2.987,2.375-3.768c2.041-0.875,3.277,0.082,4.415,1.368
		c1.89,2.137,2.843,4.594,2.789,7.57c-0.135,7.391-0.011,14.786-0.067,22.18c-0.015,1.941-0.097,3.959,2.407,4.133
		c2.757,0.191,3.042-1.947,3.208-4.067c0.485-6.228,2.04-7.533,7.704-6.533c0.596,0.105,1.217,0.237,1.747,0.51
		c1.281,0.655-0.004,3.043,1.99,3.167c1.159,0.072,2.402-0.757,3.732,0.758c-1.75,1.07-3.513,2.021-5.141,3.164
		c-7.678,5.39-9.148,8.678-6.168,17.451c1.379,4.058,2.001,8.323,3.966,12.474c-8.766,0-17.306,0-26.44,0
		c2.409-1.494,1.888-3.88,2.662-5.637c3.584-8.138,1.866-16.805,3.173-25.122c0.943-5.999,0.062-11.976,0.631-17.945
		c0.202-2.12-1.677-3.142-3.29-4.033C397.198,292.562,396.175,290.245,397.009,287.024z"/>
	<path fill-rule="evenodd" clip-rule="evenodd" fill="#6474B8" d="M388.381,343.373c3.69-4.535,2.07-9.263,2.928-13.465
		c0.542-2.652-0.067-5.472,0.733-8.201c0.878-2.994-1.689-4.725-2.997-6.891c-0.952-1.577,0.935-7.829,2.525-8.816
		c0.944-0.585,1.464-0.236,1.883,0.395c1.756,2.646,5.072,4.817,4.133,8.447c-1.226,4.742-0.734,9.477-0.886,14.219
		c-0.079,2.461,0.109,4.933-0.04,7.387c-0.541,8.94-2.396,10.683-11.12,10.683c-4.617,0-9.246-0.187-13.85,0.064
		c-3.17,0.174-3.824-1.084-3.81-3.983c0.021-4.167,0.901-7.589,4.995-9.514c5.886-2.768,10.565-1.023,13.633,5.176
		C387.113,340.094,387.562,341.39,388.381,343.373z"/>
	<path fill-rule="evenodd" clip-rule="evenodd" fill="#6474B8" d="M569.597,339.562c2.755,1.84,3.769,5.097,5.991,7.37
		c-0.302,0.044-0.603,0.113-0.905,0.128C567.216,347.403,566.633,346.543,569.597,339.562z"/>
	<path fill-rule="evenodd" clip-rule="evenodd" fill="#6474B8" d="M264.358,346.837c2.335-4.793,5.935-8.67,9.251-12.752
		c0.765-0.412,0.932-1.114,0.926-1.901l-0.013,0.019c1.883-0.979,2.512-2.709,2.792-4.65l-0.015,0.021
		c2.346-1.536,3.111-3.976,3.719-6.505l-0.016,0.022c3.097-2.713,4.246-6.486,5.545-10.178c0,0,0.106-0.062,0.106-0.062
		c1.626-0.219,3.253-0.22,3.579,1.837c0.222,1.405,0.66,1.412,1.738,0.817c0.865-0.478,2.125-1.41,2.652,0.14
		c0.438,1.287-1.119,1.736-1.951,2.208c-5.79,3.28-8.157,8.733-9.706,14.782c-0.62,2.421-0.519,3.575,2.679,3.388
		c5.957-0.35,10.775,5.52,9.893,11.296c-0.269,1.762-1.312,1.821-2.596,1.809C283.415,347.031,273.886,346.934,264.358,346.837z"/>
	<path fill-rule="evenodd" clip-rule="evenodd" fill="#6474B8" d="M550.46,324.633c0.378-0.748,0.86-1.237,1.624-0.479
		c0.044,0.044-0.609,0.791-0.936,1.212C550.922,325.122,550.691,324.878,550.46,324.633z"/>
	<path fill-rule="evenodd" clip-rule="evenodd" fill="#F6F7FB" d="M600.711,422.336c0-8.398,0.252-16.809-0.106-25.192
		c-0.18-4.193,2.064-3.978,4.808-3.845c2.584,0.125,5.47-1.001,5.358,3.777c-0.305,13.113-0.175,26.238-0.048,39.356
		c0.025,2.694-0.571,3.532-3.483,3.871c-6.333,0.738-10.143-1.161-12.732-7.355c-3.428-8.2-8.477-15.682-12.261-24.068
		c0,1.82-0.019,3.642,0.004,5.462c0.091,7.407-0.008,14.823,0.372,22.214c0.205,3.979-2.07,3.843-4.636,3.582
		c-2.232-0.228-5.42,1.473-5.346-3.281c0.209-13.426,0.143-26.857,0.016-40.284c-0.026-2.719,0.997-3.062,3.443-3.378
		c6.503-0.839,10.403,1.203,12.964,7.644c2.971,7.471,7.228,14.431,10.927,21.612C600.231,422.412,600.471,422.374,600.711,422.336z
		"/>
	<path fill-rule="evenodd" clip-rule="evenodd" fill="#F6F7FB" d="M560.352,440.166c-4.033,1.252-5.739-1.349-6.133-5.485
		c-0.418-4.394-2.721-6.153-7.055-5.288c-0.443,0.089-0.921,0.012-1.383,0.012c-8.321,0.001-8.321,0.001-10.789,7.651
		c-0.809,2.509-8.276,4.561-10.535,2.906c-1.096-0.801-0.283-1.633-0.045-2.425c4.176-13.838,8.401-27.661,12.521-41.515
		c0.644-2.167,1.797-3.053,3.976-2.706c0.15,0.023,0.308,0.005,0.462,0.002c10.865-0.196,10.858-0.194,14.049,10.234
		c3.193,10.438,6.398,20.874,9.612,31.307C566.67,440.173,566.684,440.168,560.352,440.166z M544.956,401.082
		c-1.349,4.977-2.367,8.803-3.425,12.616c-2.206,7.964-2.222,7.862,6.026,7.316c2.23-0.147,2.622-0.878,2.086-2.797
		C548.162,412.92,546.736,407.606,544.956,401.082z"/>
	<path fill-rule="evenodd" clip-rule="evenodd" fill="#F6F7FB" d="M634.728,440.579c-5.911,0.099-10.262-1.165-14.386-3.526
		c-2.468-1.414-2.858-2.857-0.964-5.01c0.912-1.036,1.724-2.192,2.396-3.398c1.11-1.996,2.077-2.067,3.839-0.503
		c3.251,2.887,7.155,4.118,11.57,3.453c2.054-0.31,3.479-1.351,3.938-3.355c0.439-1.91-0.646-3.396-2.172-4.224
		c-3.243-1.758-6.646-3.22-9.941-4.887c-7.473-3.778-10.476-8.645-9.206-14.781c1.359-6.562,7.151-11.172,14.828-11.676
		c4.906-0.322,9.487,0.755,13.616,3.535c1.806,1.215,2.454,2.276,0.683,4.307c-2.597,2.975-4.558,6.683-9.056,2.266
		c-1.094-1.074-3.112-1.22-4.866-1.072c-2.153,0.18-3.971,0.908-4.642,3.134c-0.65,2.155,0.66,3.656,2.305,4.584
		c2.808,1.585,5.777,2.885,8.685,4.294c8.487,4.112,11.706,9.22,10.107,16.054c-1.452,6.213-7.901,10.556-16.049,10.805
		C634.796,440.595,634.179,440.579,634.728,440.579z"/>
	<path fill-rule="evenodd" clip-rule="evenodd" fill="#F6F7FB" d="M505.359,434.068c-0.865,2.579,1.727,6.878-3.856,7.09
		c-6.522,0.247-6.498,0.398-6.524-6.331c-0.015-3.955-0.101-7.91-0.154-11.866c0.057-8.631,0.252-17.264,0.099-25.89
		c-0.055-3.081,0.91-3.919,3.9-3.831c6.932,0.204,13.882,0.247,20.811-0.012c3.389-0.126,3.394,1.662,3.208,4.001
		c-0.166,2.089,0.987,4.862-3.063,4.573c-3.682-0.263-7.401,0.061-11.096-0.095c-2.42-0.102-3.517,0.365-3.57,3.206
		c-0.173,9.093-0.307,8.962,9.182,9.184c2.307,0.055,6.138-2.146,6.211,3.33c0.053,4.066-0.81,5.569-5.248,5.419
		c-10.351-0.351-10.361-0.101-10.033,10.309C505.233,433.461,505.312,433.764,505.359,434.068z"/>
	<path fill-rule="evenodd" clip-rule="evenodd" fill="#F6F7FB" d="M366.34,440.013c-2.832-8.765-5.664-17.529-8.496-26.295
		c-1.831-5.858-3.567-11.749-5.542-17.56c-0.776-2.284-0.319-2.815,2.067-2.915c8.399-0.356,8.39-0.447,10.843,7.64
		c0.219,0.72,0.567,1.4,0.854,2.1c2.368,8.925,4.736,17.85,7.183,27.071c1.939-2.438,1.704-5.339,2.463-7.886
		c2.379-7.974,4.807-15.945,6.784-24.022c0.932-3.811,2.552-5.523,6.54-4.896c1.788,0.28,3.657,0.047,5.973,0.047
		c-5.036,15.535-9.917,30.616-14.839,45.683c-0.174,0.533-0.759,0.931-1.152,1.393C374.793,440.252,370.566,440.132,366.34,440.013z
		"/>
	<path fill-rule="evenodd" clip-rule="evenodd" fill="#F6F7FB" d="M237.54,411.7c3.049,0.052,6.097,0.124,9.146,0.151
		c4.217,0.037,6.456,3.632,4.624,7.401c-0.728,1.498-2.063,0.917-3.185,1.05c-3.829,0.454-7.787-0.925-11.527,0.811
		c-0.065,2.445,0.002,4.904-0.232,7.334c-0.242,2.509,0.82,3.086,3.135,3.009c4.901-0.164,9.81-0.071,14.717-0.084
		c0.901,2.977,0.98,5.947-0.048,8.913c-9.213-0.003-18.426-0.005-27.64-0.008c-0.255-0.235-0.511-0.472-0.767-0.708
		c0.075-15.392,0.149-30.784,0.224-46.176c8.264-0.03,16.533,0.072,24.792-0.158c3.306-0.092,3.36,1.68,3.214,4.013
		c-0.135,2.146,0.792,4.566-3.106,4.619c-4.759,0.065-9.628-1.168-14.301,0.72C236.773,405.639,235.215,408.873,237.54,411.7z"/>
	<path fill-rule="evenodd" clip-rule="evenodd" fill="#F6F7FB" d="M276.711,440.597c-5.677,0.104-10.344-1.136-14.666-3.82
		c-1.985-1.231-2.571-2.448-0.8-4.291c0.527-0.548,0.962-1.213,1.326-1.886c1.672-3.095,3.248-4.752,6.673-1.432
		c2.603,2.521,6.338,2.972,10.013,2.428c2.016-0.298,3.487-1.287,3.908-3.36c0.391-1.919-0.616-3.387-2.154-4.24
		c-2.684-1.486-5.484-2.771-8.275-4.055c-8.904-4.095-12.508-9.673-10.649-16.572c1.853-6.875,9.283-11.327,17.95-10.678
		c3.744,0.28,7.208,1.438,10.373,3.53c1.983,1.311,2.395,2.589,0.541,4.357c-0.997,0.949-1.891,2.04-2.673,3.176
		c-1.233,1.789-2.325,2.003-4.014,0.399c-1.968-1.868-4.519-2.614-7.247-2.408c-2.117,0.16-3.98,0.896-4.5,3.241
		c-0.468,2.116,0.68,3.639,2.383,4.572c2.558,1.401,5.229,2.603,7.882,3.82c3.1,1.424,6.109,2.99,8.351,5.64
		c5.847,6.907,2.447,16.952-6.873,20.326C281.629,440.296,278.906,440.787,276.711,440.597z"/>
	<path fill-rule="evenodd" clip-rule="evenodd" fill="#F6F7FB" d="M215.272,414.041c0.003,2.886,0.007,5.771,0.01,8.656
		c-3.974,0.031-7.956,0.212-11.921,0.037c-2.468-0.108-3.141,0.742-3.041,3.117c0.192,4.58,0.097,9.172,0.121,13.758
		c-3.556,2.233-7.102,2.625-10.632-0.055c0.06-0.198,0.009-0.363-0.153-0.494c1.002-11.811,0.267-23.642,0.418-35.463
		c0.132-10.296,0.028-10.297,10.288-10.297c1.692,0,3.385,0,5.077,0c12.533,0,12.533,0,12.514,4.353
		c-0.018,4.106-0.018,4.063-12.297,4.161c-1.691,0.013-3.642-0.909-5.115,0.785c-0.058,2.598,0.038,5.21-0.213,7.788
		c-0.268,2.739,0.506,3.822,3.471,3.623C207.605,413.754,211.446,414.008,215.272,414.041z"/>
	<path fill-rule="evenodd" clip-rule="evenodd" fill="#F3F5FA" d="M317.125,439.597c-3.63,1.904-7.261,2.766-10.892,0.003
		c-0.035-12.336-0.07-24.671-0.104-37.008c-2.633-1.863-5.604-0.731-8.369-0.725c-3.65,0.01-2.888-2.326-2.889-4.338
		c-0.001-2.015-0.763-4.361,2.894-4.29c9.231,0.179,18.471,0.188,27.702-0.007c3.604-0.075,3.015,2.163,2.951,4.228
		c-0.06,1.95,0.905,4.394-2.811,4.403c-2.771,0.008-5.747-1.14-8.376,0.745C317.194,414.938,317.159,427.267,317.125,439.597z"/>
	<path fill-rule="evenodd" clip-rule="evenodd" fill="#F6F7FB" d="M334.868,439.541c-0.03-0.895-0.059-1.789-0.089-2.684
		c0.055-12.806,0.329-25.616,0.042-38.414c-0.099-4.429,1.346-5.277,5.413-5.292c3.974-0.015,5.278,0.866,5.166,5.081
		c-0.325,12.184-0.362,24.387-0.033,36.57c0.121,4.464-1.417,5.734-5.455,5.163C338.243,439.729,336.549,439.677,334.868,439.541z"
		/>
	<path fill-rule="evenodd" clip-rule="evenodd" fill="#2A62AE" d="M306.128,402.592c0.035,12.337,0.07,24.672,0.104,37.008
		c-1.754-1.239-1.015-3.09-1.028-4.673c-0.071-8.598-0.265-17.207,0.063-25.794c0.165-4.312-0.899-6.384-5.493-5.655
		c-1.18,0.187-2.414,0.027-3.642-0.886C299.464,402.592,302.796,402.592,306.128,402.592z"/>
	<path fill-rule="evenodd" clip-rule="evenodd" fill="#3863AF" d="M317.125,439.597c0.035-12.33,0.07-24.659,0.104-36.988
		c3.346,0,6.693,0,10.462,0c-0.589,0.537-0.755,0.823-0.935,0.834c-8.619,0.438-8.619,0.436-8.619,9.36
		c0,7.516,0.028,15.033-0.024,22.549C318.103,436.805,318.684,438.474,317.125,439.597z"/>
	<path fill-rule="evenodd" clip-rule="evenodd" fill="#2A62AE" d="M225.986,393.394c-0.075,15.392-0.149,30.784-0.224,46.176
		c-1.439-0.685-1.152-2.019-1.153-3.199c-0.016-13.157-0.019-26.315,0.003-39.475C224.615,395.587,224.216,394.043,225.986,393.394z
		"/>
	<path fill-rule="evenodd" clip-rule="evenodd" fill="#2A62AE" d="M189.657,439.061c0.162,0.131,0.212,0.296,0.153,0.494
		c-1.304-0.448-1.321-1.546-1.321-2.64c-0.002-14.134-0.001-28.268-0.001-42.4c0.39-0.003,0.78-0.005,1.169-0.008
		C189.657,409.357,189.657,424.21,189.657,439.061z"/>
	<path fill-rule="evenodd" clip-rule="evenodd" fill="#2A62AE" d="M215.272,414.041c-3.826-0.033-7.667-0.287-11.474-0.03
		c-2.964,0.199-3.738-0.884-3.471-3.623c0.251-2.578,0.156-5.19,0.213-7.788c5.506,0,11.013,0,16.519,0
		c0.003,0.303,0.007,0.604,0.01,0.905c-2.652,0-5.332-0.238-7.95,0.062c-3.183,0.363-7.929-2.389-7.831,4.7
		c0.1,7.252,5.094,3.628,8.077,4.482C211.302,413.302,213.715,411.698,215.272,414.041z"/>
	<path fill-rule="evenodd" clip-rule="evenodd" fill="#2A62AE" d="M254.217,431.372c-4.907,0.013-9.816-0.08-14.717,0.084
		c-2.315,0.077-3.377-0.5-3.135-3.009c0.234-2.43,0.167-4.889,0.232-7.334c4.582,0,9.163,0,13.745,0
		c0.002,0.307,0.005,0.614,0.008,0.922c-3.211,0-6.431,0.14-9.632-0.038c-3.388-0.187-3.146,1.993-3.158,4.22
		c-0.012,2.257-0.151,4.122,3.183,4.246C245.231,430.631,249.863,429.217,254.217,431.372z"/>
	<path fill-rule="evenodd" clip-rule="evenodd" fill="#2A62AE" d="M200.442,439.609c-0.024-4.586,0.071-9.178-0.121-13.758
		c-0.1-2.375,0.573-3.226,3.041-3.117c3.965,0.175,7.947-0.006,11.921-0.037c-2.948,2.566-6.451,0.978-9.656,1.081
		c-3.138,0.102-4.228,0.924-4.283,4.198C201.278,431.844,202.628,435.893,200.442,439.609z"/>
	<path fill-rule="evenodd" clip-rule="evenodd" fill="#2A62AE" d="M226.529,440.277c9.213,0.003,18.426,0.005,27.64,0.008
		c-0.451,0.371-0.898,1.061-1.351,1.064c-8.315,0.065-16.63,0.064-24.944-0.001C227.423,441.345,226.978,440.65,226.529,440.277z"/>
	<path fill-rule="evenodd" clip-rule="evenodd" fill="#2A62AE" d="M237.54,411.7c-2.325-2.827-0.766-6.062-0.954-9.113
		c5.185,0,10.369,0,15.554,0c0.01,0.306,0.02,0.611,0.03,0.918c-3.17,0-6.366,0.255-9.503-0.063
		c-4.005-0.407-5.78,0.904-5.116,5.048C237.718,409.532,237.552,410.629,237.54,411.7z"/>
	<path fill-rule="evenodd" clip-rule="evenodd" fill="#204FA2" d="M346.152,425.095c1.12,4.779,1.246,9.553-0.069,14.318
		C346.107,434.639,346.129,429.867,346.152,425.095z"/>
	<path fill-rule="evenodd" clip-rule="evenodd" fill="#F3F5FA" d="M414.234,393.309c7.499,0,7.501-0.001,9.583,6.792
		c3.695,12.062,7.362,24.135,11.106,36.182c0.696,2.24,1.575,3.684-2.186,4.077c-7.285,0.762-7.496,1.163-9.088-5.973
		c-0.909-4.08-2.717-5.849-6.857-4.994c-0.443,0.092-0.921,0.013-1.384,0.013c-8.432,0.001-8.432,0.001-11.036,7.933
		c-1.031,3.137-7.864,5.454-10.318,3.458c-0.994-0.809-0.672-1.824-0.336-2.923c4.277-13.977,8.512-27.965,12.738-41.958
		C407.926,391.048,411.974,394.399,414.234,393.309z M414.37,400.925c-0.802,3.214-1.251,5.108-1.749,6.99
		c-0.512,1.936-1.069,3.86-1.611,5.789c-2.18,7.758-2.185,7.663,6.074,7.289c2.197-0.099,2.644-0.612,2.04-2.681
		C417.577,413.008,416.196,407.656,414.37,400.925z"/>
	<path fill-rule="evenodd" clip-rule="evenodd" fill="#F3F5FA" d="M441.858,393.365c10.482-0.269,10.462-0.269,10.49,10.346
		c0.022,8.893,0.103,17.785,0.158,26.678c0.53,1.772,2.006,0.95,3.028,0.969c4.528,0.083,9.059,0.011,13.589-0.007
		c0.942,3.001,1.025,5.995-0.082,8.977c-8.908-0.015-17.817-0.031-26.728-0.047c-0.236-0.237-0.472-0.474-0.708-0.711
		C441.69,424.168,441.774,408.767,441.858,393.365z"/>
	<path fill-rule="evenodd" clip-rule="evenodd" fill="#204FA2" d="M441.858,393.365c-0.084,15.401-0.168,30.803-0.252,46.204
		c-1.633-0.812-1.178-2.343-1.181-3.647c-0.027-12.871-0.03-25.742,0.003-38.613C440.433,395.87,439.893,394.135,441.858,393.365z"
		/>
	<path fill-rule="evenodd" clip-rule="evenodd" fill="#204FA2" d="M442.314,440.28c8.91,0.016,17.819,0.032,26.728,0.047
		c-0.444,1.024-1.344,1.151-2.296,1.151c-7.39,0.003-14.779,0.003-22.169-0.002C443.618,441.477,442.731,441.316,442.314,440.28z"/>
	<path fill-rule="evenodd" clip-rule="evenodd" fill="#204FA2" d="M469.124,431.351c-4.53,0.018-9.061,0.09-13.589,0.007
		c-1.022-0.019-2.498,0.804-3.028-0.969C458.035,430.891,463.688,429.247,469.124,431.351z"/>
	<path fill-rule="evenodd" clip-rule="evenodd" fill="#204FA2" d="M366.34,440.013c4.226,0.119,8.453,0.239,12.679,0.358
		C376.73,442.149,369.122,441.934,366.34,440.013z"/>
	<path fill-rule="evenodd" clip-rule="evenodd" fill="#6474B8" d="M287.548,310.912c-1.299,3.691-2.448,7.465-5.545,10.178
		C283.35,317.424,284.467,313.633,287.548,310.912z"/>
	<path fill-rule="evenodd" clip-rule="evenodd" fill="#6474B8" d="M282.019,321.067c-0.608,2.529-1.374,4.969-3.719,6.505
		C278.992,325.091,279.756,322.651,282.019,321.067z"/>
	<path fill-rule="evenodd" clip-rule="evenodd" fill="#6474B8" d="M278.314,327.552c-0.279,1.941-0.909,3.672-2.792,4.65
		C275.885,330.311,276.494,328.568,278.314,327.552z"/>
	<path fill-rule="evenodd" clip-rule="evenodd" fill="#6474B8" d="M275.536,332.184c0.006,0.787-0.161,1.489-0.926,1.901
		C273.578,332.799,274.895,332.655,275.536,332.184z"/>
	<path fill-rule="evenodd" clip-rule="evenodd" fill="#F3F5FA" d="M477.794,332.178c0-4.743,0-9.485,0-14.417
		C480.147,321.795,480.173,322.37,477.794,332.178z"/>
	<g>
		<path fill-rule="evenodd" clip-rule="evenodd" fill="#5B5AA8" d="M510.792,261.708c0.656-3.12,3.285-4.747,5.434-6.502
			c6.151-5.024,11.538-10.771,16.818-16.649c0.206,0.022,0.412,0.046,0.617,0.072c15.538,15.593,31.059,31.207,46.622,46.776
			c19.375,19.385,38.79,38.733,58.177,58.107c1.082,1.081,2.067,2.259,3.099,3.393c-21.99,0.008-43.98,0.017-65.971,0.026
			c-2.223-2.273-3.236-5.53-5.991-7.37c-11.912-17.536-21.521-36.116-25.928-57.064c-1.203-5.719-2.006-11.506-2.182-17.333
			c-0.08-2.664-0.947-3.357-3.497-3.335C528.925,261.908,519.857,261.767,510.792,261.708z"/>
		<g>
			<path fill-rule="evenodd" clip-rule="evenodd" fill="#5B5AA8" d="M649.701,526.69c0.021-12.94,0.042-25.881,0.062-38.821
				c0.003-1.961-0.508-3.924,2.796-3.905c21.217,0.115,42.434,0.059,63.649,0.059c0.1,0.571,0.199,1.144,0.299,1.716
				c-2.524,1.574-5.037,3.169-7.575,4.721c-18.251,11.164-36.515,22.309-54.751,33.498c-1.264,0.775-2.849,1.204-3.554,2.733
				C650.318,526.69,650.01,526.69,649.701,526.69z"/>
			<path fill-rule="evenodd" clip-rule="evenodd" fill="#5B5AA8" d="M423.763,351.911c26.047-0.064,52.095-0.166,78.142-0.184
				c46.863-0.031,93.729-0.013,140.593-0.003c1.536,0,3.071,0.134,4.606,0.205c6.714,6.768,13.393,13.57,20.148,20.296
				c16.896,16.817,33.825,33.598,50.742,50.394c0.501,15.165,2.48,30.038,8.408,44.183c2.069,4.938,4.692,9.58,7.754,14.551
				c-1.61,0.091-2.632,0.2-3.652,0.2c-58.421,0.008-116.843,0.008-175.264-0.003c-0.919,0-1.837-0.137-2.756-0.209
				c-15.293-16.171-31.177-31.755-47.125-47.272c-0.047-0.305-0.126-0.607-0.136-0.913c-0.328-10.409-0.317-10.659,10.033-10.309
				c4.438,0.15,5.301-1.353,5.248-5.419c-0.073-5.476-3.904-3.275-6.211-3.33c-9.488-0.222-9.354-0.091-9.182-9.184
				c0.054-2.841,1.15-3.308,3.57-3.206c3.694,0.155,7.414-0.168,11.096,0.095c4.051,0.289,2.897-2.484,3.063-4.573
				c0.186-2.339,0.181-4.127-3.208-4.001c-6.929,0.259-13.879,0.216-20.811,0.012c-2.99-0.088-3.955,0.75-3.9,3.831
				c0.153,8.626-0.042,17.259-0.099,25.89C471.137,399.277,447.45,375.594,423.763,351.911z M600.711,422.336
				c-0.24,0.038-0.479,0.076-0.721,0.114c-3.699-7.182-7.956-14.142-10.927-21.612c-2.561-6.44-6.461-8.482-12.964-7.644
				c-2.446,0.316-3.47,0.659-3.443,3.378c0.127,13.427,0.193,26.858-0.016,40.284c-0.074,4.754,3.113,3.054,5.346,3.281
				c2.565,0.261,4.841,0.396,4.636-3.582c-0.38-7.391-0.281-14.807-0.372-22.214c-0.022-1.82-0.004-3.642-0.004-5.462
				c3.784,8.387,8.833,15.868,12.261,24.068c2.59,6.194,6.399,8.094,12.732,7.355c2.912-0.339,3.509-1.177,3.483-3.871
				c-0.127-13.118-0.257-26.243,0.048-39.356c0.111-4.778-2.774-3.652-5.358-3.777c-2.743-0.133-4.987-0.349-4.808,3.845
				C600.963,405.527,600.711,413.938,600.711,422.336z M560.352,440.166c6.332,0.002,6.318,0.007,4.681-5.307
				c-3.214-10.433-6.419-20.868-9.612-31.307c-3.19-10.429-3.184-10.431-14.049-10.234c-0.154,0.003-0.312,0.021-0.462-0.002
				c-2.179-0.347-3.332,0.539-3.976,2.706c-4.12,13.854-8.346,27.677-12.521,41.515c-0.238,0.792-1.051,1.624,0.045,2.425
				c2.259,1.654,9.727-0.397,10.535-2.906c2.468-7.65,2.468-7.65,10.789-7.651c0.462,0,0.939,0.077,1.383-0.012
				c4.334-0.865,6.637,0.895,7.055,5.288C554.612,438.817,556.318,441.418,560.352,440.166z M634.728,440.579
				c-0.549,0,0.068,0.016,0.686-0.002c8.147-0.249,14.597-4.592,16.049-10.805c1.599-6.834-1.62-11.941-10.107-16.054
				c-2.907-1.409-5.877-2.709-8.685-4.294c-1.645-0.928-2.955-2.429-2.305-4.584c0.671-2.226,2.488-2.954,4.642-3.134
				c1.754-0.147,3.772-0.002,4.866,1.072c4.498,4.417,6.459,0.709,9.056-2.266c1.771-2.03,1.123-3.092-0.683-4.307
				c-4.129-2.78-8.71-3.857-13.616-3.535c-7.677,0.504-13.469,5.113-14.828,11.676c-1.27,6.137,1.733,11.003,9.206,14.781
				c3.295,1.667,6.698,3.129,9.941,4.887c1.526,0.828,2.611,2.313,2.172,4.224c-0.46,2.005-1.885,3.046-3.938,3.355
				c-4.415,0.665-8.319-0.566-11.57-3.453c-1.762-1.564-2.729-1.493-3.839,0.503c-0.672,1.206-1.483,2.362-2.396,3.398
				c-1.895,2.152-1.504,3.596,0.964,5.01C624.466,439.414,628.816,440.678,634.728,440.579z"/>
			<path fill-rule="evenodd" clip-rule="evenodd" fill="#5B5AA8" d="M789.979,493.422c5.704,9.493,11.37,19.01,17.139,28.464
				c1.433,2.347,1.122,3.087-1.733,3.083c-45.785-0.055-91.571-0.045-137.356-0.065c-0.24,0-0.48-0.215-1.206-0.562
				c10.612-6.111,20.945-12.069,31.285-18.015c12.95-7.444,25.861-14.958,38.893-22.255c2.989-1.674,3.837-2.627,1.504-5.949
				c-10.566-15.058-15.01-32.171-15.826-50.36c21.115,20.955,42.221,41.917,63.371,62.833
				C787.179,491.714,787.922,493.532,789.979,493.422z"/>
			<path fill-rule="evenodd" clip-rule="evenodd" fill="#5B5AA8" d="M544.956,401.082c1.78,6.524,3.206,11.838,4.688,17.136
				c0.536,1.919,0.145,2.649-2.086,2.797c-8.248,0.546-8.232,0.647-6.026-7.316C542.589,409.885,543.607,406.059,544.956,401.082z"
				/>
		</g>
	</g>
	<g>
		<path fill-rule="evenodd" clip-rule="evenodd" fill="#3863AF" d="M346.152,425.095c0-10.276,0-20.553,0-30.83
			c0.238-0.002,0.475-0.005,0.713-0.006c0,9.601,0,19.202,0,29.75c4.131-3.872,7.555-7.081,10.979-10.291
			c2.832,8.766,5.664,17.53,8.496,26.295c2.782,1.921,10.39,2.137,12.679,0.358c0.393-0.462,0.979-0.859,1.152-1.393
			c4.922-15.066,9.803-30.147,14.839-45.683c-2.315,0-4.185,0.233-5.973-0.047c-3.988-0.627-5.608,1.086-6.54,4.896
			c-1.977,8.077-4.404,16.049-6.784,24.022c-0.76,2.547-0.524,5.447-2.463,7.886c-2.447-9.222-4.815-18.146-7.183-27.07
			c1.415-0.308,2.708-0.427,3.94-1.677c16.291-16.527,32.693-32.945,49.068-49.391c1.562-0.001,3.124-0.003,4.687-0.005
			c23.688,23.683,47.374,47.366,71.062,71.05c0.054,3.956,0.14,7.911,0.154,11.866c0.026,6.729,0.002,6.578,6.524,6.331
			c5.583-0.212,2.991-4.511,3.856-7.09c15.948,15.518,31.832,31.102,47.125,47.272c-1.227,0.073-2.453,0.21-3.68,0.211
			c-84.929,0.01-169.856,0.01-254.785,0.001c-1.228,0-2.456-0.125-3.684-0.192c6.017-7.168,13.003-13.394,19.573-20.021
			c8.189-8.26,16.571-16.329,24.869-24.481c0.03,0.895,0.06,1.789,0.089,2.684c2.228,2.942,7.325,2.883,11.215-0.128
			C347.398,434.647,347.272,429.874,346.152,425.095z M469.124,431.351c-5.436-2.104-11.089-0.46-16.617-0.962
			c-0.056-8.893-0.136-17.785-0.158-26.678c-0.028-10.614-0.008-10.614-10.49-10.346c-1.966,0.77-1.426,2.505-1.43,3.943
			c-0.033,12.871-0.03,25.742-0.003,38.613c0.003,1.305-0.452,2.836,1.181,3.647c0.236,0.237,0.472,0.474,0.708,0.711
			c0.417,1.036,1.304,1.196,2.263,1.196c7.39,0.005,14.779,0.005,22.169,0.002c0.952,0,1.852-0.127,2.296-1.151
			C470.149,437.346,470.066,434.352,469.124,431.351z M414.234,393.309c-2.26,1.091-6.308-2.261-7.778,2.606
			c-4.227,13.993-8.461,27.981-12.738,41.958c-0.336,1.099-0.658,2.114,0.336,2.923c2.454,1.996,9.288-0.321,10.318-3.458
			c2.604-7.932,2.604-7.932,11.036-7.933c0.462,0,0.94,0.079,1.384-0.013c4.14-0.854,5.948,0.914,6.857,4.994
			c1.592,7.136,1.803,6.734,9.088,5.973c3.761-0.394,2.882-1.837,2.186-4.077c-3.744-12.047-7.411-24.119-11.106-36.182
			C421.735,393.308,421.732,393.309,414.234,393.309z"/>
		<path fill-rule="evenodd" clip-rule="evenodd" fill="#3863AF" d="M414.37,400.925c1.826,6.731,3.207,12.083,4.754,17.388
			c0.604,2.068,0.157,2.582-2.04,2.681c-8.259,0.374-8.254,0.469-6.074-7.289c0.542-1.929,1.099-3.854,1.611-5.789
			C413.119,406.033,413.568,404.139,414.37,400.925z"/>
	</g>
</g>
</svg>
