<?xml version="1.0" encoding="utf-8"?>
<!-- Generator: Adobe Illustrator 22.1.0, SVG Export Plug-In . SVG Version: 6.00 Build 0)  -->
<svg version="1.1" id="Layer_1" xmlns="http://www.w3.org/2000/svg" xmlns:xlink="http://www.w3.org/1999/xlink" x="0px" y="0px"
	 viewBox="0 0 425.2 70.9" style="enable-background:new 0 0 425.2 70.9;" xml:space="preserve">
<path d="M11.3,15.7h11.5l10.3,19.1l10.3-19.1H55v39.5H42.6V40.5L33.1,56l-9.4-15.5v14.7H11.3L11.3,15.7L11.3,15.7z"/>
<g>
	<polygon points="59.9,55.2 73.4,55.2 73.4,27 59.9,32.4 	"/>
	<rect x="59.9" y="15.7" width="13.3" height="11.3"/>
</g>
<g>
	<path d="M78.8,55.5c-1.5-0.3-2.6-0.7-3.3-1.1V43.1c1.2,0.6,2.7,1,4.5,1c1.3,0,2.2-0.3,2.9-0.9c0.6-0.6,1-1.6,1-2.9V15.7h13.4v26.1
		c0,4.2-1.2,7.6-3.6,10.2c-2.4,2.6-5.9,3.9-10.5,3.9C81.8,56,80.4,55.8,78.8,55.5z"/>
	<path d="M101.9,15.7h11.8L125.4,34V15.7h12.8v39.4h-11.8l-11.7-18.4v18.4h-12.8V15.7z"/>
	<path d="M151.8,53.5c-3.3-1.6-5.8-4-7.6-7.1c-1.8-3.1-2.7-6.8-2.7-11c0-4.3,0.9-7.9,2.7-11c1.8-3.1,4.3-5.5,7.6-7.1
		c3.3-1.7,7.2-2.5,11.6-2.5c2.9,0,5.5,0.2,7.7,0.7c2.2,0.5,4.3,1.3,6.1,2.4v12.6c-1.6-1.2-3.5-2.1-5.5-2.6c-2.1-0.5-4.4-0.8-7.1-0.8
		c-2.9,0-5.2,0.7-6.9,2.1c-1.7,1.4-2.5,3.5-2.5,6.1c0,2.7,0.8,4.7,2.5,6.1c1.7,1.4,4,2.1,6.9,2.1c2.6,0,5-0.3,7.1-0.9
		c2.1-0.6,4.1-1.5,6-2.7v12.6c-3.8,2.2-8.6,3.3-14.3,3.3C158.9,56,155.1,55.2,151.8,53.5z"/>
	<path d="M190.2,53.4c-3.3-1.7-5.8-4.1-7.7-7.3c-1.9-3.1-2.8-6.7-2.8-10.7s0.9-7.6,2.8-10.7c1.9-3.1,4.4-5.5,7.7-7.3
		c3.3-1.7,6.9-2.6,10.9-2.6c4,0,7.6,0.9,10.9,2.6c3.3,1.7,5.8,4.2,7.7,7.3c1.9,3.1,2.8,6.7,2.8,10.7s-0.9,7.6-2.8,10.7
		c-1.9,3.1-4.4,5.5-7.7,7.3c-3.3,1.7-6.9,2.6-10.9,2.6C197.1,56,193.5,55.1,190.2,53.4z M206.7,41.2c1.5-1.4,2.2-3.4,2.2-5.8
		c0-2.4-0.7-4.4-2.2-5.8c-1.5-1.4-3.3-2.1-5.6-2.1c-2.3,0-4.2,0.7-5.6,2.1c-1.5,1.4-2.2,3.4-2.2,5.8c0,2.4,0.7,4.4,2.2,5.8
		s3.4,2.1,5.6,2.1C203.4,43.4,205.2,42.7,206.7,41.2z"/>
	<path d="M225.6,15.7h11.8L249.1,34V15.7h12.8v39.4h-11.8l-11.7-18.4v18.4h-12.8V15.7z"/>
	<path d="M275.5,53.5c-3.3-1.6-5.8-4-7.6-7.1c-1.8-3.1-2.7-6.8-2.7-11c0-4.3,0.9-7.9,2.7-11s4.3-5.5,7.6-7.1
		c3.3-1.7,7.2-2.5,11.6-2.5c2.9,0,5.5,0.2,7.7,0.7c2.2,0.5,4.3,1.3,6.1,2.4v12.6c-1.6-1.2-3.5-2.1-5.5-2.6c-2-0.5-4.4-0.8-7.1-0.8
		c-2.9,0-5.2,0.7-6.9,2.1c-1.7,1.4-2.5,3.5-2.5,6.1c0,2.7,0.8,4.7,2.5,6.1s4,2.1,6.9,2.1c2.6,0,5-0.3,7.1-0.9s4.1-1.5,6-2.7v12.6
		c-3.8,2.2-8.6,3.3-14.3,3.3C282.6,56,278.8,55.2,275.5,53.5z"/>
	<path d="M305.5,15.7h29.2v11.2h-15.9v3.4h11.2v10.1h-11.2v3.4h15.9v11.2h-29.2V15.7z"/>
	<path d="M338.9,15.7h19c4.9,0,8.8,1.2,11.6,3.7c2.9,2.4,4.3,6,4.3,10.7c0,2.9-0.6,5.4-1.8,7.5c-1.2,2-2.8,3.7-5,4.8l6.2,12.8h-13.5
		l-5.2-10.8H352v10.8h-13.1V15.7z M355,34.4c3.4,0,5.1-1.4,5.1-4.3s-1.7-4.3-5.1-4.3h-3v8.7H355z"/>
	<path d="M384.7,26.9h-10.1V15.7h33.6v11.2h-10.1v28.2h-13.4V26.9z"/>
</g>
</svg>
