<?xml version="1.0" encoding="UTF-8"?>
<svg width="89px" height="37px" viewBox="0 0 89 37" version="1.1" xmlns="http://www.w3.org/2000/svg" xmlns:xlink="http://www.w3.org/1999/xlink">
    <!-- Generator: Sketch 50.2 (55047) - http://www.bohemiancoding.com/sketch -->
    <title>logo</title>
    <desc>Created with Sketch.</desc>
    <defs></defs>
    <g id="Page-1" stroke="none" stroke-width="1" fill="none" fill-rule="evenodd">
        <path d="M10.271,27.916 C17.899,32.818 31.042,36.056 45.976,36.056 C69.555,36.056 88.668,27.985 88.668,18.028 C88.668,11.0544 79.2927,5.0059 65.574,2.0074 C59.705,0.7246 53.041,0 45.976,0 C22.397,0 3.281,8.07 3.281,18.027 C3.281,21.197 5.217,24.175 8.617,26.763 C6.7,28.34 1.981,31.824 0,33.616 C2.438,32.321 7.715,29.215 10.271,27.916 Z M56.286,10.163 C65.558,9.214 72.674,9.579 77.672,10.805 C81.851,13.089 84.333,15.731 84.333,18.029 C84.333,20.863 80.557,24.219 74.478,26.787 C66.938,29.973 56.814,31.727 45.976,31.727 C33.897,31.727 22.354,29.41 14.945,25.598 C30.447,17.947 46.648,11.147 56.286,10.163 Z M7.614,18.028 C7.614,15.194 11.39,11.838 17.472,9.27 C23.727,6.631 31.764,4.977 40.507,4.489 C40.602,5.619 39.44,7.001 36.551,8.153 C33.907,9.212 20.612,16.563 12.026,23.859 L11.174,23.264 C9.533,22.003 7.614,20.09 7.614,18.028 Z" id="logo" fill="#FF0067"></path>
    </g>
</svg>