<?xml version="1.0" encoding="UTF-8"?>
<svg width="357px" height="38px" viewBox="0 0 357 38" version="1.1" xmlns="http://www.w3.org/2000/svg" xmlns:xlink="http://www.w3.org/1999/xlink">
    <!-- Generator: Sketch 49.3 (51167) - http://www.bohemiancoding.com/sketch -->
    <title>EDMBOOKING.Logo</title>
    <desc>Created with Sketch.</desc>
    <defs></defs>
    <g id="Page-1" stroke="none" stroke-width="1" fill="none" fill-rule="evenodd">
        <g id="EDMBOOKING.Logo" fill="#000000" fill-rule="nonzero">
            <path d="M355,10 C354,11 352.9,11.5 351.5,11.5 C350.1,11.5 349,11 348,10 C347,9 346.5,7.8 346.5,6.5 C346.5,5.1 347,4 348,3 C349,2 350.1,1.6 351.5,1.6 C352.9,1.6 354.1,2.1 355,3 C356,4 356.5,5.1 356.5,6.5 C356.5,7.9 356,9 355,10 Z M348.5,3.5 C347.7,4.3 347.3,5.3 347.3,6.5 C347.3,7.7 347.7,8.7 348.5,9.5 C349.3,10.3 350.3,10.8 351.5,10.8 C352.7,10.8 353.7,10.4 354.5,9.5 C355.3,8.7 355.7,7.6 355.7,6.5 C355.7,5.3 355.3,4.3 354.5,3.5 C353.7,2.7 352.7,2.2 351.5,2.2 C350.3,2.2 349.3,2.6 348.5,3.5 Z M353.2,8.9 C352.8,9.2 352.3,9.4 351.7,9.4 C351,9.4 350.3,9.1 349.8,8.6 C349.3,8.1 349,7.4 349,6.5 C349,5.7 349.2,5 349.7,4.4 C350.2,3.8 350.8,3.6 351.6,3.6 C352.1,3.6 352.5,3.7 352.9,3.9 C353.6,4.2 353.9,4.8 354,5.6 L353.2,5.6 C353.2,5.3 353,5 352.8,4.7 C352.6,4.5 352.2,4.3 351.7,4.3 C351,4.3 350.6,4.6 350.3,5.2 C350.1,5.6 350,6 350,6.4 C350,7 350.2,7.5 350.5,8 C350.8,8.4 351.2,8.6 351.8,8.6 C352.2,8.6 352.5,8.5 352.7,8.3 C352.9,8.1 353.1,7.8 353.2,7.4 L354,7.4 C353.9,8.1 353.6,8.5 353.2,8.9 Z" id="Shape"></path>
            <g id="Group">
                <polygon id="Shape" points="0.8 1.5 26.7 1.5 26.7 11.5 12.6 11.5 12.6 14.5 22.6 14.5 22.6 23.5 12.6 23.5 12.6 26.5 26.7 26.5 26.7 36.5 0.8 36.5 0.8 1.5"></polygon>
                <path d="M318.6,35.1 C315.7,33.6 313.4,31.6 311.9,28.8 C310.4,26 309.6,22.8 309.6,19.1 C309.6,15.3 310.4,12.1 311.9,9.3 C313.5,6.6 315.7,4.5 318.6,3 C321.5,1.5 324.9,0.8 328.9,0.8 C331.5,0.8 333.8,1 335.7,1.5 C337.6,1.9 339.5,2.6 341.1,3.6 L341.1,14.7 C339.7,13.6 338,12.9 336.2,12.4 C334.4,11.9 332.3,11.7 329.9,11.7 C327.3,11.7 325.3,12.3 323.8,13.6 C322.3,14.9 321.5,16.7 321.5,19.1 C321.5,21.7 322.1,23.6 323.3,24.9 C324.5,26.2 326.5,26.9 329.3,26.9 C330.3,26.9 331.2,26.8 331.9,26.5 L331.9,23.2 L328,23.2 L328,16.4 L342.2,16.4 L342.2,34.3 C338.8,36.3 334.3,37.3 328.7,37.3 C324.9,37.2 321.5,36.5 318.6,35.1 Z" id="Shape"></path>
                <path d="M30.2,1.5 L43.6,1.5 C47.5,1.5 50.9,2.2 53.8,3.6 C56.7,5 59,7 60.6,9.6 C62.2,12.2 63,15.3 63,18.8 C63,24.6 61.3,29 57.8,32 C54.3,35 49.6,36.5 43.6,36.5 L30.2,36.5 L30.2,1.5 Z M44.4,25.5 C48.7,25.5 50.9,23.3 50.9,18.9 C50.9,16.9 50.3,15.3 49.2,14.2 C48.1,13.1 46.5,12.6 44.4,12.6 L42,12.6 L42,25.6 L44.4,25.6 L44.4,25.5 Z" id="Shape"></path>
                <polygon id="Shape" points="65.6 1.5 75.8 1.5 84.9 18.4 94 1.5 104.2 1.5 104.2 36.5 93.3 36.5 93.3 23.5 84.9 37.2 76.6 23.5 76.6 36.5 65.6 36.5 65.6 1.5"></polygon>
                <path d="M108.5,1.5 L127.3,1.5 C130.8,1.5 133.6,2.4 135.8,4.1 C137.9,5.8 139,8.2 139,11.4 C139,12.7 138.7,14 138.1,15.2 C137.5,16.4 136.7,17.4 135.6,18.2 C137.2,19 138.3,19.9 139,21.1 C139.7,22.3 140,23.8 140,25.7 C140,27.9 139.5,29.8 138.4,31.5 C137.3,33.2 135.9,34.4 134.1,35.3 C132.3,36.2 130.3,36.6 128.1,36.6 L108.5,36.6 L108.5,1.5 Z M123.9,14.8 C124.9,14.8 125.7,14.6 126.2,14.2 C126.7,13.8 126.9,13.1 126.9,12.1 C126.9,11.2 126.7,10.5 126.2,10.1 C125.7,9.7 125,9.5 123.9,9.5 L120,9.5 L120,14.7 L123.9,14.7 L123.9,14.8 Z M124.5,28.5 C125.7,28.5 126.6,28.3 127.1,27.8 C127.6,27.3 127.9,26.6 127.9,25.6 C127.9,24.6 127.6,23.8 127.1,23.3 C126.6,22.8 125.7,22.6 124.5,22.6 L120,22.6 L120,28.6 L124.5,28.6 L124.5,28.5 Z" id="Shape"></path>
                <path d="M150.5,34.9 C147.6,33.4 145.3,31.2 143.7,28.5 C142,25.7 141.2,22.6 141.2,19 C141.2,15.4 142,12.3 143.7,9.5 C145.4,6.7 147.6,4.6 150.5,3.1 C153.4,1.6 156.6,0.8 160.2,0.8 C163.7,0.8 166.9,1.6 169.8,3.1 C172.7,4.6 175,6.8 176.6,9.5 C178.3,12.3 179.1,15.4 179.1,19 C179.1,22.6 178.3,25.7 176.6,28.5 C174.9,31.3 172.7,33.4 169.8,34.9 C166.9,36.4 163.7,37.2 160.2,37.2 C156.6,37.2 153.4,36.5 150.5,34.9 Z M165.1,24.2 C166.4,22.9 167.1,21.2 167.1,19 C167.1,16.8 166.4,15.1 165.1,13.9 C163.8,12.7 162.1,12 160.1,12 C158.1,12 156.4,12.6 155.1,13.9 C153.8,15.2 153.1,16.9 153.1,19 C153.1,21.2 153.8,22.9 155.1,24.2 C156.4,25.5 158.1,26.1 160.1,26.1 C162.1,26.1 163.8,25.4 165.1,24.2 Z" id="Shape"></path>
                <path d="M189.5,34.9 C186.6,33.4 184.3,31.2 182.7,28.5 C181,25.7 180.2,22.6 180.2,19 C180.2,15.4 181,12.3 182.7,9.5 C184.4,6.7 186.6,4.6 189.5,3.1 C192.4,1.6 195.6,0.8 199.2,0.8 C202.7,0.8 205.9,1.6 208.8,3.1 C211.7,4.6 214,6.8 215.6,9.5 C217.3,12.3 218.1,15.4 218.1,19 C218.1,22.6 217.3,25.7 215.6,28.5 C213.9,31.3 211.7,33.4 208.8,34.9 C205.9,36.4 202.7,37.2 199.2,37.2 C195.6,37.2 192.4,36.5 189.5,34.9 Z M204.2,24.2 C205.5,22.9 206.2,21.2 206.2,19 C206.2,16.8 205.5,15.1 204.2,13.9 C202.9,12.7 201.2,12 199.2,12 C197.2,12 195.5,12.6 194.2,13.9 C192.9,15.2 192.2,16.9 192.2,19 C192.2,21.2 192.9,22.9 194.2,24.2 C195.5,25.5 197.2,26.1 199.2,26.1 C201.2,26.1 202.9,25.4 204.2,24.2 Z" id="Shape"></path>
                <polygon id="Shape" points="220.8 1.5 232.6 1.5 232.6 14.2 242.4 1.5 256 1.5 242.9 18.4 256.9 36.4 243 36.4 232.6 22.7 232.6 36.4 220.8 36.4"></polygon>
                <polygon id="Shape" points="274.5 1.5 285 1.5 295.4 17.7 295.4 1.5 306.8 1.5 306.8 36.5 296.3 36.5 285.9 20.2 285.9 36.5 274.6 36.5 274.6 1.5"></polygon>
                <g transform="translate(258.000000, 1.000000)">
                    <polygon id="Shape" points="0.4 35.5 12.3 35.5 12.3 10.5 0.4 15.3"></polygon>
                    <rect id="Rectangle-path" x="0.4" y="0.5" width="11.8" height="10"></rect>
                </g>
            </g>
        </g>
    </g>
</svg>