<?xml version="1.0" encoding="UTF-8" standalone="no"?><!DOCTYPE svg PUBLIC "-//W3C//DTD SVG 1.1//EN" "http://www.w3.org/Graphics/SVG/1.1/DTD/svg11.dtd"><svg width="100%" height="100%" viewBox="0 0 400 67" version="1.1" xmlns="http://www.w3.org/2000/svg" xmlns:xlink="http://www.w3.org/1999/xlink" xml:space="preserve" xmlns:serif="http://www.serif.com/" style="fill-rule:evenodd;clip-rule:evenodd;stroke-linejoin:round;stroke-miterlimit:1.41421;"><g id="layer1"><path id="path4191" d="M156.896,6.095c0,-3.37 2.72,-6.095 6.068,-6.095c3.359,0 6.09,2.725 6.09,6.095c0,3.366 -2.731,6.094 -6.09,6.094c-3.348,0 -6.068,-2.728 -6.068,-6.094" style="fill:#fff;fill-rule:nonzero;"/><path id="path4193" d="M252.817,46.637c0,-3.371 2.719,-6.1 6.067,-6.1c3.358,0 6.088,2.729 6.088,6.1c0,3.362 -2.73,6.094 -6.088,6.094c-3.348,0 -6.067,-2.732 -6.067,-6.094" style="fill:#499fdd;fill-rule:nonzero;"/><path id="path4195" d="M57.12,44.002c-5.236,0 -8.874,-4.158 -8.874,-10.1c0,-5.941 3.638,-10.096 8.874,-10.096c5.266,0 8.945,4.155 8.945,10.096c0,6.036 -3.602,10.1 -8.945,10.1Zm0,-29.073c-11.077,0 -19.116,7.981 -19.116,18.973c0,10.992 8.039,18.972 19.116,18.972c11.119,0 19.191,-7.98 19.191,-18.972c0,-10.992 -8.072,-18.973 -19.191,-18.973" style="fill:#fff;fill-rule:nonzero;"/><path id="path4197" d="M145.122,34.851c-0.431,-0.81 -0.925,-1.496 -1.45,-2.041l-0.335,-0.355l0.352,-0.338c0.508,-0.536 1.028,-1.172 1.53,-1.908l9.775,-14.532l-11.867,0l-7.344,11.367c-0.416,0.61 -1.256,0.917 -2.512,0.917l-1.674,0l0,-21.49c0,-4.299 -2.678,-4.884 -5.571,-4.884l-4.953,0l0.009,50.728l10.515,0l0,-15.217l0.985,0c1.198,0 2.015,0.139 2.389,0.79l5.801,10.949c1.62,2.971 3.235,3.478 6.272,3.478l8.058,0l-6.001,-9.927l-3.979,-7.537" style="fill:#fff;fill-rule:nonzero;"/><path id="path4199" d="M196.168,14.848c-5.348,0 -8.761,2.376 -10.674,4.385l-0.638,0.646l-0.225,-0.878c-0.562,-2.153 -2.456,-3.337 -5.306,-3.337l-4.712,0l0.03,36.638l10.443,0l0,-16.886c0,-1.651 0.214,-3.084 0.651,-4.391c1.163,-3.956 4.405,-6.416 8.458,-6.416c3.26,0 4.534,1.72 4.534,6.166l0,15.957c0,3.795 1.755,5.57 5.552,5.57l4.97,0l-0.017,-23.302c0,-9.259 -4.515,-14.152 -13.063,-14.152" style="fill:#fff;fill-rule:nonzero;"/><path id="path4201" d="M163.103,15.68l-4.95,0l0.033,28.328l-0.003,0l0,8.302l5.284,0c0.066,0 0.12,0.007 0.186,0.007l2.461,-0.007l2.45,0l0,-0.014l0.017,0l0.021,-31.054c0,-3.746 -1.791,-5.562 -5.496,-5.562" style="fill:#fff;fill-rule:nonzero;"/><path id="path4203" d="M98.141,44.002c-5.235,0 -8.881,-4.158 -8.881,-10.1c0,-5.941 3.646,-10.096 8.881,-10.096c5.255,0 8.944,4.155 8.944,10.096c0,6.036 -3.601,10.1 -8.944,10.1Zm0,-29.073c-11.088,0 -19.129,7.981 -19.129,18.973c0,10.992 8.041,18.972 19.129,18.972c11.107,0 19.193,-7.98 19.193,-18.972c0,-10.992 -8.086,-18.973 -19.193,-18.973" style="fill:#fff;fill-rule:nonzero;"/><path id="path4225" d="M321.997,44.002c-5.234,0 -8.882,-4.158 -8.882,-10.1c0,-5.941 3.648,-10.096 8.882,-10.096c5.255,0 8.946,4.155 8.946,10.096c0,6.036 -3.603,10.1 -8.946,10.1Zm0,-29.073c-11.086,0 -19.127,7.981 -19.127,18.973c0,10.992 8.041,18.972 19.127,18.972c11.108,0 19.192,-7.98 19.192,-18.972c0,-10.992 -8.084,-18.973 -19.192,-18.973" style="fill:#499fdd;fill-rule:nonzero;"/><path id="path4227" d="M231.255,42.39c-5.71,0 -7.742,-4.981 -7.742,-9.649c0,-2.057 0.52,-8.76 7.193,-8.76c3.316,0 7.736,0.95 7.736,9.105c0,7.691 -3.911,9.304 -7.187,9.304Zm12.609,-26.808c-1.982,0 -3.507,0.79 -4.271,2.233l-0.289,0.56l-0.484,-0.42c-1.686,-1.459 -4.708,-3.189 -9.616,-3.189c-9.766,0 -16.34,7.334 -16.34,18.249c0,10.902 6.802,18.521 16.536,18.521c3.325,0 5.952,-0.776 8.035,-2.353l0.806,-0.605l0,1.018c0,4.894 -3.165,7.593 -8.901,7.593c-2.788,0 -5.326,-0.678 -7.023,-1.294c-2.216,-0.669 -3.514,-0.115 -4.413,2.108l-0.829,2.051l-1.172,2.995l0.726,0.387c3.672,1.949 8.451,3.111 12.771,3.111c8.894,0 19.279,-4.552 19.279,-17.364l0.038,-33.601l-4.851,0" style="fill:#fff;fill-rule:nonzero;"/><path id="path4243" d="M18.226,43.582l-8.501,-0.008l0,-10.164c0,-2.173 0.842,-3.302 2.704,-3.562l5.797,0c4.138,0 6.812,2.61 6.815,6.832c-0.003,4.333 -2.61,6.899 -6.815,6.902l0,0Zm-8.501,-27.418l0,-2.675c0,-2.341 0.991,-3.455 3.165,-3.598l4.35,0c3.73,0 5.965,2.233 5.965,5.968c0,2.848 -1.53,6.172 -5.828,6.172l-7.652,0l0,-5.867Zm19.359,10.144l-1.537,-0.864l1.341,-1.147c1.56,-1.342 4.176,-4.358 4.176,-9.569c0,-7.973 -6.185,-13.119 -15.757,-13.119l-10.923,0l0,-0.003l-1.244,0c-2.838,0.104 -5.108,2.412 -5.14,5.267l0,45.256l5.013,0c0.013,0.004 0.017,0 0.021,0.004l12.489,-0.004c10.641,0 17.509,-5.791 17.509,-14.762c0,-4.83 -2.22,-8.96 -5.951,-11.06" style="fill:#fff;fill-rule:nonzero;"/><path id="path4245" d="M387.841,14.966c-4.333,0 -8.522,2.03 -11.212,5.433l-0.757,0.959l-0.593,-1.073c-1.934,-3.528 -5.263,-5.319 -9.893,-5.319c-4.854,0 -8.11,2.709 -9.622,4.319l-0.989,1.072l-0.381,-1.41c-0.553,-2.029 -2.359,-3.147 -5.096,-3.147l-4.39,0l-0.042,36.496l9.973,0l0,-16.11c0,-1.412 0.175,-2.808 0.529,-4.269c0.953,-3.892 3.569,-8.079 7.967,-7.66c2.713,0.26 4.037,2.355 4.037,6.404l0,21.635l10.044,0l0,-16.11c0,-1.764 0.165,-3.084 0.562,-4.409c0.809,-3.716 3.54,-7.526 7.784,-7.526c3.07,0 4.206,1.739 4.206,6.41l0,16.299c0,3.688 1.645,5.336 5.329,5.336l4.695,0l0.008,-23.299c0,-9.308 -4.098,-14.031 -12.161,-14.031" style="fill:#499fdd;fill-rule:nonzero;"/><path id="path4247" d="M297.096,39.625c-0.03,0.036 -4.322,4.561 -9.972,4.561c-5.148,0 -10.349,-3.159 -10.349,-10.21c0,-6.088 4.033,-10.343 9.805,-10.343c1.874,0 4.006,0.671 4.34,1.801l0.049,0.19c0.768,2.561 3.095,2.698 3.553,2.698l5.464,0.006l0,-4.776c0,-6.301 -8.014,-8.586 -13.406,-8.586c-11.532,0 -19.9,8.029 -19.9,19.086c0,11.052 8.277,19.07 19.689,19.07c9.901,0 15.285,-6.508 15.335,-6.573l0.288,-0.353l-4.327,-7.178l-0.569,0.606" style="fill:#499fdd;fill-rule:nonzero;"/></g></svg>