<svg xmlns="http://www.w3.org/2000/svg" xmlns:xlink="http://www.w3.org/1999/xlink" version="1.1" id="Layer_1" x="0" y="0" width="160" height="16" viewBox="0 0 160 16" enable-background="new 0 0 160 16" xml:space="preserve">
  <path fill="#F9C514" d="M5.68 11.8C2.48 11.8 0 9.32 0 6.04 0 2.84 2.32 0.2 5.76 0.2c2.08 0 3.28 0.72 4.32 1.76L8.8 3.48c-0.88-0.88-1.84-1.44-3.12-1.44C3.52 1.96 2 3.8 2 5.96 2 8.12 3.6 9.88 5.68 9.88c1.44 0 2.16-0.56 3.2-1.52l1.28 1.28C9.04 11 7.76 11.8 5.68 11.8zM12.08 0.44v11.12h2V0.44H12.08zM23.6 4.12c0 1.2-0.88 1.92-2.24 1.92H18.56v-3.84h2.8C22.8 2.2 23.6 2.92 23.6 4.12zM26 11.56L23.04 7.4c1.6-0.48 2.64-1.6 2.64-3.36 0-2.16-1.6-3.52-4.16-3.52H16.56V11.64h2V7.8h2.4l2.72 3.84L26 11.56C26 11.64 26 11.56 26 11.56zM50.24 0.44h-2V6.92c0 2.08-1.12 3.12-2.8 3.12 -1.76 0-2.8-1.12-2.8-3.12V0.52h-2V7c0 3.2 1.84 4.88 4.72 4.88 2.88 0 4.8-1.76 4.8-4.96C50.24 6.76 50.24 0.44 50.24 0.44zM60.8 0.44h-8.24v11.12h8.32V9.8h-6.4V6.84h5.6V5.08h-5.6V2.2h6.32V0.44L60.8 0.44zM76 6.04c0 2.24-1.52 3.76-3.84 3.76H70V2.28h2.16C74.48 2.2 76 3.88 76 6.04zM78 5.96c0-3.12-2.4-5.6-5.92-5.6h-4.16v11.12h4.16C75.68 11.56 78 9.24 78 5.96zM89.6 0.44h-2V6.92c0 2.08-1.12 3.12-2.8 3.12 -1.76 0-2.8-1.12-2.8-3.12V0.52h-2V7c0 3.2 1.84 4.88 4.72 4.88s4.8-1.76 4.8-4.96V0.44H89.6L89.6 0.44zM98.16 3.4c0-0.8 0.64-1.36 1.84-1.36 1.04 0 2 0.4 2.96 1.2l1.12-1.52c-1.12-0.88-2.4-1.44-4.08-1.44 -2.16 0-3.76 1.28-3.76 3.2 0 2.08 1.36 2.72 3.68 3.28 2.08 0.48 2.48 0.88 2.48 1.76 0 0.88-0.8 1.44-2 1.44 -1.44 0-2.4-0.56-3.52-1.52l-1.2 1.44c1.36 1.2 2.88 1.84 4.64 1.84 2.32 0 3.92-1.28 3.92-3.28 0-1.92-1.28-2.72-3.52-3.28C98.72 4.68 98.16 4.28 98.16 3.4zM115.52 6.04c0 2.24-1.6 3.92-3.76 3.92 -2.24 0-3.76-1.84-3.76-3.92 0-2.16 1.6-3.92 3.76-3.92C113.92 2.04 115.52 3.88 115.52 6.04zM117.52 5.96c0-3.12-2.4-5.76-5.84-5.76 -3.44 0-5.84 2.56-5.84 5.84 0 3.12 2.4 5.76 5.84 5.76C115.2 11.8 117.52 9.24 117.52 5.96zM119.68 11.56h7.76V9.72h-5.84V0.36h-2V11.56H119.68L119.68 11.56zM137.52 0.44h-8.24v11.12h8.32V9.8H131.2V6.84h5.6V5.08h-5.6V2.2h6.32V0.44L137.52 0.44 137.52 0.44zM139.76 0.44v11.12h2V0.44H139.76zM144.16 11.56h7.76V9.72h-5.84V0.36h-2V11.56H144.16L144.16 11.56zM36.64 6.04c0-2.16-1.6-3.92-3.76-3.92 -2.16 0-3.76 1.84-3.76 3.92 0 2.24 1.6 3.92 3.76 3.92C35.12 9.96 36.64 8.28 36.64 6.04zM30.96 11.48c-2.32-0.8-3.84-2.88-3.84-5.44 0-3.12 2.4-5.84 5.84-5.84 3.44 0 5.84 2.56 5.84 5.76 0 2.4-1.44 4.48-3.52 5.36 0.88 0.4 1.36 0.8 2.56 1.44 2.08 0.96 3.92 1.92 6.88 1.92 2.24 0 4.64-0.88 5.76-1.84L50.88 13.4C49.44 14.84 46.32 15.8 43.52 15.8c-1.52 0-3.6-0.24-5.52-1.12 -1.28-0.56-2.88-1.52-4.08-2C33.04 12.36 31.6 11.72 30.96 11.48zM157.2 5.96c1.52 0 2.8 1.2 2.8 2.8 0 1.6-1.28 2.8-2.8 2.8 -1.52 0-2.8-1.2-2.8-2.8C154.4 7.16 155.68 5.96 157.2 5.96zM157.2 11.08c1.28 0 2.24-1.04 2.24-2.4S158.48 6.36 157.2 6.36s-2.32 1.04-2.32 2.32C154.96 10.04 155.92 11.08 157.2 11.08zM156.16 7.08h1.28c0.8 0 1.12 0.32 1.12 0.96 0 0.56-0.4 0.8-0.88 0.88l0.96 1.44h-0.56l-0.88-1.36h-0.56v1.36h-0.48L156.16 7.08 156.16 7.08zM156.64 8.52h0.56c0.48 0 0.88 0 0.88-0.56 0-0.4-0.4-0.48-0.72-0.48h-0.64L156.64 8.52 156.64 8.52 156.64 8.52z"/>
</svg>
