<?xml version="1.0" encoding="UTF-8"?>
<svg width="64px" height="64px" viewBox="0 0 64 64" version="1.1" xmlns="http://www.w3.org/2000/svg" xmlns:xlink="http://www.w3.org/1999/xlink">
    <!-- Generator: Sketch 48.1 (47250) - http://www.bohemiancoding.com/sketch -->
    <title>05</title>
    <desc>Created with Sketch.</desc>
    <defs></defs>
    <g id="Page-1" stroke="none" stroke-width="1" fill="none" fill-rule="evenodd">
        <g id="checked" fill="#03C9A9" fill-rule="nonzero">
            <path d="M32.002,64 C40.55,64 48.585,60.671 54.629,54.627 C60.673,48.584 64.002,40.548 64.002,32 C64.002,23.453 60.673,15.418 54.629,9.374 C48.585,3.33 40.55,0.001 32.002,0.001 C23.455,0.001 15.419,3.33 9.376,9.374 C3.332,15.418 0.003,23.453 0.003,32 C0.003,40.548 3.332,48.584 9.376,54.627 C15.419,60.671 23.455,64 32.002,64 Z M12.205,12.202 C17.492,6.913 24.523,4.001 32.002,4.001 C39.481,4.001 46.512,6.913 51.8,12.203 C57.089,17.49 60.002,24.521 60.002,32 C60.002,39.479 57.089,46.511 51.8,51.799 C46.512,57.088 39.481,60 32.002,60 C24.523,60 17.492,57.088 12.204,51.798 C6.915,46.511 4.003,39.479 4.003,32 C4.003,24.521 6.915,17.49 12.205,12.202 Z M23.939,48 L24.002,48 C24.545,48 25.066,47.779 25.444,47.387 L50.444,21.387 C51.209,20.59 51.185,19.324 50.388,18.559 C49.591,17.793 48.326,17.818 47.56,18.614 L24.097,43.016 L14.529,31.709 C13.815,30.865 12.554,30.76 11.71,31.474 C10.867,32.187 10.762,33.449 11.476,34.292 L22.475,47.293 C22.841,47.725 23.373,48 23.939,48 Z" id="05"></path>
        </g>
    </g>
</svg>