<?xml version="1.0" encoding="UTF-8"?>
<svg width="269px" height="37px" viewBox="0 0 269 37" version="1.1" xmlns="http://www.w3.org/2000/svg" xmlns:xlink="http://www.w3.org/1999/xlink">
    <!-- Generator: Sketch 49 (51002) - http://www.bohemiancoding.com/sketch -->
    <title>logo</title>
    <desc>Created with Sketch.</desc>
    <defs></defs>
    <g id="Page-1" stroke="none" stroke-width="1" fill="none" fill-rule="evenodd">
        <g id="logo" fill="#0B0B09">
            <path d="M29.04,19.333 L39.39,19.333 L39.39,18.218 L29.04,18.218 L29.04,19.333 Z M29.04,21.446 L39.39,21.446 L39.39,20.332 L29.04,20.332 L29.04,21.446 Z M29.04,23.562 L39.39,23.562 L39.39,22.447 L29.04,22.447 L29.04,23.562 Z M29.04,15.103 L39.39,15.103 L39.39,13.988 L29.04,13.988 L29.04,15.103 Z M29.04,17.218 L39.39,17.218 L39.39,16.103 L29.04,16.103 L29.04,17.218 Z M49.912,35.136 L29.04,35.136 L29.04,36.25 L41.89,36.25 C44.884,36.25 47.558,35.878 49.912,35.136 Z M29.04,12.988 L39.39,12.988 L39.39,11.873 L29.04,11.873 L29.04,12.988 Z M54.374,33.02 L29.04,33.02 L29.04,34.136 L52.393,34.136 C53.086,33.803 53.749,33.434 54.374,33.02 Z M59.703,26.677 L29.04,26.677 L29.04,27.791 L59.192,27.791 C59.381,27.435 59.542,27.056 59.703,26.677 Z M29.04,25.677 L39.39,25.677 L39.39,24.562 L29.04,24.562 L29.04,25.677 Z M58.587,28.791 L29.04,28.791 L29.04,29.906 L57.79,29.906 C58.072,29.549 58.34,29.179 58.587,28.791 Z M56.04,31.774 C56.354,31.501 56.639,31.203 56.925,30.906 L29.04,30.906 L29.04,32.02 L55.724,32.02 C55.826,31.936 55.938,31.862 56.04,31.774 Z M42.79,10.873 L59.577,10.873 C59.399,10.493 59.207,10.123 59,9.759 L29.04,9.759 L29.04,10.873 L42.79,10.873 Z M57.557,7.645 L29.04,7.645 L29.04,8.759 L58.378,8.759 C58.118,8.375 57.847,8 57.557,7.645 Z M55.44,5.529 L29.04,5.529 L29.04,6.645 L56.662,6.645 C56.278,6.25 55.868,5.882 55.44,5.529 Z M52.144,3.415 L29.04,3.415 L29.04,4.529 L54.1,4.529 C53.484,4.124 52.833,3.751 52.144,3.415 Z M50.64,18.617 C50.64,18.862 50.628,19.097 50.614,19.332 L61.161,19.332 C61.168,19.086 61.189,18.852 61.189,18.6 C61.189,18.47 61.181,18.346 61.179,18.218 L50.624,18.218 C50.629,18.351 50.64,18.481 50.64,18.617 Z M41.99,1.3 L29.04,1.3 L29.04,2.415 L49.64,2.415 C47.348,1.675 44.801,1.3 41.99,1.3 Z M50.288,16.104 C50.395,16.461 50.476,16.833 50.533,17.218 L61.145,17.218 C61.121,16.841 61.088,16.469 61.045,16.104 L50.288,16.104 Z M50.517,20.332 C50.458,20.722 50.374,21.091 50.273,21.447 L61.019,21.447 C61.06,21.08 61.099,20.712 61.123,20.332 L50.517,20.332 Z M46.981,11.873 C47.517,12.177 48.005,12.546 48.442,12.988 L60.39,12.988 C60.274,12.609 60.146,12.238 60.005,11.873 L46.981,11.873 Z M49.271,13.988 C49.518,14.342 49.731,14.713 49.911,15.103 L60.895,15.103 C60.829,14.726 60.752,14.353 60.664,13.988 L49.271,13.988 Z M49.921,22.447 C49.751,22.843 49.549,23.214 49.317,23.561 L60.677,23.561 C60.756,23.195 60.837,22.829 60.896,22.447 L49.921,22.447 Z M60.088,25.677 C60.217,25.31 60.35,24.947 60.455,24.561 L48.514,24.561 C48.079,25.006 47.583,25.372 47.034,25.677 L60.088,25.677 Z M245.518,22.95 L232.768,1.3 L243.816,1.3 L250.716,13.35 L258.066,1.3 L269.066,1.3 L255.867,22.95 L255.867,36.25 L245.518,36.25 L245.518,22.95 Z M211.277,36.325 C209.011,35.875 207.178,35.283 205.777,34.551 L205.777,25.399 C207.611,26.399 209.535,27.149 211.553,27.649 C213.569,28.149 215.46,28.399 217.229,28.399 C219.794,28.399 221.078,27.718 221.078,26.35 C221.078,25.783 220.886,25.292 220.503,24.875 C220.119,24.458 219.544,24.059 218.777,23.676 C218.011,23.292 216.794,22.733 215.128,22 C211.895,20.6 209.553,19.067 208.104,17.399 C206.652,15.733 205.928,13.667 205.928,11.2 C205.928,9.134 206.503,7.292 207.652,5.675 C208.803,4.059 210.41,2.8 212.479,1.899 C214.544,1 216.928,0.55 219.628,0.55 C221.828,0.55 223.777,0.725 225.479,1.075 C227.178,1.425 228.828,1.983 230.428,2.75 L230.428,11.6 C227.527,10 224.561,9.2 221.527,9.2 C220.194,9.2 219.128,9.392 218.328,9.774 C217.527,10.158 217.128,10.717 217.128,11.45 C217.128,12.184 217.486,12.774 218.203,13.225 C218.919,13.675 220.277,14.3 222.277,15.1 L223.378,15.55 C225.744,16.517 227.569,17.475 228.854,18.425 C230.136,19.375 231.061,20.475 231.628,21.725 C232.194,22.975 232.479,24.551 232.479,26.45 C232.479,29.75 231.277,32.333 228.878,34.2 C226.479,36.067 222.861,37 218.027,37 C215.794,37 213.544,36.774 211.277,36.325 Z M182.232,36.325 C179.966,35.875 178.132,35.283 176.732,34.551 L176.732,25.399 C178.566,26.399 180.49,27.149 182.507,27.649 C184.524,28.149 186.416,28.399 188.184,28.399 C190.75,28.399 192.033,27.718 192.033,26.35 C192.033,25.783 191.841,25.292 191.458,24.875 C191.074,24.458 190.5,24.059 189.732,23.676 C188.966,23.292 187.75,22.733 186.083,22 C182.85,20.6 180.507,19.067 179.059,17.399 C177.607,15.733 176.882,13.667 176.882,11.2 C176.882,9.134 177.458,7.292 178.607,5.675 C179.757,4.059 181.365,2.8 183.434,1.899 C185.5,1 187.882,0.55 190.583,0.55 C192.783,0.55 194.732,0.725 196.434,1.075 C198.132,1.425 199.783,1.983 201.382,2.75 L201.382,11.6 C198.482,10 195.516,9.2 192.482,9.2 C191.149,9.2 190.083,9.392 189.283,9.774 C188.482,10.158 188.083,10.717 188.083,11.45 C188.083,12.184 188.441,12.774 189.158,13.225 C189.875,13.675 191.232,14.3 193.232,15.1 L194.333,15.55 C196.699,16.517 198.524,17.475 199.809,18.425 C201.091,19.375 202.016,20.475 202.583,21.725 C203.149,22.975 203.434,24.551 203.434,26.45 C203.434,29.75 202.232,32.333 199.833,34.2 C197.434,36.067 193.816,37 188.982,37 C186.75,37 184.5,36.774 182.232,36.325 Z M159.804,21.75 L156.455,11.95 L153.104,21.75 L159.804,21.75 Z M151.503,1.3 L161.455,1.3 L175.404,36.25 L164.804,36.25 L162.205,29.6 L150.753,29.6 L148.104,36.25 L137.503,36.25 L151.503,1.3 Z M123.109,28.899 C124.476,28.899 125.476,28.649 126.109,28.149 C126.742,27.649 127.059,26.783 127.059,25.551 C127.059,24.35 126.734,23.468 126.084,22.899 C125.434,22.333 124.409,22.051 123.009,22.051 L117.309,22.051 L117.309,28.899 L123.109,28.899 Z M122.509,14.85 C123.642,14.85 124.5,14.6 125.084,14.1 C125.667,13.6 125.959,12.8 125.959,11.7 C125.959,10.567 125.676,9.774 125.109,9.325 C124.542,8.875 123.659,8.649 122.459,8.649 L117.309,8.649 L117.309,14.85 L122.509,14.85 Z M106.959,1.3 L125.209,1.3 C128.609,1.3 131.334,2.142 133.384,3.825 C135.434,5.509 136.458,7.917 136.458,11.05 C136.458,12.45 136.15,13.767 135.534,15 C134.917,16.233 134.025,17.233 132.859,18 C134.492,18.733 135.684,19.7 136.434,20.899 C137.184,22.1 137.559,23.667 137.559,25.6 C137.559,27.767 137.042,29.658 136.009,31.274 C134.976,32.892 133.584,34.125 131.834,34.975 C130.084,35.825 128.142,36.25 126.009,36.25 L106.959,36.25 L106.959,1.3 Z M64.344,1.3 L73.794,1.3 L83.294,21.85 L92.794,1.3 L102.244,1.3 L102.244,36.25 L92.594,36.25 L92.594,20.75 L85.443,36.25 L81.144,36.25 L73.994,20.75 L73.994,36.25 L64.344,36.25 L64.344,1.3 Z M0,1.3 L25.35,1.3 L25.35,10 L10.35,10 L10.35,14.8 L21.15,14.8 L21.15,22.75 L10.35,22.75 L10.35,27.551 L25.35,27.551 L25.35,36.25 L0,36.25 L0,1.3 Z" id="Fill-1"></path>
        </g>
    </g>
</svg>