<?xml version="1.0" encoding="UTF-8"?>
<svg width="270px" height="38px" viewBox="0 0 270 38" version="1.1" xmlns="http://www.w3.org/2000/svg" xmlns:xlink="http://www.w3.org/1999/xlink">
    <!-- Generator: Sketch 49 (51002) - http://www.bohemiancoding.com/sketch -->
    <title>logo</title>
    <desc>Created with Sketch.</desc>
    <defs></defs>
    <g id="Page-1" stroke="none" stroke-width="1" fill="none" fill-rule="evenodd">
        <g id="logo" fill="#000000" fill-rule="nonzero">
            <path d="M0.5,1.5 L25.8,1.5 L25.8,10.2 L10.8,10.2 L10.8,15 L21.6,15 L21.6,23 L10.8,23 L10.8,27.8 L25.8,27.8 L25.8,36.5 L0.5,36.5 L0.5,1.5 Z M64.8,1.5 L74.3,1.5 L83.8,22 L93.3,1.5 L102.8,1.5 L102.8,36.5 L93.1,36.5 L93.1,21 L85.9,36.5 L81.6,36.5 L74.5,21 L74.5,36.5 L64.8,36.5 L64.8,1.5 Z M107.4,1.5 L125.6,1.5 C129,1.5 131.7,2.3 133.8,4 C135.8,5.7 136.9,8.1 136.9,11.2 C136.9,12.6 136.6,13.9 136,15.2 C135.4,16.4 134.5,17.4 133.3,18.2 C134.9,18.9 136.1,19.9 136.9,21.1 C137.7,22.3 138,23.9 138,25.8 C138,28 137.5,29.9 136.5,31.5 C135.5,33.1 134.1,34.3 132.3,35.2 C130.5,36.1 128.6,36.5 126.5,36.5 L107.5,36.5 L107.5,1.5 L107.4,1.5 Z M123,15.1 C124.1,15.1 125,14.9 125.6,14.3 C126.2,13.8 126.5,13 126.5,11.9 C126.5,10.8 126.2,10 125.7,9.5 C125.1,9 124.2,8.8 123,8.8 L117.8,8.8 L117.8,15 L123,15 L123,15.1 Z M123.6,29.1 C125,29.1 126,28.9 126.6,28.3 C127.2,27.8 127.5,26.9 127.5,25.7 C127.5,24.5 127.2,23.6 126.5,23.1 C125.8,22.6 124.8,22.2 123.4,22.2 L117.7,22.2 L117.7,29.1 L123.6,29.1 Z M152,1.5 L162,1.5 L176,36.5 L165.4,36.5 L162.8,29.8 L151.3,29.8 L148.6,36.5 L138,36.5 L152,1.5 Z M160.3,22 L157,12.2 L153.6,22 L160.3,22 Z M182.7,36.6 C180.4,36.1 178.6,35.6 177.2,34.8 L177.2,25.7 C179,26.7 181,27.5 183,27.9 C185,28.4 186.9,28.7 188.7,28.7 C191.3,28.7 192.5,28 192.5,26.6 C192.5,26 192.3,25.5 191.9,25.1 C191.5,24.7 190.9,24.3 190.2,23.9 C189.4,23.5 188.2,23 186.5,22.2 C183.3,20.8 180.9,19.3 179.5,17.6 C178.1,15.9 177.3,13.9 177.3,11.4 C177.3,9.3 177.9,7.5 179,5.9 C180.2,4.3 181.8,3 183.8,2.1 C185.9,1.2 188.3,0.7 190.9,0.7 C193.1,0.7 195.1,0.9 196.8,1.2 C198.5,1.5 200.1,2.1 201.8,2.9 L201.8,11.7 C198.9,10.1 195.9,9.3 192.9,9.3 C191.6,9.3 190.5,9.5 189.7,9.9 C188.9,10.3 188.5,10.8 188.5,11.6 C188.5,12.4 188.9,12.9 189.6,13.4 C190.3,13.9 191.7,14.5 193.7,15.3 L194.8,15.8 C197.2,16.8 199,17.7 200.3,18.7 C201.6,19.7 202.5,20.7 203.1,22 C203.7,23.3 204,24.8 204,26.7 C204,30 202.8,32.6 200.4,34.5 C198,36.4 194.4,37.3 189.6,37.3 C187.2,37.2 185,37 182.7,36.6 Z M211.7,36.6 C209.4,36.1 207.6,35.6 206.2,34.8 L206.2,25.7 C208,26.7 210,27.5 212,27.9 C214,28.4 215.9,28.7 217.7,28.7 C220.3,28.7 221.5,28 221.5,26.6 C221.5,26 221.3,25.5 220.9,25.1 C220.5,24.7 219.9,24.3 219.2,23.9 C218.4,23.5 217.2,23 215.5,22.2 C212.3,20.8 209.9,19.3 208.5,17.6 C207.1,15.9 206.3,13.9 206.3,11.4 C206.3,9.3 206.9,7.5 208,5.9 C209.2,4.3 210.8,3 212.8,2.1 C214.9,1.2 217.3,0.7 219.9,0.7 C222.1,0.7 224.1,0.9 225.8,1.2 C227.5,1.5 229.1,2.1 230.8,2.9 L230.8,11.7 C227.9,10.1 224.9,9.3 221.9,9.3 C220.6,9.3 219.5,9.5 218.7,9.9 C217.9,10.3 217.5,10.8 217.5,11.6 C217.5,12.4 217.9,12.9 218.6,13.4 C219.3,13.9 220.7,14.5 222.7,15.3 L223.8,15.8 C226.2,16.8 228,17.7 229.3,18.7 C230.6,19.7 231.5,20.7 232.1,22 C232.7,23.3 233,24.8 233,26.7 C233,30 231.8,32.6 229.4,34.5 C227,36.4 223.4,37.3 218.6,37.3 C216.3,37.2 214,37 211.7,36.6 Z M246,23.2 L233.2,1.5 L244.2,1.5 L251.1,13.5 L258.4,1.5 L269.4,1.5 L256.2,23.2 L256.2,36.5 L246,36.5 L246,23.2 Z M29.5,33.9 L29.5,36.5 L42.3,36.5 C46.9,36.5 50.7,35.6 53.8,33.9 L29.5,33.9 Z M39.9,18 L39.9,15.4 L29.5,15.4 L29.5,18 L39.9,18 Z M29.5,10.8 L29.5,13.4 L39.8,13.4 L39.8,10.8 L29.5,10.8 Z M29.5,29.2 L29.5,31.8 L56.6,31.8 C57.5,31 58.2,30.1 58.9,29.2 L29.5,29.2 Z M29.5,4.1 L53.6,4.1 C53.3,3.9 53,3.7 52.6,3.6 C49.7,2.2 46.3,1.5 42.5,1.5 L29.5,1.5 L29.5,4.1 Z M29.5,8.8 L58.7,8.8 C58,7.8 57.2,7 56.4,6.2 L29.5,6.2 L29.5,8.8 Z M39.9,27.2 L39.9,24.6 L29.5,24.6 L29.5,27.2 L39.9,27.2 Z M50.6,15.4 C50.9,16.2 51.1,17.1 51.1,18 L61.7,18 C61.7,17.1 61.6,16.2 61.4,15.4 L50.6,15.4 Z M46.3,10.8 C47.3,11.2 48.2,11.8 49,12.7 C49.2,12.9 49.4,13.2 49.5,13.4 L60.9,13.4 C60.6,12.5 60.3,11.6 59.9,10.8 L46.3,10.8 Z M39.9,22.6 L39.9,20 L29.5,20 L29.5,22.6 L39.9,22.6 Z M49.6,24.6 C49.4,24.9 49.2,25.1 49,25.4 C48.3,26.2 47.4,26.9 46.3,27.3 L60,27.3 C60.4,26.5 60.7,25.6 60.9,24.7 L49.6,24.7 L49.6,24.6 Z M51.1,20 C51,21 50.9,21.8 50.6,22.6 L61.4,22.6 C61.5,21.8 61.6,20.9 61.6,20 L51.1,20 Z" id="Shape"></path>
        </g>
    </g>
</svg>