<?xml version="1.0" encoding="UTF-8"?>
<svg width="350px" height="48px" viewBox="0 0 350 48" version="1.1" xmlns="http://www.w3.org/2000/svg" xmlns:xlink="http://www.w3.org/1999/xlink">
    <!-- Generator: Sketch 49.1 (51147) - http://www.bohemiancoding.com/sketch -->
    <title>EDMBASSY.Logo</title>
    <desc>Created with Sketch.</desc>
    <defs></defs>
    <g id="Page-1" stroke="none" stroke-width="1" fill="none" fill-rule="evenodd">
        <g id="EDMBASSY.Logo" fill="#000000" fill-rule="nonzero">
            <g id="Group">
                <polygon id="Shape" points="0 46.8 32.9 46.8 32.9 35.5 13.4 35.5 13.4 29.2 27.5 29.2 27.5 18.8 13.4 18.8 13.4 12.5 32.9 12.5 32.9 1.2 0 1.2"></polygon>
                <path d="M260.1,23.6 C258.4,22.3 256.1,21.1 252.9,19.8 L251.5,19.1 C248.9,18.1 247.1,17.3 246.2,16.6 C245.3,15.9 244.8,15.3 244.8,14.3 C244.8,13.3 245.3,12.6 246.4,12.1 C247.4,11.6 248.9,11.3 250.6,11.3 C254.5,11.3 258.4,12.3 262.2,14.4 L262.2,3 C260,2 257.9,1.2 255.7,0.8 C253.5,0.4 250.9,0.1 248,0.1 C244.6,0.1 241.5,0.8 238.8,1.9 C236.2,3.1 234.1,4.8 232.6,6.8 C231.2,8.9 230.4,11.2 230.4,14 C230.4,17.3 231.4,19.9 233.3,22.1 C235.1,24.3 238.2,26.3 242.4,28.1 C244.6,29.1 246.2,29.8 247.2,30.3 C248.1,30.8 248.9,31.3 249.4,31.9 C249.9,32.4 250.2,33.1 250.2,33.9 C250.2,35.7 248.6,36.6 245.3,36.6 C243,36.6 240.5,36.2 237.9,35.6 C235.3,35.1 232.7,34 230.4,32.7 L230.4,44.5 C232.2,45.5 234.6,46.2 237.6,46.8 C240.6,47.3 243.5,47.6 246.6,47.7 C252.8,47.7 257.5,46.5 260.7,44.1 C263.8,41.6 265.4,38.2 265.4,33.9 C265.4,31.4 265,29.5 264.2,27.8 C262.9,26.2 261.8,24.9 260.1,23.6 Z" id="Shape"></path>
                <path d="M177.5,26.7 C176.5,25.1 174.9,23.8 172.8,22.9 C174.4,21.9 175.5,20.6 176.3,19 C177.1,17.3 177.5,15.6 177.5,13.8 C177.5,9.8 176.1,6.6 173.5,4.4 C170.8,2.2 167.3,1.1 162.8,1.1 L139.2,1.1 L139.2,46.7 L164,46.7 C166.7,46.7 169.2,46.2 171.5,45 C173.8,43.8 175.7,42.3 177,40.2 C178.3,38.1 179,35.6 179,32.8 C179,30.4 178.6,28.3 177.5,26.7 Z M159.4,10.7 C161,10.7 162.1,11 162.9,11.6 C163.6,12.3 163.9,13.3 163.9,14.7 C163.9,16.1 163.5,17.2 162.7,17.8 C161.9,18.6 160.7,18.8 159.3,18.8 L152.5,18.8 L152.5,10.6 L159.4,10.6 L159.4,10.7 Z M164.1,36.1 C163.3,36.9 162,37.1 160.2,37.1 L152.5,37.1 L152.5,28.1 L159.9,28.1 C161.7,28.1 163,28.6 163.9,29.3 C164.8,30 165.2,31.1 165.2,32.7 C165.3,34.3 164.9,35.5 164.1,36.1 Z" id="Shape"></path>
                <path d="M297.8,23.6 C296.1,22.3 293.8,21.1 290.6,19.8 L289.2,19.1 C286.6,18.1 284.8,17.3 283.9,16.6 C283,15.9 282.5,15.3 282.5,14.3 C282.5,13.3 283,12.6 284.1,12.1 C285.1,11.6 286.6,11.3 288.3,11.3 C292.2,11.3 296.1,12.3 299.9,14.4 L299.9,3 C297.7,2 295.6,1.2 293.4,0.8 C291.2,0.4 288.6,0.1 285.7,0.1 C282.3,0.1 279.2,0.8 276.5,1.9 C273.9,3.1 271.8,4.8 270.3,6.8 C268.9,8.9 268.1,11.2 268.1,14 C268.1,17.3 269.1,19.9 271,22.1 C272.8,24.3 275.9,26.3 280.1,28.1 C282.3,29.1 283.9,29.8 284.9,30.3 C285.8,30.8 286.6,31.3 287.1,31.9 C287.6,32.4 287.9,33.1 287.9,33.9 C287.9,35.7 286.3,36.6 283,36.6 C280.7,36.6 278.2,36.2 275.6,35.6 C273,35.1 270.4,34 268.1,32.7 L268.1,44.5 C269.9,45.5 272.3,46.2 275.3,46.8 C278.3,47.3 281.3,47.6 284.3,47.7 C290.5,47.7 295.2,46.5 298.4,44.1 C301.5,41.6 303.1,38.2 303.1,33.9 C303.1,31.4 302.7,29.5 301.9,27.8 C300.7,26.2 299.5,24.9 297.8,23.6 Z" id="Shape"></path>
                <path d="M197.2,1.2 L179,46.8 L192.8,46.8 L196.3,38.1 L211.3,38.1 L214.7,46.8 L228.5,46.8 L210.3,1.2 L197.2,1.2 Z M199.3,27.9 L203.7,15.1 L208,27.9 L199.3,27.9 Z" id="Shape"></path>
                <polygon id="Shape" points="335.7 1.2 326.2 16.8 317.2 1.2 302.9 1.2 319.5 29.5 319.5 46.8 332.8 46.8 332.8 29.5 350 1.2"></polygon>
                <polygon id="Shape" points="108.4 27.9 96.1 1.2 83.7 1.2 83.7 46.8 96.3 46.8 96.3 26.6 105.6 46.8 111.2 46.8 120.5 26.6 120.5 46.8 133.2 46.8 133.2 1.2 120.8 1.2"></polygon>
            </g>
            <g id="Group" transform="translate(37.000000, 1.000000)">
                <path d="M40.9,15.7 C40.6,14.5 40.1,13.4 39.6,12.3 L13.4,12.3 L19.3,15.7 L40.9,15.7 Z" id="Shape"></path>
                <rect id="Rectangle-path" x="0.7" y="12.3" width="12.6" height="3.4"></rect>
                <path d="M35.1,6.2 L0.7,6.2 L0.7,9.6 L38,9.6 C37.2,8.4 36.2,7.2 35.1,6.2 Z" id="Shape"></path>
                <path d="M30.2,3 C26.5,1.2 22.1,0.3 17.1,0.3 L0.7,0.3 L0.7,3.7 L31.3,3.7 C31,3.4 30.6,3.2 30.2,3 Z" id="Shape"></path>
                <rect id="Rectangle-path" x="0.7" y="18.3" width="12.6" height="3.4"></rect>
                <path d="M29.6,21.7 L41.8,21.7 C41.8,20.5 41.6,19.4 41.5,18.3 L23.8,18.3 L29.6,21.7 Z" id="Shape"></path>
                <rect id="Rectangle-path" x="0.7" y="30.3" width="12.6" height="3.4"></rect>
                <path d="M13.4,33.7 L39.8,33.7 C40.3,32.6 40.7,31.5 41,30.3 L19.2,30.3 L13.4,33.7 Z" id="Shape"></path>
                <rect id="Rectangle-path" x="0.7" y="24.3" width="12.6" height="3.4"></rect>
                <path d="M29.6,24.3 L23.7,27.7 L41.4,27.7 C41.6,26.6 41.7,25.5 41.7,24.3 L29.6,24.3 Z" id="Shape"></path>
                <path d="M0.7,45.8 L16.8,45.8 C22.8,45.8 27.7,44.7 31.7,42.4 L0.7,42.4 L0.7,45.8 Z" id="Shape"></path>
                <path d="M0.7,39.8 L35.4,39.8 C36.5,38.8 37.5,37.7 38.3,36.4 L0.7,36.4 L0.7,39.8 Z" id="Shape"></path>
            </g>
        </g>
    </g>
</svg>