<?xml version="1.0" encoding="UTF-8"?>
<svg width="127px" height="127px" viewBox="0 0 127 127" version="1.1" xmlns="http://www.w3.org/2000/svg" xmlns:xlink="http://www.w3.org/1999/xlink">
    <!-- Generator: Sketch 48.2 (47327) - http://www.bohemiancoding.com/sketch -->
    <title>checked</title>
    <desc>Created with Sketch.</desc>
    <defs></defs>
    <g id="User-Interface-Icons-White-Dark" stroke="none" stroke-width="1" fill="none" fill-rule="evenodd" transform="translate(-801.000000, -518.000000)">
        <path d="M864.422403,518 C829.452138,518 801,546.452138 801,581.422403 C801,616.392668 829.452138,644.844807 864.422403,644.844807 C899.392668,644.844807 927.844807,616.392668 927.844807,581.422403 C927.844807,546.452138 899.392668,518 864.422403,518 Z M864.422403,638.507739 C832.943992,638.507739 807.337067,612.900815 807.337067,581.422403 C807.337067,549.943992 832.943992,524.337067 864.422403,524.337067 C895.900815,524.337067 921.507739,549.943992 921.507739,581.422403 C921.507739,612.900815 895.900815,638.507739 864.422403,638.507739 Z M881.028106,565.980652 L856.71446,590.164969 L847.842566,581.241344 C846.601018,579.999796 844.609369,579.999796 843.367821,581.215479 C842.126273,582.431161 842.126273,584.448676 843.341955,585.690224 L854.438289,596.864155 C855.059063,597.484929 855.860896,597.795316 856.688595,597.795316 C857.490428,597.795316 858.292261,597.484929 858.913035,596.864155 L885.476986,570.455397 C886.718534,569.213849 886.718534,567.2222 885.502851,565.980652 C884.261303,564.739104 882.269654,564.739104 881.028106,565.980652 Z" id="checked" fill="#03C9A9" fill-rule="nonzero"></path>
    </g>
</svg>