<?xml version="1.0" encoding="UTF-8"?>
<svg width="100px" height="100px" viewBox="0 0 100 100" version="1.1" xmlns="http://www.w3.org/2000/svg" xmlns:xlink="http://www.w3.org/1999/xlink">
    <!-- Generator: Sketch 49.2 (51160) - http://www.bohemiancoding.com/sketch -->
    <title>check</title>
    <desc>Created with Sketch.</desc>
    <defs></defs>
    <g id="Page-1" stroke="none" stroke-width="1" fill="none" fill-rule="evenodd">
        <g id="EDMBASSY.Success" transform="translate(-250.000000, -75.000000)">
            <g id="check" transform="translate(250.000000, 75.000000)">
                <path d="M50,0 C22.386,0 0,22.386 0,50 C0,77.614 22.386,100 50,100 C77.614,100 100,77.614 100,50 C100,22.386 77.614,0 50,0 M50,5.435 C74.573,5.435 94.565,25.427 94.565,50 C94.565,74.573 74.573,94.565 50,94.565 C25.427,94.565 5.435,74.573 5.435,50 C5.435,25.427 25.427,5.435 50,5.435" id="Fill-5" fill="#FFFFFE"></path>
                <polyline id="Stroke-7" stroke="#FFFFFE" stroke-width="5" points="28.5 50 48 66.744 73 35.507"></polyline>
            </g>
        </g>
    </g>
</svg>