<?xml version="1.0" standalone="no"?>
<!DOCTYPE svg PUBLIC "-//W3C//DTD SVG 1.1//EN" "http://www.w3.org/Graphics/SVG/1.1/DTD/svg11.dtd" >
<svg>
<metadata>
Created by FontForge 20090622 at Wed Nov 28 11:53:28 2018
 By deploy user
Copyright (c) 2018 Loco Graphic Design. All rights reserved
</metadata>
<defs>
<font id="EDMSTERDAM-Bold" horiz-adv-x="1095" >
  <font-face 
    font-family="EDMSTERDAM Bold"
    font-weight="400"
    font-stretch="normal"
    units-per-em="1000"
    panose-1="0 0 5 0 0 0 0 0 0 0"
    ascent="767"
    descent="-233"
    x-height="531"
    cap-height="739"
    bbox="-702 -242.254 1448 1257"
    underline-thickness="50"
    underline-position="-50"
    unicode-range="U+000D-U+FEFF"
  />
<missing-glyph horiz-adv-x="794" 
d="M708 -134h-622v1015h622v-1015zM437 226v13q0 29 21 52t51.5 41t60.5 39.5t51 58t21 84.5q0 95 -62 156.5t-184 61.5q-157 0 -251 -109l94 -104q55 72 144 72q51 0 76 -24t25 -61q0 -28 -19 -49.5t-46 -38t-53.5 -35.5t-45.5 -53t-19 -80v-24h136zM377 -1q38 0 62 24
t24 61t-24 61t-62 24t-62.5 -24t-24.5 -61t24.5 -61t62.5 -24z" />
    <glyph glyph-name="fl" unicode="fl" horiz-adv-x="689" 
d="M319 631q-68 0 -68 -69v-31h115v-129h-115v-402h-152v402h-89l32 129h57v17q0 98 52 152t146 54q47 0 80 -10l-12 -120q-25 7 -46 7zM616 0h-153v739h153v-739z" />
    <glyph glyph-name="f_f" unicode="ff" horiz-adv-x="779" 
d="M319 631q-68 0 -68 -69v-31h115v-129h-115v-402h-152v402h-89l32 129h57v17q0 98 52 152t146 54q47 0 80 -10l-12 -120q-25 7 -46 7zM756 531v-129h-115v-402h-152v402h-89l32 129h57v17q0 98 52 152t146 54q47 0 80 -10l-12 -120q-25 7 -46 7q-68 0 -68 -69v-31h115z
" />
    <glyph glyph-name="f_f_i" unicode="ffi" horiz-adv-x="1079" 
d="M319 631q-68 0 -68 -69v-31h115v-129h-115v-402h-152v402h-89l32 129h57v17q0 98 52 152t146 54q47 0 80 -10l-12 -120q-25 7 -46 7zM709 631q-68 0 -68 -69v-31h115v-129h-115v-402h-152v402h-89l32 129h57v17q0 98 52 152t146 54q47 0 80 -10l-12 -120q-25 7 -46 7z
M929 586q-39 0 -65 23.5t-26 60.5t26 60.5t65 23.5q40 0 65.5 -23.5t25.5 -60.5t-25.5 -60.5t-65.5 -23.5zM1006 531v-531h-153v531h153z" />
    <glyph glyph-name="f_f_l" unicode="ffl" horiz-adv-x="1079" 
d="M319 631q-68 0 -68 -69v-31h115v-129h-115v-402h-152v402h-89l32 129h57v17q0 98 52 152t146 54q47 0 80 -10l-12 -120q-25 7 -46 7zM709 631q-68 0 -68 -69v-31h115v-129h-115v-402h-152v402h-89l32 129h57v17q0 98 52 152t146 54q47 0 80 -10l-12 -120q-25 7 -46 7z
M1005 0h-152v739h152v-739z" />
    <glyph glyph-name=".notdef" horiz-adv-x="794" 
d="M708 -134h-622v1015h622v-1015zM437 226v13q0 29 21 52t51.5 41t60.5 39.5t51 58t21 84.5q0 95 -62 156.5t-184 61.5q-157 0 -251 -109l94 -104q55 72 144 72q51 0 76 -24t25 -61q0 -28 -19 -49.5t-46 -38t-53.5 -35.5t-45.5 -53t-19 -80v-24h136zM377 -1q38 0 62 24
t24 61t-24 61t-62 24t-62.5 -24t-24.5 -61t24.5 -61t62.5 -24z" />
    <glyph glyph-name=".null" horiz-adv-x="600" 
 />
    <glyph glyph-name="nonmarkingreturn" horiz-adv-x="333" 
 />
    <glyph glyph-name="NULL" horiz-adv-x="0" 
 />
    <glyph glyph-name="NULL" horiz-adv-x="0" 
 />
    <glyph glyph-name="CR" unicode="&#xd;" horiz-adv-x="254" 
 />
    <glyph glyph-name="space" unicode=" " horiz-adv-x="254" 
 />
    <glyph glyph-name="exclam" unicode="!" horiz-adv-x="300" 
d="M62 739h176l-30 -513h-116zM151 -11q-39 0 -64 24t-25 61t25 61t64 24q37 0 61.5 -24t24.5 -61t-24.5 -61t-61.5 -24z" />
    <glyph glyph-name="quotedbl" unicode="&#x22;" horiz-adv-x="499" 
d="M233 739l-77 -321h-26l-78 321h181zM446 739l-77 -321h-26l-78 321h181z" />
    <glyph glyph-name="numbersign" unicode="#" horiz-adv-x="827" 
d="M614 287h119l-31 -125h-119l-40 -162h-144l41 162h-156l-40 -162h-144l41 162h-119l30 125h120l41 166h-119l31 126h120l40 160h142l-40 -160h157l40 160h143l-40 -160h118l-30 -126h-119zM356 453l-41 -166h156l41 166h-156z" />
    <glyph glyph-name="dollar" unicode="$" horiz-adv-x="630" 
d="M588 223q0 -89 -52 -149t-142 -80v-107h-141v101q-126 15 -229 111l93 117q90 -86 195 -86q55 0 85 21.5t30 58.5q0 27 -20.5 44.5t-53 27t-72 18.5t-79 23.5t-72 36.5t-53 63.5t-20.5 99.5q0 84 52.5 143.5t143.5 79.5v106h141v-102q112 -16 190 -91l-89 -115
q-71 65 -160 65q-57 0 -87 -22t-30 -59q0 -29 27.5 -48t68.5 -27t89 -23.5t89 -35t68.5 -63.5t27.5 -108z" />
    <glyph glyph-name="percent" unicode="%" horiz-adv-x="1056" 
d="M241 367q-84 0 -142.5 55t-58.5 138q0 85 58.5 140t142.5 55q85 0 143.5 -54.5t58.5 -140.5q0 -84 -58.5 -138.5t-143.5 -54.5zM840 739l-476 -739h-148l476 739h148zM241 481q32 0 54 22.5t22 56.5t-22 57.5t-54 23.5t-53 -23.5t-21 -57.5t21 -56.5t53 -22.5zM813 -15
q-85 0 -142.5 54t-57.5 140q0 84 58 139t142 55q85 0 143.5 -55t58.5 -139q0 -86 -58 -140t-144 -54zM813 99q32 0 53.5 23t21.5 57t-21.5 56.5t-53.5 22.5q-30 0 -52.5 -23t-22.5 -56t22.5 -56.5t52.5 -23.5z" />
    <glyph glyph-name="ampersand" unicode="&#x26;" horiz-adv-x="753" 
d="M636 -2l-80 71q-95 -81 -240 -81q-123 0 -196 53t-73 143q0 70 40 116t125 78q-89 92 -89 181q0 74 59.5 134t173.5 60q100 0 160 -56.5t60 -139.5q0 -127 -154 -184l115 -102q14 47 14 99h147q-12 -109 -56 -192l88 -78zM353 622q-38 0 -59.5 -20.5t-21.5 -51.5
q0 -27 15 -47.5t63 -64.5q82 51 82 107q0 35 -19.5 56t-59.5 21zM326 116q78 0 133 40l-173 154q-78 -49 -78 -115q0 -37 30 -58t88 -21z" />
    <glyph glyph-name="quotesingle" unicode="'" horiz-adv-x="286" 
d="M233 739l-77 -321h-26l-78 321h181z" />
    <glyph glyph-name="parenleft" unicode="(" horiz-adv-x="408" 
d="M407 -89l-63 -82q-297 179 -297 510q0 332 297 506l63 -83q-97 -80 -148 -177.5t-51 -245.5q0 -149 50.5 -247t148.5 -181z" />
    <glyph glyph-name="parenright" unicode=")" horiz-adv-x="408" 
d="M63 -171l-62 82q97 82 147.5 180.5t50.5 247.5q0 148 -50.5 246t-147.5 177l62 83q297 -173 297 -506q0 -332 -297 -510z" />
    <glyph glyph-name="asterisk" unicode="*" horiz-adv-x="426" 
d="M361 471l-99 -72l-49 100l-50 -100l-99 72l79 77l-110 16l39 117l98 -52l-19 110h124l-19 -110l98 52l38 -117l-110 -16z" />
    <glyph glyph-name="plus" unicode="+" horiz-adv-x="600" 
d="M370 238v-200h-140v200h-200v141h200v199h140v-199h200v-141h-200z" />
    <glyph glyph-name="comma" unicode="," horiz-adv-x="292" 
d="M80 -175l-35 68q81 34 97 97l1 4q-7 -1 -15 -1q-35 0 -57.5 23t-22.5 59q0 41 27.5 67t68.5 26q44 0 71 -31t27 -83q0 -71 -42.5 -132t-119.5 -97z" />
    <glyph glyph-name="hyphen" unicode="-" horiz-adv-x="357" 
d="M306 239h-255v129h255v-129z" />
    <glyph glyph-name="period" unicode="." horiz-adv-x="292" 
d="M146 -15q-41 0 -68 26t-27 66t27 66t68 26t68.5 -26t27.5 -66t-27.5 -66t-68.5 -26z" />
    <glyph glyph-name="slash" unicode="/" horiz-adv-x="490" 
d="M350 851h140l-385 -1057h-139z" />
    <glyph glyph-name="zero" unicode="0" horiz-adv-x="737" 
d="M369 -13q-143 0 -227.5 105t-84.5 277q0 171 84.5 277t227.5 106q141 0 226 -106t85 -277t-84.5 -276.5t-226.5 -105.5zM369 130q70 0 110 59.5t40 179.5q0 121 -40 180t-110 59q-71 0 -111.5 -59t-40.5 -180q0 -120 40.5 -179.5t111.5 -59.5z" />
    <glyph glyph-name="one" unicode="1" horiz-adv-x="490" 
d="M395 0h-159v523l-148 -77l-54 129l340 178h21v-753z" />
    <glyph glyph-name="two" unicode="2" horiz-adv-x="636" 
d="M589 0h-541v21l243 293q65 78 85.5 115.5t20.5 81.5q0 42 -28 70t-81 28q-90 0 -147 -92l-114 82q42 75 111.5 115t157.5 40q132 0 197.5 -68.5t65.5 -165.5q0 -74 -36.5 -137.5t-134.5 -176.5l-55 -63h256v-143z" />
    <glyph glyph-name="three" unicode="3" horiz-adv-x="651" 
d="M597 715l-195 -252q85 -14 135.5 -73t50.5 -151q0 -100 -74.5 -177t-210.5 -77q-167 0 -269 129l98 103q68 -89 169 -89q59 0 93 31t34 83q0 73 -59.5 98t-144.5 2l-26 66l140 188h-275v143h534v-24z" />
    <glyph glyph-name="four" unicode="4" horiz-adv-x="717" 
d="M567 136v-136h-156v136h-415v22l415 581h156v-466h116v-137h-116zM411 516l-168 -243h168v243z" />
    <glyph glyph-name="five" unicode="5" horiz-adv-x="610" 
d="M316 487q119 0 183 -69.5t64 -174.5q0 -104 -74 -181t-209 -77q-156 0 -252 109l88 110q69 -77 162 -77q57 0 90.5 30t33.5 81q0 53 -35 85.5t-109 32.5q-95 0 -174 -44l-14 9v418h448v-143h-302v-125q48 16 100 16z" />
    <glyph glyph-name="six" unicode="6" horiz-adv-x="651" 
d="M366 500q105 0 175 -69t70 -184t-78 -188.5t-207 -73.5q-131 0 -208.5 74t-77.5 191q0 109 80 220l194 269h200l-194 -243q28 4 46 4zM326 127q56 0 89.5 33t33.5 87q0 55 -33.5 88t-89.5 33q-57 0 -91 -33.5t-34 -88.5q0 -54 34 -86.5t91 -32.5z" />
    <glyph glyph-name="seven" unicode="7" horiz-adv-x="565" 
d="M569 718l-274 -718h-176l244 596h-329v143h535v-21z" />
    <glyph glyph-name="eight" unicode="8" horiz-adv-x="683" 
d="M511 385q52 -23 83.5 -67t31.5 -101q0 -108 -78 -169t-205 -61t-206.5 61t-79.5 169q0 58 32 101.5t84 66.5q-92 52 -92 162q0 91 71.5 148t190.5 57t190 -57t71 -148q0 -110 -93 -162zM343 623q-49 0 -77.5 -27t-28.5 -68q0 -45 27.5 -68.5t78.5 -23.5q49 0 77 24t28 68
q0 41 -28 68t-77 27zM343 117q58 0 91.5 27t33.5 78q0 44 -34 72.5t-91 28.5q-59 0 -92.5 -28t-33.5 -73q0 -51 33.5 -78t92.5 -27z" />
    <glyph glyph-name="nine" unicode="9" horiz-adv-x="651" 
d="M324 754q131 0 209 -74t78 -191q0 -107 -80 -220l-194 -269h-200l194 244q-23 -5 -46 -5q-105 0 -175 69t-70 184t78 188.5t206 73.5zM324 371q58 0 92 33.5t34 88.5q0 54 -34 86.5t-92 32.5q-55 0 -89 -33t-34 -87q0 -55 33.5 -88t89.5 -33z" />
    <glyph glyph-name="colon" unicode=":" horiz-adv-x="292" 
d="M146 362q-41 0 -68 26t-27 66t27 66t68 26t68.5 -26t27.5 -66t-27.5 -66t-68.5 -26zM146 -15q-41 0 -68 26t-27 66t27 66t68 26t68.5 -26t27.5 -66t-27.5 -66t-68.5 -26z" />
    <glyph glyph-name="semicolon" unicode=";" horiz-adv-x="292" 
d="M143 362q-41 0 -68 26t-27 66t27 66t68 26q42 0 69 -26t27 -66t-27 -66t-69 -26zM80 -175l-35 68q81 34 97 97l1 4q-7 -1 -15 -1q-35 0 -57.5 23t-22.5 59q0 41 27.5 67t68.5 26q44 0 71 -31t27 -83q0 -71 -42.5 -132t-119.5 -97z" />
    <glyph glyph-name="less" unicode="&#x3c;" horiz-adv-x="562" 
d="M307 308l215 -108v-148l-492 247v18l492 247v-147z" />
    <glyph glyph-name="equal" unicode="=" horiz-adv-x="600" 
d="M560 502v-140h-520v140h520zM560 255v-140h-520v140h520z" />
    <glyph glyph-name="greater" unicode="&#x3e;" horiz-adv-x="562" 
d="M532 299l-492 -247v148l215 108l-215 109v147l492 -247v-18z" />
    <glyph glyph-name="question" unicode="?" horiz-adv-x="559" 
d="M178 226v24q0 50 18.5 86.5t45.5 57.5t54 39t45.5 41.5t18.5 53.5q0 37 -24.5 61t-75.5 24q-89 0 -144 -72l-95 104q96 109 251 109q122 0 184 -61t62 -157q0 -44 -15 -79.5t-38 -56t-49.5 -41t-49.5 -35.5t-38 -37t-15 -48v-13h-135zM253 -11q-38 0 -62.5 24t-24.5 61
t24.5 61t62.5 24t62.5 -24t24.5 -61t-24.5 -61t-62.5 -24z" />
    <glyph glyph-name="at" unicode="@" horiz-adv-x="947" 
d="M478 363q32 0 79 -5v8q0 79 -86 79q-62 0 -125 -48l-55 86q91 66 193 66q93 0 143.5 -47.5t50.5 -135.5v-124q0 -34 10.5 -49t34.5 -15q90 0 90 162q0 156 -88 243.5t-242 87.5q-152 0 -252 -99.5t-100 -259.5q0 -163 97 -263t253 -100q132 0 220 71l47 -65
q-112 -88 -267 -88q-191 0 -312.5 124.5t-121.5 320.5q0 194 123 317.5t313 123.5q189 0 302.5 -112.5t113.5 -300.5q0 -110 -54.5 -184.5t-145.5 -74.5q-95 0 -128 64q-43 -64 -137 -64q-70 0 -113.5 38t-43.5 107q0 68 52.5 102.5t148.5 34.5zM461 177q42 0 69 23.5
t27 68.5v5q-39 6 -68 6q-90 0 -90 -55q0 -48 62 -48z" />
    <glyph glyph-name="A" unicode="A" horiz-adv-x="856" 
d="M728 -48l128 74l-428 742l-428 -742l128 -74l90 157h420zM304 257l124 215l124 -215h-248z" />
    <glyph glyph-name="B" unicode="B" horiz-adv-x="682" 
d="M511 390q123 -42 123 -177q0 -104 -71 -158.5t-191 -54.5h-286v739h256q126 0 194 -50t68 -141q0 -114 -93 -158zM242 441h89q112 0 112 80q0 79 -107 79h-94v-159zM242 139h124q50 0 78.5 22t28.5 64q0 86 -112 86h-119v-172z" />
    <glyph glyph-name="C" unicode="C" horiz-adv-x="733" 
d="M604 202l105 -105q-115 -113 -273 -113q-159 0 -272 113t-113 273t113 273t272 113q158 0 273 -113l-105 -105q-69 69 -168 69q-100 0 -167 -69q-70 -70 -70 -168t70 -168q67 -69 167 -69q99 0 168 69z" />
    <glyph glyph-name="D" unicode="D" horiz-adv-x="767" 
d="M86 739h263q154 0 262 -108t108 -261q0 -154 -108 -262t-262 -108h-263v739zM243 144h86q94 0 160 66t66 160q0 93 -66 159t-160 66h-86v-451z" />
    <glyph glyph-name="E" unicode="E" horiz-adv-x="621" 
d="M561 0h-475v739h464v-143h-307v-143h292v-141h-292v-169h318v-143z" />
    <glyph glyph-name="F" unicode="F" horiz-adv-x="571" 
d="M245 441h261v-141h-261v-300h-159v739h434v-143h-275v-155z" />
    <glyph glyph-name="G" unicode="G" horiz-adv-x="768" 
d="M718 396v-279q-57 -66 -141 -102q-71 -31 -151 -31q-160 0 -273 113t-113 273t113 273t273 113t273 -113l-105 -105q-69 69 -168 69t-168 -69t-69 -168t69 -168t168 -69q86 0 151 53v210h141z" />
    <glyph glyph-name="H" unicode="H" horiz-adv-x="772" 
d="M685 0h-159v313h-281v-313h-159v739h159v-283h281v283h159v-739z" />
    <glyph glyph-name="I" unicode="I" horiz-adv-x="332" 
d="M245 739v-739h-159v739h159z" />
    <glyph glyph-name="J" unicode="J" horiz-adv-x="564" 
d="M490 739v-486q0 -130 -72.5 -199t-181.5 -69q-77 0 -129 26t-94 77l102 107q50 -64 117 -64q45 0 72 29.5t27 89.5v347h-200v142h359z" />
    <glyph glyph-name="K" unicode="K" horiz-adv-x="681" 
d="M390 370l286 -286l-112 -113l-319 319v-290h-159v739h159v-290l319 319l112 -113z" />
    <glyph glyph-name="L" unicode="L" horiz-adv-x="540" 
d="M505 0h-419v739h159v-596h260v-143z" />
    <glyph glyph-name="M" unicode="M" horiz-adv-x="1004" 
d="M904 739v-739h-159v596h-163v-596h-159v596h-164v-596h-159v739h804z" />
    <glyph glyph-name="N" unicode="N" horiz-adv-x="761" 
d="M675 -23l-430 411v-388h-159v764l429 -411v386h160v-762z" />
    <glyph glyph-name="O" unicode="O" horiz-adv-x="862" 
d="M430 756q160 0 273 -113t113 -273t-113 -273t-273 -113t-273 113t-113 273t113 273t273 113zM430 607q-99 0 -168 -69t-69 -168t69 -168t168 -69t168 69t69 168t-69 168t-168 69z" />
    <glyph glyph-name="P" unicode="P" horiz-adv-x="689" 
d="M245 189v-189h-159v739h288q114 0 194.5 -80.5t80.5 -194.5q0 -113 -80.5 -194t-194.5 -81h-129zM245 332h109q55 0 93.5 38.5t38.5 93.5t-38.5 93.5t-93.5 38.5h-109v-264z" />
    <glyph glyph-name="Q" unicode="Q" horiz-adv-x="856" 
d="M714 -37l-82 82q-96 -63 -211 -63q-160 0 -273 113t-113 273t113 273t273 113t273 -113t113 -273q0 -115 -63 -211l82 -82zM421 131q53 0 102 23l-65 65l112 112l65 -65q23 49 23 102q0 99 -69 168t-168 69t-168 -69t-69 -168t69 -168t168 -69z" />
    <glyph glyph-name="R" unicode="R" horiz-adv-x="727" 
d="M508 0l-110 189h-153v-189h-159v739h299q113 0 194 -80.5t81 -194.5q0 -67 -30 -125.5t-82 -96.5h-1l140 -242h-179zM245 332h120q55 0 93.5 38.5t38.5 93.5t-38.5 93.5t-93.5 38.5h-120v-264z" />
    <glyph glyph-name="S" unicode="S" horiz-adv-x="682" 
d="M640 217q0 -76 -43 -130.5t-106 -78t-138 -23.5q-199 0 -329 130l102 101q87 -87 227 -87q21 0 41.5 3t45.5 11t40.5 27t15.5 47q0 34 -31 51.5t-128 37.5q-33 7 -50 11t-50.5 14.5t-53 20.5t-45 28t-39.5 38.5t-24 50.5t-10 65q0 97 75 159t194 62q180 0 302 -111
l-96 -106q-81 73 -206 73q-57 0 -91 -21t-34 -56q0 -33 31 -50.5t127 -37.5q31 -6 50 -10.5t51 -14.5t52.5 -20.5t45.5 -28t39.5 -38.5t24.5 -51t10 -66z" />
    <glyph glyph-name="T" unicode="T" horiz-adv-x="639" 
d="M34 596v143h571v-143h-206v-596h-159v596h-206z" />
    <glyph glyph-name="U" unicode="U" horiz-adv-x="747" 
d="M374 -15q-137 0 -219 81.5t-82 232.5l2 440h158l-1 -425q-1 -176 141 -176q140 0 140 176l1 425h159l-1 -440q0 -151 -81 -232.5t-217 -81.5z" />
    <glyph glyph-name="V" unicode="V" horiz-adv-x="764" 
d="M764 700l-382 -734l-382 734l141 74l241 -463l241 463z" />
    <glyph glyph-name="W" unicode="W" horiz-adv-x="945" 
d="M955 707l-312 -734l-171 392l-171 -392l-311 734l143 61l170 -402l169 388l169 -388l171 402z" />
    <glyph glyph-name="X" unicode="X" horiz-adv-x="744" 
d="M476 370l258 -308l-122 -102l-240 286l-240 -286l-122 102l258 308l-258 307l122 103l240 -287l240 287l122 -103z" />
    <glyph glyph-name="Y" unicode="Y" horiz-adv-x="766" 
d="M746 694l-284 -405v-289h-159v289l-283 405l130 91l233 -333l233 333z" />
    <glyph glyph-name="Z" unicode="Z" horiz-adv-x="598" 
d="M280 143h295v-143h-544l296 596h-293v143h541z" />
    <glyph glyph-name="bracketleft" unicode="[" horiz-adv-x="326" 
d="M315 845v-100h-83v-814h83v-100h-229v1014h229z" />
    <glyph glyph-name="backslash" unicode="\" horiz-adv-x="490" 
d="M140 851l384 -1057h-140l-384 1057h140z" />
    <glyph glyph-name="bracketright" unicode="]" horiz-adv-x="326" 
d="M94 -69v814h-83v100h229v-1014h-229v100h83z" />
    <glyph glyph-name="asciicircum" unicode="^" horiz-adv-x="603" 
d="M300 467l-116 -196h-164l276 468h10l277 -468h-165z" />
    <glyph glyph-name="underscore" unicode="_" horiz-adv-x="424" 
d="M404 -41v-129h-384v129h384z" />
    <glyph glyph-name="grave" unicode="`" horiz-adv-x="313" 
d="M195 772l68 -189h-116l-97 125z" />
    <glyph glyph-name="a" unicode="a" horiz-adv-x="575" 
d="M385 0l-12 65q-53 -76 -157 -76q-83 0 -133.5 44.5t-50.5 124.5q0 77 63 123t172 46q51 0 99 -13v14q0 45 -28.5 70t-80.5 25q-74 0 -140 -46l-55 111q94 59 207 59q111 0 176 -58.5t65 -159.5v-181q0 -78 10 -148h-135zM256 103q46 0 78 25t32 70v21q-38 10 -79 10
q-108 0 -108 -68q0 -26 19.5 -42t57.5 -16z" />
    <glyph glyph-name="b" unicode="b" horiz-adv-x="688" 
d="M397 547q116 0 183 -80t67 -200q0 -119 -71 -200.5t-181 -81.5q-113 0 -171 87l-6 -72h-145v739h153v-280q62 88 171 88zM357 119q58 0 96 39.5t38 107.5q0 70 -36 108.5t-92 38.5q-58 0 -97.5 -39t-39.5 -108q0 -70 36.5 -108.5t94.5 -38.5z" />
    <glyph glyph-name="c" unicode="c" horiz-adv-x="551" 
d="M317 -15q-123 0 -200 75t-77 205q0 127 81 204.5t205 77.5q115 0 187 -68l-78 -111q-43 43 -102 43t-97.5 -39t-38.5 -108q0 -70 36.5 -106t95.5 -36q62 0 111 45l76 -107q-80 -75 -199 -75z" />
    <glyph glyph-name="d" unicode="d" horiz-adv-x="687" 
d="M613 0h-144l-6 75q-62 -90 -174 -90q-116 0 -182.5 79.5t-66.5 199.5q0 119 70.5 201t180.5 82q111 0 170 -85v277h152v-739zM325 118q57 0 96.5 39t39.5 108q0 71 -36.5 109t-93.5 38q-58 0 -96 -39.5t-38 -107.5q0 -70 36 -108.5t92 -38.5z" />
    <glyph glyph-name="e" unicode="e" horiz-adv-x="614" 
d="M576 254q0 -20 -1 -30h-377q21 -106 137 -106q76 0 136 52l73 -104q-88 -81 -224 -81q-126 0 -203 75t-77 204q0 132 81 208t194 76q117 0 189 -75.5t72 -218.5zM313 425q-43 0 -73 -27.5t-41 -75.5h221q-7 48 -34 75.5t-73 27.5z" />
    <glyph glyph-name="f" unicode="f" horiz-adv-x="443" 
d="M417 531v-129h-151v-402h-153v402h-103l32 129h71v17q0 98 53 152t149 54q84 0 143 -41l-61 -107q-32 24 -66 24q-30 0 -47.5 -19t-17.5 -55v-25h151z" />
    <glyph glyph-name="g" unicode="g" horiz-adv-x="667" 
d="M593 531v-470q0 -144 -80 -213t-215 -69q-94 0 -179 36l44 130q63 -31 132 -31q145 0 145 138v38q-60 -80 -158 -80q-113 0 -177.5 76.5t-64.5 190.5t68.5 192t175.5 78q103 0 159 -80l5 64h145zM313 141q54 0 90.5 36t36.5 101q0 67 -32.5 101t-85.5 34q-55 0 -90 -36
t-35 -99t32.5 -100t83.5 -37z" />
    <glyph glyph-name="h" unicode="h" horiz-adv-x="639" 
d="M392 547q84 0 134.5 -58.5t50.5 -169.5v-319h-152v294q0 113 -94 113q-47 0 -76 -30.5t-29 -95.5v-281h-153v739h153v-273q59 81 166 81z" />
    <glyph glyph-name="i" unicode="i" horiz-adv-x="300" 
d="M149 586q-39 0 -65 23.5t-26 60.5t26 60.5t65 23.5q40 0 66 -23.5t26 -60.5t-26 -60.5t-66 -23.5zM226 531v-531h-152v531h152z" />
    <glyph glyph-name="j" unicode="j" horiz-adv-x="300" 
d="M149 586q-39 0 -65 23.5t-26 60.5t26 60.5t65 23.5q40 0 66 -23.5t26 -60.5t-26 -60.5t-66 -23.5zM-74 -204l37 121q21 -10 46 -10q32 0 48.5 18t16.5 61v545h152v-538q0 -104 -52 -159t-144 -55q-58 0 -104 17z" />
    <glyph glyph-name="k" unicode="k" horiz-adv-x="575" 
d="M226 260v-260h-153v739h153v-446l170 238h179l-195 -245l197 -286h-190z" />
    <glyph glyph-name="l" unicode="l" horiz-adv-x="300" 
d="M226 739v-739h-153v739h153z" />
    <glyph glyph-name="m" unicode="m" horiz-adv-x="967" 
d="M721 547q85 0 134.5 -58t49.5 -169v-320h-153v296q0 111 -87 111q-100 0 -100 -125v-282h-152v296q0 111 -88 111q-99 0 -99 -125v-282h-153v531h145l6 -68q53 84 157 84q113 0 158 -96q61 96 182 96z" />
    <glyph glyph-name="n" unicode="n" horiz-adv-x="638" 
d="M392 547q84 0 134 -58.5t50 -169.5v-319h-153v294q0 60 -23.5 86.5t-69.5 26.5q-47 0 -75.5 -30.5t-28.5 -95.5v-281h-153v531h145l6 -68q60 84 168 84z" />
    <glyph glyph-name="o" unicode="o" horiz-adv-x="648" 
d="M323 -15q-116 0 -199.5 75t-83.5 206q0 132 83.5 206.5t202.5 74.5q116 0 199 -74.5t83 -206.5q0 -131 -83 -206t-202 -75zM323 117q53 0 91 40.5t38 109.5q0 68 -37 108t-89 40q-53 0 -91 -40.5t-38 -109.5q0 -68 36.5 -108t89.5 -40z" />
    <glyph glyph-name="p" unicode="p" horiz-adv-x="687" 
d="M397 547q116 0 182.5 -80t66.5 -200t-70.5 -201t-180.5 -81q-109 0 -169 84v-275h-153v737h145l6 -75q62 91 173 91zM357 119q58 0 95.5 39t37.5 108q0 70 -35.5 108.5t-91.5 38.5q-58 0 -97.5 -39t-39.5 -108q0 -70 36.5 -108.5t94.5 -38.5z" />
    <glyph glyph-name="q" unicode="q" horiz-adv-x="687" 
d="M613 -206h-152v278q-61 -87 -172 -87q-116 0 -182.5 79.5t-66.5 199.5q0 119 70.5 201t180.5 82q113 0 173 -89l6 73h143v-737zM325 118q57 0 96.5 39t39.5 108q0 71 -36.5 109t-93.5 38q-58 0 -96 -39.5t-38 -107.5q0 -70 36 -108.5t92 -38.5z" />
    <glyph glyph-name="r" unicode="r" horiz-adv-x="435" 
d="M218 531l6 -91q59 101 181 101v-154q-78 8 -128.5 -22t-50.5 -104v-261h-153v531h145z" />
    <glyph glyph-name="s" unicode="s" horiz-adv-x="494" 
d="M248 -15q-78 0 -132.5 23t-101.5 67l83 99q67 -66 149 -66q70 0 70 42q0 21 -20.5 34.5t-51.5 19.5t-67.5 17.5t-67.5 25.5t-51.5 46.5t-20.5 78.5q0 79 61.5 126.5t158.5 47.5q126 0 207 -74l-75 -100q-59 52 -128 52q-32 0 -51 -11.5t-19 -30.5q0 -21 28.5 -33.5
t69.5 -21.5t82.5 -24t70 -50.5t28.5 -89.5q0 -82 -64.5 -130t-157.5 -48z" />
    <glyph glyph-name="t" unicode="t" horiz-adv-x="474" 
d="M402 143l49 -117q-68 -41 -143 -41q-88 0 -141.5 47t-53.5 152v218h-103l32 129h71v134h153v-134h172v-129h-172v-216q0 -64 64 -64q38 0 72 21z" />
    <glyph glyph-name="u" unicode="u" horiz-adv-x="638" 
d="M565 0h-145l-6 69q-59 -84 -168 -84q-84 0 -134 58.5t-50 168.5v319h153v-294q0 -60 23.5 -86.5t69.5 -26.5q47 0 75.5 31t28.5 96v280h153v-531z" />
    <glyph glyph-name="v" unicode="v" horiz-adv-x="586" 
d="M304 -11h-22l-284 542h176l122 -274l119 274h173z" />
    <glyph glyph-name="w" unicode="w" horiz-adv-x="791" 
d="M548 -11h-22l-131 285l-131 -285h-23l-240 542h166l98 -248l120 251h22l125 -251l93 248h166z" />
    <glyph glyph-name="x" unicode="x" horiz-adv-x="564" 
d="M277 165l-107 -165h-172l195 271l-187 260h184l92 -148l93 148h172l-181 -252l200 -279h-183z" />
    <glyph glyph-name="y" unicode="y" horiz-adv-x="581" 
d="M347 0l-86 -206h-159l116 269l-216 468h173l121 -300l118 300h165z" />
    <glyph glyph-name="z" unicode="z" horiz-adv-x="480" 
d="M245 130h207v-130h-432v22l219 380h-222l31 129h418v-21z" />
    <glyph glyph-name="braceleft" unicode="{" horiz-adv-x="380" 
d="M369 -69v-97q-119 2 -186 58t-67 135q0 38 17.5 95.5t17.5 84.5q0 47 -25 72t-92 49v21q67 26 92 50t25 70q0 28 -17.5 85.5t-17.5 96.5q0 80 67 135t186 56v-95q-105 -4 -105 -96q0 -27 18 -85t18 -97q0 -44 -23.5 -71.5t-80.5 -58.5q57 -32 80.5 -59.5t23.5 -72.5
q0 -39 -18 -96t-18 -84q0 -93 105 -96z" />
    <glyph glyph-name="bar" unicode="|" horiz-adv-x="393" 
d="M263 -206h-134v1057h134v-1057z" />
    <glyph glyph-name="braceright" unicode="}" horiz-adv-x="380" 
d="M11 -166v97q105 3 105 96q0 27 -18 84t-18 96q0 45 23.5 72.5t80.5 59.5q-57 31 -80.5 58.5t-23.5 71.5q0 39 18 97t18 85q0 92 -105 96v95q119 -1 186 -56t67 -135q0 -39 -17.5 -96.5t-17.5 -85.5q0 -46 25 -70t92 -50v-21q-67 -24 -92 -49t-25 -72q0 -27 17.5 -84.5
t17.5 -95.5q0 -79 -67 -135t-186 -58z" />
    <glyph glyph-name="asciitilde" unicode="~" horiz-adv-x="696" 
d="M452 250q-33 0 -66 20.5t-55.5 44.5t-47.5 44.5t-43 20.5q-27 0 -43.5 -33t-16.5 -89h-130q0 127 55 203t142 76q32 0 64.5 -21t54.5 -45.5t47 -45.5t43 -21q26 0 42.5 35t17.5 92h130q0 -128 -54 -204.5t-140 -76.5z" />
    <glyph glyph-name="uni00A0" unicode="&#xa0;" horiz-adv-x="254" 
 />
    <glyph glyph-name="exclamdown" unicode="&#xa1;" horiz-adv-x="300" 
d="M150 377q-38 0 -62.5 24t-24.5 61t24.5 61t62.5 24t63 -24t25 -61t-25 -61t-63 -24zM208 310l30 -513h-176l30 513h116z" />
    <glyph glyph-name="cent" unicode="&#xa2;" horiz-adv-x="546" 
d="M447 272l76 -107q-61 -58 -145 -71v-94h-142v101q-87 25 -138 95t-51 174q0 100 51.5 170.5t137.5 97.5v101h142v-90q85 -11 142 -65l-78 -110q-43 42 -102 42t-97.5 -39t-38.5 -108q0 -70 37 -106t95 -36q61 0 111 45z" />
    <glyph glyph-name="sterling" unicode="&#xa3;" horiz-adv-x="631" 
d="M307 273q0 -75 -37 -126h322v-147h-556v21q67 69 90 115.5t23 113.5q0 15 -4 43h-101v109h66q-17 60 -17 113q0 105 76.5 172t202.5 67q149 0 236 -106l-96 -108q-51 66 -133 66q-59 0 -90 -31t-31 -83q0 -35 19 -90h218v-109h-189q1 -6 1 -20z" />
    <glyph glyph-name="currency" unicode="&#xa4;" horiz-adv-x="739" 
d="M628 389q0 -76 -32 -134l88 -86l-94 -94l-87 87q-59 -31 -133 -31q-75 0 -134 31l-87 -87l-93 94l86 86q-32 58 -32 134t32 134l-86 86l93 94l86 -86q59 31 135 31q75 0 134 -31l86 86l94 -94l-87 -86q31 -59 31 -134zM244 389q0 -56 34.5 -91t91.5 -35q56 0 91 35t35 91
t-35 91t-91 35q-57 0 -91.5 -35t-34.5 -91z" />
    <glyph glyph-name="yen" unicode="&#xa5;" horiz-adv-x="713" 
d="M621 390v-105h-185v-67h185v-105h-185v-113h-158v113h-185v105h185v67h-185v105h142l-232 349h192l164 -271l164 271h187l-234 -349h145z" />
    <glyph glyph-name="brokenbar" unicode="&#xa6;" horiz-adv-x="393" 
d="M263 455h-134v396h134v-396zM263 -206h-134v396h134v-396z" />
    <glyph glyph-name="section" unicode="&#xa7;" horiz-adv-x="528" 
d="M480 365h-143q0 21 -21.5 33.5t-54 17t-70.5 14.5t-70.5 24t-54 47t-21.5 81q0 78 62 125t160 47q132 0 212 -83l-79 -92q-53 58 -131 58q-80 0 -80 -48q0 -18 21.5 -29.5t54 -17t70 -16.5t70 -26.5t54 -50t21.5 -84.5zM266 -15q-150 0 -241 93l83 96q39 -39 75 -55
t82 -16q32 0 54.5 12t22.5 38q0 19 -16 30.5t-42 18t-57 12.5t-62 16.5t-57 27t-42 47t-16 73.5h144q0 -21 30 -32t72.5 -19t85 -22t72.5 -50.5t30 -94.5q0 -80 -63 -127.5t-155 -47.5z" />
    <glyph glyph-name="dieresis" unicode="&#xa8;" horiz-adv-x="446" 
d="M127 586q-34 0 -55.5 22t-21.5 57q0 33 21.5 55.5t55.5 22.5t55.5 -22.5t21.5 -55.5q0 -35 -21.5 -57t-55.5 -22zM320 586q-34 0 -55.5 22t-21.5 57q0 33 21.5 55.5t55.5 22.5t55 -22.5t21 -55.5q0 -36 -20.5 -57.5t-55.5 -21.5z" />
    <glyph glyph-name="copyright" unicode="&#xa9;" horiz-adv-x="849" 
d="M425 -15q-166 0 -272 107.5t-106 277.5q0 169 106 277t272 108q165 0 270.5 -108t105.5 -277t-105.5 -277t-270.5 -108zM425 59q133 0 216 86t83 225q0 138 -83 224t-216 86q-134 0 -217.5 -85.5t-83.5 -224.5t83.5 -225t217.5 -86zM427 138q-97 0 -158 64.5t-61 167.5
q0 105 62.5 168.5t162.5 63.5q112 0 178 -88l-84 -74q-37 46 -92 46q-49 0 -76.5 -31t-27.5 -85q0 -51 27.5 -82.5t72.5 -31.5q63 0 98 54l78 -82q-72 -90 -180 -90z" />
    <glyph glyph-name="ordfeminine" unicode="&#xaa;" horiz-adv-x="441" 
d="M394 361h-106q-2 7 -4.5 21l-3.5 20q-38 -50 -113 -50q-61 0 -99 32.5t-38 89.5q0 56 47 88.5t129 32.5q32 0 68 -8v3q0 29 -20 44.5t-57 15.5q-55 0 -102 -31l-44 87q73 42 155 42q83 0 132 -42t49 -116v-127q0 -49 7 -102zM197 442q33 0 55 15t22 47v7q-26 6 -54 6
q-76 0 -76 -42q0 -14 13.5 -23.5t39.5 -9.5z" />
    <glyph glyph-name="guillemotleft" unicode="&#xab;" horiz-adv-x="639" 
d="M206 502h121l-126 -222l126 -222h-121l-184 222zM486 502h121l-126 -222l126 -222h-121l-184 222z" />
    <glyph glyph-name="logicalnot" unicode="&#xac;" horiz-adv-x="620" 
d="M430 109v228h-400v140h540v-368h-140z" />
    <glyph glyph-name="softhyphen" unicode="&#xad;" horiz-adv-x="357" 
d="M306 239h-255v129h255v-129z" />
    <glyph glyph-name="registered" unicode="&#xae;" horiz-adv-x="517" 
d="M258 739q98 0 161.5 -63t63.5 -161t-63.5 -161.5t-161.5 -63.5t-161.5 63.5t-63.5 161.5q0 97 63.5 160.5t161.5 63.5zM258 358q70 0 113 43.5t43 113.5t-43 113.5t-113 43.5q-69 0 -112.5 -43.5t-43.5 -113.5t43.5 -113.5t112.5 -43.5zM345 549q0 -44 -38 -59l55 -76
h-75l-44 67h-2v-67h-61v202h83q38 0 60 -18t22 -49zM241 535h15q28 0 28 14q0 12 -23 12h-20v-26z" />
    <glyph glyph-name="macron" unicode="&#xaf;" horiz-adv-x="394" 
d="M344 717v-117h-294v117h294z" />
    <glyph glyph-name="degree" unicode="&#xb0;" horiz-adv-x="500" 
d="M254 344q-94 0 -154 58.5t-60 147.5q0 91 58 147t151 56q91 0 151 -58t60 -147q0 -87 -59.5 -145.5t-146.5 -58.5zM254 461q34 0 57.5 25t23.5 62q0 39 -24 64t-62 25t-61 -24t-23 -63t25 -64t64 -25z" />
    <glyph glyph-name="plusminus" unicode="&#xb1;" horiz-adv-x="602" 
d="M552 363h-182v-162h-140v162h-180v134h180v163h140v-163h182v-134zM552 133v-133h-502v133h502z" />
    <glyph glyph-name="twosuperior" unicode="&#xb2;" horiz-adv-x="375" 
d="M337 539h-312v13l128 141q37 39 49.5 58.5t12.5 35.5t-12 25.5t-35 9.5q-45 0 -80 -47l-66 66q57 77 156 77q75 0 110 -36t35 -85q0 -68 -90 -152l-11 -10h115v-96z" />
    <glyph glyph-name="threesuperior" unicode="&#xb3;" horiz-adv-x="390" 
d="M190 531q-104 0 -163 64l63 73q38 -41 92 -41q57 0 57 45q0 32 -38.5 41t-77.5 -8l-17 34l70 75h-139v95h311v-26l-103 -109q44 -5 71.5 -35.5t27.5 -77.5q0 -59 -40 -94.5t-114 -35.5z" />
    <glyph glyph-name="acute" unicode="&#xb4;" horiz-adv-x="313" 
d="M263 708l-96 -125h-117l68 189z" />
    <glyph glyph-name="uni00B5" unicode="&#xb5;" horiz-adv-x="645" 
d="M571 0h-136l-7 53q-40 -63 -120 -63q-54 0 -90 28l1 -224h-146v737h151v-283q0 -124 97 -124q101 0 101 130v277h149v-531z" />
    <glyph glyph-name="paragraph" unicode="&#xb6;" horiz-adv-x="706" 
d="M383 285h-73q-124 0 -195.5 58t-71.5 167q0 114 75.5 171.5t211.5 57.5h53v-454zM620 739v-739h-157v739h157z" />
    <glyph glyph-name="periodcentered" unicode="&#xb7;" horiz-adv-x="292" 
d="M146 211q-41 0 -68 26t-27 66t27 66t68 26t68.5 -26t27.5 -66t-27.5 -66t-68.5 -26z" />
    <glyph glyph-name="cedilla" unicode="&#xb8;" horiz-adv-x="277" 
d="M227 -59l-68 -147h-109l35 147h142z" />
    <glyph glyph-name="onesuperior" unicode="&#xb9;" horiz-adv-x="321" 
d="M64 742l-37 85l204 89h14v-377h-104v234z" />
    <glyph glyph-name="ordmasculine" unicode="&#xba;" horiz-adv-x="485" 
d="M240 352q-82 0 -141 52t-59 145q0 95 59.5 147t144.5 52q82 0 141.5 -52.5t59.5 -146.5q0 -93 -59.5 -145t-145.5 -52zM240 454q33 0 57 25.5t24 70.5q0 44 -23 69.5t-54 25.5q-32 0 -56.5 -25.5t-24.5 -70.5q0 -44 23 -69.5t54 -25.5z" />
    <glyph glyph-name="guillemotright" unicode="&#xbb;" horiz-adv-x="639" 
d="M32 502h121l184 -222l-184 -222h-121l126 222zM312 502h121l184 -222l-184 -222h-121l126 222z" />
    <glyph glyph-name="onequarter" unicode="&#xbc;" horiz-adv-x="838" 
d="M64 572l-37 85l204 89h14v-377h-104v234zM693 739l-462 -739h-135l462 739h135zM749 58v-58h-96v58h-236v12l230 300h102v-228h62v-84h-62zM653 246l-80 -104h80v104z" />
    <glyph glyph-name="onehalf" unicode="&#xbd;" horiz-adv-x="844" 
d="M64 572l-37 85l204 89h14v-377h-104v234zM693 739l-462 -739h-135l462 739h135zM806 0h-312v13l128 141q37 39 49.5 58.5t12.5 35.5t-12 25.5t-35 9.5q-45 0 -80 -47l-66 66q57 77 156 77q75 0 110 -36t35 -85q0 -68 -90 -152l-11 -10h115v-96z" />
    <glyph glyph-name="threequarters" unicode="&#xbe;" horiz-adv-x="907" 
d="M190 361q-104 0 -163 64l63 73q38 -41 92 -41q57 0 57 45q0 32 -38.5 41t-77.5 -8l-17 34l70 75h-139v95h311v-26l-103 -109q44 -5 71.5 -35.5t27.5 -77.5q0 -59 -40 -94.5t-114 -35.5zM762 739l-462 -739h-135l462 739h135zM818 58v-58h-96v58h-236v12l230 300h102v-228
h62v-84h-62zM722 246l-80 -104h80v104z" />
    <glyph glyph-name="questiondown" unicode="&#xbf;" horiz-adv-x="509" 
d="M305 377q-37 0 -61.5 24t-24.5 61t24.5 61t61.5 24q38 0 62.5 -24t24.5 -61t-24.5 -61t-62.5 -24zM286 -218q-122 0 -184 61t-62 157q0 44 15 79.5t38 56t49.5 41t49.5 35.5t38 37t15 48v13h136v-24q0 -50 -18.5 -86.5t-45.5 -57.5t-54 -39t-45.5 -41.5t-18.5 -53.5
q0 -37 24.5 -61t75.5 -24q87 0 144 72l94 -104q-96 -109 -251 -109z" />
    <glyph glyph-name="Agrave" unicode="&#xc0;" horiz-adv-x="856" 
d="M276 916l145 64l68 -189h-116zM728 -48l128 74l-428 742l-428 -742l128 -74l90 157h420zM304 257l124 215l124 -215h-248z" />
    <glyph glyph-name="Aacute" unicode="&#xc1;" horiz-adv-x="856" 
d="M367 791l68 189l145 -64l-96 -125h-117zM728 -48l128 74l-428 742l-428 -742l128 -74l90 157h420zM304 257l124 215l124 -215h-248z" />
    <glyph glyph-name="Acircumflex" unicode="&#xc2;" horiz-adv-x="856" 
d="M254 791l86 156h173l87 -156h-116l-57 70l-58 -70h-115zM728 -48l128 74l-428 742l-428 -742l128 -74l90 157h420zM304 257l124 215l124 -215h-248z" />
    <glyph glyph-name="Atilde" unicode="&#xc3;" horiz-adv-x="856" 
d="M375 834q-22 0 -32 -40l-98 25q11 63 37.5 95.5t63.5 32.5q31 0 67 -17t47 -17q23 0 33 39l98 -25q-11 -63 -37.5 -95.5t-64.5 -32.5q-31 0 -66.5 17.5t-47.5 17.5zM728 -58l128 74l-428 742l-428 -742l128 -74l90 157h420zM304 247l124 215l124 -215h-248z" />
    <glyph glyph-name="Adieresis" unicode="&#xc4;" horiz-adv-x="856" 
d="M331 794q-34 0 -55.5 22t-21.5 57q0 33 21.5 55.5t55.5 22.5t55.5 -22.5t21.5 -55.5q0 -35 -21.5 -57t-55.5 -22zM524 794q-34 0 -55.5 22t-21.5 57q0 33 21.5 55.5t55.5 22.5t55 -22.5t21 -55.5q0 -36 -20.5 -57.5t-55.5 -21.5zM728 -48l128 74l-428 742l-428 -742
l128 -74l90 157h420zM304 257l124 215l124 -215h-248z" />
    <glyph glyph-name="Aring" unicode="&#xc5;" horiz-adv-x="856" 
d="M428 781q-60 0 -97.5 36.5t-37.5 92.5t38 92t96 36q60 0 98 -36.5t38 -91.5q0 -56 -38 -92.5t-97 -36.5zM427 960q-21 0 -35 -14t-14 -36q0 -23 14 -37t36 -14q21 0 35 14t14 37t-14 36.5t-36 13.5zM728 -48l128 74l-428 742l-428 -742l128 -74l90 157h420zM304 257
l124 215l124 -215h-248z" />
    <glyph glyph-name="AE" unicode="&#xc6;" horiz-adv-x="975" 
d="M915 0h-441v177h-212l-86 -177h-179l391 739h516v-143h-274v-143h259v-140h-259v-170h285v-143zM474 594h-8l-138 -283h146v283z" />
    <glyph glyph-name="Ccedilla" unicode="&#xc7;" horiz-adv-x="733" 
d="M604 202l105 -105q-115 -113 -273 -113q-159 0 -272 113t-113 273t113 273t272 113q158 0 273 -113l-105 -105q-69 69 -168 69q-100 0 -167 -69q-70 -70 -70 -168t70 -168q67 -69 167 -69q99 0 168 69zM498 -59l-68 -147h-109l35 147h142z" />
    <glyph glyph-name="Egrave" unicode="&#xc8;" horiz-adv-x="621" 
d="M167 916l145 64l68 -189h-116zM561 0h-475v739h464v-143h-307v-143h292v-141h-292v-169h318v-143z" />
    <glyph glyph-name="Eacute" unicode="&#xc9;" horiz-adv-x="621" 
d="M258 791l68 189l145 -64l-96 -125h-117zM561 0h-475v739h464v-143h-307v-143h292v-141h-292v-169h318v-143z" />
    <glyph glyph-name="Ecircumflex" unicode="&#xca;" horiz-adv-x="621" 
d="M146 791l86 156h173l87 -156h-116l-57 70l-58 -70h-115zM561 0h-475v739h464v-143h-307v-143h292v-141h-292v-169h318v-143z" />
    <glyph glyph-name="Edieresis" unicode="&#xcb;" horiz-adv-x="621" 
d="M223 794q-34 0 -55.5 22t-21.5 57q0 33 21.5 55.5t55.5 22.5t55.5 -22.5t21.5 -55.5q0 -35 -21.5 -57t-55.5 -22zM416 794q-34 0 -55.5 22t-21.5 57q0 33 21.5 55.5t55.5 22.5t55 -22.5t21 -55.5q0 -36 -20.5 -57.5t-55.5 -21.5zM561 0h-475v739h464v-143h-307v-143h292
v-141h-292v-169h318v-143z" />
    <glyph glyph-name="Igrave" unicode="&#xcc;" horiz-adv-x="332" 
d="M158 980l68 -189h-116l-97 125zM245 739v-739h-159v739h159z" />
    <glyph glyph-name="Iacute" unicode="&#xcd;" horiz-adv-x="332" 
d="M317 916l-96 -125h-117l68 189zM245 739v-739h-159v739h159z" />
    <glyph glyph-name="Icircumflex" unicode="&#xce;" horiz-adv-x="332" 
d="M-8 791l86 156h173l87 -156h-116l-57 70l-58 -70h-115zM245 739v-739h-159v739h159z" />
    <glyph glyph-name="Idieresis" unicode="&#xcf;" horiz-adv-x="332" 
d="M68 794q-34 0 -55.5 22t-21.5 57q0 33 21.5 55.5t55.5 22.5t55.5 -22.5t21.5 -55.5q0 -35 -21.5 -57t-55.5 -22zM261 794q-34 0 -55.5 22t-21.5 57q0 33 21.5 55.5t55.5 22.5t55 -22.5t21 -55.5q0 -36 -20.5 -57.5t-55.5 -21.5zM245 739v-739h-159v739h159z" />
    <glyph glyph-name="Eth" unicode="&#xd0;" horiz-adv-x="767" 
d="M86 739h263q154 0 262 -108t108 -261q0 -154 -108 -262t-262 -108h-263v739zM243 144h86q94 0 160 66t66 160q0 93 -66 159t-160 66h-86v-451z" />
    <glyph glyph-name="Ntilde" unicode="&#xd1;" horiz-adv-x="761" 
d="M302 834q-22 0 -32 -40l-98 25q11 63 37.5 95.5t63.5 32.5q31 0 67 -17t47 -17q23 0 33 39l98 -25q-11 -63 -37.5 -95.5t-64.5 -32.5q-31 0 -66.5 17.5t-47.5 17.5zM675 -23l-430 411v-388h-159v764l429 -411v386h160v-762z" />
    <glyph glyph-name="Ograve" unicode="&#xd2;" horiz-adv-x="862" 
d="M424 980l68 -189h-116l-97 125zM430 756q160 0 273 -113t113 -273t-113 -273t-273 -113t-273 113t-113 273t113 273t273 113zM430 607q-99 0 -168 -69t-69 -168t69 -168t168 -69t168 69t69 168t-69 168t-168 69z" />
    <glyph glyph-name="Oacute" unicode="&#xd3;" horiz-adv-x="862" 
d="M583 916l-96 -125h-117l68 189zM430 756q160 0 273 -113t113 -273t-113 -273t-273 -113t-273 113t-113 273t113 273t273 113zM430 607q-99 0 -168 -69t-69 -168t69 -168t168 -69t168 69t69 168t-69 168t-168 69z" />
    <glyph glyph-name="Ocircumflex" unicode="&#xd4;" horiz-adv-x="862" 
d="M258 791l86 156h173l87 -156h-116l-57 70l-58 -70h-115zM430 756q160 0 273 -113t113 -273t-113 -273t-273 -113t-273 113t-113 273t113 273t273 113zM430 607q-99 0 -168 -69t-69 -168t69 -168t168 -69t168 69t69 168t-69 168t-168 69z" />
    <glyph glyph-name="Otilde" unicode="&#xd5;" horiz-adv-x="862" 
d="M346 794l-98 25q11 63 37.5 95.5t63.5 32.5q31 0 67 -17t47 -17q23 0 33 39l98 -25q-11 -63 -37.5 -95.5t-64.5 -32.5q-31 0 -66.5 17.5t-47.5 17.5q-22 0 -32 -40zM430 756q160 0 273 -113t113 -273t-113 -273t-273 -113t-273 113t-113 273t113 273t273 113zM430 607
q-99 0 -168 -69t-69 -168t69 -168t168 -69t168 69t69 168t-69 168t-168 69z" />
    <glyph glyph-name="Odieresis" unicode="&#xd6;" horiz-adv-x="862" 
d="M334 794q-34 0 -55.5 22t-21.5 57q0 33 21.5 55.5t55.5 22.5t55.5 -22.5t21.5 -55.5q0 -35 -21.5 -57t-55.5 -22zM527 794q-34 0 -55.5 22t-21.5 57q0 33 21.5 55.5t55.5 22.5t55 -22.5t21 -55.5q0 -36 -20.5 -57.5t-55.5 -21.5zM430 756q160 0 273 -113t113 -273
t-113 -273t-273 -113t-273 113t-113 273t113 273t273 113zM430 607q-99 0 -168 -69t-69 -168t69 -168t168 -69t168 69t69 168t-69 168t-168 69z" />
    <glyph glyph-name="multiply" unicode="&#xd7;" horiz-adv-x="579" 
d="M290 210l-151 -151l-99 99l151 150l-151 150l99 99l151 -150l150 150l98 -99l-150 -150l151 -150l-99 -98z" />
    <glyph glyph-name="Oslash" unicode="&#xd8;" horiz-adv-x="862" 
d="M757 667l-35 -40q92 -104 92 -259q0 -92 -34 -167t-90 -121t-123.5 -71t-138.5 -25q-113 0 -207 58l-34 -40l-82 70l33 39q-91 104 -91 257q0 94 33.5 170t89 122t122 70.5t136.5 24.5q115 0 211 -59l35 41zM212 368q0 -75 34 -132l290 340q-48 26 -108 26
q-89 0 -152.5 -59.5t-63.5 -174.5zM428 138q88 0 155 60t67 170q0 77 -34 134l-291 -339q47 -25 103 -25z" />
    <glyph glyph-name="Ugrave" unicode="&#xd9;" horiz-adv-x="747" 
d="M367 980l68 -189h-116l-97 125zM374 -15q-137 0 -219 81.5t-82 232.5l2 440h158l-1 -425q-1 -176 141 -176q140 0 140 176l1 425h159l-1 -440q0 -151 -81 -232.5t-217 -81.5z" />
    <glyph glyph-name="Uacute" unicode="&#xda;" horiz-adv-x="747" 
d="M526 916l-96 -125h-117l68 189zM374 -15q-137 0 -219 81.5t-82 232.5l2 440h158l-1 -425q-1 -176 141 -176q140 0 140 176l1 425h159l-1 -440q0 -151 -81 -232.5t-217 -81.5z" />
    <glyph glyph-name="Ucircumflex" unicode="&#xdb;" horiz-adv-x="747" 
d="M200 791l86 156h173l87 -156h-116l-57 70l-58 -70h-115zM673 739l-1 -440q0 -151 -81 -232.5t-217 -81.5q-137 0 -219 81.5t-82 232.5l2 440h158l-1 -425q-1 -176 141 -176q140 0 140 176l1 425h159z" />
    <glyph glyph-name="Udieresis" unicode="&#xdc;" horiz-adv-x="747" 
d="M277 794q-34 0 -55.5 22t-21.5 57q0 33 21.5 55.5t55.5 22.5t55.5 -22.5t21.5 -55.5q0 -35 -21.5 -57t-55.5 -22zM470 794q-34 0 -55.5 22t-21.5 57q0 33 21.5 55.5t55.5 22.5t55 -22.5t21 -55.5q0 -36 -20.5 -57.5t-55.5 -21.5zM374 -15q-137 0 -219 81.5t-82 232.5
l2 440h158l-1 -425q-1 -176 141 -176q140 0 140 176l1 425h159l-1 -440q0 -151 -81 -232.5t-217 -81.5z" />
    <glyph glyph-name="Yacute" unicode="&#xdd;" horiz-adv-x="706" 
d="M408 791h-117l68 189l145 -64zM716 694l-284 -405v-289h-159v289l-283 405l130 91l233 -333l233 333z" />
    <glyph glyph-name="Thorn" unicode="&#xde;" horiz-adv-x="669" 
d="M245 621h90q134 0 213 -65t79 -179q0 -124 -83 -187t-231 -63h-68v-127h-159v739h159v-118zM245 265h67q77 0 113.5 25.5t36.5 86.5q0 54 -33 77.5t-100 23.5h-84v-213z" />
    <glyph glyph-name="germandbls" unicode="&#xdf;" horiz-adv-x="674" 
d="M480 400q169 -91 169 -226q0 -88 -58.5 -138.5t-155.5 -50.5q-78 0 -149 31l43 118q46 -26 93 -26q32 0 51.5 17t19.5 45q0 48 -39.5 93.5t-149.5 103.5v21q63 47 89.5 83t26.5 75q0 37 -25 60.5t-65 23.5q-104 0 -104 -142v-488h-153v486q0 127 68.5 197.5t190.5 70.5
q118 0 181.5 -57.5t63.5 -146.5q0 -87 -97 -150z" />
    <glyph glyph-name="agrave" unicode="&#xe0;" horiz-adv-x="575" 
d="M120 709l145 64l68 -189h-116zM385 0l-12 65q-53 -76 -157 -76q-83 0 -133.5 44.5t-50.5 124.5q0 77 63 123t172 46q51 0 99 -13v14q0 45 -28.5 70t-80.5 25q-74 0 -140 -46l-55 111q94 59 207 59q111 0 176 -58.5t65 -159.5v-181q0 -78 10 -148h-135zM256 103
q46 0 78 25t32 70v21q-38 10 -79 10q-108 0 -108 -68q0 -26 19.5 -42t57.5 -16z" />
    <glyph glyph-name="aacute" unicode="&#xe1;" horiz-adv-x="575" 
d="M211 584l68 189l145 -64l-96 -125h-117zM385 0l-12 65q-53 -76 -157 -76q-83 0 -133.5 44.5t-50.5 124.5q0 77 63 123t172 46q51 0 99 -13v14q0 45 -28.5 70t-80.5 25q-74 0 -140 -46l-55 111q94 59 207 59q111 0 176 -58.5t65 -159.5v-181q0 -78 10 -148h-135zM256 103
q46 0 78 25t32 70v21q-38 10 -79 10q-108 0 -108 -68q0 -26 19.5 -42t57.5 -16z" />
    <glyph glyph-name="acircumflex" unicode="&#xe2;" horiz-adv-x="575" 
d="M99 584l86 156h173l87 -156h-116l-57 70l-58 -70h-115zM385 0l-12 65q-53 -76 -157 -76q-83 0 -133.5 44.5t-50.5 124.5q0 77 63 123t172 46q51 0 99 -13v14q0 45 -28.5 70t-80.5 25q-74 0 -140 -46l-55 111q94 59 207 59q111 0 176 -58.5t65 -159.5v-181q0 -78 10 -148
h-135zM256 103q46 0 78 25t32 70v21q-38 10 -79 10q-108 0 -108 -68q0 -26 19.5 -42t57.5 -16z" />
    <glyph glyph-name="atilde" unicode="&#xe3;" horiz-adv-x="575" 
d="M219 627q-22 0 -32 -40l-98 25q11 63 37.5 95.5t63.5 32.5q31 0 67 -17t47 -17q23 0 33 39l98 -25q-11 -63 -37.5 -95.5t-64.5 -32.5q-31 0 -66.5 17.5t-47.5 17.5zM385 0l-12 65q-53 -76 -157 -76q-83 0 -133.5 44.5t-50.5 124.5q0 77 63 123t172 46q51 0 99 -13v14
q0 45 -28.5 70t-80.5 25q-74 0 -140 -46l-55 111q94 59 207 59q111 0 176 -58.5t65 -159.5v-181q0 -78 10 -148h-135zM256 103q46 0 78 25t32 70v21q-38 10 -79 10q-108 0 -108 -68q0 -26 19.5 -42t57.5 -16z" />
    <glyph glyph-name="adieresis" unicode="&#xe4;" horiz-adv-x="575" 
d="M176 587q-34 0 -55.5 22t-21.5 57q0 33 21.5 55.5t55.5 22.5t55.5 -22.5t21.5 -55.5q0 -35 -21.5 -57t-55.5 -22zM369 587q-34 0 -55.5 22t-21.5 57q0 33 21.5 55.5t55.5 22.5t55 -22.5t21 -55.5q0 -36 -20.5 -57.5t-55.5 -21.5zM385 0l-12 65q-53 -76 -157 -76
q-83 0 -133.5 44.5t-50.5 124.5q0 77 63 123t172 46q51 0 99 -13v14q0 45 -28.5 70t-80.5 25q-74 0 -140 -46l-55 111q94 59 207 59q111 0 176 -58.5t65 -159.5v-181q0 -78 10 -148h-135zM256 103q46 0 78 25t32 70v21q-38 10 -79 10q-108 0 -108 -68q0 -26 19.5 -42
t57.5 -16z" />
    <glyph glyph-name="aring" unicode="&#xe5;" horiz-adv-x="575" 
d="M273 574q-60 0 -97.5 36.5t-37.5 92.5t38 92t96 36q60 0 98 -36.5t38 -91.5q0 -56 -38 -92.5t-97 -36.5zM272 753q-21 0 -35 -14t-14 -36q0 -23 14 -37t36 -14q21 0 35 14t14 37t-14 36.5t-36 13.5zM385 0l-12 65q-53 -76 -157 -76q-83 0 -133.5 44.5t-50.5 124.5
q0 77 63 123t172 46q51 0 99 -13v14q0 45 -28.5 70t-80.5 25q-74 0 -140 -46l-55 111q94 59 207 59q111 0 176 -58.5t65 -159.5v-181q0 -78 10 -148h-135zM256 103q46 0 78 25t32 70v21q-38 10 -79 10q-108 0 -108 -68q0 -26 19.5 -42t57.5 -16z" />
    <glyph glyph-name="ae" unicode="&#xe6;" horiz-adv-x="921" 
d="M622 548q124 0 197 -84.5t63 -243.5h-375q22 -102 138 -102q73 0 133 56l75 -107q-90 -82 -223 -82q-132 0 -203 93q-62 -89 -194 -89q-91 0 -146 44.5t-55 124.5q0 78 64 124t173 46q47 0 91 -11v9q0 48 -26.5 73t-73.5 25q-70 0 -132 -46l-58 110q88 58 200 58
q120 0 177 -71q70 73 175 73zM622 425q-43 0 -73 -26t-41 -73l220 -1q-17 100 -106 100zM256 101q44 0 74 25.5t30 73.5v21q-33 9 -73 9q-108 0 -108 -68q0 -61 77 -61z" />
    <glyph glyph-name="ccedilla" unicode="&#xe7;" horiz-adv-x="551" 
d="M317 -15q-123 0 -200 75t-77 205q0 127 81 204.5t205 77.5q115 0 187 -68l-78 -111q-43 43 -102 43t-97.5 -39t-38.5 -108q0 -70 36.5 -106t95.5 -36q62 0 111 45l76 -107q-80 -75 -199 -75zM390 -59l-68 -147h-109l35 147h142z" />
    <glyph glyph-name="egrave" unicode="&#xe8;" horiz-adv-x="614" 
d="M158 708l145 64l68 -189h-116zM576 254q0 -20 -1 -30h-377q21 -106 137 -106q76 0 136 52l73 -104q-88 -81 -224 -81q-126 0 -203 75t-77 204q0 132 81 208t194 76q117 0 189 -75.5t72 -218.5zM313 425q-43 0 -73 -27.5t-41 -75.5h221q-7 48 -34 75.5t-73 27.5z" />
    <glyph glyph-name="eacute" unicode="&#xe9;" horiz-adv-x="614" 
d="M249 583l68 189l145 -64l-96 -125h-117zM576 254q0 -20 -1 -30h-377q21 -106 137 -106q76 0 136 52l73 -104q-88 -81 -224 -81q-126 0 -203 75t-77 204q0 132 81 208t194 76q117 0 189 -75.5t72 -218.5zM313 425q-43 0 -73 -27.5t-41 -75.5h221q-7 48 -34 75.5t-73 27.5z
" />
    <glyph glyph-name="ecircumflex" unicode="&#xea;" horiz-adv-x="614" 
d="M137 583l86 156h173l87 -156h-116l-57 70l-58 -70h-115zM576 254q0 -20 -1 -30h-377q21 -106 137 -106q76 0 136 52l73 -104q-88 -81 -224 -81q-126 0 -203 75t-77 204q0 132 81 208t194 76q117 0 189 -75.5t72 -218.5zM313 425q-43 0 -73 -27.5t-41 -75.5h221
q-7 48 -34 75.5t-73 27.5z" />
    <glyph glyph-name="edieresis" unicode="&#xeb;" horiz-adv-x="614" 
d="M214 586q-34 0 -55.5 22t-21.5 57q0 33 21.5 55.5t55.5 22.5t55.5 -22.5t21.5 -55.5q0 -35 -21.5 -57t-55.5 -22zM407 586q-34 0 -55.5 22t-21.5 57q0 33 21.5 55.5t55.5 22.5t55 -22.5t21 -55.5q0 -36 -20.5 -57.5t-55.5 -21.5zM576 254q0 -20 -1 -30h-377
q21 -106 137 -106q76 0 136 52l73 -104q-88 -81 -224 -81q-126 0 -203 75t-77 204q0 132 81 208t194 76q117 0 189 -75.5t72 -218.5zM313 425q-43 0 -73 -27.5t-41 -75.5h221q-7 48 -34 75.5t-73 27.5z" />
    <glyph glyph-name="igrave" unicode="&#xec;" horiz-adv-x="300" 
d="M142 772l68 -189h-116l-97 125zM226 531v-531h-153v531h153z" />
    <glyph glyph-name="iacute" unicode="&#xed;" horiz-adv-x="300" 
d="M301 708l-96 -125h-117l68 189zM226 531v-531h-153v531h153z" />
    <glyph glyph-name="icircumflex" unicode="&#xee;" horiz-adv-x="300" 
d="M-24 583l86 156h173l87 -156h-116l-57 70l-58 -70h-115zM226 531v-531h-153v531h153z" />
    <glyph glyph-name="idieresis" unicode="&#xef;" horiz-adv-x="300" 
d="M52 586q-34 0 -55.5 22t-21.5 57q0 33 21.5 55.5t55.5 22.5t55.5 -22.5t21.5 -55.5q0 -35 -21.5 -57t-55.5 -22zM245 586q-34 0 -55.5 22t-21.5 57q0 33 21.5 55.5t55.5 22.5t55 -22.5t21 -55.5q0 -36 -20.5 -57.5t-55.5 -21.5zM226 531v-531h-153v531h153z" />
    <glyph glyph-name="eth" unicode="&#xf0;" horiz-adv-x="648" 
d="M406 631l115 -153q86 -114 86 -228q0 -117 -77.5 -191t-208.5 -74q-128 0 -204.5 69.5t-76.5 182.5q0 114 73 184t179 70q29 0 48 -4l-73 89l-142 -56l-33 77l119 47l-78 95h191l29 -39l121 48l34 -77zM323 117q55 0 90 35.5t35 91.5q0 53 -35 88t-90 35q-56 0 -91 -34.5
t-35 -88.5q0 -57 34.5 -92t91.5 -35z" />
    <glyph glyph-name="ntilde" unicode="&#xf1;" horiz-adv-x="638" 
d="M284 626q-22 0 -32 -40l-98 25q11 63 37.5 95.5t63.5 32.5q31 0 67 -17t47 -17q23 0 33 39l98 -25q-11 -63 -37.5 -95.5t-64.5 -32.5q-31 0 -66.5 17.5t-47.5 17.5zM392 547q84 0 134 -58.5t50 -169.5v-319h-153v294q0 60 -23.5 86.5t-69.5 26.5q-47 0 -75.5 -30.5
t-28.5 -95.5v-281h-153v531h145l6 -68q60 84 168 84z" />
    <glyph glyph-name="ograve" unicode="&#xf2;" horiz-adv-x="648" 
d="M318 773l68 -189h-116l-97 125zM323 -15q-116 0 -199.5 75t-83.5 206q0 132 83.5 206.5t202.5 74.5q116 0 199 -74.5t83 -206.5q0 -131 -83 -206t-202 -75zM323 117q53 0 91 40.5t38 109.5q0 68 -37 108t-89 40q-53 0 -91 -40.5t-38 -109.5q0 -68 36.5 -108t89.5 -40z
" />
    <glyph glyph-name="oacute" unicode="&#xf3;" horiz-adv-x="648" 
d="M477 709l-96 -125h-117l68 189zM323 -15q-116 0 -199.5 75t-83.5 206q0 132 83.5 206.5t202.5 74.5q116 0 199 -74.5t83 -206.5q0 -131 -83 -206t-202 -75zM323 117q53 0 91 40.5t38 109.5q0 68 -37 108t-89 40q-53 0 -91 -40.5t-38 -109.5q0 -68 36.5 -108t89.5 -40z
" />
    <glyph glyph-name="ocircumflex" unicode="&#xf4;" horiz-adv-x="648" 
d="M152 584l86 156h173l87 -156h-116l-57 70l-58 -70h-115zM326 547q116 0 199 -74.5t83 -206.5q0 -131 -83 -206t-202 -75q-116 0 -199.5 75t-83.5 206q0 132 83.5 206.5t202.5 74.5zM323 117q53 0 91 40.5t38 109.5q0 68 -37 108t-89 40q-53 0 -91 -40.5t-38 -109.5
q0 -68 36.5 -108t89.5 -40z" />
    <glyph glyph-name="otilde" unicode="&#xf5;" horiz-adv-x="648" 
d="M240 587l-98 25q11 63 37.5 95.5t63.5 32.5q31 0 67 -17t47 -17q23 0 33 39l98 -25q-11 -63 -37.5 -95.5t-64.5 -32.5q-31 0 -66.5 17.5t-47.5 17.5q-22 0 -32 -40zM323 -15q-116 0 -199.5 75t-83.5 206q0 132 83.5 206.5t202.5 74.5q116 0 199 -74.5t83 -206.5
q0 -131 -83 -206t-202 -75zM323 117q53 0 91 40.5t38 109.5q0 68 -37 108t-89 40q-53 0 -91 -40.5t-38 -109.5q0 -68 36.5 -108t89.5 -40z" />
    <glyph glyph-name="odieresis" unicode="&#xf6;" horiz-adv-x="648" 
d="M228 587q-34 0 -55.5 22t-21.5 57q0 33 21.5 55.5t55.5 22.5t55.5 -22.5t21.5 -55.5q0 -35 -21.5 -57t-55.5 -22zM421 587q-34 0 -55.5 22t-21.5 57q0 33 21.5 55.5t55.5 22.5t55 -22.5t21 -55.5q0 -36 -20.5 -57.5t-55.5 -21.5zM323 -15q-116 0 -199.5 75t-83.5 206
q0 132 83.5 206.5t202.5 74.5q116 0 199 -74.5t83 -206.5q0 -131 -83 -206t-202 -75zM323 117q53 0 91 40.5t38 109.5q0 68 -37 108t-89 40q-53 0 -91 -40.5t-38 -109.5q0 -68 36.5 -108t89.5 -40z" />
    <glyph glyph-name="divide" unicode="&#xf7;" horiz-adv-x="571" 
d="M285 440q-43 0 -70.5 26t-27.5 66t27.5 65.5t70.5 25.5t71 -25.5t28 -65.5t-27.5 -66t-71.5 -26zM541 379v-141h-511v141h511zM285 -6q-43 0 -70.5 25.5t-27.5 65.5t27.5 66t70.5 26q44 0 71.5 -26t27.5 -66t-28 -65.5t-71 -25.5z" />
    <glyph glyph-name="oslash" unicode="&#xf8;" horiz-adv-x="648" 
d="M570 485l-27 -32q65 -75 65 -187q0 -131 -83 -206t-202 -75q-77 0 -141 33l-29 -35l-74 62l27 33q-66 74 -66 188q0 132 83.5 206.5t202.5 74.5q77 0 140 -33l29 34zM197 265q0 -36 11 -64l168 203q-25 11 -50 11q-53 0 -91 -40.5t-38 -109.5zM323 117q53 0 91 40.5
t38 109.5q0 33 -10 63l-169 -202q25 -11 50 -11z" />
    <glyph glyph-name="ugrave" unicode="&#xf9;" horiz-adv-x="638" 
d="M158 708l145 64l68 -189h-116zM565 0h-145l-6 69q-59 -84 -168 -84q-84 0 -134 58.5t-50 168.5v319h153v-294q0 -60 23.5 -86.5t69.5 -26.5q47 0 75.5 31t28.5 96v280h153v-531z" />
    <glyph glyph-name="uacute" unicode="&#xfa;" horiz-adv-x="638" 
d="M249 583l68 189l145 -64l-96 -125h-117zM565 0h-145l-6 69q-59 -84 -168 -84q-84 0 -134 58.5t-50 168.5v319h153v-294q0 -60 23.5 -86.5t69.5 -26.5q47 0 75.5 31t28.5 96v280h153v-531z" />
    <glyph glyph-name="ucircumflex" unicode="&#xfb;" horiz-adv-x="638" 
d="M137 583l86 156h173l87 -156h-116l-57 70l-58 -70h-115zM565 0h-145l-6 69q-59 -84 -168 -84q-84 0 -134 58.5t-50 168.5v319h153v-294q0 -60 23.5 -86.5t69.5 -26.5q47 0 75.5 31t28.5 96v280h153v-531z" />
    <glyph glyph-name="udieresis" unicode="&#xfc;" horiz-adv-x="638" 
d="M213 586q-34 0 -55.5 22t-21.5 57q0 33 21.5 55.5t55.5 22.5t55.5 -22.5t21.5 -55.5q0 -35 -21.5 -57t-55.5 -22zM406 586q-34 0 -55.5 22t-21.5 57q0 33 21.5 55.5t55.5 22.5t55 -22.5t21 -55.5q0 -36 -20.5 -57.5t-55.5 -21.5zM565 0h-145l-6 69q-59 -84 -168 -84
q-84 0 -134 58.5t-50 168.5v319h153v-294q0 -60 23.5 -86.5t69.5 -26.5q47 0 75.5 31t28.5 96v280h153v-531z" />
    <glyph glyph-name="yacute" unicode="&#xfd;" horiz-adv-x="581" 
d="M229 583l68 189l145 -64l-96 -125h-117zM347 0l-86 -206h-159l116 269l-216 468h173l121 -300l118 300h165z" />
    <glyph glyph-name="thorn" unicode="&#xfe;" horiz-adv-x="688" 
d="M397 547q116 0 183 -80t67 -200q0 -119 -71 -200.5t-181 -81.5q-109 0 -169 84v-275h-153v945h153v-280q62 88 171 88zM357 119q58 0 96 39.5t38 107.5q0 70 -36 108.5t-92 38.5q-58 0 -97.5 -39t-39.5 -108q0 -70 36.5 -108.5t94.5 -38.5z" />
    <glyph glyph-name="ydieresis" unicode="&#xff;" horiz-adv-x="581" 
d="M194 586q-34 0 -55.5 22t-21.5 57q0 33 21.5 55.5t55.5 22.5t55.5 -22.5t21.5 -55.5q0 -35 -21.5 -57t-55.5 -22zM387 586q-34 0 -55.5 22t-21.5 57q0 33 21.5 55.5t55.5 22.5t55 -22.5t21 -55.5q0 -36 -20.5 -57.5t-55.5 -21.5zM347 0l-86 -206h-159l116 269l-216 468
h173l121 -300l118 300h165z" />
    <glyph glyph-name="Amacron" unicode="&#x100;" horiz-adv-x="856" 
d="M281 808v117h294v-117h-294zM728 -48l128 74l-428 742l-428 -742l128 -74l90 157h420zM304 257l124 215l124 -215h-248z" />
    <glyph glyph-name="amacron" unicode="&#x101;" horiz-adv-x="575" 
d="M125 601v117h294v-117h-294zM385 0l-12 65q-53 -76 -157 -76q-83 0 -133.5 44.5t-50.5 124.5q0 77 63 123t172 46q51 0 99 -13v14q0 45 -28.5 70t-80.5 25q-74 0 -140 -46l-55 111q94 59 207 59q111 0 176 -58.5t65 -159.5v-181q0 -78 10 -148h-135zM256 103q46 0 78 25
t32 70v21q-38 10 -79 10q-108 0 -108 -68q0 -26 19.5 -42t57.5 -16z" />
    <glyph glyph-name="Abreve" unicode="&#x102;" horiz-adv-x="856" 
d="M427 789q-72 0 -113 41.5t-45 116.5h109q7 -56 49 -56t50 56h110q-5 -76 -45.5 -117t-114.5 -41zM728 -48l128 74l-428 742l-428 -742l128 -74l90 157h420zM304 257l124 215l124 -215h-248z" />
    <glyph glyph-name="abreve" unicode="&#x103;" horiz-adv-x="575" 
d="M271 582q-72 0 -113 41.5t-45 116.5h109q7 -56 49 -56t50 56h110q-5 -76 -45.5 -117t-114.5 -41zM385 0l-12 65q-53 -76 -157 -76q-83 0 -133.5 44.5t-50.5 124.5q0 77 63 123t172 46q51 0 99 -13v14q0 45 -28.5 70t-80.5 25q-74 0 -140 -46l-55 111q94 59 207 59
q111 0 176 -58.5t65 -159.5v-181q0 -78 10 -148h-135zM256 103q46 0 78 25t32 70v21q-38 10 -79 10q-108 0 -108 -68q0 -26 19.5 -42t57.5 -16z" />
    <glyph glyph-name="Aogonek" unicode="&#x104;" horiz-adv-x="856" 
d="M728 -48l128 74l-428 742l-428 -742l128 -74l90 157h420zM304 257l124 215l124 -215h-248z" />
    <glyph glyph-name="aogonek" unicode="&#x105;" horiz-adv-x="575" 
d="M466 -96q34 0 69 16v-107q-43 -16 -91 -16q-65 0 -98 25.5t-33 70.5q0 60 71 110q-2 10 -5.5 30.5l-5.5 31.5q-53 -76 -157 -76q-83 0 -133.5 44.5t-50.5 124.5q0 77 63 123t172 46q51 0 99 -13v14q0 45 -28.5 70t-80.5 25q-74 0 -140 -46l-55 111q94 59 207 59
q111 0 176 -58.5t65 -159.5v-181q0 -78 10 -148h-61q-41 -34 -41 -65t48 -31zM256 103q46 0 78 25t32 70v21q-38 10 -79 10q-108 0 -108 -68q0 -26 19.5 -42t57.5 -16z" />
    <glyph glyph-name="Cacute" unicode="&#x106;" horiz-adv-x="733" 
d="M578 916l-96 -125h-117l68 189zM604 202l105 -105q-115 -113 -273 -113q-159 0 -272 113t-113 273t113 273t272 113q158 0 273 -113l-105 -105q-69 69 -168 69q-100 0 -167 -69q-70 -70 -70 -168t70 -168q67 -69 167 -69q99 0 168 69z" />
    <glyph glyph-name="cacute" unicode="&#x107;" horiz-adv-x="551" 
d="M468 708l-96 -125h-117l68 189zM317 -15q-123 0 -200 75t-77 205q0 127 81 204.5t205 77.5q115 0 187 -68l-78 -111q-43 43 -102 43t-97.5 -39t-38.5 -108q0 -70 36.5 -106t95.5 -36q62 0 111 45l76 -107q-80 -75 -199 -75z" />
    <glyph glyph-name="Ccircumflex" unicode="&#x108;" horiz-adv-x="733" 
d="M253 791l86 156h173l87 -156h-116l-57 70l-58 -70h-115zM604 202l105 -105q-115 -113 -273 -113q-159 0 -272 113t-113 273t113 273t272 113q158 0 273 -113l-105 -105q-69 69 -168 69q-100 0 -167 -69q-70 -70 -70 -168t70 -168q67 -69 167 -69q99 0 168 69z" />
    <glyph glyph-name="ccircumflex" unicode="&#x109;" horiz-adv-x="551" 
d="M143 583l86 156h173l87 -156h-116l-57 70l-58 -70h-115zM440 167l76 -107q-80 -75 -199 -75q-123 0 -200 75t-77 205q0 127 81 204.5t205 77.5q115 0 187 -68l-78 -111q-43 43 -102 43t-97.5 -39t-38.5 -108q0 -70 36.5 -106t95.5 -36q62 0 111 45z" />
    <glyph glyph-name="Cdotaccent" unicode="&#x10a;" horiz-adv-x="733" 
d="M425 786q-38 0 -64.5 25t-26.5 62t27 61.5t64 24.5q39 0 66 -24.5t27 -61.5t-27 -62t-66 -25zM604 202l105 -105q-115 -113 -273 -113q-159 0 -272 113t-113 273t113 273t272 113q158 0 273 -113l-105 -105q-69 69 -168 69q-100 0 -167 -69q-70 -70 -70 -168t70 -168
q67 -69 167 -69q99 0 168 69z" />
    <glyph glyph-name="cdotaccent" unicode="&#x10b;" horiz-adv-x="551" 
d="M316 578q-38 0 -64.5 25t-26.5 62t27 61.5t64 24.5q39 0 66 -24.5t27 -61.5t-27 -62t-66 -25zM317 -15q-123 0 -200 75t-77 205q0 127 81 204.5t205 77.5q115 0 187 -68l-78 -111q-43 43 -102 43t-97.5 -39t-38.5 -108q0 -70 36.5 -106t95.5 -36q62 0 111 45l76 -107
q-80 -75 -199 -75z" />
    <glyph glyph-name="Ccaron" unicode="&#x10c;" horiz-adv-x="733" 
d="M258 947h116l57 -70l58 70h115l-86 -155h-174zM604 202l105 -105q-115 -113 -273 -113q-159 0 -272 113t-113 273t113 273t272 113q158 0 273 -113l-105 -105q-69 69 -168 69q-100 0 -167 -69q-70 -70 -70 -168t70 -168q67 -69 167 -69q99 0 168 69z" />
    <glyph glyph-name="ccaron" unicode="&#x10d;" horiz-adv-x="551" 
d="M148 739h116l57 -70l58 70h115l-86 -155h-174zM440 167l76 -107q-80 -75 -199 -75q-123 0 -200 75t-77 205q0 127 81 204.5t205 77.5q115 0 187 -68l-78 -111q-43 43 -102 43t-97.5 -39t-38.5 -108q0 -70 36.5 -106t95.5 -36q62 0 111 45z" />
    <glyph glyph-name="Dcaron" unicode="&#x10e;" horiz-adv-x="767" 
d="M149 947h116l57 -70l58 70h115l-86 -155h-174zM86 739h263q154 0 262 -108t108 -261q0 -154 -108 -262t-262 -108h-263v739zM243 144h86q94 0 160 66t66 160q0 93 -66 159t-160 66h-86v-451z" />
    <glyph glyph-name="dcaron" unicode="&#x10f;" horiz-adv-x="687" 
d="M613 739v-739h-144l-6 75q-62 -90 -174 -90q-116 0 -182.5 79.5t-66.5 199.5q0 119 70.5 201t180.5 82q111 0 170 -85v277h152zM753 575h-98l1 164h127zM325 118q57 0 96.5 39t39.5 108q0 71 -36.5 109t-93.5 38q-58 0 -96 -39.5t-38 -107.5q0 -70 36 -108.5t92 -38.5z
" />
    <glyph glyph-name="Dcroat" unicode="&#x110;" horiz-adv-x="767" 
d="M86 739h263q154 0 262 -108t108 -261q0 -154 -108 -262t-262 -108h-263v739zM243 144h86q94 0 160 66t66 160q0 93 -66 159t-160 66h-86v-451z" />
    <glyph glyph-name="dcroat" unicode="&#x111;" horiz-adv-x="687" 
d="M613 597v-597h-144l-6 75q-62 -90 -174 -90q-116 0 -182.5 79.5t-66.5 199.5q0 119 70.5 201t180.5 82q111 0 170 -85v135h-135v90h135v52h152v-52h59v-90h-59zM325 118q57 0 96.5 39t39.5 108q0 71 -36.5 109t-93.5 38q-58 0 -96 -39.5t-38 -107.5q0 -70 36 -108.5
t92 -38.5z" />
    <glyph glyph-name="Emacron" unicode="&#x112;" horiz-adv-x="621" 
d="M172 808v117h294v-117h-294zM561 0h-475v739h464v-143h-307v-143h292v-141h-292v-169h318v-143z" />
    <glyph glyph-name="emacron" unicode="&#x113;" horiz-adv-x="614" 
d="M163 600v117h294v-117h-294zM576 254q0 -20 -1 -30h-377q21 -106 137 -106q76 0 136 52l73 -104q-88 -81 -224 -81q-126 0 -203 75t-77 204q0 132 81 208t194 76q117 0 189 -75.5t72 -218.5zM313 425q-43 0 -73 -27.5t-41 -75.5h221q-7 48 -34 75.5t-73 27.5z" />
    <glyph glyph-name="Ebreve" unicode="&#x114;" horiz-adv-x="621" 
d="M318 789q-72 0 -113 41.5t-45 116.5h109q7 -56 49 -56t50 56h110q-5 -76 -45.5 -117t-114.5 -41zM561 0h-475v739h464v-143h-307v-143h292v-141h-292v-169h318v-143z" />
    <glyph glyph-name="ebreve" unicode="&#x115;" horiz-adv-x="614" 
d="M309 581q-72 0 -113 41.5t-45 116.5h109q7 -56 49 -56t50 56h110q-5 -76 -45.5 -117t-114.5 -41zM576 254q0 -20 -1 -30h-377q21 -106 137 -106q76 0 136 52l73 -104q-88 -81 -224 -81q-126 0 -203 75t-77 204q0 132 81 208t194 76q117 0 189 -75.5t72 -218.5zM313 425
q-43 0 -73 -27.5t-41 -75.5h221q-7 48 -34 75.5t-73 27.5z" />
    <glyph glyph-name="Edotaccent" unicode="&#x116;" horiz-adv-x="621" 
d="M319 786q-38 0 -64.5 25t-26.5 62t27 61.5t64 24.5q39 0 66 -24.5t27 -61.5t-27 -62t-66 -25zM561 0h-475v739h464v-143h-307v-143h292v-141h-292v-169h318v-143z" />
    <glyph glyph-name="edotaccent" unicode="&#x117;" horiz-adv-x="614" 
d="M310 578q-38 0 -64.5 25t-26.5 62t27 61.5t64 24.5q39 0 66 -24.5t27 -61.5t-27 -62t-66 -25zM576 254q0 -20 -1 -30h-377q21 -106 137 -106q76 0 136 52l73 -104q-88 -81 -224 -81q-126 0 -203 75t-77 204q0 132 81 208t194 76q117 0 189 -75.5t72 -218.5zM313 425
q-43 0 -73 -27.5t-41 -75.5h221q-7 48 -34 75.5t-73 27.5z" />
    <glyph glyph-name="Eogonek" unicode="&#x118;" horiz-adv-x="621" 
d="M561 0h-112q-41 -34 -41 -65t48 -31q34 0 69 16v-107q-43 -16 -91 -16q-65 0 -98 25.5t-33 70.5q0 59 67 107h-284v739h464v-143h-307v-143h292v-141h-292v-169h318v-143z" />
    <glyph glyph-name="eogonek" unicode="&#x119;" horiz-adv-x="614" 
d="M576 254q0 -20 -1 -30h-377q21 -106 137 -106q76 0 136 52l73 -104q-65 -59 -152 -75q-30 -29 -30 -55q0 -31 48 -31q34 0 69 16v-107q-43 -16 -91 -16q-65 0 -98 25.5t-33 70.5q0 50 47 91q-120 5 -192 80t-72 199q0 132 81 208t194 76q117 0 189 -75.5t72 -218.5z
M313 425q-43 0 -73 -27.5t-41 -75.5h221q-7 48 -34 75.5t-73 27.5z" />
    <glyph glyph-name="Ecaron" unicode="&#x11a;" horiz-adv-x="621" 
d="M151 947h116l57 -70l58 70h115l-86 -155h-174zM561 0h-475v739h464v-143h-307v-143h292v-141h-292v-169h318v-143z" />
    <glyph glyph-name="ecaron" unicode="&#x11b;" horiz-adv-x="614" 
d="M142 739h116l57 -70l58 70h115l-86 -155h-174zM576 254q0 -20 -1 -30h-377q21 -106 137 -106q76 0 136 52l73 -104q-88 -81 -224 -81q-126 0 -203 75t-77 204q0 132 81 208t194 76q117 0 189 -75.5t72 -218.5zM313 425q-43 0 -73 -27.5t-41 -75.5h221q-7 48 -34 75.5
t-73 27.5z" />
    <glyph glyph-name="Gcircumflex" unicode="&#x11c;" horiz-adv-x="809" 
d="M259 791l86 156h173l87 -156h-116l-57 70l-58 -70h-115zM748 396v-279q-57 -66 -141 -102q-71 -31 -151 -31q-160 0 -273 113t-113 273t113 273t273 113t273 -113l-105 -105q-69 69 -168 69t-168 -69t-69 -168t69 -168t168 -69q86 0 151 53v210h141z" />
    <glyph glyph-name="gcircumflex" unicode="&#x11d;" horiz-adv-x="667" 
d="M145 583l86 156h173l87 -156h-116l-57 70l-58 -70h-115zM593 531v-470q0 -144 -80 -213t-215 -69q-94 0 -179 36l44 130q63 -31 132 -31q145 0 145 138v38q-60 -80 -158 -80q-113 0 -177.5 76.5t-64.5 190.5t68.5 192t175.5 78q103 0 159 -80l5 64h145zM313 141
q54 0 90.5 36t36.5 101q0 67 -32.5 101t-85.5 34q-55 0 -90 -36t-35 -99t32.5 -100t83.5 -37z" />
    <glyph glyph-name="Gbreve" unicode="&#x11e;" horiz-adv-x="809" 
d="M431 789q-72 0 -113 41.5t-45 116.5h109q7 -56 49 -56t50 56h110q-5 -76 -45.5 -117t-114.5 -41zM748 396v-279q-57 -66 -141 -102q-71 -31 -151 -31q-160 0 -273 113t-113 273t113 273t273 113t273 -113l-105 -105q-69 69 -168 69t-168 -69t-69 -168t69 -168t168 -69
q86 0 151 53v210h141z" />
    <glyph glyph-name="gbreve" unicode="&#x11f;" horiz-adv-x="667" 
d="M317 581q-72 0 -113 41.5t-45 116.5h109q7 -56 49 -56t50 56h110q-5 -76 -45.5 -117t-114.5 -41zM593 531v-470q0 -144 -80 -213t-215 -69q-94 0 -179 36l44 130q63 -31 132 -31q145 0 145 138v38q-60 -80 -158 -80q-113 0 -177.5 76.5t-64.5 190.5t68.5 192t175.5 78
q103 0 159 -80l5 64h145zM313 141q54 0 90.5 36t36.5 101q0 67 -32.5 101t-85.5 34q-55 0 -90 -36t-35 -99t32.5 -100t83.5 -37z" />
    <glyph glyph-name="Gdotaccent" unicode="&#x120;" horiz-adv-x="809" 
d="M432 786q-38 0 -64.5 25t-26.5 62t27 61.5t64 24.5q39 0 66 -24.5t27 -61.5t-27 -62t-66 -25zM748 396v-279q-57 -66 -141 -102q-71 -31 -151 -31q-160 0 -273 113t-113 273t113 273t273 113t273 -113l-105 -105q-69 69 -168 69t-168 -69t-69 -168t69 -168t168 -69
q86 0 151 53v210h141z" />
    <glyph glyph-name="gdotaccent" unicode="&#x121;" horiz-adv-x="667" 
d="M318 578q-38 0 -64.5 25t-26.5 62t27 61.5t64 24.5q39 0 66 -24.5t27 -61.5t-27 -62t-66 -25zM593 531v-470q0 -144 -80 -213t-215 -69q-94 0 -179 36l44 130q63 -31 132 -31q145 0 145 138v38q-60 -80 -158 -80q-113 0 -177.5 76.5t-64.5 190.5t68.5 192t175.5 78
q103 0 159 -80l5 64h145zM313 141q54 0 90.5 36t36.5 101q0 67 -32.5 101t-85.5 34q-55 0 -90 -36t-35 -99t32.5 -100t83.5 -37z" />
    <glyph glyph-name="Gcommaaccent" unicode="&#x122;" horiz-adv-x="809" 
d="M748 396v-279q-57 -66 -141 -102q-71 -31 -151 -31q-160 0 -273 113t-113 273t113 273t273 113t273 -113l-105 -105q-69 69 -168 69t-168 -69t-69 -168t69 -168t168 -69q86 0 151 53v210h141zM432 -48q36 0 56 -23.5t20 -57.5q0 -51 -37 -83.5t-105 -29.5v27q29 -1 45 18
q9 10 9 20q-26 0 -41 16q-18 15 -18 42q0 30 18.5 50.5t52.5 20.5z" />
    <glyph glyph-name="gcommaaccent" unicode="&#x123;" horiz-adv-x="667" 
d="M331 581q-36 0 -56 23.5t-20 57.5q0 51 37 83.5t105 29.5v-27q-31 0 -45 -19q-9 -9 -10 -20q25 2 42 -15q18 -16 18 -42q0 -30 -18.5 -50.5t-52.5 -20.5zM593 531v-470q0 -144 -80 -213t-215 -69q-94 0 -179 36l44 130q63 -31 132 -31q145 0 145 138v38q-60 -80 -158 -80
q-113 0 -177.5 76.5t-64.5 190.5t68.5 192t175.5 78q103 0 159 -80l5 64h145zM313 141q54 0 90.5 36t36.5 101q0 67 -32.5 101t-85.5 34q-55 0 -90 -36t-35 -99t32.5 -100t83.5 -37z" />
    <glyph glyph-name="Hcircumflex" unicode="&#x124;" horiz-adv-x="772" 
d="M213 791l86 156h173l87 -156h-116l-57 70l-58 -70h-115zM685 0h-159v313h-281v-313h-159v739h159v-283h281v283h159v-739z" />
    <glyph glyph-name="hcircumflex" unicode="&#x125;" horiz-adv-x="639" 
d="M-24 791l86 156h173l87 -156h-116l-57 70l-58 -70h-115zM392 547q84 0 134.5 -58.5t50.5 -169.5v-319h-152v294q0 113 -94 113q-47 0 -76 -30.5t-29 -95.5v-281h-153v739h153v-273q59 81 166 81z" />
    <glyph glyph-name="Hbar" unicode="&#x126;" horiz-adv-x="772" 
d="M685 0h-159v313h-281v-313h-159v739h159v-76h281v76h159v-739zM526 541h-281v-85h281v85z" />
    <glyph glyph-name="hbar" unicode="&#x127;" horiz-adv-x="640" 
d="M393 547q84 0 134 -58.5t50 -169.5v-319h-152v294q0 60 -23.5 86.5t-70.5 26.5t-76 -30.5t-29 -95.5v-281h-152v596h-62v90h62v53h152v-53h132v-90h-132v-130q62 81 167 81z" />
    <glyph glyph-name="Itilde" unicode="&#x128;" horiz-adv-x="332" 
d="M80 794l-98 25q11 63 37.5 95.5t63.5 32.5q31 0 67 -17t47 -17q23 0 33 39l98 -25q-11 -63 -37.5 -95.5t-64.5 -32.5q-31 0 -66.5 17.5t-47.5 17.5q-22 0 -32 -40zM245 739v-739h-159v739h159z" />
    <glyph glyph-name="itilde" unicode="&#x129;" horiz-adv-x="300" 
d="M64 586l-98 25q11 63 37.5 95.5t63.5 32.5q31 0 67 -17t47 -17q23 0 33 39l98 -25q-11 -63 -37.5 -95.5t-64.5 -32.5q-31 0 -66.5 17.5t-47.5 17.5q-22 0 -32 -40zM226 531v-531h-153v531h153z" />
    <glyph glyph-name="Imacron" unicode="&#x12a;" horiz-adv-x="332" 
d="M312 925v-117h-294v117h294zM245 739v-739h-159v739h159z" />
    <glyph glyph-name="imacron" unicode="&#x12b;" horiz-adv-x="300" 
d="M296 717v-117h-294v117h294zM226 531v-531h-153v531h153z" />
    <glyph glyph-name="Ibreve" unicode="&#x12c;" horiz-adv-x="332" 
d="M164 789q-72 0 -113 41.5t-45 116.5h109q7 -56 49 -56t50 56h110q-5 -76 -45.5 -117t-114.5 -41zM245 739v-739h-159v739h159z" />
    <glyph glyph-name="ibreve" unicode="&#x12d;" horiz-adv-x="300" 
d="M148 581q-72 0 -113 41.5t-45 116.5h109q7 -56 49 -56t50 56h110q-5 -76 -45.5 -117t-114.5 -41zM226 531v-531h-153v531h153z" />
    <glyph glyph-name="Iogonek" unicode="&#x12e;" horiz-adv-x="332" 
d="M190 -203q-65 0 -98 25.5t-33 70.5q0 57 68 107l-41 1v738h159v-739h-39q-41 -34 -41 -65t47 -31q33 0 70 16v-107q-43 -16 -92 -16z" />
    <glyph glyph-name="iogonek" unicode="&#x12f;" horiz-adv-x="300" 
d="M149 586q-39 0 -65 23.5t-26 60.5t26 60.5t65 23.5q40 0 66 -23.5t26 -60.5t-26 -60.5t-66 -23.5zM193 -96q34 0 69 16v-107q-43 -16 -91 -16q-65 0 -98 25.5t-33 70.5q0 59 67 107h-33v531h152v-531h-40q-41 -34 -41 -65t48 -31z" />
    <glyph glyph-name="Idotaccent" unicode="&#x130;" horiz-adv-x="332" 
d="M164 786q-38 0 -64.5 25t-26.5 62t27 61.5t64 24.5q39 0 66 -24.5t27 -61.5t-27 -62t-66 -25zM245 739v-739h-159v739h159z" />
    <glyph glyph-name="dotlessi" unicode="&#x131;" horiz-adv-x="300" 
d="M226 531v-531h-153v531h153z" />
    <glyph glyph-name="IJ" unicode="&#x132;" horiz-adv-x="895" 
d="M245 739v-739h-159v739h159zM822 739v-486q0 -130 -72.5 -199t-181.5 -69q-77 0 -129 26t-94 77l102 107q50 -64 117 -64q45 0 72 29.5t27 89.5v347h-200v142h359z" />
    <glyph glyph-name="ij" unicode="&#x133;" horiz-adv-x="600" 
d="M149 586q-39 0 -65 23.5t-26 60.5t26 60.5t65 23.5q40 0 66 -23.5t26 -60.5t-26 -60.5t-66 -23.5zM449 586q-39 0 -65 23.5t-26 60.5t26 60.5t65 23.5q40 0 66 -23.5t26 -60.5t-26 -60.5t-66 -23.5zM226 531v-531h-152v531h152zM226 -204l37 121q21 -10 46 -10
q32 0 48.5 18t16.5 61v545h152v-538q0 -104 -52 -159t-144 -55q-58 0 -104 17z" />
    <glyph glyph-name="Jcircumflex" unicode="&#x134;" horiz-adv-x="564" 
d="M115 791l86 156h173l87 -156h-116l-57 70l-58 -70h-115zM490 739v-486q0 -130 -72.5 -199t-181.5 -69q-77 0 -129 26t-94 77l102 107q50 -64 117 -64q45 0 72 29.5t27 89.5v347h-200v142h359z" />
    <glyph glyph-name="jcircumflex" unicode="&#x135;" horiz-adv-x="300" 
d="M-24 583l86 156h173l87 -156h-116l-57 70l-58 -70h-115zM226 531v-538q0 -104 -52 -159t-144 -55q-58 0 -104 17l37 121q21 -10 46 -10q32 0 48.5 18t16.5 61v545h152z" />
    <glyph glyph-name="Kcommaaccent" unicode="&#x136;" horiz-adv-x="681" 
d="M390 370l286 -286l-112 -113l-319 319v-290h-159v739h159v-290l319 319l112 -113zM357 -48q36 0 56 -23.5t20 -57.5q0 -51 -37 -83.5t-105 -29.5v27q29 -1 45 18q9 11 9 20q-26 0 -41 16q-18 15 -18 42q0 30 18.5 50.5t52.5 20.5z" />
    <glyph glyph-name="kcommaaccent" unicode="&#x137;" horiz-adv-x="575" 
d="M387 0l-161 260v-260h-153v739h153v-446l170 238h179l-195 -245l197 -286h-190zM309 -48q36 0 56 -23.5t20 -57.5q0 -51 -37 -83.5t-105 -29.5v27q29 -1 45 18q9 11 9 20q-26 0 -41 16q-18 15 -18 42q0 30 18.5 50.5t52.5 20.5z" />
    <glyph glyph-name="kgreenlandic" unicode="&#x138;" horiz-adv-x="586" 
d="M577 0h-190l-161 260v-260h-152v531h152v-238l173 238h179l-198 -245z" />
    <glyph glyph-name="Lacute" unicode="&#x139;" horiz-adv-x="540" 
d="M105 791l68 189l145 -64l-96 -125h-117zM505 0h-419v739h159v-596h260v-143z" />
    <glyph glyph-name="lacute" unicode="&#x13a;" horiz-adv-x="300" 
d="M301 916l-96 -125h-117l68 189zM226 739v-739h-153v739h153z" />
    <glyph glyph-name="Lcommaaccent" unicode="&#x13b;" horiz-adv-x="540" 
d="M505 0h-419v739h159v-596h260v-143zM317 -48q36 0 56 -23.5t20 -57.5q0 -51 -37 -83.5t-105 -29.5v27q29 -1 45 18q9 11 9 20q-26 0 -41 16q-18 15 -18 42q0 30 18.5 50.5t52.5 20.5z" />
    <glyph glyph-name="lcommaaccent" unicode="&#x13c;" horiz-adv-x="300" 
d="M226 739v-739h-153v739h153zM89 -242v27q29 -1 45 18q9 11 9 20q-26 0 -41 16q-18 15 -18 42q0 30 18.5 50.5t52.5 20.5q36 0 56 -23.5t20 -57.5q0 -51 -37 -83.5t-105 -29.5z" />
    <glyph glyph-name="Lcaron" unicode="&#x13d;" horiz-adv-x="540" 
d="M505 0h-419v739h159v-596h260v-143zM305 575l1 164h127l-30 -164h-98z" />
    <glyph glyph-name="lcaron" unicode="&#x13e;" horiz-adv-x="300" 
d="M226 739v-739h-153v739h153zM400 739l-30 -164h-98l1 164h127z" />
    <glyph glyph-name="Ldot" unicode="&#x13f;" horiz-adv-x="566" 
d="M505 143v-143h-419v739h159v-596h260zM445 502q41 0 68.5 -26t27.5 -66t-27.5 -66t-68.5 -26t-68 26t-27 66t27 66t68 26z" />
    <glyph glyph-name="ldot" unicode="&#x140;" horiz-adv-x="444" 
d="M226 739v-739h-153v739h153zM372 267q-38 0 -62.5 23.5t-24.5 59.5q0 37 24.5 60.5t62.5 23.5t62 -23.5t24 -60.5q0 -36 -24.5 -59.5t-61.5 -23.5z" />
    <glyph glyph-name="Lslash" unicode="&#x141;" horiz-adv-x="540" 
d="M505 0h-419v739h159v-279l149 121v-162l-149 -121v-155h260v-143z" />
    <glyph glyph-name="lslash" unicode="&#x142;" horiz-adv-x="314" 
d="M233 354v-354h-153v271l-68 -51v129l68 50v340h153v-257l70 52v-130z" />
    <glyph glyph-name="Nacute" unicode="&#x143;" horiz-adv-x="761" 
d="M294 791l68 189l145 -64l-96 -125h-117zM675 -23l-430 411v-388h-159v764l429 -411v386h160v-762z" />
    <glyph glyph-name="nacute" unicode="&#x144;" horiz-adv-x="638" 
d="M275 583l68 189l145 -64l-96 -125h-117zM392 547q84 0 134 -58.5t50 -169.5v-319h-153v294q0 60 -23.5 86.5t-69.5 26.5q-47 0 -75.5 -30.5t-28.5 -95.5v-281h-153v531h145l6 -68q60 84 168 84z" />
    <glyph glyph-name="Ncommaaccent" unicode="&#x145;" horiz-adv-x="761" 
d="M675 -23l-430 411v-388h-159v764l429 -411v386h160v-762zM394 -48q36 0 56 -23.5t20 -57.5q0 -51 -37 -83.5t-105 -29.5v27q29 -1 45 18q9 10 9 20q-26 0 -41 16q-18 15 -18 42q0 30 18.5 50.5t52.5 20.5z" />
    <glyph glyph-name="ncommaaccent" unicode="&#x146;" horiz-adv-x="638" 
d="M392 547q84 0 134 -58.5t50 -169.5v-319h-153v294q0 60 -23.5 86.5t-69.5 26.5q-47 0 -75.5 -30.5t-28.5 -95.5v-281h-153v531h145l6 -68q60 84 168 84zM322 -48q36 0 56 -23.5t20 -57.5q0 -51 -37 -83.5t-105 -29.5v27q29 -1 45 18q9 11 9 20q-26 0 -41 16
q-18 15 -18 42q0 30 18.5 50.5t52.5 20.5z" />
    <glyph glyph-name="Ncaron" unicode="&#x147;" horiz-adv-x="761" 
d="M187 947h116l57 -70l58 70h115l-86 -155h-174zM675 -23l-430 411v-388h-159v764l429 -411v386h160v-762z" />
    <glyph glyph-name="ncaron" unicode="&#x148;" horiz-adv-x="638" 
d="M168 739h116l57 -70l58 70h115l-86 -155h-174zM392 547q84 0 134 -58.5t50 -169.5v-319h-153v294q0 60 -23.5 86.5t-69.5 26.5q-47 0 -75.5 -30.5t-28.5 -95.5v-281h-153v531h145l6 -68q60 84 168 84z" />
    <glyph glyph-name="napostrophe" unicode="&#x149;" horiz-adv-x="930" 
d="M144 754q44 0 71 -31t27 -83q0 -70 -42.5 -131t-119.5 -98l-35 68q81 35 97 97l1 4q-7 -1 -15 -1q-35 0 -57.5 23t-22.5 59q0 42 27.5 67.5t68.5 25.5zM684 547q84 0 134 -58.5t50 -169.5v-319h-153v294q0 60 -23.5 86.5t-69.5 26.5q-47 0 -75.5 -30.5t-28.5 -95.5v-281
h-153v531h145l6 -68q60 84 168 84z" />
    <glyph glyph-name="Eng" unicode="&#x14a;" horiz-adv-x="743" 
d="M656 739v-751q-1 -101 -52 -155t-142 -54q-57 0 -106 18l32 130q21 -9 44 -9q33 0 48.5 16t15.5 58v143l-251 266v-401h-159v752h22l388 -412v399h160z" />
    <glyph glyph-name="eng" unicode="&#x14b;" horiz-adv-x="633" 
d="M378 547q88 0 140.5 -60t52.5 -172v-322q0 -104 -52 -159t-144 -55q-57 0 -103 17l36 121q21 -10 47 -10q32 0 48 18t16 61v300q0 120 -91 120q-46 0 -74 -31.5t-28 -96.5v-278h-153v531h139l8 -57q56 73 158 73z" />
    <glyph glyph-name="Omacron" unicode="&#x14c;" horiz-adv-x="862" 
d="M578 925v-117h-294v117h294zM430 756q160 0 273 -113t113 -273t-113 -273t-273 -113t-273 113t-113 273t113 273t273 113zM430 607q-99 0 -168 -69t-69 -168t69 -168t168 -69t168 69t69 168t-69 168t-168 69z" />
    <glyph glyph-name="omacron" unicode="&#x14d;" horiz-adv-x="648" 
d="M472 718v-117h-294v117h294zM323 -15q-116 0 -199.5 75t-83.5 206q0 132 83.5 206.5t202.5 74.5q116 0 199 -74.5t83 -206.5q0 -131 -83 -206t-202 -75zM323 117q53 0 91 40.5t38 109.5q0 68 -37 108t-89 40q-53 0 -91 -40.5t-38 -109.5q0 -68 36.5 -108t89.5 -40z" />
    <glyph glyph-name="Obreve" unicode="&#x14e;" horiz-adv-x="862" 
d="M430 789q-72 0 -113 41.5t-45 116.5h109q7 -56 49 -56t50 56h110q-5 -76 -45.5 -117t-114.5 -41zM430 756q160 0 273 -113t113 -273t-113 -273t-273 -113t-273 113t-113 273t113 273t273 113zM430 607q-99 0 -168 -69t-69 -168t69 -168t168 -69t168 69t69 168t-69 168
t-168 69z" />
    <glyph glyph-name="obreve" unicode="&#x14f;" horiz-adv-x="648" 
d="M324 582q-72 0 -113 41.5t-45 116.5h109q7 -56 49 -56t50 56h110q-5 -76 -45.5 -117t-114.5 -41zM323 -15q-116 0 -199.5 75t-83.5 206q0 132 83.5 206.5t202.5 74.5q116 0 199 -74.5t83 -206.5q0 -131 -83 -206t-202 -75zM323 117q53 0 91 40.5t38 109.5q0 68 -37 108
t-89 40q-53 0 -91 -40.5t-38 -109.5q0 -68 36.5 -108t89.5 -40z" />
    <glyph glyph-name="Ohungarumlaut" unicode="&#x150;" horiz-adv-x="862" 
d="M476 927l-69 -136h-117l71 192zM659 916l-79 -125h-117l82 182zM430 756q160 0 273 -113t113 -273t-113 -273t-273 -113t-273 113t-113 273t113 273t273 113zM430 607q-99 0 -168 -69t-69 -168t69 -168t168 -69t168 69t69 168t-69 168t-168 69z" />
    <glyph glyph-name="ohungarumlaut" unicode="&#x151;" horiz-adv-x="648" 
d="M370 720l-69 -136h-117l71 192zM553 709l-79 -125h-117l82 182zM323 -15q-116 0 -199.5 75t-83.5 206q0 132 83.5 206.5t202.5 74.5q116 0 199 -74.5t83 -206.5q0 -131 -83 -206t-202 -75zM323 117q53 0 91 40.5t38 109.5q0 68 -37 108t-89 40q-53 0 -91 -40.5
t-38 -109.5q0 -68 36.5 -108t89.5 -40z" />
    <glyph glyph-name="OE" unicode="&#x152;" horiz-adv-x="993" 
d="M933 0h-493q-75 0 -144 22.5t-125.5 66t-90 115.5t-33.5 164q0 94 33.5 167.5t90.5 116.5t125 65t144 22h482v-143h-274v-143h260v-141h-260v-169h285v-143zM492 596h-52q-100 0 -164 -54.5t-64 -173.5q0 -114 64.5 -169.5t163.5 -55.5h52v453z" />
    <glyph glyph-name="oe" unicode="&#x153;" horiz-adv-x="1027" 
d="M728 548q123 0 196 -84t64 -244h-375q21 -102 137 -102q74 0 134 56l75 -107q-90 -82 -223 -82q-131 0 -207 79q-81 -79 -206 -79q-116 0 -199.5 75t-83.5 206q0 132 83.5 206.5t202.5 74.5q124 0 204 -80q79 81 198 81zM728 425q-43 0 -73 -26t-41 -73l220 -2
q-17 101 -106 101zM323 117q53 0 91 40.5t38 109.5q0 68 -37 108t-89 40q-53 0 -91 -40.5t-38 -109.5q0 -68 36.5 -108t89.5 -40z" />
    <glyph glyph-name="Racute" unicode="&#x154;" horiz-adv-x="727" 
d="M252 791l68 189l145 -64l-96 -125h-117zM508 0l-110 189h-153v-189h-159v739h299q113 0 194 -80.5t81 -194.5q0 -67 -30 -125.5t-82 -96.5h-1l140 -242h-179zM245 332h120q55 0 93.5 38.5t38.5 93.5t-38.5 93.5t-93.5 38.5h-120v-264z" />
    <glyph glyph-name="racute" unicode="&#x155;" horiz-adv-x="435" 
d="M177 584l68 189l145 -64l-96 -125h-117zM218 531l6 -91q59 101 181 101v-154q-78 8 -128.5 -22t-50.5 -104v-261h-153v531h145z" />
    <glyph glyph-name="Rcommaaccent" unicode="&#x156;" horiz-adv-x="727" 
d="M508 0l-110 189h-153v-189h-159v739h299q113 0 194 -80.5t81 -194.5q0 -67 -30 -125.5t-82 -96.5h-1l140 -242h-179zM245 332h120q55 0 93.5 38.5t38.5 93.5t-38.5 93.5t-93.5 38.5h-120v-264zM363 -48q36 0 56 -23.5t20 -57.5q0 -51 -37 -83.5t-105 -29.5v27
q29 -1 45 18q9 11 9 20q-26 0 -41 16q-18 15 -18 42q0 30 18.5 50.5t52.5 20.5z" />
    <glyph glyph-name="rcommaaccent" unicode="&#x157;" horiz-adv-x="435" 
d="M218 531l6 -91q59 101 181 101v-154q-78 8 -128.5 -22t-50.5 -104v-261h-153v531h145zM153 -48q36 0 56 -23.5t20 -57.5q0 -51 -37 -83.5t-105 -29.5v27q29 -1 45 18q9 11 9 20q-26 0 -41 16q-18 15 -18 42q0 30 18.5 50.5t52.5 20.5z" />
    <glyph glyph-name="Rcaron" unicode="&#x158;" horiz-adv-x="727" 
d="M145 947h116l57 -70l58 70h115l-86 -155h-174zM508 0l-110 189h-153v-189h-159v739h299q113 0 194 -80.5t81 -194.5q0 -67 -30 -125.5t-82 -96.5h-1l140 -242h-179zM245 332h120q55 0 93.5 38.5t38.5 93.5t-38.5 93.5t-93.5 38.5h-120v-264z" />
    <glyph glyph-name="rcaron" unicode="&#x159;" horiz-adv-x="435" 
d="M70 740h116l57 -70l58 70h115l-86 -155h-174zM218 531l6 -91q59 101 181 101v-154q-78 8 -128.5 -22t-50.5 -104v-261h-153v531h145z" />
    <glyph glyph-name="Sacute" unicode="&#x15a;" horiz-adv-x="682" 
d="M509 916l-96 -125h-117l68 189zM640 217q0 -76 -43 -130.5t-106 -78t-138 -23.5q-199 0 -329 130l102 101q87 -87 227 -87q21 0 41.5 3t45.5 11t40.5 27t15.5 47q0 34 -31 51.5t-128 37.5q-33 7 -50 11t-50.5 14.5t-53 20.5t-45 28t-39.5 38.5t-24 50.5t-10 65
q0 97 75 159t194 62q180 0 302 -111l-96 -106q-81 73 -206 73q-57 0 -91 -21t-34 -56q0 -33 31 -50.5t127 -37.5q31 -6 50 -10.5t51 -14.5t52.5 -20.5t45.5 -28t39.5 -38.5t24.5 -51t10 -66z" />
    <glyph glyph-name="sacute" unicode="&#x15b;" horiz-adv-x="494" 
d="M407 708l-96 -125h-117l68 189zM248 -15q-78 0 -132.5 23t-101.5 67l83 99q67 -66 149 -66q70 0 70 42q0 21 -20.5 34.5t-51.5 19.5t-67.5 17.5t-67.5 25.5t-51.5 46.5t-20.5 78.5q0 79 61.5 126.5t158.5 47.5q126 0 207 -74l-75 -100q-59 52 -128 52q-32 0 -51 -11.5
t-19 -30.5q0 -21 28.5 -33.5t69.5 -21.5t82.5 -24t70 -50.5t28.5 -89.5q0 -82 -64.5 -130t-157.5 -48z" />
    <glyph glyph-name="Scircumflex" unicode="&#x15c;" horiz-adv-x="682" 
d="M184 791l86 156h173l87 -156h-116l-57 70l-58 -70h-115zM640 217q0 -76 -43 -130.5t-106 -78t-138 -23.5q-199 0 -329 130l102 101q87 -87 227 -87q21 0 41.5 3t45.5 11t40.5 27t15.5 47q0 34 -31 51.5t-128 37.5q-33 7 -50 11t-50.5 14.5t-53 20.5t-45 28t-39.5 38.5
t-24 50.5t-10 65q0 97 75 159t194 62q180 0 302 -111l-96 -106q-81 73 -206 73q-57 0 -91 -21t-34 -56q0 -33 31 -50.5t127 -37.5q31 -6 50 -10.5t51 -14.5t52.5 -20.5t45.5 -28t39.5 -38.5t24.5 -51t10 -66z" />
    <glyph glyph-name="scircumflex" unicode="&#x15d;" horiz-adv-x="494" 
d="M82 583l86 156h173l87 -156h-116l-57 70l-58 -70h-115zM191 382q0 -21 28.5 -33.5t69.5 -21.5t82.5 -24t70 -50.5t28.5 -89.5q0 -82 -64.5 -130t-157.5 -48q-78 0 -132.5 23t-101.5 67l83 99q67 -66 149 -66q70 0 70 42q0 21 -20.5 34.5t-51.5 19.5t-67.5 17.5
t-67.5 25.5t-51.5 46.5t-20.5 78.5q0 79 61.5 126.5t158.5 47.5q126 0 207 -74l-75 -100q-59 52 -128 52q-32 0 -51 -11.5t-19 -30.5z" />
    <glyph glyph-name="Scedilla" unicode="&#x15e;" horiz-adv-x="682" 
d="M640 217q0 -76 -43 -130.5t-106 -78t-138 -23.5q-199 0 -329 130l102 101q87 -87 227 -87q21 0 41.5 3t45.5 11t40.5 27t15.5 47q0 34 -31 51.5t-128 37.5q-33 7 -50 11t-50.5 14.5t-53 20.5t-45 28t-39.5 38.5t-24 50.5t-10 65q0 97 75 159t194 62q180 0 302 -111
l-96 -106q-81 73 -206 73q-57 0 -91 -21t-34 -56q0 -33 31 -50.5t127 -37.5q31 -6 50 -10.5t51 -14.5t52.5 -20.5t45.5 -28t39.5 -38.5t24.5 -51t10 -66zM419 -59l-68 -147h-109l35 147h142z" />
    <glyph glyph-name="scedilla" unicode="&#x15f;" horiz-adv-x="494" 
d="M248 -15q-78 0 -132.5 23t-101.5 67l83 99q67 -66 149 -66q70 0 70 42q0 21 -20.5 34.5t-51.5 19.5t-67.5 17.5t-67.5 25.5t-51.5 46.5t-20.5 78.5q0 79 61.5 126.5t158.5 47.5q126 0 207 -74l-75 -100q-59 52 -128 52q-32 0 -51 -11.5t-19 -30.5q0 -21 28.5 -33.5
t69.5 -21.5t82.5 -24t70 -50.5t28.5 -89.5q0 -82 -64.5 -130t-157.5 -48zM324 -59l-68 -147h-109l35 147h142z" />
    <glyph glyph-name="Scaron" unicode="&#x160;" horiz-adv-x="682" 
d="M189 947h116l57 -70l58 70h115l-86 -155h-174zM640 217q0 -76 -43 -130.5t-106 -78t-138 -23.5q-199 0 -329 130l102 101q87 -87 227 -87q21 0 41.5 3t45.5 11t40.5 27t15.5 47q0 34 -31 51.5t-128 37.5q-33 7 -50 11t-50.5 14.5t-53 20.5t-45 28t-39.5 38.5t-24 50.5
t-10 65q0 97 75 159t194 62q180 0 302 -111l-96 -106q-81 73 -206 73q-57 0 -91 -21t-34 -56q0 -33 31 -50.5t127 -37.5q31 -6 50 -10.5t51 -14.5t52.5 -20.5t45.5 -28t39.5 -38.5t24.5 -51t10 -66z" />
    <glyph glyph-name="scaron" unicode="&#x161;" horiz-adv-x="494" 
d="M87 739h116l57 -70l58 70h115l-86 -155h-174zM191 382q0 -21 28.5 -33.5t69.5 -21.5t82.5 -24t70 -50.5t28.5 -89.5q0 -82 -64.5 -130t-157.5 -48q-78 0 -132.5 23t-101.5 67l83 99q67 -66 149 -66q70 0 70 42q0 21 -20.5 34.5t-51.5 19.5t-67.5 17.5t-67.5 25.5
t-51.5 46.5t-20.5 78.5q0 79 61.5 126.5t158.5 47.5q126 0 207 -74l-75 -100q-59 52 -128 52q-32 0 -51 -11.5t-19 -30.5z" />
    <glyph glyph-name="Tcedilla" unicode="&#x162;" horiz-adv-x="639" 
d="M34 596v143h571v-143h-206v-596h-159v596h-206zM398 -59l-68 -147h-109l35 147h142z" />
    <glyph glyph-name="tcedilla" unicode="&#x163;" horiz-adv-x="474" 
d="M402 143l49 -117q-68 -41 -143 -41q-88 0 -141.5 47t-53.5 152v218h-103l32 129h71v134h153v-134h172v-129h-172v-216q0 -64 64 -64q38 0 72 21zM366 -59l-68 -147h-109l35 147h142z" />
    <glyph glyph-name="Tcaron" unicode="&#x164;" horiz-adv-x="639" 
d="M151 947h116l57 -70l58 70h115l-86 -155h-174zM605 596h-206v-596h-159v596h-206v143h571v-143z" />
    <glyph glyph-name="tcaron" unicode="&#x165;" horiz-adv-x="474" 
d="M311 575l1 164h127l-30 -164h-98zM402 143l49 -117q-68 -41 -143 -41q-88 0 -141.5 47t-53.5 152v218h-103l32 129h71v134h153v-134h172v-129h-172v-216q0 -64 64 -64q38 0 72 21z" />
    <glyph glyph-name="Tbar" unicode="&#x166;" horiz-adv-x="639" 
d="M399 431h93v-122h-93v-309h-159v309h-93v122h93v165h-206v143h571v-143h-206v-165z" />
    <glyph glyph-name="tbar" unicode="&#x167;" horiz-adv-x="474" 
d="M402 143l49 -117q-68 -41 -143 -41q-88 0 -141.5 47t-53.5 152v37h-71v90h71v91h-103l32 129h71v134h153v-134h172v-129h-172v-91h122v-90h-122v-35q0 -64 64 -64q38 0 72 21z" />
    <glyph glyph-name="Utilde" unicode="&#x168;" horiz-adv-x="747" 
d="M289 794l-98 25q11 63 37.5 95.5t63.5 32.5q31 0 67 -17t47 -17q23 0 33 39l98 -25q-11 -63 -37.5 -95.5t-64.5 -32.5q-31 0 -66.5 17.5t-47.5 17.5q-22 0 -32 -40zM374 -15q-137 0 -219 81.5t-82 232.5l2 440h158l-1 -425q-1 -176 141 -176q140 0 140 176l1 425h159
l-1 -440q0 -151 -81 -232.5t-217 -81.5z" />
    <glyph glyph-name="utilde" unicode="&#x169;" horiz-adv-x="638" 
d="M257 626q-22 0 -32 -40l-98 25q11 63 37.5 95.5t63.5 32.5q31 0 67 -17t47 -17q23 0 33 39l98 -25q-11 -63 -37.5 -95.5t-64.5 -32.5q-31 0 -66.5 17.5t-47.5 17.5zM565 0h-145l-6 69q-59 -84 -168 -84q-84 0 -134 58.5t-50 168.5v319h153v-294q0 -60 23.5 -86.5
t69.5 -26.5q47 0 75.5 31t28.5 96v280h153v-531z" />
    <glyph glyph-name="Umacron" unicode="&#x16a;" horiz-adv-x="747" 
d="M521 925v-117h-294v117h294zM374 -15q-137 0 -219 81.5t-82 232.5l2 440h158l-1 -425q-1 -176 141 -176q140 0 140 176l1 425h159l-1 -440q0 -151 -81 -232.5t-217 -81.5z" />
    <glyph glyph-name="umacron" unicode="&#x16b;" horiz-adv-x="638" 
d="M163 600v117h294v-117h-294zM565 0h-145l-6 69q-59 -84 -168 -84q-84 0 -134 58.5t-50 168.5v319h153v-294q0 -60 23.5 -86.5t69.5 -26.5q47 0 75.5 31t28.5 96v280h153v-531z" />
    <glyph glyph-name="Ubreve" unicode="&#x16c;" horiz-adv-x="747" 
d="M373 789q-72 0 -113 41.5t-45 116.5h109q7 -56 49 -56t50 56h110q-5 -76 -45.5 -117t-114.5 -41zM374 -15q-137 0 -219 81.5t-82 232.5l2 440h158l-1 -425q-1 -176 141 -176q140 0 140 176l1 425h159l-1 -440q0 -151 -81 -232.5t-217 -81.5z" />
    <glyph glyph-name="ubreve" unicode="&#x16d;" horiz-adv-x="638" 
d="M309 581q-72 0 -113 41.5t-45 116.5h109q7 -56 49 -56t50 56h110q-5 -76 -45.5 -117t-114.5 -41zM565 0h-145l-6 69q-59 -84 -168 -84q-84 0 -134 58.5t-50 168.5v319h153v-294q0 -60 23.5 -86.5t69.5 -26.5q47 0 75.5 31t28.5 96v280h153v-531z" />
    <glyph glyph-name="Uring" unicode="&#x16e;" horiz-adv-x="747" 
d="M374 781q-60 0 -97.5 36.5t-37.5 92.5t38 92t96 36q60 0 98 -36.5t38 -91.5q0 -56 -38 -92.5t-97 -36.5zM374 859q21 0 35 14t14 37t-14 36.5t-36 13.5q-21 0 -35 -14t-14 -36q0 -23 14 -37t36 -14zM374 -15q-137 0 -219 81.5t-82 232.5l2 440h158l-1 -425
q-1 -176 141 -176q140 0 140 176l1 425h159l-1 -440q0 -151 -81 -232.5t-217 -81.5z" />
    <glyph glyph-name="uring" unicode="&#x16f;" horiz-adv-x="638" 
d="M310 573q-60 0 -97.5 36.5t-37.5 92.5t38 92t96 36q60 0 98 -36.5t38 -91.5q0 -56 -38 -92.5t-97 -36.5zM309 752q-21 0 -35 -14t-14 -36q0 -23 14 -37t36 -14q21 0 35 14t14 37t-14 36.5t-36 13.5zM565 0h-145l-6 69q-59 -84 -168 -84q-84 0 -134 58.5t-50 168.5v319
h153v-294q0 -60 23.5 -86.5t69.5 -26.5q47 0 75.5 31t28.5 96v280h153v-531z" />
    <glyph glyph-name="Uhungarumlaut" unicode="&#x170;" horiz-adv-x="747" 
d="M419 927l-69 -136h-117l71 192zM602 916l-79 -125h-117l82 182zM374 -15q-137 0 -219 81.5t-82 232.5l2 440h158l-1 -425q-1 -176 141 -176q140 0 140 176l1 425h159l-1 -440q0 -151 -81 -232.5t-217 -81.5z" />
    <glyph glyph-name="uhungarumlaut" unicode="&#x171;" horiz-adv-x="638" 
d="M169 583l71 192l115 -56l-69 -136h-117zM424 765l114 -57l-79 -125h-117zM565 0h-145l-6 69q-59 -84 -168 -84q-84 0 -134 58.5t-50 168.5v319h153v-294q0 -60 23.5 -86.5t69.5 -26.5q47 0 75.5 31t28.5 96v280h153v-531z" />
    <glyph glyph-name="Uogonek" unicode="&#x172;" horiz-adv-x="747" 
d="M673 739l-1 -440q0 -122 -54.5 -199.5t-149.5 -102.5q-37 -33 -37 -62q0 -31 48 -31q34 0 69 16v-107q-43 -16 -91 -16q-65 0 -98 25.5t-33 70.5q0 51 48 92q-137 0 -219 81.5t-82 232.5l2 440h158l-1 -425q-1 -176 141 -176q140 0 140 176l1 425h159z" />
    <glyph glyph-name="uogonek" unicode="&#x173;" horiz-adv-x="638" 
d="M506 -96q34 0 69 16v-107q-43 -16 -91 -16q-65 0 -98 25.5t-33 70.5q0 59 67 107l-6 69q-59 -84 -168 -84q-84 0 -134 58.5t-50 168.5v319h153v-294q0 -60 23.5 -86.5t69.5 -26.5q47 0 75.5 31t28.5 96v280h153v-531h-66q-41 -34 -41 -65t48 -31z" />
    <glyph glyph-name="Wcircumflex" unicode="&#x174;" horiz-adv-x="965" 
d="M311 791l86 156h173l87 -156h-116l-57 70l-58 -70h-115zM965 707l-312 -734l-171 392l-171 -392l-311 734l143 61l170 -402l169 388l169 -388l171 402z" />
    <glyph glyph-name="wcircumflex" unicode="&#x175;" horiz-adv-x="791" 
d="M213 584l86 156h173l87 -156h-116l-57 70l-58 -70h-115zM548 -11h-22l-131 285l-131 -285h-23l-240 542h166l98 -248l120 251h22l125 -251l93 248h166z" />
    <glyph glyph-name="Ycircumflex" unicode="&#x176;" horiz-adv-x="706" 
d="M294 791h-115l86 156h173l87 -156h-116l-57 70zM716 694l-284 -405v-289h-159v289l-283 405l130 91l233 -333l233 333z" />
    <glyph glyph-name="ycircumflex" unicode="&#x177;" horiz-adv-x="581" 
d="M117 583l86 156h173l87 -156h-116l-57 70l-58 -70h-115zM347 0l-86 -206h-159l116 269l-216 468h173l121 -300l118 300h165z" />
    <glyph glyph-name="Ydieresis" unicode="&#x178;" horiz-adv-x="706" 
d="M256 794q-34 0 -55.5 22t-21.5 57q0 33 21.5 55.5t55.5 22.5t55.5 -22.5t21.5 -55.5q0 -35 -21.5 -57t-55.5 -22zM449 794q-34 0 -55.5 22t-21.5 57q0 33 21.5 55.5t55.5 22.5t55 -22.5t21 -55.5q0 -36 -20.5 -57.5t-55.5 -21.5zM716 694l-284 -405v-289h-159v289
l-283 405l130 91l233 -333l233 333z" />
    <glyph glyph-name="Zacute" unicode="&#x179;" horiz-adv-x="598" 
d="M242 791l68 189l145 -64l-96 -125h-117zM280 143h295v-143h-544l296 596h-293v143h541z" />
    <glyph glyph-name="zacute" unicode="&#x17a;" horiz-adv-x="480" 
d="M172 583l68 189l145 -64l-96 -125h-117zM245 130h207v-130h-432v22l219 380h-222l31 129h418v-21z" />
    <glyph glyph-name="Zdotaccent" unicode="&#x17b;" horiz-adv-x="598" 
d="M303 786q-38 0 -64.5 25t-26.5 62t27 61.5t64 24.5q39 0 66 -24.5t27 -61.5t-27 -62t-66 -25zM280 143h295v-143h-544l296 596h-293v143h541z" />
    <glyph glyph-name="zdotaccent" unicode="&#x17c;" horiz-adv-x="480" 
d="M232 578q-38 0 -64.5 25t-26.5 62t27 61.5t64 24.5q39 0 66 -24.5t27 -61.5t-27 -62t-66 -25zM245 130h207v-130h-432v22l219 380h-222l31 129h418v-21z" />
    <glyph glyph-name="Zcaron" unicode="&#x17d;" horiz-adv-x="598" 
d="M135 947h116l57 -70l58 70h115l-86 -155h-174zM280 143h295v-143h-544l296 596h-293v143h541z" />
    <glyph glyph-name="zcaron" unicode="&#x17e;" horiz-adv-x="480" 
d="M65 739h116l57 -70l58 70h115l-86 -155h-174zM245 130h207v-130h-432v22l219 380h-222l31 129h418v-21z" />
    <glyph glyph-name="longs" unicode="&#x17f;" horiz-adv-x="443" 
d="M315 754q84 0 143 -41l-61 -107q-32 24 -66 24q-30 0 -47.5 -19t-17.5 -55v-556h-153v402h-103l32 129h71v17q0 98 53 152t149 54z" />
    <glyph glyph-name="Schwa" unicode="&#x18f;" horiz-adv-x="810" 
d="M393 755q73 0 138.5 -24.5t117.5 -71.5t82.5 -122t30.5 -169q0 -92 -31 -166.5t-83.5 -121t-117 -71t-134.5 -24.5q-156 0 -257 102.5t-101 272.5q0 36 6 84h544q-19 78 -74 118t-127 40q-111 0 -180 -71l-103 106q109 118 289 118zM396 138q72 0 125.5 42.5t69.5 122.5
h-382q11 -81 60 -123t127 -42z" />
    <glyph glyph-name="florin" unicode="&#x192;" horiz-adv-x="442" 
d="M408 624h-13q-55 0 -77 -22t-22 -73v-109h102v-124h-102v-275q0 -228 -233 -228q-19 0 -29 1v130q5 0 13 -0.5t11 -0.5q44 0 62 23.5t18 72.5v277h-94v124h94v107q0 112 56.5 170t182.5 58q21 0 31 -1v-130z" />
    <glyph glyph-name="Aringacute" unicode="&#x1fa;" horiz-adv-x="856" 
d="M367 1068l68 189l145 -64l-96 -125h-117zM428 781q-60 0 -97.5 36.5t-37.5 92.5t38 92t96 36q60 0 98 -36.5t38 -91.5q0 -56 -38 -92.5t-97 -36.5zM427 960q-21 0 -35 -14t-14 -36q0 -23 14 -37t36 -14q21 0 35 14t14 37t-14 36.5t-36 13.5zM728 -48l128 74l-428 742
l-428 -742l128 -74l90 157h420zM304 257l124 215l124 -215h-248z" />
    <glyph glyph-name="aringacute" unicode="&#x1fb;" horiz-adv-x="575" 
d="M211 861l68 189l145 -64l-96 -125h-117zM273 574q-60 0 -97.5 36.5t-37.5 92.5t38 92t96 36q60 0 98 -36.5t38 -91.5q0 -56 -38 -92.5t-97 -36.5zM272 753q-21 0 -35 -14t-14 -36q0 -23 14 -37t36 -14q21 0 35 14t14 37t-14 36.5t-36 13.5zM385 0l-12 65
q-53 -76 -157 -76q-83 0 -133.5 44.5t-50.5 124.5q0 77 63 123t172 46q51 0 99 -13v14q0 45 -28.5 70t-80.5 25q-74 0 -140 -46l-55 111q94 59 207 59q111 0 176 -58.5t65 -159.5v-181q0 -78 10 -148h-135zM256 103q46 0 78 25t32 70v21q-38 10 -79 10q-108 0 -108 -68
q0 -26 19.5 -42t57.5 -16z" />
    <glyph glyph-name="AEacute" unicode="&#x1fc;" horiz-adv-x="975" 
d="M583 791l68 189l145 -64l-96 -125h-117zM915 0h-441v177h-212l-86 -177h-179l391 739h516v-143h-274v-143h259v-140h-259v-170h285v-143zM474 594h-8l-138 -283h146v283z" />
    <glyph glyph-name="aeacute" unicode="&#x1fd;" horiz-adv-x="921" 
d="M400 583l68 189l145 -64l-96 -125h-117zM622 548q124 0 197 -84.5t63 -243.5h-375q22 -102 138 -102q73 0 133 56l75 -107q-90 -82 -223 -82q-132 0 -203 93q-62 -89 -194 -89q-91 0 -146 44.5t-55 124.5q0 78 64 124t173 46q47 0 91 -11v9q0 48 -26.5 73t-73.5 25
q-70 0 -132 -46l-58 110q88 58 200 58q120 0 177 -71q70 73 175 73zM622 425q-43 0 -73 -26t-41 -73l220 -1q-17 100 -106 100zM256 101q44 0 74 25.5t30 73.5v21q-33 9 -73 9q-108 0 -108 -68q0 -61 77 -61z" />
    <glyph glyph-name="Oslashacute" unicode="&#x1fe;" horiz-adv-x="862" 
d="M370 791l68 189l145 -64l-96 -125h-117zM757 667l-35 -40q92 -104 92 -259q0 -92 -34 -167t-90 -121t-123.5 -71t-138.5 -25q-113 0 -207 58l-34 -40l-82 70l33 39q-91 104 -91 257q0 94 33.5 170t89 122t122 70.5t136.5 24.5q115 0 211 -59l35 41zM212 368
q0 -75 34 -132l290 340q-48 26 -108 26q-89 0 -152.5 -59.5t-63.5 -174.5zM428 138q88 0 155 60t67 170q0 77 -34 134l-291 -339q47 -25 103 -25z" />
    <glyph glyph-name="oslashacute" unicode="&#x1ff;" horiz-adv-x="648" 
d="M264 584l68 189l145 -64l-96 -125h-117zM570 485l-27 -32q65 -75 65 -187q0 -131 -83 -206t-202 -75q-77 0 -141 33l-29 -35l-74 62l27 33q-66 74 -66 188q0 132 83.5 206.5t202.5 74.5q77 0 140 -33l29 34zM197 265q0 -36 11 -64l168 203q-25 11 -50 11q-53 0 -91 -40.5
t-38 -109.5zM323 117q53 0 91 40.5t38 109.5q0 33 -10 63l-169 -202q25 -11 50 -11z" />
    <glyph glyph-name="Scommaaccent" unicode="&#x218;" horiz-adv-x="682" 
d="M640 217q0 -76 -43 -130.5t-106 -78t-138 -23.5q-199 0 -329 130l102 101q87 -87 227 -87q21 0 41.5 3t45.5 11t40.5 27t15.5 47q0 34 -31 51.5t-128 37.5q-33 7 -50 11t-50.5 14.5t-53 20.5t-45 28t-39.5 38.5t-24 50.5t-10 65q0 97 75 159t194 62q180 0 302 -111
l-96 -106q-81 73 -206 73q-57 0 -91 -21t-34 -56q0 -33 31 -50.5t127 -37.5q31 -6 50 -10.5t51 -14.5t52.5 -20.5t45.5 -28t39.5 -38.5t24.5 -51t10 -66zM280 -242v27q29 -1 45 18q9 11 9 20q-26 0 -41 16q-18 15 -18 42q0 30 18.5 50.5t52.5 20.5q36 0 56 -23.5t20 -57.5
q0 -51 -37 -83.5t-105 -29.5z" />
    <glyph glyph-name="scommaaccent" unicode="&#x219;" horiz-adv-x="494" 
d="M248 -15q-78 0 -132.5 23t-101.5 67l83 99q67 -66 149 -66q70 0 70 42q0 21 -20.5 34.5t-51.5 19.5t-67.5 17.5t-67.5 25.5t-51.5 46.5t-20.5 78.5q0 79 61.5 126.5t158.5 47.5q126 0 207 -74l-75 -100q-59 52 -128 52q-32 0 -51 -11.5t-19 -30.5q0 -21 28.5 -33.5
t69.5 -21.5t82.5 -24t70 -50.5t28.5 -89.5q0 -82 -64.5 -130t-157.5 -48zM185 -242v27q29 -1 45 18q9 11 9 20q-26 0 -41 16q-18 15 -18 42q0 30 18.5 50.5t52.5 20.5q36 0 56 -23.5t20 -57.5q0 -51 -37 -83.5t-105 -29.5z" />
    <glyph glyph-name="uni021A" unicode="&#x21a;" horiz-adv-x="639" 
d="M34 596v143h571v-143h-206v-596h-159v596h-206zM259 -242v27q29 -1 45 18q9 11 9 20q-26 0 -41 16q-18 15 -18 42q0 30 18.5 50.5t52.5 20.5q36 0 56 -23.5t20 -57.5q0 -51 -37 -83.5t-105 -29.5z" />
    <glyph glyph-name="uni021B" unicode="&#x21b;" horiz-adv-x="474" 
d="M402 143l49 -117q-68 -41 -143 -41q-88 0 -141.5 47t-53.5 152v218h-103l32 129h71v134h153v-134h172v-129h-172v-216q0 -64 64 -64q38 0 72 21zM293 -48q36 0 56 -23.5t20 -57.5q0 -51 -37 -83.5t-105 -29.5v27q29 -1 45 18q9 11 9 20q-26 0 -41 16q-18 15 -18 42
q0 30 18.5 50.5t52.5 20.5z" />
    <glyph glyph-name="dotlessj" unicode="&#x237;" horiz-adv-x="300" 
d="M30 -221q-58 0 -104 17l37 121q21 -10 46 -10q32 0 48.5 18t16.5 61v545h152v-538q0 -104 -52 -159t-144 -55z" />
    <glyph glyph-name="schwa" unicode="&#x259;" horiz-adv-x="615" 
d="M294 547q127 0 203.5 -75.5t76.5 -204.5q0 -132 -80.5 -207.5t-194.5 -75.5q-117 0 -189 75.5t-72 218.5q0 5 0.5 15t0.5 15h377q-20 105 -137 105q-76 0 -136 -52l-72 104q88 82 223 82zM301 107q44 0 74 27.5t40 75.5h-220q7 -47 34 -75t72 -28z" />
    <glyph glyph-name="uni02BC" unicode="&#x2bc;" horiz-adv-x="292" 
d="M80 411l-35 68q81 35 97 97l1 4q-7 -1 -15 -1q-35 0 -57.5 23t-22.5 59q0 42 27.5 67.5t68.5 25.5q44 0 71 -31t27 -83q0 -70 -42.5 -131t-119.5 -98z" />
    <glyph glyph-name="circumflex" unicode="&#x2c6;" horiz-adv-x="446" 
d="M223 653l-58 -70h-115l86 156h173l87 -156h-116z" />
    <glyph glyph-name="caron" unicode="&#x2c7;" horiz-adv-x="446" 
d="M310 584h-174l-86 155h116l57 -70l58 70h115z" />
    <glyph glyph-name="firsttonechinese" unicode="&#x2c9;" horiz-adv-x="394" 
d="M344 717v-117h-294v117h294z" />
    <glyph glyph-name="breve" unicode="&#x2d8;" horiz-adv-x="418" 
d="M208 581q-72 0 -113 41.5t-45 116.5h109q7 -56 49 -56t50 56h110q-5 -76 -45.5 -117t-114.5 -41z" />
    <glyph glyph-name="dotaccent" unicode="&#x2d9;" horiz-adv-x="284" 
d="M141 578q-38 0 -64.5 25t-26.5 62t27 61.5t64 24.5q39 0 66 -24.5t27 -61.5t-27 -62t-66 -25z" />
    <glyph glyph-name="ring" unicode="&#x2da;" horiz-adv-x="370" 
d="M185 573q-60 0 -97.5 36.5t-37.5 92.5t38 92t96 36q60 0 98 -36.5t38 -91.5q0 -56 -38 -92.5t-97 -36.5zM185 651q21 0 35 14t14 37t-14 36.5t-36 13.5q-21 0 -35 -14t-14 -36q0 -23 14 -37t36 -14z" />
    <glyph glyph-name="ogonek" unicode="&#x2db;" horiz-adv-x="322" 
d="M272 -80v-107q-43 -16 -91 -16q-65 0 -98 25.5t-33 70.5q0 41 30 75t100 71l33 -25q-58 -44 -58 -79q0 -31 48 -31q34 0 69 16z" />
    <glyph glyph-name="tilde" unicode="&#x2dc;" horiz-adv-x="446" 
d="M148 586l-98 25q11 63 37.5 95.5t63.5 32.5q31 0 67 -17t47 -17q23 0 33 39l98 -25q-11 -63 -37.5 -95.5t-64.5 -32.5q-31 0 -66.5 17.5t-47.5 17.5q-22 0 -32 -40z" />
    <glyph glyph-name="hungarumlaut" unicode="&#x2dd;" horiz-adv-x="469" 
d="M236 719l-69 -136h-117l71 192zM419 708l-79 -125h-117l82 182z" />
    <glyph glyph-name="gravecomb" unicode="&#x300;" horiz-adv-x="0" 
d="M-118 772l68 -189h-116l-97 125z" />
    <glyph glyph-name="acutecomb" unicode="&#x301;" horiz-adv-x="0" 
d="M-50 708l-96 -125h-117l68 189z" />
    <glyph glyph-name="uni0302" unicode="&#x302;" horiz-adv-x="0" 
d="M-223 653l-58 -70h-115l86 156h173l87 -156h-116z" />
    <glyph glyph-name="tildecomb" unicode="&#x303;" horiz-adv-x="0" 
d="M-298 586l-98 25q11 63 37.5 95.5t63.5 32.5q31 0 67 -17t47 -17q23 0 33 39l98 -25q-11 -63 -37.5 -95.5t-64.5 -32.5q-31 0 -66.5 17.5t-47.5 17.5q-22 0 -32 -40z" />
    <glyph glyph-name="uni0304" unicode="&#x304;" horiz-adv-x="0" 
d="M-50 717v-117h-294v117h294z" />
    <glyph glyph-name="uni0306" unicode="&#x306;" horiz-adv-x="0" 
d="M-210 581q-72 0 -113 41.5t-45 116.5h109q7 -56 49 -56t50 56h110q-5 -76 -45.5 -117t-114.5 -41z" />
    <glyph glyph-name="uni0307" unicode="&#x307;" horiz-adv-x="0" 
d="M-143 578q-38 0 -64.5 25t-26.5 62t27 61.5t64 24.5q39 0 66 -24.5t27 -61.5t-27 -62t-66 -25z" />
    <glyph glyph-name="uni0308" unicode="&#x308;" horiz-adv-x="0" 
d="M-319 586q-34 0 -55.5 22t-21.5 57q0 33 21.5 55.5t55.5 22.5t55.5 -22.5t21.5 -55.5q0 -35 -21.5 -57t-55.5 -22zM-126 586q-34 0 -55.5 22t-21.5 57q0 33 21.5 55.5t55.5 22.5t55 -22.5t21 -55.5q0 -36 -20.5 -57.5t-55.5 -21.5z" />
    <glyph glyph-name="uni030A" unicode="&#x30a;" horiz-adv-x="0" 
d="M-185 573q-60 0 -97.5 36.5t-37.5 92.5t38 92t96 36q60 0 98 -36.5t38 -91.5q0 -56 -38 -92.5t-97 -36.5zM-185 651q21 0 35 14t14 37t-14 36.5t-36 13.5q-21 0 -35 -14t-14 -36q0 -23 14 -37t36 -14z" />
    <glyph glyph-name="uni030B" unicode="&#x30b;" horiz-adv-x="0" 
d="M-233 719l-69 -136h-117l71 192zM-50 708l-79 -125h-117l82 182z" />
    <glyph glyph-name="uni030C" unicode="&#x30c;" horiz-adv-x="0" 
d="M-136 584h-174l-86 155h116l57 -70l58 70h115z" />
    <glyph glyph-name="uni0312" unicode="&#x312;" horiz-adv-x="0" 
d="M-121 581q-36 0 -56 23.5t-20 57.5q0 51 37 83.5t105 29.5v-27q-31 0 -45 -19q-9 -9 -10 -20q25 2 42 -15q18 -16 18 -42q0 -30 -18.5 -50.5t-52.5 -20.5z" />
    <glyph glyph-name="uni0313" unicode="&#x313;" horiz-adv-x="0" 
d="M-192 581v27q31 0 45 18q9 10 9 21q-24 -2 -41 15q-18 16 -18 42q0 30 18.5 50.5t52.5 20.5q36 0 56 -23.5t20 -57.5q0 -51 -37 -83.5t-105 -29.5z" />
    <glyph glyph-name="uni0326" unicode="&#x326;" horiz-adv-x="0" 
d="M-192 -242v27q29 -1 45 18q9 11 9 20q-26 0 -41 16q-18 15 -18 42q0 30 18.5 50.5t52.5 20.5q36 0 56 -23.5t20 -57.5q0 -51 -37 -83.5t-105 -29.5z" />
    <glyph glyph-name="uni0327" unicode="&#x327;" horiz-adv-x="0" 
d="M-50 -59l-68 -147h-109l35 147h142z" />
    <glyph glyph-name="uni0328" unicode="&#x328;" horiz-adv-x="0" 
d="M-50 -80v-107q-43 -16 -91 -16q-65 0 -98 25.5t-33 70.5q0 41 30 75t100 71l33 -25q-58 -44 -58 -79q0 -31 48 -31q34 0 69 16z" />
    <glyph glyph-name="uni0335" unicode="&#x335;" horiz-adv-x="0" 
d="M-50 355v-90h-346v90h346z" />
    <glyph glyph-name="uni0336" unicode="&#x336;" horiz-adv-x="0" 
d="M-50 371v-122h-494v122h494z" />
    <glyph glyph-name="uni0337" unicode="&#x337;" horiz-adv-x="0" 
d="M-50 591v-130l-128 -92v127zM-215 499v-128l-126 -94v129z" />
    <glyph glyph-name="uni0338" unicode="&#x338;" horiz-adv-x="0" 
d="M-125 552l75 -63l-417 -502l-74 62z" />
    <glyph glyph-name="Delta" unicode="&#x394;" horiz-adv-x="702" 
d="M-3 0l344 751h21l343 -751h-708zM349 458l-130 -328h260z" />
    <glyph glyph-name="Omega" unicode="&#x3a9;" horiz-adv-x="811" 
d="M763 0h-316v127q69 70 103 136.5t34 144.5q0 88 -47.5 140.5t-131.5 52.5q-83 0 -130.5 -52.5t-47.5 -140.5q0 -78 34 -144.5t103 -136.5v-127h-317v147h138q-123 116 -123 278q0 151 98.5 240t244.5 89q147 0 245.5 -89t98.5 -240q0 -163 -124 -278h138v-147z" />
    <glyph glyph-name="mu" unicode="&#x3bc;" horiz-adv-x="645" 
d="M571 0h-136l-7 53q-40 -63 -120 -63q-54 0 -90 28l1 -224h-146v737h151v-283q0 -124 97 -124q101 0 101 130v277h149v-531z" />
    <glyph glyph-name="pi" unicode="&#x3c0;" horiz-adv-x="719" 
d="M672 127l24 -129q-39 -13 -83 -13q-184 0 -184 190v227h-143v-402h-153v402h-123l32 129h648v-129h-109v-225q0 -55 54 -55q19 0 37 5z" />
    <glyph glyph-name="Wgrave" unicode="&#x1e80;" horiz-adv-x="965" 
d="M332 916l145 64l68 -189h-116zM965 707l-312 -734l-171 392l-171 -392l-311 734l143 61l170 -402l169 388l169 -388l171 402z" />
    <glyph glyph-name="wgrave" unicode="&#x1e81;" horiz-adv-x="791" 
d="M234 709l145 64l68 -189h-116zM548 -11h-22l-131 285l-131 -285h-23l-240 542h166l98 -248l120 251h22l125 -251l93 248h166z" />
    <glyph glyph-name="Wacute" unicode="&#x1e82;" horiz-adv-x="965" 
d="M423 791l68 189l145 -64l-96 -125h-117zM965 707l-312 -734l-171 392l-171 -392l-311 734l143 61l170 -402l169 388l169 -388l171 402z" />
    <glyph glyph-name="wacute" unicode="&#x1e83;" horiz-adv-x="791" 
d="M325 584l68 189l145 -64l-96 -125h-117zM548 -11h-22l-131 285l-131 -285h-23l-240 542h166l98 -248l120 251h22l125 -251l93 248h166z" />
    <glyph glyph-name="Wdieresis" unicode="&#x1e84;" horiz-adv-x="965" 
d="M387 794q-34 0 -55.5 22t-21.5 57q0 33 21.5 55.5t55.5 22.5t55.5 -22.5t21.5 -55.5q0 -35 -21.5 -57t-55.5 -22zM580 794q-34 0 -55.5 22t-21.5 57q0 33 21.5 55.5t55.5 22.5t55 -22.5t21 -55.5q0 -36 -20.5 -57.5t-55.5 -21.5zM965 707l-312 -734l-171 392l-171 -392
l-311 734l143 61l170 -402l169 388l169 -388l171 402z" />
    <glyph glyph-name="wdieresis" unicode="&#x1e85;" horiz-adv-x="791" 
d="M289 587q-34 0 -55.5 22t-21.5 57q0 33 21.5 55.5t55.5 22.5t55.5 -22.5t21.5 -55.5q0 -35 -21.5 -57t-55.5 -22zM482 587q-34 0 -55.5 22t-21.5 57q0 33 21.5 55.5t55.5 22.5t55 -22.5t21 -55.5q0 -36 -20.5 -57.5t-55.5 -21.5zM548 -11h-22l-131 285l-131 -285h-23
l-240 542h166l98 -248l120 251h22l125 -251l93 248h166z" />
    <glyph glyph-name="uni1E9E" unicode="&#x1e9e;" horiz-adv-x="745" 
d="M676 570l-135 -155q161 -73 161 -222q0 -90 -63.5 -149.5t-174.5 -59.5q-102 0 -174 40l52 132q53 -29 107 -29q41 0 65 20t24 60q0 48 -40 84t-145 65l-5 23l152 186q-52 49 -125 49q-70 0 -107 -40.5t-37 -119.5v-458h-158v458q0 146 82.5 223.5t211.5 77.5
q61 0 111.5 -15.5t87 -43.5t62 -58t48.5 -68z" />
    <glyph glyph-name="Ygrave" unicode="&#x1ef2;" horiz-adv-x="706" 
d="M297 791l-97 125l145 64l68 -189h-116zM716 694l-284 -405v-289h-159v289l-283 405l130 91l233 -333l233 333z" />
    <glyph glyph-name="ygrave" unicode="&#x1ef3;" horiz-adv-x="581" 
d="M138 708l145 64l68 -189h-116zM347 0l-86 -206h-159l116 269l-216 468h173l121 -300l118 300h165z" />
    <glyph glyph-name="uni2011" unicode="&#x2011;" horiz-adv-x="357" 
d="M306 239h-255v129h255v-129z" />
    <glyph glyph-name="endash" unicode="&#x2013;" horiz-adv-x="424" 
d="M404 239h-384v129h384v-129z" />
    <glyph glyph-name="emdash" unicode="&#x2014;" horiz-adv-x="768" 
d="M768 239h-768v129h768v-129z" />
    <glyph glyph-name="quoteleft" unicode="&#x2018;" horiz-adv-x="292" 
d="M148 411q-44 0 -71 31t-27 83q0 71 42.5 132t119.5 97l35 -68q-37 -16 -63.5 -41t-33.5 -56l-1 -4q8 1 15 1q35 0 57.5 -22.5t22.5 -58.5q0 -42 -27.5 -68t-68.5 -26z" />
    <glyph glyph-name="quoteright" unicode="&#x2019;" horiz-adv-x="292" 
d="M80 411l-35 68q81 35 97 97l1 4q-7 -1 -15 -1q-35 0 -57.5 23t-22.5 59q0 42 27.5 67.5t68.5 25.5q44 0 71 -31t27 -83q0 -70 -42.5 -131t-119.5 -98z" />
    <glyph glyph-name="quotesinglbase" unicode="&#x201a;" horiz-adv-x="292" 
d="M80 -175l-35 68q81 35 97 97l1 4q-7 -1 -15 -1q-35 0 -57.5 23t-22.5 59q0 42 27.5 67.5t68.5 25.5q44 0 71 -31t27 -83q0 -70 -42.5 -131t-119.5 -98z" />
    <glyph glyph-name="quotedblleft" unicode="&#x201c;" horiz-adv-x="529" 
d="M148 411q-44 0 -71 31t-27 83q0 71 42.5 132t119.5 97l35 -68q-81 -34 -97 -97l-1 -4q8 1 15 1q35 0 57.5 -22.5t22.5 -58.5q0 -42 -27.5 -68t-68.5 -26zM386 411q-45 0 -72 31t-27 83q0 71 42.5 132t119.5 97l35 -68q-81 -34 -97 -97l-1 -4q8 1 15 1q35 0 57.5 -22.5
t22.5 -58.5q0 -42 -27.5 -68t-67.5 -26z" />
    <glyph glyph-name="quotedblright" unicode="&#x201d;" horiz-adv-x="529" 
d="M80 411l-35 68q82 36 97 97l1 4q-7 -1 -15 -1q-35 0 -57.5 23t-22.5 59q0 42 27.5 67.5t68.5 25.5q44 0 71 -31t27 -83q0 -70 -42.5 -131t-119.5 -98zM318 411l-36 68q82 36 97 97l1 4q-7 -1 -15 -1q-35 0 -57 22.5t-22 59.5q0 42 27 67.5t68 25.5q45 0 72 -31t27 -83
q0 -70 -42.5 -131t-119.5 -98z" />
    <glyph glyph-name="quotedblbase" unicode="&#x201e;" horiz-adv-x="529" 
d="M80 -175l-35 68q81 35 97 97l1 4q-7 -1 -15 -1q-35 0 -57.5 23t-22.5 59q0 42 27.5 67.5t68.5 25.5q44 0 71 -31t27 -83q0 -70 -42.5 -131t-119.5 -98zM318 -175l-36 68q82 36 97 97l1 4q-7 -1 -15 -1q-35 0 -57 22.5t-22 59.5q0 42 27 67.5t68 25.5q45 0 72 -31t27 -83
q0 -70 -42.5 -131t-119.5 -98z" />
    <glyph glyph-name="dagger" unicode="&#x2020;" horiz-adv-x="752" 
d="M488 739l-102 -240h-21l-101 240h224zM320 454v-20l-240 -103v225zM431 454l241 102v-225l-241 103v20zM365 388h21l69 -161v-433h-159v433z" />
    <glyph glyph-name="daggerdbl" unicode="&#x2021;" horiz-adv-x="752" 
d="M488 739l-102 -240h-20l-102 240h224zM320 454v-20l-240 -103v225zM431 454l241 102v-225l-241 103v20zM366 388h20l54 -121l-54 -121h-20l-54 121zM320 100v-21l-240 -101v224zM431 100l241 102v-224l-241 101v21zM386 34l102 -240h-224l102 240h20z" />
    <glyph glyph-name="bullet" unicode="&#x2022;" horiz-adv-x="423" 
d="M212 212q-64 0 -105 39.5t-41 101.5q0 61 41 100.5t105 39.5q63 0 104.5 -39.5t41.5 -100.5t-41.5 -101t-104.5 -40z" />
    <glyph glyph-name="ellipsis" unicode="&#x2026;" horiz-adv-x="829" 
d="M146 -15q-41 0 -68 26t-27 66t27 66t68 26t68.5 -26t27.5 -66t-27.5 -66t-68.5 -26zM415 -15q-41 0 -68 26t-27 66t27 66t68 26t68.5 -26t27.5 -66t-27.5 -66t-68.5 -26zM683 -15q-41 0 -68 26t-27 66t27 66t68 26q42 0 69 -26t27 -66t-27 -66t-69 -26z" />
    <glyph glyph-name="perthousand" unicode="&#x2030;" horiz-adv-x="1488" 
d="M237 367q-82 0 -139.5 54.5t-57.5 138.5q0 85 57 140t140 55q84 0 141 -54.5t57 -140.5q0 -84 -57 -138.5t-141 -54.5zM835 739l-466 -739h-157l465 739h158zM237 481q31 0 51.5 22.5t20.5 56.5q0 35 -20.5 58t-51.5 23q-30 0 -50 -23t-20 -58q0 -34 20 -56.5t50 -22.5z
M808 -15q-83 0 -139.5 54t-56.5 140q0 84 56.5 139t139.5 55t140.5 -55t57.5 -139q0 -85 -57.5 -139.5t-140.5 -54.5zM1250 -15q-83 0 -139.5 54t-56.5 140q0 84 56.5 139t139.5 55q82 0 140 -55t58 -139q0 -85 -57.5 -139.5t-140.5 -54.5zM808 99q30 0 50.5 23t20.5 57
t-20.5 56.5t-50.5 22.5q-29 0 -50.5 -23t-21.5 -56t21.5 -56.5t50.5 -23.5zM1250 99q30 0 50.5 23t20.5 57t-20.5 56.5t-50.5 22.5q-29 0 -50.5 -23t-21.5 -56t21.5 -56.5t50.5 -23.5z" />
    <glyph glyph-name="guilsinglleft" unicode="&#x2039;" horiz-adv-x="359" 
d="M327 58h-121l-184 222l184 222h121l-126 -222z" />
    <glyph glyph-name="guilsinglright" unicode="&#x203a;" horiz-adv-x="359" 
d="M32 502h121l184 -222l-184 -222h-121l126 222z" />
    <glyph glyph-name="fraction" unicode="&#x2044;" horiz-adv-x="148" 
d="M372 739l-462 -739h-135l462 739h135z" />
    <glyph glyph-name="zerosuperior" unicode="&#x2070;" horiz-adv-x="446" 
d="M224 531q-83 0 -131 53t-48 140t48 139.5t131 52.5q82 0 129.5 -53t47.5 -139q0 -87 -47.5 -140t-129.5 -53zM224 627q32 0 52 25t20 72q0 46 -20 71.5t-52 25.5q-34 0 -53.5 -25t-19.5 -72q0 -48 19.5 -72.5t53.5 -24.5z" />
    <glyph glyph-name="foursuperior" unicode="&#x2074;" horiz-adv-x="418" 
d="M329 597v-58h-96v58h-236v12l229 300h103v-228h62v-84h-62zM233 785l-80 -104h80v104z" />
    <glyph glyph-name="fivesuperior" unicode="&#x2075;" horiz-adv-x="365" 
d="M180 780q73 0 110.5 -33t37.5 -83q0 -54 -43 -94t-120 -40q-88 0 -143 52l57 75q34 -32 84 -32q59 0 59 35q0 41 -72 41q-40 0 -98 -17l-8 6v219h258v-88h-162v-46q22 5 40 5z" />
    <glyph glyph-name="sixsuperior" unicode="&#x2076;" horiz-adv-x="395" 
d="M226 790q62 0 99.5 -34.5t37.5 -90.5q0 -59 -45 -97t-119 -38q-76 0 -121.5 38.5t-45.5 99.5q0 60 49 121l103 120h132l-121 -122q13 3 31 3zM199 625q26 0 41.5 11t15.5 29q0 21 -15.5 32.5t-41.5 11.5q-28 0 -44.5 -11.5t-16.5 -32.5q0 -18 17 -29t44 -11z" />
    <glyph glyph-name="sevensuperior" unicode="&#x2077;" horiz-adv-x="333" 
d="M337 896l-152 -357h-114l127 275h-171v95h310v-13z" />
    <glyph glyph-name="eightsuperior" unicode="&#x2078;" horiz-adv-x="430" 
d="M216 530q-75 0 -122.5 31.5t-47.5 88.5q0 28 17.5 49t42.5 31q-47 24 -47 79q0 49 42.5 79t114.5 30q71 0 113.5 -30t42.5 -79q0 -55 -47 -79q25 -10 42.5 -31t17.5 -49q0 -57 -47 -88.5t-122 -31.5zM216 764q52 0 52 33q0 15 -14 24.5t-38 9.5q-25 0 -39 -9.5t-14 -24.5
q0 -33 53 -33zM216 616q28 0 45 10t17 28q0 36 -63 36q-64 0 -64 -36q0 -38 65 -38z" />
    <glyph glyph-name="ninesuperior" unicode="&#x2079;" horiz-adv-x="395" 
d="M197 918q76 0 121 -38.5t45 -99.5q0 -60 -49 -121l-102 -120h-133l122 122q-15 -3 -32 -3q-62 0 -99.5 34.5t-37.5 90.5q0 59 45.5 97t119.5 38zM197 739q27 0 43.5 11.5t16.5 32.5q0 18 -16.5 29t-43.5 11q-26 0 -42 -11t-16 -29q0 -21 15.5 -32.5t42.5 -11.5z" />
    <glyph glyph-name="plussuperior" unicode="&#x207a;" horiz-adv-x="372" 
d="M234 657v-113h-97v113h-113v97h113v114h97v-114h114v-97h-114z" />
    <glyph glyph-name="uni207B" unicode="&#x207b;" horiz-adv-x="353" 
d="M329 754v-97h-305v97h305z" />
    <glyph glyph-name="equalsuperior" unicode="&#x207c;" horiz-adv-x="376" 
d="M344 827v-96h-312v96h312zM344 680v-96h-312v96h312z" />
    <glyph glyph-name="parenleftsuperior" unicode="&#x207d;" horiz-adv-x="268" 
d="M267 489l-48 -69q-181 106 -181 305t181 303l48 -71q-59 -42 -89 -93.5t-30 -138.5t29.5 -139t89.5 -97z" />
    <glyph glyph-name="parenrightsuperior" unicode="&#x207e;" horiz-adv-x="268" 
d="M49 420l-48 69q60 45 89.5 97t29.5 139t-30 138.5t-89 93.5l48 71q181 -104 181 -303t-181 -305z" />
    <glyph glyph-name="nsuperior" unicode="&#x207f;" horiz-adv-x="489" 
d="M300 748q62 0 99 -41t37 -119v-227h-119v208q0 36 -15 53t-49 17q-32 0 -52 -19.5t-20 -59.5v-199h-120v375h113l5 -40q45 52 121 52z" />
    <glyph glyph-name="zeroinferior" unicode="&#x2080;" horiz-adv-x="446" 
d="M224 -108q-83 0 -131 53t-48 140t48 139.5t131 52.5q82 0 129.5 -53t47.5 -139q0 -87 -47.5 -140t-129.5 -53zM224 -12q32 0 52 25t20 72q0 46 -20 71.5t-52 25.5q-34 0 -53.5 -25t-19.5 -72q0 -48 19.5 -72.5t53.5 -24.5z" />
    <glyph glyph-name="oneinferior" unicode="&#x2081;" horiz-adv-x="321" 
d="M64 103l-37 85l204 89h14v-377h-104v234z" />
    <glyph glyph-name="twoinferior" unicode="&#x2082;" horiz-adv-x="375" 
d="M337 -100h-312v13l128 141q37 39 49.5 58.5t12.5 35.5t-12 25.5t-35 9.5q-45 0 -80 -47l-66 66q57 77 156 77q75 0 110 -36t35 -85q0 -68 -90 -152l-11 -10h115v-96z" />
    <glyph glyph-name="threeinferior" unicode="&#x2083;" horiz-adv-x="390" 
d="M190 -108q-104 0 -163 64l63 73q38 -41 92 -41q57 0 57 45q0 32 -38.5 41t-77.5 -8l-17 34l70 75h-139v95h311v-26l-103 -109q44 -5 71.5 -35.5t27.5 -77.5q0 -59 -40 -94.5t-114 -35.5z" />
    <glyph glyph-name="fourinferior" unicode="&#x2084;" horiz-adv-x="418" 
d="M329 -42v-58h-96v58h-236v12l229 300h103v-228h62v-84h-62zM233 146l-80 -104h80v104z" />
    <glyph glyph-name="fiveinferior" unicode="&#x2085;" horiz-adv-x="365" 
d="M180 141q73 0 110.5 -33t37.5 -83q0 -54 -43 -94t-120 -40q-88 0 -143 52l57 75q34 -32 84 -32q59 0 59 35q0 41 -72 41q-40 0 -98 -17l-8 6v219h258v-88h-162v-46q22 5 40 5z" />
    <glyph glyph-name="sixinferior" unicode="&#x2086;" horiz-adv-x="395" 
d="M226 151q62 0 99.5 -34.5t37.5 -90.5q0 -59 -45 -97t-119 -38q-76 0 -121.5 38.5t-45.5 99.5q0 60 49 121l103 120h132l-121 -122q13 3 31 3zM199 -14q26 0 41.5 11t15.5 29q0 21 -15.5 32.5t-41.5 11.5q-28 0 -44.5 -11.5t-16.5 -32.5q0 -18 17 -29t44 -11z" />
    <glyph glyph-name="seveninferior" unicode="&#x2087;" horiz-adv-x="333" 
d="M337 257l-152 -357h-114l127 275h-171v95h310v-13z" />
    <glyph glyph-name="eightinferior" unicode="&#x2088;" horiz-adv-x="430" 
d="M216 -109q-75 0 -122.5 31.5t-47.5 88.5q0 28 17.5 49t42.5 31q-47 24 -47 79q0 49 42.5 79t114.5 30q71 0 113.5 -30t42.5 -79q0 -55 -47 -79q25 -10 42.5 -31t17.5 -49q0 -57 -47 -88.5t-122 -31.5zM216 125q52 0 52 33q0 15 -14 24.5t-38 9.5q-25 0 -39 -9.5
t-14 -24.5q0 -33 53 -33zM216 -23q28 0 45 10t17 28q0 36 -63 36q-64 0 -64 -36q0 -38 65 -38z" />
    <glyph glyph-name="nineinferior" unicode="&#x2089;" horiz-adv-x="395" 
d="M197 279q76 0 121 -38.5t45 -99.5q0 -60 -49 -121l-102 -120h-133l122 122q-15 -3 -32 -3q-62 0 -99.5 34.5t-37.5 90.5q0 59 45.5 97t119.5 38zM197 100q27 0 43.5 11.5t16.5 32.5q0 18 -16.5 29t-43.5 11q-26 0 -42 -11t-16 -29q0 -21 15.5 -32.5t42.5 -11.5z" />
    <glyph glyph-name="uni208A" unicode="&#x208a;" horiz-adv-x="372" 
d="M234 27v-113h-97v113h-113v97h113v114h97v-114h114v-97h-114z" />
    <glyph glyph-name="uni208B" unicode="&#x208b;" horiz-adv-x="353" 
d="M329 124v-97h-305v97h305z" />
    <glyph glyph-name="uni208C" unicode="&#x208c;" horiz-adv-x="376" 
d="M344 197v-96h-312v96h312zM344 50v-96h-312v96h312z" />
    <glyph glyph-name="uni208D" unicode="&#x208d;" horiz-adv-x="268" 
d="M267 -141l-48 -69q-181 106 -181 305t181 303l48 -71q-59 -42 -89 -93.5t-30 -138.5t29.5 -139t89.5 -97z" />
    <glyph glyph-name="uni208E" unicode="&#x208e;" horiz-adv-x="268" 
d="M49 -210l-48 69q60 45 89.5 97t29.5 139t-30 138.5t-89 93.5l48 71q181 -104 181 -303t-181 -305z" />
    <glyph glyph-name="uni2099" unicode="&#x2099;" horiz-adv-x="489" 
d="M300 288q62 0 99 -41t37 -119v-227h-119v208q0 36 -15 53t-49 17q-32 0 -52 -19.5t-20 -59.5v-199h-120v375h113l5 -40q45 52 121 52z" />
    <glyph glyph-name="Euro" unicode="&#x20ac;" horiz-adv-x="720" 
d="M436 130q92 0 167 84l94 -111q-43 -51 -112 -84.5t-156 -33.5q-120 0 -204.5 63.5t-115.5 184.5h-75v105h60q-1 10 -1 32q0 24 1 35h-60v106h78q35 119 125 181t204 62q163 0 256 -110l-92 -106q-66 74 -160 74q-114 0 -162 -101h182v-106h-208q-1 -11 -1 -35
q0 -22 1 -32h208v-105h-187q42 -103 158 -103z" />
    <glyph glyph-name="uni20B9" unicode="&#x20b9;" horiz-adv-x="612" 
d="M572 634h-152q33 -29 48 -67h104v-104h-97q-20 -133 -168 -177l199 -286h-197l-210 334l8 20q98 8 143.5 34t57.5 75h-269v104h272q-19 67 -123 67h-149v105h533v-105z" />
    <glyph glyph-name="uni20BA" unicode="&#x20ba;" horiz-adv-x="625" 
d="M465 272h164q0 -132 -79.5 -202t-238.5 -70h-206v249l-71 -26v105l71 26v68l-71 -26v106l71 26v211h158v-154l176 64v-106l-176 -64v-67l176 64v-106l-176 -64v-159h50q84 0 118 30t34 95z" />
    <glyph glyph-name="uni20BC" unicode="&#x20bc;" horiz-adv-x="889" 
d="M523 739v-145q125 -24 208.5 -113t83.5 -248v-233h-161v238q0 164 -131 206v-444h-157v445q-132 -36 -132 -207v-238h-161v233q0 84 24 150.5t66.5 109t93 67.5t109.5 35v144h157z" />
    <glyph glyph-name="uni2113" unicode="&#x2113;" horiz-adv-x="531" 
d="M479 689v-27q0 -290 -227 -379v-106q0 -42 19 -58.5t56 -16.5q46 0 127 30l-1 -111q-74 -29 -157 -29q-215 0 -215 189v68q-15 -1 -47 -1v92q15 0 47 2v361q0 107 54.5 164.5t144.5 57.5q86 0 142.5 -59t56.5 -177zM252 744v-348q106 75 106 266v27q0 129 -58 129
q-21 0 -34.5 -19t-13.5 -55z" />
    <glyph glyph-name="uni2116" unicode="&#x2116;" horiz-adv-x="1259" 
d="M109 752l406 -419v406h160v-751h-22l-408 418v-406h-159v752h23zM1010 349q-87 0 -149.5 52.5t-62.5 146.5q0 95 62.5 147.5t151.5 52.5q86 0 148 -52.5t62 -147.5q0 -94 -62 -146.5t-150 -52.5zM1010 452q37 0 64 26t27 71t-26 70.5t-63 25.5t-64.5 -26t-27.5 -71
t26.5 -70.5t63.5 -25.5zM1190 257v-92h-360v92h360zM1190 92v-92h-360v92h360z" />
    <glyph glyph-name="uni2117" unicode="&#x2117;" horiz-adv-x="849" 
d="M425 755q165 0 270.5 -108t105.5 -277t-105.5 -277t-270.5 -108q-166 0 -272 107.5t-106 277.5q0 169 106 277t272 108zM425 59q133 0 216 86t83 225q0 138 -83 224t-216 86q-134 0 -217.5 -85.5t-83.5 -224.5t83.5 -225t217.5 -86zM291 598h158q85 0 134.5 -42
t49.5 -113q0 -76 -50.5 -117t-145.5 -41h-29v-144h-117v457zM408 392h29q76 0 76 51q0 44 -66 44h-39v-95z" />
    <glyph glyph-name="trademark" unicode="&#x2122;" horiz-adv-x="911" 
d="M384 739v-111h-106v-296h-120v296h-107v111h333zM726 475l-83 -146h-16l-82 148l-16 -145h-120l74 407h14l138 -243l139 243h15l72 -407h-120z" />
    <glyph glyph-name="Ohm" unicode="&#x2126;" horiz-adv-x="811" 
d="M763 0h-316v127q69 70 103 136.5t34 144.5q0 88 -47.5 140.5t-131.5 52.5q-83 0 -130.5 -52.5t-47.5 -140.5q0 -78 34 -144.5t103 -136.5v-127h-317v147h138q-123 116 -123 278q0 151 98.5 240t244.5 89q147 0 245.5 -89t98.5 -240q0 -163 -124 -278h138v-147z" />
    <glyph glyph-name="estimated" unicode="&#x212e;" horiz-adv-x="909" 
d="M454 -15q-192 0 -304 106q-117 111 -117 278q0 163 118 278q59 56 131 82t172 26q175 0 291 -96q122 -96 130 -301h-669q-6 0 -9 -1t-5.5 -5t-2.5 -13v-189q0 -15 19.5 -37.5t52.5 -44.5t85 -37.5t108 -15.5q77 0 148.5 34t118.5 88h79q-81 -88 -158 -120
q-47 -18 -86 -25t-102 -7zM206 383h494q12 0 15 3.5t3 13.5v186q0 29 -40.5 62.5t-103.5 56t-121 22.5q-69 0 -133.5 -27t-97.5 -58t-33 -49v-200q0 -10 17 -10z" />
    <glyph glyph-name="uni2150" unicode="&#x2150;" horiz-adv-x="802" 
d="M64 572l-37 85l204 89h14v-377h-104v234zM693 739l-462 -739h-135l462 739h135zM806 357l-152 -357h-114l127 275h-171v95h310v-13z" />
    <glyph glyph-name="uni2151" unicode="&#x2151;" horiz-adv-x="865" 
d="M64 572l-37 85l204 89h14v-377h-104v234zM693 739l-462 -739h-135l462 739h135zM666 379q76 0 121 -38.5t45 -99.5q0 -60 -49 -121l-102 -120h-133l122 122q-15 -3 -32 -3q-62 0 -99.5 34.5t-37.5 90.5q0 59 45.5 97t119.5 38zM666 200q27 0 43.5 11.5t16.5 32.5
q0 18 -16.5 29t-43.5 11q-26 0 -42 -11t-16 -29q0 -21 15.5 -32.5t42.5 -11.5z" />
    <glyph glyph-name="uni2153" unicode="&#x2153;" horiz-adv-x="859" 
d="M64 572l-37 85l204 89h14v-377h-104v234zM693 739l-462 -739h-135l462 739h135zM659 -8q-104 0 -163 64l63 73q38 -41 92 -41q57 0 57 45q0 32 -38.5 41t-77.5 -8l-17 34l70 75h-139v95h311v-26l-103 -109q44 -5 71.5 -35.5t27.5 -77.5q0 -59 -40 -94.5t-114 -35.5z" />
    <glyph glyph-name="uni2154" unicode="&#x2154;" horiz-adv-x="914" 
d="M337 369h-312v13l128 141q37 39 49.5 58.5t12.5 35.5t-12 25.5t-35 9.5q-45 0 -80 -47l-66 66q57 77 156 77q75 0 110 -36t35 -85q0 -68 -90 -152l-11 -10h115v-96zM747 739l-462 -739h-135l462 739h135zM713 -8q-104 0 -163 64l63 73q38 -41 92 -41q57 0 57 45
q0 32 -38.5 41t-77.5 -8l-17 34l70 75h-139v95h311v-26l-103 -109q44 -5 71.5 -35.5t27.5 -77.5q0 -59 -40 -94.5t-114 -35.5z" />
    <glyph glyph-name="uni2156" unicode="&#x2156;" horiz-adv-x="889" 
d="M337 369h-312v13l128 141q37 39 49.5 58.5t12.5 35.5t-12 25.5t-35 9.5q-45 0 -80 -47l-66 66q57 77 156 77q75 0 110 -36t35 -85q0 -68 -90 -152l-11 -10h115v-96zM747 739l-462 -739h-135l462 739h135zM703 241q73 0 110.5 -33t37.5 -83q0 -54 -43 -94t-120 -40
q-88 0 -143 52l57 75q34 -32 84 -32q59 0 59 35q0 41 -72 41q-40 0 -98 -17l-8 6v219h258v-88h-162v-46q22 5 40 5z" />
    <glyph glyph-name="uni2157" unicode="&#x2157;" horiz-adv-x="903" 
d="M190 361q-104 0 -163 64l63 73q38 -41 92 -41q57 0 57 45q0 32 -38.5 41t-77.5 -8l-17 34l70 75h-139v95h311v-26l-103 -109q44 -5 71.5 -35.5t27.5 -77.5q0 -59 -40 -94.5t-114 -35.5zM762 739l-462 -739h-135l462 739h135zM718 241q73 0 110.5 -33t37.5 -83
q0 -54 -43 -94t-120 -40q-88 0 -143 52l57 75q34 -32 84 -32q59 0 59 35q0 41 -72 41q-40 0 -98 -17l-8 6v219h258v-88h-162v-46q22 5 40 5z" />
    <glyph glyph-name="uni2158" unicode="&#x2158;" horiz-adv-x="931" 
d="M329 427v-58h-96v58h-236v12l229 300h103v-228h62v-84h-62zM790 739l-462 -739h-135l462 739h135zM233 615l-80 -104h80v104zM746 241q73 0 110.5 -33t37.5 -83q0 -54 -43 -94t-120 -40q-88 0 -143 52l57 75q34 -32 84 -32q59 0 59 35q0 41 -72 41q-40 0 -98 -17l-8 6
v219h258v-88h-162v-46q22 5 40 5z" />
    <glyph glyph-name="uni2159" unicode="&#x2159;" horiz-adv-x="865" 
d="M64 572l-37 85l204 89h14v-377h-104v234zM693 739l-462 -739h-135l462 739h135zM695 251q62 0 99.5 -34.5t37.5 -90.5q0 -59 -45 -97t-119 -38q-76 0 -121.5 38.5t-45.5 99.5q0 60 49 121l103 120h132l-121 -122q14 3 31 3zM668 86q26 0 41.5 11t15.5 29q0 21 -15.5 32.5
t-41.5 11.5q-28 0 -44.5 -11.5t-16.5 -32.5q0 -18 17 -29t44 -11z" />
    <glyph glyph-name="uni215A" unicode="&#x215a;" horiz-adv-x="909" 
d="M180 610q73 0 110.5 -33t37.5 -83q0 -54 -43 -94t-120 -40q-88 0 -143 52l57 75q34 -32 84 -32q59 0 59 35q0 41 -72 41q-40 0 -98 -17l-8 6v219h258v-88h-162v-46q22 5 40 5zM737 739l-462 -739h-135l462 739h135zM739 251q62 0 99.5 -34.5t37.5 -90.5q0 -59 -45 -97
t-119 -38q-76 0 -121.5 38.5t-45.5 99.5q0 60 49 121l103 120h132l-121 -122q14 3 31 3zM712 86q26 0 41.5 11t15.5 29q0 21 -15.5 32.5t-41.5 11.5q-28 0 -44.5 -11.5t-16.5 -32.5q0 -18 17 -29t44 -11z" />
    <glyph glyph-name="oneeighth" unicode="&#x215b;" horiz-adv-x="900" 
d="M64 572l-37 85l204 89h14v-377h-104v234zM693 739l-462 -739h-135l462 739h135zM685 -9q-75 0 -122.5 31.5t-47.5 88.5q0 28 17.5 49t42.5 31q-47 24 -47 79q0 49 42.5 79t114.5 30q71 0 113.5 -30t42.5 -79q0 -55 -47 -79q25 -10 42.5 -31t17.5 -49q0 -57 -47 -88.5
t-122 -31.5zM685 225q52 0 52 33q0 15 -14 24.5t-38 9.5q-25 0 -39 -9.5t-14 -24.5q0 -33 53 -33zM685 77q28 0 45 10t17 28q0 36 -63 36q-64 0 -64 -36q0 -38 65 -38z" />
    <glyph glyph-name="threeeighths" unicode="&#x215c;" horiz-adv-x="969" 
d="M190 361q-104 0 -163 64l63 73q38 -41 92 -41q57 0 57 45q0 32 -38.5 41t-77.5 -8l-17 34l70 75h-139v95h311v-26l-103 -109q44 -5 71.5 -35.5t27.5 -77.5q0 -59 -40 -94.5t-114 -35.5zM762 739l-462 -739h-135l462 739h135zM754 -9q-75 0 -122.5 31.5t-47.5 88.5
q0 28 17.5 49t42.5 31q-47 24 -47 79q0 49 42.5 79t114.5 30q71 0 113.5 -30t42.5 -79q0 -55 -47 -79q25 -10 42.5 -31t17.5 -49q0 -57 -47 -88.5t-122 -31.5zM754 225q52 0 52 33q0 15 -14 24.5t-38 9.5q-25 0 -39 -9.5t-14 -24.5q0 -33 53 -33zM754 77q28 0 45 10t17 28
q0 36 -63 36q-64 0 -64 -36q0 -38 65 -38z" />
    <glyph glyph-name="fiveeighths" unicode="&#x215d;" horiz-adv-x="944" 
d="M180 610q73 0 110.5 -33t37.5 -83q0 -54 -43 -94t-120 -40q-88 0 -143 52l57 75q34 -32 84 -32q59 0 59 35q0 41 -72 41q-40 0 -98 -17l-8 6v219h258v-88h-162v-46q22 5 40 5zM737 739l-462 -739h-135l462 739h135zM729 -9q-75 0 -122.5 31.5t-47.5 88.5q0 28 17.5 49
t42.5 31q-47 24 -47 79q0 49 42.5 79t114.5 30q71 0 113.5 -30t42.5 -79q0 -55 -47 -79q25 -10 42.5 -31t17.5 -49q0 -57 -47 -88.5t-122 -31.5zM729 225q52 0 52 33q0 15 -14 24.5t-38 9.5q-25 0 -39 -9.5t-14 -24.5q0 -33 53 -33zM729 77q28 0 45 10t17 28q0 36 -63 36
q-64 0 -64 -36q0 -38 65 -38z" />
    <glyph glyph-name="seveneighths" unicode="&#x215e;" horiz-adv-x="897" 
d="M337 726l-152 -357h-114l127 275h-171v95h310v-13zM690 739l-462 -739h-135l462 739h135zM682 -9q-75 0 -122.5 31.5t-47.5 88.5q0 28 17.5 49t42.5 31q-47 24 -47 79q0 49 42.5 79t114.5 30q71 0 113.5 -30t42.5 -79q0 -55 -47 -79q25 -10 42.5 -31t17.5 -49
q0 -57 -47 -88.5t-122 -31.5zM682 225q52 0 52 33q0 15 -14 24.5t-38 9.5q-25 0 -39 -9.5t-14 -24.5q0 -33 53 -33zM682 77q28 0 45 10t17 28q0 36 -63 36q-64 0 -64 -36q0 -38 65 -38z" />
    <glyph glyph-name="onefraction" unicode="&#x215f;" horiz-adv-x="469" 
d="M64 572l-37 85l204 89h14v-377h-104v234zM693 739l-462 -739h-135l462 739h135z" />
    <glyph glyph-name="zerothird" unicode="&#x2189;" horiz-adv-x="985" 
d="M224 361q-83 0 -131 53t-48 140t48 139.5t131 52.5q82 0 129.5 -53t47.5 -139q0 -87 -47.5 -140t-129.5 -53zM818 739l-462 -739h-135l462 739h135zM224 457q32 0 52 25t20 72q0 46 -20 71.5t-52 25.5q-34 0 -53.5 -25t-19.5 -72q0 -48 19.5 -72.5t53.5 -24.5zM784 -8
q-104 0 -163 64l63 73q38 -41 92 -41q57 0 57 45q0 32 -38.5 41t-77.5 -8l-17 34l70 75h-139v95h311v-26l-103 -109q44 -5 71.5 -35.5t27.5 -77.5q0 -59 -40 -94.5t-114 -35.5z" />
    <glyph glyph-name="arrowleft" unicode="&#x2190;" horiz-adv-x="954" 
d="M380 297l182 -182l-103 -104l-359 359l359 359l103 -104l-182 -182h474v-146h-474z" />
    <glyph glyph-name="arrowup" unicode="&#x2191;" horiz-adv-x="918" 
d="M532 474v-474h-146v474l-182 -182l-104 103l359 359l359 -359l-104 -103z" />
    <glyph glyph-name="arrowright" unicode="&#x2192;" horiz-adv-x="954" 
d="M495 11l-103 104l182 182h-474v146h474l-182 182l103 104l359 -359z" />
    <glyph glyph-name="arrowdown" unicode="&#x2193;" horiz-adv-x="918" 
d="M459 -15l-359 359l104 103l182 -182v474h146v-474l182 182l104 -103z" />
    <glyph glyph-name="uni2196" unicode="&#x2196;" horiz-adv-x="785" 
d="M247 412v-258h-147v508h508v-147h-257l334 -335l-103 -103z" />
    <glyph glyph-name="uni2197" unicode="&#x2197;" horiz-adv-x="785" 
d="M435 516h-257v146h507v-508h-146v258l-335 -335l-104 104z" />
    <glyph glyph-name="uni2198" unicode="&#x2198;" horiz-adv-x="785" 
d="M685 77h-508v147h258l-335 335l103 103l335 -334v257h147v-508z" />
    <glyph glyph-name="uni2199" unicode="&#x2199;" horiz-adv-x="785" 
d="M607 224v-146h-507v507h146v-258l335 336l104 -104l-336 -335h258z" />
    <glyph glyph-name="partialdiff" unicode="&#x2202;" horiz-adv-x="644" 
d="M299 754q288 0 288 -364q0 -194 -84.5 -299.5t-228.5 -105.5q-106 0 -171.5 65.5t-65.5 167.5q0 131 73 213.5t193 82.5q93 0 135 -53q-5 85 -41 126.5t-112 41.5q-78 0 -147 -50l-56 109q91 66 217 66zM294 113q56 0 93 47t37 119q0 51 -27.5 81t-78.5 30
q-61 0 -96.5 -44t-35.5 -113q0 -54 28.5 -87t79.5 -33z" />
    <glyph glyph-name="increment" unicode="&#x2206;" horiz-adv-x="702" 
d="M-3 0l344 751h21l343 -751h-708zM349 458l-130 -328h260z" />
    <glyph glyph-name="product" unicode="&#x220f;" horiz-adv-x="743" 
d="M614 593v-799h-160v799h-167v-799h-158v799h-95v146h674v-146h-94z" />
    <glyph glyph-name="summation" unicode="&#x2211;" horiz-adv-x="553" 
d="M230 274l-195 444v21h482v-143h-242l137 -322l-139 -337h246v-143h-485v22z" />
    <glyph glyph-name="minus" unicode="&#x2212;" horiz-adv-x="571" 
d="M541 379v-141h-511v140z" />
    <glyph glyph-name="divisionslash" unicode="&#x2215;" horiz-adv-x="601" 
d="M608 739l-466 -739h-149l467 739h148z" />
    <glyph glyph-name="bulletoperator" unicode="&#x2219;" horiz-adv-x="631" 
d="M316 229q-50 0 -83 31.5t-33 80.5t33 80.5t83 31.5t82.5 -31.5t32.5 -80.5t-32.5 -80.5t-82.5 -31.5z" />
    <glyph glyph-name="radical" unicode="&#x221a;" horiz-adv-x="770" 
d="M679 594l-338 -800h-21l-323 737h178l160 -402l232 610h218v-145h-106z" />
    <glyph glyph-name="infinity" unicode="&#x221e;" horiz-adv-x="878" 
d="M634 519q87 0 140.5 -57t53.5 -152q0 -96 -53.5 -153t-140.5 -57q-64 0 -109.5 30.5t-86.5 84.5q-41 -54 -86.5 -84.5t-108.5 -30.5q-88 0 -140.5 57t-52.5 153q0 95 52.5 152t140.5 57q98 0 196 -115q98 115 195 115zM260 235q44 0 107 79q-54 70 -107 70
q-33 0 -52.5 -20t-19.5 -54t19.5 -54.5t52.5 -20.5zM618 235q33 0 52.5 20.5t19.5 54.5t-19.5 54t-52.5 20q-55 0 -108 -69q32 -39 57.5 -59.5t50.5 -20.5z" />
    <glyph glyph-name="integral" unicode="&#x222b;" horiz-adv-x="451" 
d="M39 -206v130q5 0 13.5 -0.5t11.5 -0.5q43 1 60.5 24t17.5 72v508q0 112 57 170t182 58q20 0 31 -1v-130h-13q-55 0 -76.5 -22t-21.5 -73v-508q0 -227 -230 -228q-21 0 -32 1z" />
    <glyph glyph-name="approxequal" unicode="&#x2248;" horiz-adv-x="589" 
d="M381 328q-40 0 -95 33t-75 33q-21 0 -33 -14t-12 -36h-116q0 85 43 138.5t114 53.5q32 0 64 -17t59 -34t45 -17q21 0 33 14.5t12 37.5h119q0 -86 -44 -139t-114 -53zM381 86q-40 0 -95 32.5t-75 32.5q-21 0 -33 -14.5t-12 -37.5h-116q0 86 43 139t114 53q41 0 95 -32
t73 -32q45 0 45 50h119q0 -84 -44 -137.5t-114 -53.5z" />
    <glyph glyph-name="notequal" unicode="&#x2260;" horiz-adv-x="620" 
d="M355 255h225v-140h-303l-46 -83h-150l46 83h-87v140h165l60 107h-225v140h303l46 83h150l-46 -83h87v-140h-165z" />
    <glyph glyph-name="lessequal" unicode="&#x2264;" horiz-adv-x="611" 
d="M339 404l222 -96v-131l-510 219v17l510 219v-130zM561 133v-133h-511v133h511z" />
    <glyph glyph-name="greaterequal" unicode="&#x2265;" horiz-adv-x="611" 
d="M50 177v131l222 96l-222 98v130l510 -219v-17zM561 0h-511v133h511v-133z" />
    <glyph glyph-name="uni2460" unicode="&#x2460;" 
d="M548 -108q-206 0 -347 136.5t-141 349.5q0 106 38.5 197.5t104 154.5t155 98.5t190.5 35.5q205 0 346 -136.5t141 -349.5t-140.5 -349.5t-346.5 -136.5zM548 8q156 0 262 103t106 267q0 165 -106 268t-262 103t-262.5 -103t-106.5 -268q0 -164 106.5 -267t262.5 -103z
M409 400l-45 103l246 106h17v-452h-127v279z" />
    <glyph glyph-name="uni2461" unicode="&#x2461;" 
d="M548 -108q-206 0 -347 136.5t-141 349.5q0 106 38.5 197.5t104 154.5t155 98.5t190.5 35.5q205 0 346 -136.5t141 -349.5t-140.5 -349.5t-346.5 -136.5zM548 8q156 0 262 103t106 267q0 165 -106 268t-262 103t-262.5 -103t-106.5 -268q0 -164 106.5 -267t262.5 -103z
M730 157h-375l1 16l154 168q44 48 58.5 71t14.5 42t-14.5 30.5t-40.5 11.5q-54 0 -96 -57l-81 80q72 92 189 92q89 0 131.5 -42.5t42.5 -102.5q0 -46 -27 -88.5t-81 -92.5l-12 -11h136v-117z" />
    <glyph glyph-name="uni2462" unicode="&#x2462;" 
d="M548 -108q-206 0 -347 136.5t-141 349.5q0 106 38.5 197.5t104 154.5t155 98.5t190.5 35.5q205 0 346 -136.5t141 -349.5t-140.5 -349.5t-346.5 -136.5zM548 8q156 0 262 103t106 267q0 165 -106 268t-262 103t-262.5 -103t-106.5 -268q0 -164 106.5 -267t262.5 -103z
M551 148q-123 0 -196 76l76 89q49 -49 110 -49q68 0 68 54q0 25 -22 38.5t-54 13.5t-63 -13l-21 40l84 89h-166v116h373v-32l-122 -130q53 -7 85.5 -43.5t32.5 -92.5q0 -71 -48 -113.5t-137 -42.5z" />
    <glyph glyph-name="uni2463" unicode="&#x2463;" 
d="M548 -108q-206 0 -347 136.5t-141 349.5q0 106 38.5 197.5t104 154.5t155 98.5t190.5 35.5q205 0 346 -136.5t141 -349.5t-140.5 -349.5t-346.5 -136.5zM548 8q156 0 262 103t106 267q0 165 -106 268t-262 103t-262.5 -103t-106.5 -268q0 -164 106.5 -267t262.5 -103z
M689 226v-69h-115v69h-285v15l276 360h124v-273h74v-102h-74zM574 451l-96 -123h96v123z" />
    <glyph glyph-name="uni2464" unicode="&#x2464;" 
d="M548 -108q-206 0 -347 136.5t-141 349.5q0 106 38.5 197.5t104 154.5t155 98.5t190.5 35.5q205 0 346 -136.5t141 -349.5t-140.5 -349.5t-346.5 -136.5zM548 8q156 0 262 103t106 267q0 165 -106 268t-262 103t-262.5 -103t-106.5 -268q0 -164 106.5 -267t262.5 -103z
M565 446q87 0 132 -39.5t45 -98.5q0 -64 -51.5 -112.5t-144.5 -48.5q-106 0 -172 61l70 92q40 -38 100 -38q69 0 69 40q0 49 -85 49q-52 0 -117 -21l-10 9v263h310v-107h-193v-54q23 5 47 5z" />
    <glyph glyph-name="uni2465" unicode="&#x2465;" 
d="M548 -108q-206 0 -347 136.5t-141 349.5q0 106 38.5 197.5t104 154.5t155 98.5t190.5 35.5q205 0 346 -136.5t141 -349.5t-140.5 -349.5t-346.5 -136.5zM548 8q156 0 262 103t106 267q0 165 -106 268t-262 103t-262.5 -103t-106.5 -268q0 -164 106.5 -267t262.5 -103z
M578 459q75 0 119.5 -41t44.5 -108q0 -71 -54 -117t-143 -46q-91 0 -145.5 46t-54.5 119q0 76 60 147l121 143h162l-148 -147q16 4 38 4zM545 262q31 0 49.5 13t18.5 35q0 24 -18.5 37.5t-49.5 13.5q-33 0 -52.5 -13.5t-19.5 -38.5q0 -22 19.5 -34.5t52.5 -12.5z" />
    <glyph glyph-name="uni2466" unicode="&#x2466;" 
d="M548 -108q-206 0 -347 136.5t-141 349.5q0 106 38.5 197.5t104 154.5t155 98.5t190.5 35.5q205 0 346 -136.5t141 -349.5t-140.5 -349.5t-346.5 -136.5zM548 8q156 0 262 103t106 267q0 165 -106 268t-262 103t-262.5 -103t-106.5 -268q0 -164 106.5 -267t262.5 -103z
M745 586l-181 -429h-139l152 328h-204v116h372v-15z" />
    <glyph glyph-name="uni2467" unicode="&#x2467;" 
d="M548 -108q-206 0 -347 136.5t-141 349.5q0 106 38.5 197.5t104 154.5t155 98.5t190.5 35.5q205 0 346 -136.5t141 -349.5t-140.5 -349.5t-346.5 -136.5zM548 8q156 0 262 103t106 267q0 165 -106 268t-262 103t-262.5 -103t-106.5 -268q0 -164 106.5 -267t262.5 -103z
M548 147q-91 0 -148 38t-57 106q0 33 21 59t51 38q-56 29 -56 93q0 60 51 95.5t138 35.5q86 0 137.5 -36t51.5 -95q0 -65 -59 -93q31 -12 52 -37.5t21 -59.5q0 -69 -56 -106.5t-147 -37.5zM548 420q61 0 61 47q0 22 -16 35.5t-45 13.5q-30 0 -47 -13.5t-17 -35.5
q0 -47 64 -47zM548 242q33 0 53.5 14t20.5 39q0 52 -75 52t-75 -52q0 -25 21 -39t55 -14z" />
    <glyph glyph-name="uni2468" unicode="&#x2468;" 
d="M548 -108q-206 0 -347 136.5t-141 349.5q0 106 38.5 197.5t104 154.5t155 98.5t190.5 35.5q205 0 346 -136.5t141 -349.5t-140.5 -349.5t-346.5 -136.5zM548 8q156 0 262 103t106 267q0 165 -106 268t-262 103t-262.5 -103t-106.5 -268q0 -164 106.5 -267t262.5 -103z
M405 157l147 147q-14 -5 -37 -5q-75 0 -120 41t-45 109q0 71 54 116.5t144 45.5q91 0 145.5 -46t54.5 -119q0 -76 -59 -146l-121 -143h-163zM548 398q33 0 52 13.5t19 37.5q0 22 -19.5 35t-51.5 13q-31 0 -49.5 -13t-18.5 -35q0 -24 18.5 -37.5t49.5 -13.5z" />
    <glyph glyph-name="uni24EA" unicode="&#x24ea;" 
d="M548 -108q-206 0 -347 136.5t-141 349.5q0 106 38.5 197.5t104 154.5t155 98.5t190.5 35.5q205 0 346 -136.5t141 -349.5t-140.5 -349.5t-346.5 -136.5zM548 8q156 0 262 103t106 267q0 165 -106 268t-262 103t-262.5 -103t-106.5 -268q0 -164 106.5 -267t262.5 -103z
M548 148q-99 0 -156.5 63.5t-57.5 167.5t57.5 167.5t156.5 63.5q98 0 155.5 -64t57.5 -167q0 -105 -57 -168t-156 -63zM548 264q38 0 62 29.5t24 85.5t-24 85.5t-62 29.5q-39 0 -62.5 -29.5t-23.5 -85.5t23.5 -85.5t62.5 -29.5z" />
    <glyph glyph-name="uni24FF" unicode="&#x24ff;" 
d="M548 -108q-206 0 -347 136.5t-141 349.5q0 106 38.5 197.5t104 154.5t155 98.5t190.5 35.5q205 0 346 -136.5t141 -349.5t-140.5 -349.5t-346.5 -136.5zM548 147q99 0 156 63t57 169q0 103 -57.5 166.5t-155.5 63.5q-99 0 -156.5 -63.5t-57.5 -166.5q0 -105 57.5 -168.5
t156.5 -63.5zM548 264q-39 0 -62 29.5t-23 85.5q0 55 23 84t62 29q38 0 61.5 -29.5t23.5 -83.5q0 -56 -23.5 -85.5t-61.5 -29.5z" />
    <glyph glyph-name="lozenge" unicode="&#x25ca;" horiz-adv-x="553" 
d="M289 -13h-26l-266 381l268 383h25l267 -382zM279 197l113 172l-118 171l-112 -172z" />
    <glyph glyph-name="whitecircle" unicode="&#x25cb;" 
d="M548 -108q-206 0 -347 136.5t-141 349.5q0 106 38.5 197.5t104 154.5t155 98.5t190.5 35.5q205 0 346 -136.5t141 -349.5t-140.5 -349.5t-346.5 -136.5zM548 8q156 0 262 103t106 267q0 165 -106 268t-262 103t-262.5 -103t-106.5 -268q0 -164 106.5 -267t262.5 -103z
" />
    <glyph glyph-name="blackcircle" unicode="&#x25cf;" 
d="M548 -108q-206 0 -347 136.5t-141 349.5q0 106 38.5 197.5t104 154.5t155 98.5t190.5 35.5q205 0 346 -136.5t141 -349.5t-140.5 -349.5t-346.5 -136.5z" />
    <glyph glyph-name="uni2776" unicode="&#x2776;" 
d="M548 -108q-206 0 -347 136.5t-141 349.5q0 106 38.5 197.5t104 154.5t155 98.5t190.5 35.5q205 0 346 -136.5t141 -349.5t-140.5 -349.5t-346.5 -136.5zM627 609h-17l-247 -107l45 -104l91 36v-278h128v453z" />
    <glyph glyph-name="uni2777" unicode="&#x2777;" 
d="M548 -108q-206 0 -347 136.5t-141 349.5q0 106 38.5 197.5t104 154.5t155 98.5t190.5 35.5q205 0 346 -136.5t141 -349.5t-140.5 -349.5t-346.5 -136.5zM730 274h-134l11 10q107 99 107 181q0 60 -42 103t-132 43q-116 0 -189 -93l82 -81q40 57 95 57q54 0 54 -41
q0 -19 -14.5 -42t-58.5 -71l-153 -168l-1 -16h375v118z" />
    <glyph glyph-name="uni2778" unicode="&#x2778;" 
d="M548 -108q-206 0 -347 136.5t-141 349.5q0 106 38.5 197.5t104 154.5t155 98.5t190.5 35.5q205 0 346 -136.5t141 -349.5t-140.5 -349.5t-346.5 -136.5zM551 147q89 0 137 42.5t48 114.5q0 56 -32.5 92t-85.5 43l122 129v33h-374v-117h165l-83 -88l21 -41q46 21 92 10.5
t46 -48.5q0 -53 -66 -53q-61 0 -110 49l-76 -90q71 -76 196 -76z" />
    <glyph glyph-name="uni2779" unicode="&#x2779;" 
d="M548 -108q-206 0 -347 136.5t-141 349.5q0 106 38.5 197.5t104 154.5t155 98.5t190.5 35.5q205 0 346 -136.5t141 -349.5t-140.5 -349.5t-346.5 -136.5zM689 225h74v102h-74v273h-125l-275 -360v-15h284v-69h116v69zM573 327h-94l94 122v-122z" />
    <glyph glyph-name="uni277A" unicode="&#x277a;" 
d="M548 -108q-206 0 -347 136.5t-141 349.5q0 106 38.5 197.5t104 154.5t155 98.5t190.5 35.5q205 0 346 -136.5t141 -349.5t-140.5 -349.5t-346.5 -136.5zM546 146q93 0 145 49t52 113q0 58 -45 97.5t-133 39.5q-29 0 -46 -5v53h192v108h-310v-264l10 -8q73 21 117 21
q84 0 84 -49q0 -39 -68 -39q-59 0 -99 38l-71 -93q66 -61 172 -61z" />
    <glyph glyph-name="uni277B" unicode="&#x277b;" 
d="M548 -108q-206 0 -347 136.5t-141 349.5q0 106 38.5 197.5t104 154.5t155 98.5t190.5 35.5q205 0 346 -136.5t141 -349.5t-140.5 -349.5t-346.5 -136.5zM545 146q89 0 143 46t54 117q0 68 -44.5 109t-119.5 41q-17 0 -37 -5l147 147h-163l-120 -143q-61 -71 -61 -146
q0 -74 55 -120t146 -46zM545 262q-32 0 -51.5 12.5t-19.5 34.5q0 50 71 50q31 0 49 -13t18 -37q0 -22 -18 -34.5t-49 -12.5z" />
    <glyph glyph-name="uni277C" unicode="&#x277c;" 
d="M548 -108q-206 0 -347 136.5t-141 349.5q0 106 38.5 197.5t104 154.5t155 98.5t190.5 35.5q205 0 346 -136.5t141 -349.5t-140.5 -349.5t-346.5 -136.5zM745 585v15h-373v-117h203l-150 -327h139z" />
    <glyph glyph-name="uni277D" unicode="&#x277d;" 
d="M548 -108q-206 0 -347 136.5t-141 349.5q0 106 38.5 197.5t104 154.5t155 98.5t190.5 35.5q205 0 346 -136.5t141 -349.5t-140.5 -349.5t-346.5 -136.5zM548 146q91 0 147.5 38t56.5 106q0 33 -21 59t-52 38q58 29 58 93q0 59 -51.5 95t-137.5 36q-87 0 -138 -35.5
t-51 -95.5q0 -63 55 -93q-30 -12 -50.5 -38t-20.5 -59q0 -68 57 -106t148 -38zM548 419q-63 0 -63 47q0 22 16.5 35t46.5 13q29 0 44.5 -13t15.5 -35q0 -47 -60 -47zM548 242q-34 0 -55 14t-21 38q0 52 75 52q74 0 74 -52q0 -24 -20.5 -38t-52.5 -14z" />
    <glyph glyph-name="uni277E" unicode="&#x277e;" 
d="M548 -108q-206 0 -347 136.5t-141 349.5q0 106 38.5 197.5t104 154.5t155 98.5t190.5 35.5q205 0 346 -136.5t141 -349.5t-140.5 -349.5t-346.5 -136.5zM569 156l120 142q59 72 59 147q0 74 -54.5 120t-145.5 46q-90 0 -144 -45.5t-54 -117.5q0 -68 44.5 -109t120.5 -41
q22 0 36 5l-146 -147h164zM548 397q-31 0 -49 13.5t-18 37.5q0 22 18 34.5t49 12.5t51 -13t20 -34q0 -24 -19.5 -37.5t-51.5 -13.5z" />
    <glyph glyph-name="uni2780" unicode="&#x2780;" 
d="M548 -108q-206 0 -347 136.5t-141 349.5q0 106 38.5 197.5t104 154.5t155 98.5t190.5 35.5q205 0 346 -136.5t141 -349.5t-140.5 -349.5t-346.5 -136.5zM548 8q156 0 262 103t106 267q0 165 -106 268t-262 103t-262.5 -103t-106.5 -268q0 -164 106.5 -267t262.5 -103z
M409 400l-45 103l246 106h17v-452h-127v279z" />
    <glyph glyph-name="uni2781" unicode="&#x2781;" 
d="M548 -108q-206 0 -347 136.5t-141 349.5q0 106 38.5 197.5t104 154.5t155 98.5t190.5 35.5q205 0 346 -136.5t141 -349.5t-140.5 -349.5t-346.5 -136.5zM548 8q156 0 262 103t106 267q0 165 -106 268t-262 103t-262.5 -103t-106.5 -268q0 -164 106.5 -267t262.5 -103z
M730 157h-375l1 16l154 168q44 48 58.5 71t14.5 42t-14.5 30.5t-40.5 11.5q-54 0 -96 -57l-81 80q72 92 189 92q89 0 131.5 -42.5t42.5 -102.5q0 -46 -27 -88.5t-81 -92.5l-12 -11h136v-117z" />
    <glyph glyph-name="uni2782" unicode="&#x2782;" 
d="M548 -108q-206 0 -347 136.5t-141 349.5q0 106 38.5 197.5t104 154.5t155 98.5t190.5 35.5q205 0 346 -136.5t141 -349.5t-140.5 -349.5t-346.5 -136.5zM548 8q156 0 262 103t106 267q0 165 -106 268t-262 103t-262.5 -103t-106.5 -268q0 -164 106.5 -267t262.5 -103z
M551 148q-123 0 -196 76l76 89q49 -49 110 -49q68 0 68 54q0 25 -22 38.5t-54 13.5t-63 -13l-21 40l84 89h-166v116h373v-32l-122 -130q53 -7 85.5 -43.5t32.5 -92.5q0 -71 -48 -113.5t-137 -42.5z" />
    <glyph glyph-name="uni2783" unicode="&#x2783;" 
d="M548 -108q-206 0 -347 136.5t-141 349.5q0 106 38.5 197.5t104 154.5t155 98.5t190.5 35.5q205 0 346 -136.5t141 -349.5t-140.5 -349.5t-346.5 -136.5zM548 8q156 0 262 103t106 267q0 165 -106 268t-262 103t-262.5 -103t-106.5 -268q0 -164 106.5 -267t262.5 -103z
M689 226v-69h-115v69h-285v15l276 360h124v-273h74v-102h-74zM574 451l-96 -123h96v123z" />
    <glyph glyph-name="uni2784" unicode="&#x2784;" 
d="M548 -108q-206 0 -347 136.5t-141 349.5q0 106 38.5 197.5t104 154.5t155 98.5t190.5 35.5q205 0 346 -136.5t141 -349.5t-140.5 -349.5t-346.5 -136.5zM548 8q156 0 262 103t106 267q0 165 -106 268t-262 103t-262.5 -103t-106.5 -268q0 -164 106.5 -267t262.5 -103z
M565 446q87 0 132 -39.5t45 -98.5q0 -64 -51.5 -112.5t-144.5 -48.5q-106 0 -172 61l70 92q40 -38 100 -38q69 0 69 40q0 49 -85 49q-52 0 -117 -21l-10 9v263h310v-107h-193v-54q23 5 47 5z" />
    <glyph glyph-name="uni2785" unicode="&#x2785;" 
d="M548 -108q-206 0 -347 136.5t-141 349.5q0 106 38.5 197.5t104 154.5t155 98.5t190.5 35.5q205 0 346 -136.5t141 -349.5t-140.5 -349.5t-346.5 -136.5zM548 8q156 0 262 103t106 267q0 165 -106 268t-262 103t-262.5 -103t-106.5 -268q0 -164 106.5 -267t262.5 -103z
M578 459q75 0 119.5 -41t44.5 -108q0 -71 -54 -117t-143 -46q-91 0 -145.5 46t-54.5 119q0 76 60 147l121 143h162l-148 -147q16 4 38 4zM545 262q31 0 49.5 13t18.5 35q0 24 -18.5 37.5t-49.5 13.5q-33 0 -52.5 -13.5t-19.5 -38.5q0 -22 19.5 -34.5t52.5 -12.5z" />
    <glyph glyph-name="uni2786" unicode="&#x2786;" 
d="M548 -108q-206 0 -347 136.5t-141 349.5q0 106 38.5 197.5t104 154.5t155 98.5t190.5 35.5q205 0 346 -136.5t141 -349.5t-140.5 -349.5t-346.5 -136.5zM548 8q156 0 262 103t106 267q0 165 -106 268t-262 103t-262.5 -103t-106.5 -268q0 -164 106.5 -267t262.5 -103z
M745 586l-181 -429h-139l152 328h-204v116h372v-15z" />
    <glyph glyph-name="uni2787" unicode="&#x2787;" 
d="M548 -108q-206 0 -347 136.5t-141 349.5q0 106 38.5 197.5t104 154.5t155 98.5t190.5 35.5q205 0 346 -136.5t141 -349.5t-140.5 -349.5t-346.5 -136.5zM548 8q156 0 262 103t106 267q0 165 -106 268t-262 103t-262.5 -103t-106.5 -268q0 -164 106.5 -267t262.5 -103z
M548 147q-91 0 -148 38t-57 106q0 33 21 59t51 38q-56 29 -56 93q0 60 51 95.5t138 35.5q86 0 137.5 -36t51.5 -95q0 -65 -59 -93q31 -12 52 -37.5t21 -59.5q0 -69 -56 -106.5t-147 -37.5zM548 420q61 0 61 47q0 22 -16 35.5t-45 13.5q-30 0 -47 -13.5t-17 -35.5
q0 -47 64 -47zM548 242q33 0 53.5 14t20.5 39q0 52 -75 52t-75 -52q0 -25 21 -39t55 -14z" />
    <glyph glyph-name="uni2788" unicode="&#x2788;" 
d="M548 -108q-206 0 -347 136.5t-141 349.5q0 106 38.5 197.5t104 154.5t155 98.5t190.5 35.5q205 0 346 -136.5t141 -349.5t-140.5 -349.5t-346.5 -136.5zM548 8q156 0 262 103t106 267q0 165 -106 268t-262 103t-262.5 -103t-106.5 -268q0 -164 106.5 -267t262.5 -103z
M405 157l147 147q-14 -5 -37 -5q-75 0 -120 41t-45 109q0 71 54 116.5t144 45.5q91 0 145.5 -46t54.5 -119q0 -76 -59 -146l-121 -143h-163zM548 398q33 0 52 13.5t19 37.5q0 22 -19.5 35t-51.5 13q-31 0 -49.5 -13t-18.5 -35q0 -24 18.5 -37.5t49.5 -13.5z" />
    <glyph glyph-name="oneSansSerifBlackCircled" unicode="&#x278a;" 
d="M548 -108q-206 0 -347 136.5t-141 349.5q0 106 38.5 197.5t104 154.5t155 98.5t190.5 35.5q205 0 346 -136.5t141 -349.5t-140.5 -349.5t-346.5 -136.5zM627 609h-17l-247 -107l45 -104l91 36v-278h128v453z" />
    <glyph glyph-name="twoSansSerifBlackCircled" unicode="&#x278b;" 
d="M548 -108q-206 0 -347 136.5t-141 349.5q0 106 38.5 197.5t104 154.5t155 98.5t190.5 35.5q205 0 346 -136.5t141 -349.5t-140.5 -349.5t-346.5 -136.5zM730 274h-134l11 10q107 99 107 181q0 60 -42 103t-132 43q-116 0 -189 -93l82 -81q40 57 95 57q54 0 54 -41
q0 -19 -14.5 -42t-58.5 -71l-153 -168l-1 -16h375v118z" />
    <glyph glyph-name="threeSansSerifBlackCircled" unicode="&#x278c;" 
d="M548 -108q-206 0 -347 136.5t-141 349.5q0 106 38.5 197.5t104 154.5t155 98.5t190.5 35.5q205 0 346 -136.5t141 -349.5t-140.5 -349.5t-346.5 -136.5zM551 147q89 0 137 42.5t48 114.5q0 56 -32.5 92t-85.5 43l122 129v33h-374v-117h165l-83 -88l21 -41q46 21 92 10.5
t46 -48.5q0 -53 -66 -53q-61 0 -110 49l-76 -90q71 -76 196 -76z" />
    <glyph glyph-name="fourSansSerifBlackCircled" unicode="&#x278d;" 
d="M548 -108q-206 0 -347 136.5t-141 349.5q0 106 38.5 197.5t104 154.5t155 98.5t190.5 35.5q205 0 346 -136.5t141 -349.5t-140.5 -349.5t-346.5 -136.5zM689 225h74v102h-74v273h-125l-275 -360v-15h284v-69h116v69zM573 327h-94l94 122v-122z" />
    <glyph glyph-name="fiveSansSerifBlackCircled" unicode="&#x278e;" 
d="M548 -108q-206 0 -347 136.5t-141 349.5q0 106 38.5 197.5t104 154.5t155 98.5t190.5 35.5q205 0 346 -136.5t141 -349.5t-140.5 -349.5t-346.5 -136.5zM546 146q93 0 145 49t52 113q0 58 -45 97.5t-133 39.5q-29 0 -46 -5v53h192v108h-310v-264l10 -8q73 21 117 21
q84 0 84 -49q0 -39 -68 -39q-59 0 -99 38l-71 -93q66 -61 172 -61z" />
    <glyph glyph-name="sixSansSerifBlackCircled" unicode="&#x278f;" 
d="M548 -108q-206 0 -347 136.5t-141 349.5q0 106 38.5 197.5t104 154.5t155 98.5t190.5 35.5q205 0 346 -136.5t141 -349.5t-140.5 -349.5t-346.5 -136.5zM545 146q89 0 143 46t54 117q0 68 -44.5 109t-119.5 41q-17 0 -37 -5l147 147h-163l-120 -143q-61 -71 -61 -146
q0 -74 55 -120t146 -46zM545 262q-32 0 -51.5 12.5t-19.5 34.5q0 50 71 50q31 0 49 -13t18 -37q0 -22 -18 -34.5t-49 -12.5z" />
    <glyph glyph-name="sevenSansSerifBlackCircled" unicode="&#x2790;" 
d="M548 -108q-206 0 -347 136.5t-141 349.5q0 106 38.5 197.5t104 154.5t155 98.5t190.5 35.5q205 0 346 -136.5t141 -349.5t-140.5 -349.5t-346.5 -136.5zM745 585v15h-373v-117h203l-150 -327h139z" />
    <glyph glyph-name="eightSansSerifBlackCircled" unicode="&#x2791;" 
d="M548 -108q-206 0 -347 136.5t-141 349.5q0 106 38.5 197.5t104 154.5t155 98.5t190.5 35.5q205 0 346 -136.5t141 -349.5t-140.5 -349.5t-346.5 -136.5zM548 146q91 0 147.5 38t56.5 106q0 33 -21 59t-52 38q58 29 58 93q0 59 -51.5 95t-137.5 36q-87 0 -138 -35.5
t-51 -95.5q0 -63 55 -93q-30 -12 -50.5 -38t-20.5 -59q0 -68 57 -106t148 -38zM548 419q-63 0 -63 47q0 22 16.5 35t46.5 13q29 0 44.5 -13t15.5 -35q0 -47 -60 -47zM548 242q-34 0 -55 14t-21 38q0 52 75 52q74 0 74 -52q0 -24 -20.5 -38t-52.5 -14z" />
    <glyph glyph-name="nineSansSerifBlackCircled" unicode="&#x2792;" 
d="M548 -108q-206 0 -347 136.5t-141 349.5q0 106 38.5 197.5t104 154.5t155 98.5t190.5 35.5q205 0 346 -136.5t141 -349.5t-140.5 -349.5t-346.5 -136.5zM569 156l120 142q59 72 59 147q0 74 -54.5 120t-145.5 46q-90 0 -144 -45.5t-54 -117.5q0 -68 44.5 -109t120.5 -41
q22 0 36 5l-146 -147h164zM548 397q-31 0 -49 13.5t-18 37.5q0 22 18 34.5t49 12.5t51 -13t20 -34q0 -24 -19.5 -37.5t-51.5 -13.5z" />
    <glyph glyph-name="uniFEFF" unicode="&#xfeff;" horiz-adv-x="0" 
 />
    <glyph glyph-name="R.alt" horiz-adv-x="727" 
d="M508 0l-110 189h-153v-189h-159v739h299q113 0 194 -80.5t81 -194.5q0 -67 -30 -125.5t-82 -96.5h-1l140 -242h-179zM245 332h120q55 0 93.5 38.5t38.5 93.5t-38.5 93.5t-93.5 38.5h-120v-264z" />
    <glyph glyph-name="uni1E9E.calt" horiz-adv-x="745" 
d="M676 570l-135 -155q161 -73 161 -222q0 -90 -63.5 -149.5t-174.5 -59.5q-102 0 -174 40l52 132q53 -29 107 -29q41 0 65 20t24 60q0 48 -40 84t-145 65l-5 23l152 186q-52 49 -125 49q-70 0 -107 -40.5t-37 -119.5v-458h-158v458q0 146 82.5 223.5t211.5 77.5
q61 0 111.5 -15.5t87 -43.5t62 -58t48.5 -68z" />
    <glyph glyph-name="J.ss02" horiz-adv-x="479" 
d="M158 -15q-82 0 -145 30l46 139q38 -22 90 -22q44 0 71 27t27 84v496h158v-489q0 -129 -69.5 -197t-177.5 -68z" />
    <glyph glyph-name="Jcircumflex.ss02" horiz-adv-x="479" 
d="M154 791l86 156h173l87 -156h-116l-57 70l-58 -70h-115zM405 739v-489q0 -129 -69.5 -197t-177.5 -68q-82 0 -145 30l46 139q38 -22 90 -22q44 0 71 27t27 84v496h158z" />
    <glyph glyph-name="A.ss06" horiz-adv-x="717" 
d="M472 179l-116 -143l-116 142l-75 -178h-168l352 752h21l350 -752h-172zM356 453l-97 -229l194 -1z" />
    <glyph glyph-name="Aacute.ss06" horiz-adv-x="717" 
d="M297 791l68 189l145 -64l-96 -125h-117zM472 179l-116 -143l-116 142l-75 -178h-168l352 752h21l350 -752h-172zM356 453l-97 -229l194 -1z" />
    <glyph glyph-name="Abreve.ss06" horiz-adv-x="717" 
d="M357 789q-72 0 -113 41.5t-45 116.5h109q7 -56 49 -56t50 56h110q-5 -76 -45.5 -117t-114.5 -41zM472 179l-116 -143l-116 142l-75 -178h-168l352 752h21l350 -752h-172zM356 453l-97 -229l194 -1z" />
    <glyph glyph-name="Acircumflex.ss06" horiz-adv-x="717" 
d="M185 791l86 156h173l87 -156h-116l-57 70l-58 -70h-115zM472 179l-116 -143l-116 142l-75 -178h-168l352 752h21l350 -752h-172zM356 453l-97 -229l194 -1z" />
    <glyph glyph-name="Adieresis.ss06" horiz-adv-x="717" 
d="M262 794q-34 0 -55.5 22t-21.5 57q0 33 21.5 55.5t55.5 22.5t55.5 -22.5t21.5 -55.5q0 -35 -21.5 -57t-55.5 -22zM455 794q-34 0 -55.5 22t-21.5 57q0 33 21.5 55.5t55.5 22.5t55 -22.5t21 -55.5q0 -36 -20.5 -57.5t-55.5 -21.5zM472 179l-116 -143l-116 142l-75 -178
h-168l352 752h21l350 -752h-172zM356 453l-97 -229l194 -1z" />
    <glyph glyph-name="Agrave.ss06" horiz-adv-x="717" 
d="M206 916l145 64l68 -189h-116zM472 179l-116 -143l-116 142l-75 -178h-168l352 752h21l350 -752h-172zM356 453l-97 -229l194 -1z" />
    <glyph glyph-name="Amacron.ss06" horiz-adv-x="717" 
d="M211 808v117h294v-117h-294zM472 179l-116 -143l-116 142l-75 -178h-168l352 752h21l350 -752h-172zM356 453l-97 -229l194 -1z" />
    <glyph glyph-name="Aring.ss06" horiz-adv-x="717" 
d="M359 781q-60 0 -97.5 36.5t-37.5 92.5t38 92t96 36q60 0 98 -36.5t38 -91.5q0 -56 -38 -92.5t-97 -36.5zM358 960q-21 0 -35 -14t-14 -36q0 -23 14 -37t36 -14q21 0 35 14t14 37t-14 36.5t-36 13.5zM472 179l-116 -143l-116 142l-75 -178h-168l352 752h21l350 -752h-172z
M356 453l-97 -229l194 -1z" />
    <glyph glyph-name="Atilde.ss06" horiz-adv-x="717" 
d="M306 834q-22 0 -32 -40l-98 25q11 63 37.5 95.5t63.5 32.5q31 0 67 -17t47 -17q23 0 33 39l98 -25q-11 -63 -37.5 -95.5t-64.5 -32.5q-31 0 -66.5 17.5t-47.5 17.5zM472 179l-116 -143l-116 142l-75 -178h-168l352 752h21l350 -752h-172zM356 453l-97 -229l194 -1z" />
    <glyph glyph-name="Q.ss07" horiz-adv-x="862" 
d="M814 368q0 -104 -44 -185.5t-110.5 -127t-148.5 -62.5v-143h-159v141q-128 25 -216.5 123.5t-88.5 253.5q0 94 33.5 170t89 122t122 70.5t136.5 24.5t137 -24.5t123.5 -70.5t91 -122t34.5 -170zM428 138q88 0 155 60t67 170q0 114 -66.5 174t-155.5 60t-152.5 -59.5
t-63.5 -174.5q0 -110 64 -170t152 -60z" />
    <glyph glyph-name="f.calt" horiz-adv-x="390" 
d="M366 531v-129h-115v-402h-152v402h-89l32 129h57v17q0 98 52 152t146 54q47 0 80 -10l-12 -120q-25 7 -46 7q-68 0 -68 -69v-31h115z" />
    <glyph glyph-name="j.calt" horiz-adv-x="300" 
d="M149 586q-39 0 -65 23.5t-26 60.5t26 60.5t65 23.5q40 0 66 -23.5t26 -60.5t-26 -60.5t-66 -23.5zM7 -221v128q36 0 51.5 17.5t15.5 59.5v547h152v-540q0 -109 -59.5 -165.5t-159.5 -46.5z" />
    <glyph glyph-name="dotlessj.calt" horiz-adv-x="300" 
d="M7 -221v128q36 0 51.5 17.5t15.5 59.5v547h152v-540q0 -109 -59.5 -165.5t-159.5 -46.5z" />
    <glyph glyph-name="a.ss01" horiz-adv-x="680" 
d="M606 0h-144l-6 74q-61 -89 -173 -89q-113 0 -178 79.5t-65 200.5q0 119 69 201t176 82q109 0 168 -82v65h153v-531zM319 119q57 0 95.5 39t38.5 108q0 71 -35.5 109t-92.5 38q-55 0 -92 -39.5t-37 -107.5q0 -70 34.5 -108.5t88.5 -38.5z" />
    <glyph glyph-name="aacute.ss01" horiz-adv-x="680" 
d="M278 583l68 189l145 -64l-96 -125h-117zM606 0h-144l-6 74q-61 -89 -173 -89q-113 0 -178 79.5t-65 200.5q0 119 69 201t176 82q109 0 168 -82v65h153v-531zM319 119q57 0 95.5 39t38.5 108q0 71 -35.5 109t-92.5 38q-55 0 -92 -39.5t-37 -107.5q0 -70 34.5 -108.5
t88.5 -38.5z" />
    <glyph glyph-name="abreve.ss01" horiz-adv-x="680" 
d="M338 581q-72 0 -113 41.5t-45 116.5h109q7 -56 49 -56t50 56h110q-5 -76 -45.5 -117t-114.5 -41zM606 0h-144l-6 74q-61 -89 -173 -89q-113 0 -178 79.5t-65 200.5q0 119 69 201t176 82q109 0 168 -82v65h153v-531zM319 119q57 0 95.5 39t38.5 108q0 71 -35.5 109
t-92.5 38q-55 0 -92 -39.5t-37 -107.5q0 -70 34.5 -108.5t88.5 -38.5z" />
    <glyph glyph-name="acircumflex.ss01" horiz-adv-x="680" 
d="M166 583l86 156h173l87 -156h-116l-57 70l-58 -70h-115zM606 0h-144l-6 74q-61 -89 -173 -89q-113 0 -178 79.5t-65 200.5q0 119 69 201t176 82q109 0 168 -82v65h153v-531zM319 119q57 0 95.5 39t38.5 108q0 71 -35.5 109t-92.5 38q-55 0 -92 -39.5t-37 -107.5
q0 -70 34.5 -108.5t88.5 -38.5z" />
    <glyph glyph-name="adieresis.ss01" horiz-adv-x="680" 
d="M243 586q-34 0 -55.5 22t-21.5 57q0 33 21.5 55.5t55.5 22.5t55.5 -22.5t21.5 -55.5q0 -35 -21.5 -57t-55.5 -22zM436 586q-34 0 -55.5 22t-21.5 57q0 33 21.5 55.5t55.5 22.5t55 -22.5t21 -55.5q0 -36 -20.5 -57.5t-55.5 -21.5zM606 0h-144l-6 74q-61 -89 -173 -89
q-113 0 -178 79.5t-65 200.5q0 119 69 201t176 82q109 0 168 -82v65h153v-531zM319 119q57 0 95.5 39t38.5 108q0 71 -35.5 109t-92.5 38q-55 0 -92 -39.5t-37 -107.5q0 -70 34.5 -108.5t88.5 -38.5z" />
    <glyph glyph-name="agrave.ss01" horiz-adv-x="680" 
d="M187 708l145 64l68 -189h-116zM606 0h-144l-6 74q-61 -89 -173 -89q-113 0 -178 79.5t-65 200.5q0 119 69 201t176 82q109 0 168 -82v65h153v-531zM319 119q57 0 95.5 39t38.5 108q0 71 -35.5 109t-92.5 38q-55 0 -92 -39.5t-37 -107.5q0 -70 34.5 -108.5t88.5 -38.5z
" />
    <glyph glyph-name="amacron.ss01" horiz-adv-x="680" 
d="M192 600v117h294v-117h-294zM606 0h-144l-6 74q-61 -89 -173 -89q-113 0 -178 79.5t-65 200.5q0 119 69 201t176 82q109 0 168 -82v65h153v-531zM319 119q57 0 95.5 39t38.5 108q0 71 -35.5 109t-92.5 38q-55 0 -92 -39.5t-37 -107.5q0 -70 34.5 -108.5t88.5 -38.5z" />
    <glyph glyph-name="aogonek.ss01" horiz-adv-x="680" 
d="M546 -96q34 0 69 16v-107q-43 -16 -91 -16q-65 0 -98 25.5t-33 70.5q0 60 69 109l-6 72q-61 -89 -173 -89q-113 0 -178 79.5t-65 200.5q0 119 69 201t176 82q109 0 168 -82v65h153v-531h-67q-41 -34 -41 -65t48 -31zM319 119q57 0 95.5 39t38.5 108q0 71 -35.5 109
t-92.5 38q-55 0 -92 -39.5t-37 -107.5q0 -70 34.5 -108.5t88.5 -38.5z" />
    <glyph glyph-name="aring.ss01" horiz-adv-x="680" 
d="M340 573q-60 0 -97.5 36.5t-37.5 92.5t38 92t96 36q60 0 98 -36.5t38 -91.5q0 -56 -38 -92.5t-97 -36.5zM339 752q-21 0 -35 -14t-14 -36q0 -23 14 -37t36 -14q21 0 35 14t14 37t-14 36.5t-36 13.5zM606 0h-144l-6 74q-61 -89 -173 -89q-113 0 -178 79.5t-65 200.5
q0 119 69 201t176 82q109 0 168 -82v65h153v-531zM319 119q57 0 95.5 39t38.5 108q0 71 -35.5 109t-92.5 38q-55 0 -92 -39.5t-37 -107.5q0 -70 34.5 -108.5t88.5 -38.5z" />
    <glyph glyph-name="atilde.ss01" horiz-adv-x="680" 
d="M287 626q-22 0 -32 -40l-98 25q11 63 37.5 95.5t63.5 32.5q31 0 67 -17t47 -17q23 0 33 39l98 -25q-11 -63 -37.5 -95.5t-64.5 -32.5q-31 0 -66.5 17.5t-47.5 17.5zM606 0h-144l-6 74q-61 -89 -173 -89q-113 0 -178 79.5t-65 200.5q0 119 69 201t176 82q109 0 168 -82v65
h153v-531zM319 119q57 0 95.5 39t38.5 108q0 71 -35.5 109t-92.5 38q-55 0 -92 -39.5t-37 -107.5q0 -70 34.5 -108.5t88.5 -38.5z" />
    <glyph glyph-name="i.ss05" horiz-adv-x="300" 
d="M149 781l106 -105l-106 -106l-105 106zM226 531v-531h-152v531h152z" />
    <glyph glyph-name="ij.ss05" horiz-adv-x="600" 
d="M149 781l106 -105l-106 -106l-105 106zM449 781l106 -105l-106 -106l-105 106zM226 531v-531h-152v531h152zM226 -204l37 121q21 -10 46 -10q32 0 48.5 18t16.5 61v545h152v-538q0 -104 -52 -159t-144 -55q-58 0 -104 17z" />
    <glyph glyph-name="j.ss05" horiz-adv-x="300" 
d="M149 781l106 -105l-106 -106l-105 106zM-74 -204l37 121q21 -10 46 -10q32 0 48.5 18t16.5 61v545h152v-538q0 -104 -52 -159t-144 -55q-58 0 -104 17z" />
    <glyph glyph-name="i.sups.ss05" horiz-adv-x="241" 
d="M121 914l75 -75l-75 -76l-75 76zM181 736v-375h-120v375h120z" />
    <glyph glyph-name="j.sups.ss05" horiz-adv-x="241" 
d="M120 914l75 -75l-75 -76l-75 76zM31 205q-42 0 -78 13l28 94q17 -7 34 -7q25 0 35.5 12t10.5 39v380h120v-375q0 -75 -40 -115.5t-110 -40.5z" />
    <glyph glyph-name="a.sups" horiz-adv-x="441" 
d="M394 361h-106q-2 7 -4.5 21l-3.5 20q-38 -50 -113 -50q-61 0 -99 32.5t-38 89.5q0 56 47 88.5t129 32.5q32 0 68 -8v3q0 29 -20 44.5t-57 15.5q-55 0 -102 -31l-44 87q73 42 155 42q83 0 132 -42t49 -116v-127q0 -49 7 -102zM197 442q33 0 55 15t22 47v7q-26 6 -54 6
q-76 0 -76 -42q0 -14 13.5 -23.5t39.5 -9.5z" />
    <glyph glyph-name="b.sups" horiz-adv-x="527" 
d="M305 748q87 0 136 -57t49 -142q0 -83 -52.5 -141.5t-134.5 -58.5q-80 0 -124 57l-5 -45h-113v517h120v-188q45 58 124 58zM273 454q41 0 68.5 25t27.5 69q0 46 -25.5 70.5t-65.5 24.5q-41 0 -69 -25t-28 -70q0 -46 25.5 -70t66.5 -24z" />
    <glyph glyph-name="c.sups" horiz-adv-x="426" 
d="M242 350q-92 0 -148.5 53t-56.5 145q0 91 60 145t153 54q86 0 139 -47l-61 -86q-31 27 -73 27q-41 0 -68.5 -24.5t-27.5 -69.5t25.5 -67.5t66.5 -22.5q45 0 80 29l60 -83q-59 -53 -149 -53z" />
    <glyph glyph-name="d.sups" horiz-adv-x="527" 
d="M465 361h-112l-5 47q-46 -59 -126 -59q-86 0 -135.5 56.5t-49.5 141.5t52.5 143t134.5 58q78 0 122 -54v184h119v-517zM249 453q41 0 69 25t28 70q0 46 -25.5 70.5t-67.5 24.5q-40 0 -67 -25.5t-27 -69.5q0 -45 25.5 -70t64.5 -25z" />
    <glyph glyph-name="e.sups" horiz-adv-x="472" 
d="M437 538q0 -4 -0.5 -11.5t-0.5 -12.5h-274q16 -61 95 -61q52 0 97 34l58 -81q-66 -57 -167 -57q-94 0 -151 53t-57 145q0 95 60 148.5t145 53.5q88 0 141.5 -53.5t53.5 -157.5zM241 652q-61 0 -79 -61h152q-13 61 -73 61z" />
    <glyph glyph-name="f.sups" horiz-adv-x="343" 
d="M317 736v-101h-109v-274h-118v274h-76l26 101h50v6q0 70 40 109t111 39q63 0 107 -29l-48 -84q-20 15 -47 15q-45 0 -45 -43v-13h109z" />
    <glyph glyph-name="g.sups" horiz-adv-x="511" 
d="M450 736v-330q0 -103 -59.5 -152t-161.5 -49q-72 0 -132 25l34 101q43 -20 96 -20t78.5 21t25.5 68v21q-44 -52 -115 -52q-84 0 -131.5 53.5t-47.5 134.5q0 80 50.5 135.5t129.5 55.5q74 0 116 -53l4 41h113zM239 470q40 0 66 23t26 65q0 43 -23 64t-61 21t-63 -22.5
t-25 -62.5t22.5 -64t57.5 -24z" />
    <glyph glyph-name="h.sups" horiz-adv-x="491" 
d="M301 748q62 0 100 -41t38 -119v-227h-120v208q0 36 -15 53t-50 17q-33 0 -53 -19t-20 -60v-199h-120v517h120v-179q45 49 120 49z" />
    <glyph glyph-name="i.sups" horiz-adv-x="241" 
d="M120 778q-30 0 -50.5 18t-20.5 47q0 28 20.5 46t50.5 18q32 0 52 -18t20 -46q0 -29 -20 -47t-52 -18zM181 736v-375h-120v375h120z" />
    <glyph glyph-name="j.sups" horiz-adv-x="241" 
d="M120 778q-30 0 -50.5 18t-20.5 47q0 28 20.5 46t50.5 18q32 0 52 -18t20 -46q0 -29 -20 -47t-52 -18zM31 205q-42 0 -78 13l28 94q17 -7 34 -7q25 0 35.5 12t10.5 39v380h120v-375q0 -75 -40 -115.5t-110 -40.5z" />
    <glyph glyph-name="k.sups" horiz-adv-x="446" 
d="M181 541v-180h-120v517h120v-309l119 167h140l-139 -174l140 -201h-149z" />
    <glyph glyph-name="l.sups" horiz-adv-x="242" 
d="M181 878v-517h-120v517h120z" />
    <glyph glyph-name="m.sups" horiz-adv-x="733" 
d="M543 748q64 0 101 -41t37 -121v-225h-119v207q0 71 -61 71q-71 0 -71 -81v-197h-118v207q0 71 -62 71q-69 0 -69 -80v-198h-120v375h113l5 -41q40 53 115 53q81 0 115 -65q47 65 134 65z" />
    <glyph glyph-name="n.sups" horiz-adv-x="489" 
d="M300 748q62 0 99 -41t37 -119v-227h-119v208q0 36 -15 53t-49 17q-32 0 -52 -19.5t-20 -59.5v-199h-120v375h113l5 -40q45 52 121 52z" />
    <glyph glyph-name="o.sups" horiz-adv-x="498" 
d="M249 349q-87 0 -149.5 52.5t-62.5 146.5q0 95 62.5 147.5t150.5 52.5q86 0 148.5 -53t62.5 -147t-62 -146.5t-150 -52.5zM249 452q36 0 63 26t27 71t-26 70.5t-63 25.5t-64 -26t-27 -71t26.5 -70.5t63.5 -25.5z" />
    <glyph glyph-name="p.sups" horiz-adv-x="527" 
d="M305 748q86 0 135.5 -57t49.5 -142q0 -83 -52.5 -141.5t-134.5 -58.5q-78 0 -122 55v-187h-120v519h113l5 -48q45 60 126 60zM273 454q41 0 68 25t27 69q0 46 -25 70.5t-65 24.5q-41 0 -69 -25t-28 -70q0 -46 25.5 -70t66.5 -24z" />
    <glyph glyph-name="q.sups" horiz-adv-x="527" 
d="M465 217h-119v188q-46 -56 -124 -56q-86 0 -135.5 56.5t-49.5 141.5t52.5 143t134.5 58q80 0 124 -57l5 45h112v-519zM249 453q41 0 69 25t28 70q0 46 -25.5 70.5t-67.5 24.5q-40 0 -67 -25.5t-27 -69.5q0 -45 25.5 -70t64.5 -25z" />
    <glyph glyph-name="r.sups" horiz-adv-x="339" 
d="M174 736l5 -59q42 66 132 66v-120q-56 6 -93 -12t-37 -67v-183h-120v375h113z" />
    <glyph glyph-name="s.sups" horiz-adv-x="382" 
d="M190 350q-104 0 -173 64l65 77q49 -45 107 -45q49 0 49 23q0 17 -32 27.5t-70 16.5t-70 33t-32 75q0 57 46.5 91.5t119.5 34.5q92 0 154 -52l-59 -78q-43 34 -93 34q-48 0 -48 -22q0 -12 21 -19.5t51 -14t60 -17t51 -36t21 -63.5q0 -60 -49 -94.5t-119 -34.5z" />
    <glyph glyph-name="t.sups" horiz-adv-x="366" 
d="M303 470l39 -91q-51 -30 -106 -30q-146 0 -146 144v142h-76l26 101h50v91h118v-91h126v-101h-126v-140q0 -39 44 -39q25 0 51 14z" />
    <glyph glyph-name="u.sups" horiz-adv-x="489" 
d="M427 365h-113l-4 39q-45 -52 -121 -52q-62 0 -99.5 41.5t-37.5 119.5v226h120v-208q0 -36 14.5 -52.5t49.5 -16.5q72 0 72 78v199h119v-374z" />
    <glyph glyph-name="v.sups" horiz-adv-x="451" 
d="M234 352h-17l-212 384h137l86 -177l84 177h135z" />
    <glyph glyph-name="w.sups" horiz-adv-x="600" 
d="M411 352h-17l-94 187l-95 -187h-18l-180 384h130l69 -160l86 162h18l89 -160l65 158h128z" />
    <glyph glyph-name="x.sups" horiz-adv-x="438" 
d="M215 471l-75 -110h-135l144 191l-137 184h144l63 -98l65 98h134l-133 -179l147 -196h-142z" />
    <glyph glyph-name="y.sups" horiz-adv-x="441" 
d="M265 361l-64 -144h-124l86 194l-158 325h135l85 -198l82 198h129z" />
    <glyph glyph-name="z.sups" horiz-adv-x="369" 
d="M199 463h143v-102h-320v17l153 257h-155l24 101h308v-17z" />
    <glyph glyph-name="f_l" horiz-adv-x="689" 
d="M319 631q-68 0 -68 -69v-31h115v-129h-115v-402h-152v402h-89l32 129h57v17q0 98 52 152t146 54q47 0 80 -10l-12 -120q-25 7 -46 7zM616 0h-153v739h153v-739z" />
    <glyph glyph-name="f_f_i.ss05" horiz-adv-x="1079" 
d="M824 676l105 105l105 -105l-105 -106zM319 631q-68 0 -68 -69v-31h115v-129h-115v-402h-152v402h-89l32 129h57v17q0 98 52 152t146 54q47 0 80 -10l-12 -120q-25 7 -46 7zM709 631q-68 0 -68 -69v-31h115v-129h-115v-402h-152v402h-89l32 129h57v17q0 98 52 152t146 54
q47 0 80 -10l-12 -120q-25 7 -46 7zM1006 531v-531h-153v531h153z" />
    <glyph glyph-name="f_i.ss05" horiz-adv-x="689" 
d="M434 676l105 105l106 -105l-106 -106zM319 631q-68 0 -68 -69v-31h115v-129h-115v-402h-152v402h-89l32 129h57v17q0 98 52 152t146 54q47 0 80 -10l-12 -120q-25 7 -46 7zM616 531v-531h-152v531h152z" />
    <glyph glyph-name="fi.ss05" horiz-adv-x="689" 
d="M434 676l105 105l106 -105l-106 -106zM319 631q-68 0 -68 -69v-31h115v-129h-115v-402h-152v402h-89l32 129h57v17q0 98 52 152t146 54q47 0 80 -10l-12 -120q-25 7 -46 7zM616 531v-531h-152v531h152z" />
    <glyph glyph-name="zero.osf" horiz-adv-x="733" 
d="M368 -12q-142 0 -226.5 88t-84.5 226t85 227t226 89q138 0 223 -89.5t85 -226.5t-85 -225.5t-223 -88.5zM368 131q67 0 108.5 45.5t41.5 125.5q0 81 -41 126.5t-109 45.5q-70 0 -111 -45t-41 -127q0 -81 41 -126t111 -45z" />
    <glyph glyph-name="one.osf" horiz-adv-x="488" 
d="M393 0h-157v405l-151 -63l-51 127l338 154h21v-623z" />
    <glyph glyph-name="two.osf" horiz-adv-x="601" 
d="M554 0h-524v12l237 252q57 61 73.5 89.5t16.5 59.5q0 30 -22 48.5t-66 18.5q-84 0 -135 -73l-102 88q39 58 103 92t146 34q122 0 179.5 -59.5t57.5 -141.5q0 -65 -37 -124.5t-129 -140.5l-10 -9h212v-146z" />
    <glyph glyph-name="three.osf" horiz-adv-x="651" 
d="M597 583l-196 -253q85 -14 136 -72.5t51 -150.5q0 -64 -29.5 -120t-96 -95t-159.5 -39q-168 0 -269 128l98 103q68 -89 169 -89q59 0 93 31.5t34 83.5q0 72 -59.5 97t-144.5 2l-26 66l140 188h-275v143h534v-23z" />
    <glyph glyph-name="four.osf" horiz-adv-x="717" 
d="M567 3v-136h-156v136h-415v22l415 581h156v-466h116v-137h-116zM411 383l-168 -243h168v243z" />
    <glyph glyph-name="five.osf" horiz-adv-x="610" 
d="M316 354q119 0 183 -69.5t64 -174.5q0 -104 -74 -181t-209 -77q-156 0 -252 109l88 110q69 -77 162 -77q57 0 90.5 30t33.5 81q0 53 -35 85.5t-109 32.5q-95 0 -174 -44l-14 9v418h448v-143h-302v-125q48 16 100 16z" />
    <glyph glyph-name="six.osf" horiz-adv-x="651" 
d="M366 500q105 0 175 -69t70 -184t-78 -188.5t-207 -73.5q-131 0 -208.5 74t-77.5 191q0 109 80 220l194 269h200l-194 -243q28 4 46 4zM326 127q56 0 89.5 33t33.5 87q0 55 -33.5 88t-89.5 33q-57 0 -91 -33.5t-34 -88.5q0 -54 34 -86.5t91 -32.5z" />
    <glyph glyph-name="seven.osf" horiz-adv-x="565" 
d="M569 585l-274 -718h-176l244 596h-329v143h535v-21z" />
    <glyph glyph-name="eight.osf" horiz-adv-x="683" 
d="M511 385q52 -23 83.5 -67t31.5 -101q0 -108 -78 -169t-205 -61t-206.5 61t-79.5 169q0 58 32 101.5t84 66.5q-92 52 -92 162q0 91 71.5 148t190.5 57t190 -57t71 -148q0 -110 -93 -162zM343 623q-49 0 -77.5 -27t-28.5 -68q0 -45 27.5 -68.5t78.5 -23.5q49 0 77 24t28 68
q0 41 -28 68t-77 27zM343 117q58 0 91.5 27t33.5 78q0 44 -34 72.5t-91 28.5q-59 0 -92.5 -28t-33.5 -73q0 -51 33.5 -78t92.5 -27z" />
    <glyph glyph-name="nine.osf" horiz-adv-x="651" 
d="M324 621q131 0 209 -74t78 -191q0 -107 -80 -220l-194 -269h-200l194 244q-23 -5 -46 -5q-105 0 -175 69t-70 184t78 188.5t206 73.5zM324 238q58 0 92 33.5t34 88.5q0 54 -34 86.5t-92 32.5q-55 0 -89 -33t-34 -87q0 -55 33.5 -88t89.5 -33z" />
    <glyph glyph-name="zero.tf" horiz-adv-x="694" 
d="M347 -13q-141 0 -224.5 105t-83.5 277q0 171 83.5 277t224.5 106q140 0 224 -106t84 -277q0 -172 -83.5 -277t-224.5 -105zM347 130q68 0 107.5 59.5t39.5 179.5q0 121 -39.5 180t-107.5 59q-70 0 -109 -59t-39 -180t39.5 -180t108.5 -59z" />
    <glyph glyph-name="one.tf" horiz-adv-x="694" 
d="M624 0h-475v143h166v384l-171 -81l-54 129l362 178h21v-610h151v-143z" />
    <glyph glyph-name="two.tf" horiz-adv-x="694" 
d="M607 0h-540v21l243 293q65 78 85.5 115.5t20.5 81.5q0 42 -28 70t-81 28q-90 0 -147 -92l-114 82q86 155 269 155q68 0 120.5 -20t82.5 -54t45 -74.5t15 -85.5q0 -74 -36.5 -137.5t-134.5 -176.5l-55 -63h255v-143z" />
    <glyph glyph-name="three.tf" horiz-adv-x="694" 
d="M619 715l-195 -252q85 -14 135.5 -73t50.5 -151q0 -100 -74.5 -177t-210.5 -77q-167 0 -269 129l98 103q68 -89 169 -89q60 0 93.5 31t33.5 83q0 73 -59.5 98t-144.5 2l-26 66l140 188h-275v143h534v-24z" />
    <glyph glyph-name="four.tf" horiz-adv-x="694" 
d="M576 136v-136h-156v136h-399v22l399 581h156v-466h110v-137h-110zM420 514l-156 -241h156v241z" />
    <glyph glyph-name="five.tf" horiz-adv-x="694" 
d="M354 487q119 0 183 -69.5t64 -174.5q0 -104 -74.5 -181t-209.5 -77q-154 0 -252 109l88 110q71 -77 162 -77q57 0 91 30.5t34 80.5q0 53 -35.5 85.5t-109.5 32.5q-96 0 -173 -44l-14 9v418h447v-143h-301v-124q50 15 100 15z" />
    <glyph glyph-name="six.tf" horiz-adv-x="694" 
d="M387 500q105 0 175 -69t70 -184t-78 -188.5t-206 -73.5q-131 0 -208.5 74t-77.5 191q0 109 79 220l194 269h201l-195 -244q23 5 46 5zM348 127q55 0 89 33t34 87q0 55 -33.5 88t-89.5 33q-58 0 -92 -33.5t-34 -88.5q0 -54 34.5 -86.5t91.5 -32.5z" />
    <glyph glyph-name="seven.tf" horiz-adv-x="694" 
d="M617 718l-274 -718h-176l244 596h-328v143h534v-21z" />
    <glyph glyph-name="eight.tf" horiz-adv-x="694" 
d="M517 385q52 -23 83.5 -66.5t31.5 -101.5q0 -108 -78.5 -169t-204.5 -61q-127 0 -206.5 61t-79.5 169q0 58 31.5 102t84.5 67q-92 50 -92 161q0 91 71.5 148t190.5 57q118 0 189.5 -57t71.5 -148q0 -110 -93 -162zM349 623q-49 0 -78 -27t-29 -68q0 -45 28 -68.5t79 -23.5
q49 0 77 24t28 68q0 40 -28.5 67.5t-76.5 27.5zM349 117q57 0 90.5 27t33.5 78q0 44 -33.5 72.5t-90.5 28.5q-60 0 -93.5 -28t-33.5 -73q0 -51 33.5 -78t93.5 -27z" />
    <glyph glyph-name="nine.tf" horiz-adv-x="694" 
d="M346 754q131 0 208.5 -74t77.5 -191q0 -109 -80 -220l-193 -269h-201l194 243q-28 -4 -46 -4q-105 0 -174.5 69t-69.5 184t78 188.5t206 73.5zM346 371q58 0 92 33.5t34 88.5q0 54 -34.5 86.5t-91.5 32.5q-55 0 -89 -33t-34 -87q0 -55 33.5 -88t89.5 -33z" />
    <glyph glyph-name="zero.dnom" horiz-adv-x="446" 
d="M224 -8q-83 0 -131 53t-48 140t48 139.5t131 52.5q82 0 129.5 -53t47.5 -139q0 -87 -47.5 -140t-129.5 -53zM224 88q32 0 52 25t20 72q0 46 -20 71.5t-52 25.5q-34 0 -53.5 -25t-19.5 -72q0 -48 19.5 -72.5t53.5 -24.5z" />
    <glyph glyph-name="one.dnom" horiz-adv-x="321" 
d="M64 203l-37 85l204 89h14v-377h-104v234z" />
    <glyph glyph-name="two.dnom" horiz-adv-x="375" 
d="M337 0h-312v13l128 141q37 39 49.5 58.5t12.5 35.5t-12 25.5t-35 9.5q-45 0 -80 -47l-66 66q57 77 156 77q75 0 110 -36t35 -85q0 -68 -90 -152l-11 -10h115v-96z" />
    <glyph glyph-name="three.dnom" horiz-adv-x="390" 
d="M190 -8q-104 0 -163 64l63 73q38 -41 92 -41q57 0 57 45q0 32 -38.5 41t-77.5 -8l-17 34l70 75h-139v95h311v-26l-103 -109q44 -5 71.5 -35.5t27.5 -77.5q0 -59 -40 -94.5t-114 -35.5z" />
    <glyph glyph-name="four.dnom" horiz-adv-x="418" 
d="M329 58v-58h-96v58h-236v12l229 300h103v-228h62v-84h-62zM233 246l-80 -104h80v104z" />
    <glyph glyph-name="five.dnom" horiz-adv-x="365" 
d="M180 241q73 0 110.5 -33t37.5 -83q0 -54 -43 -94t-120 -40q-88 0 -143 52l57 75q34 -32 84 -32q59 0 59 35q0 41 -72 41q-40 0 -98 -17l-8 6v219h258v-88h-162v-46q22 5 40 5z" />
    <glyph glyph-name="six.dnom" horiz-adv-x="395" 
d="M226 251q62 0 99.5 -34.5t37.5 -90.5q0 -59 -45 -97t-119 -38q-76 0 -121.5 38.5t-45.5 99.5q0 60 49 121l103 120h132l-121 -122q13 3 31 3zM199 86q26 0 41.5 11t15.5 29q0 21 -15.5 32.5t-41.5 11.5q-28 0 -44.5 -11.5t-16.5 -32.5q0 -18 17 -29t44 -11z" />
    <glyph glyph-name="seven.dnom" horiz-adv-x="333" 
d="M337 357l-152 -357h-114l127 275h-171v95h310v-13z" />
    <glyph glyph-name="eight.dnom" horiz-adv-x="430" 
d="M216 -9q-75 0 -122.5 31.5t-47.5 88.5q0 28 17.5 49t42.5 31q-47 24 -47 79q0 49 42.5 79t114.5 30q71 0 113.5 -30t42.5 -79q0 -55 -47 -79q25 -10 42.5 -31t17.5 -49q0 -57 -47 -88.5t-122 -31.5zM216 225q52 0 52 33q0 15 -14 24.5t-38 9.5q-25 0 -39 -9.5t-14 -24.5
q0 -33 53 -33zM216 77q28 0 45 10t17 28q0 36 -63 36q-64 0 -64 -36q0 -38 65 -38z" />
    <glyph glyph-name="nine.dnom" horiz-adv-x="395" 
d="M197 379q76 0 121 -38.5t45 -99.5q0 -60 -49 -121l-102 -120h-133l122 122q-15 -3 -32 -3q-62 0 -99.5 34.5t-37.5 90.5q0 59 45.5 97t119.5 38zM197 200q27 0 43.5 11.5t16.5 32.5q0 18 -16.5 29t-43.5 11q-26 0 -42 -11t-16 -29q0 -21 15.5 -32.5t42.5 -11.5z" />
    <glyph glyph-name="zero.numr" horiz-adv-x="446" 
d="M224 361q-83 0 -131 53t-48 140t48 139.5t131 52.5q82 0 129.5 -53t47.5 -139q0 -87 -47.5 -140t-129.5 -53zM224 457q32 0 52 25t20 72q0 46 -20 71.5t-52 25.5q-34 0 -53.5 -25t-19.5 -72q0 -48 19.5 -72.5t53.5 -24.5z" />
    <glyph glyph-name="one.numr" horiz-adv-x="321" 
d="M64 572l-37 85l204 89h14v-377h-104v234z" />
    <glyph glyph-name="two.numr" horiz-adv-x="375" 
d="M337 369h-312v13l128 141q37 39 49.5 58.5t12.5 35.5t-12 25.5t-35 9.5q-45 0 -80 -47l-66 66q57 77 156 77q75 0 110 -36t35 -85q0 -68 -90 -152l-11 -10h115v-96z" />
    <glyph glyph-name="three.numr" horiz-adv-x="390" 
d="M190 361q-104 0 -163 64l63 73q38 -41 92 -41q57 0 57 45q0 32 -38.5 41t-77.5 -8l-17 34l70 75h-139v95h311v-26l-103 -109q44 -5 71.5 -35.5t27.5 -77.5q0 -59 -40 -94.5t-114 -35.5z" />
    <glyph glyph-name="four.numr" horiz-adv-x="418" 
d="M329 427v-58h-96v58h-236v12l229 300h103v-228h62v-84h-62zM233 615l-80 -104h80v104z" />
    <glyph glyph-name="five.numr" horiz-adv-x="365" 
d="M180 610q73 0 110.5 -33t37.5 -83q0 -54 -43 -94t-120 -40q-88 0 -143 52l57 75q34 -32 84 -32q59 0 59 35q0 41 -72 41q-40 0 -98 -17l-8 6v219h258v-88h-162v-46q22 5 40 5z" />
    <glyph glyph-name="six.numr" horiz-adv-x="395" 
d="M226 620q62 0 99.5 -34.5t37.5 -90.5q0 -59 -45 -97t-119 -38q-76 0 -121.5 38.5t-45.5 99.5q0 60 49 121l103 120h132l-121 -122q13 3 31 3zM199 455q26 0 41.5 11t15.5 29q0 21 -15.5 32.5t-41.5 11.5q-28 0 -44.5 -11.5t-16.5 -32.5q0 -18 17 -29t44 -11z" />
    <glyph glyph-name="seven.numr" horiz-adv-x="333" 
d="M337 726l-152 -357h-114l127 275h-171v95h310v-13z" />
    <glyph glyph-name="eight.numr" horiz-adv-x="430" 
d="M216 360q-75 0 -122.5 31.5t-47.5 88.5q0 28 17.5 49t42.5 31q-47 24 -47 79q0 49 42.5 79t114.5 30q71 0 113.5 -30t42.5 -79q0 -55 -47 -79q25 -10 42.5 -31t17.5 -49q0 -57 -47 -88.5t-122 -31.5zM216 594q52 0 52 33q0 15 -14 24.5t-38 9.5q-25 0 -39 -9.5t-14 -24.5
q0 -33 53 -33zM216 446q28 0 45 10t17 28q0 36 -63 36q-64 0 -64 -36q0 -38 65 -38z" />
    <glyph glyph-name="nine.numr" horiz-adv-x="395" 
d="M197 748q76 0 121 -38.5t45 -99.5q0 -60 -49 -121l-102 -120h-133l122 122q-15 -3 -32 -3q-62 0 -99.5 34.5t-37.5 90.5q0 59 45.5 97t119.5 38zM197 569q27 0 43.5 11.5t16.5 32.5q0 18 -16.5 29t-43.5 11q-26 0 -42 -11t-16 -29q0 -21 15.5 -32.5t42.5 -11.5z" />
    <glyph glyph-name="periodcentered.loclCAT.case" horiz-adv-x="27" 
d="M-95 318q-41 0 -68 26t-27 66t27 66t68 26t68.5 -26t27.5 -66t-27.5 -66t-68.5 -26z" />
    <glyph glyph-name="periodcentered.loclCAT" horiz-adv-x="144" 
d="M72 267q-38 0 -62.5 23.5t-24.5 59.5q0 37 24.5 60.5t62.5 23.5t62 -23.5t24 -60.5q0 -36 -24.5 -59.5t-61.5 -23.5z" />
    <glyph glyph-name="periodcentered.ss05" horiz-adv-x="310" 
d="M155 457l124 -124l-124 -124l-124 124z" />
    <glyph glyph-name="bullet.ss05" horiz-adv-x="441" 
d="M221 588l189 -189l-189 -189l-190 189z" />
    <glyph glyph-name="colon.ss05" horiz-adv-x="310" 
d="M155 547l124 -124l-124 -124l-124 124zM155 231l124 -124l-124 -124l-124 124z" />
    <glyph glyph-name="comma.ss05" horiz-adv-x="289" 
d="M251 148l-169 -288h-18v288h187z" />
    <glyph glyph-name="ellipsis.ss05" horiz-adv-x="847" 
d="M155 231l124 -124l-124 -124l-124 124zM424 231l124 -124l-124 -124l-124 124zM692 231l124 -124l-124 -124l-124 124z" />
    <glyph glyph-name="exclam.ss05" horiz-adv-x="277" 
d="M51 739h176l-30 -513h-116zM138 200l108 -109l-108 -108l-107 108z" />
    <glyph glyph-name="exclamdown.ss05" horiz-adv-x="277" 
d="M139 547l107 -108l-107 -109l-108 109zM197 304l30 -513h-177l30 513h117z" />
    <glyph glyph-name="period.ss05" horiz-adv-x="310" 
d="M155 231l124 -124l-124 -124l-124 124z" />
    <glyph glyph-name="question.ss05" horiz-adv-x="559" 
d="M178 226v24q0 50 18.5 86.5t45.5 57.5t54 39t45.5 41.5t18.5 53.5q0 37 -24.5 61t-75.5 24q-89 0 -144 -72l-95 104q96 109 251 109q122 0 184 -61t62 -157q0 -44 -15 -79.5t-38 -56t-49.5 -41t-49.5 -35.5t-38 -37t-15 -48v-13h-135zM247 200l108 -109l-108 -108
l-107 108z" />
    <glyph glyph-name="questiondown.ss05" horiz-adv-x="509" 
d="M311 547l108 -108l-108 -109l-108 109zM286 -224q-121 0 -183.5 61t-62.5 156q0 44 15 79.5t38 56.5t49.5 41t49.5 35t38 37t15 48v14h136v-24q0 -50 -18.5 -86.5t-45.5 -57.5t-54 -39t-45.5 -41.5t-18.5 -53.5q0 -38 24.5 -62t75.5 -24q86 0 144 73l94 -105
q-95 -108 -251 -108z" />
    <glyph glyph-name="semicolon.ss05" horiz-adv-x="310" 
d="M155 547l124 -124l-124 -124l-124 124zM251 148l-169 -288h-18v288h187z" />
    <glyph glyph-name="quotedblbase.ss05" horiz-adv-x="523" 
d="M251 148l-169 -288h-18v288h187zM486 148l-170 -288h-18v288h188z" />
    <glyph glyph-name="quotedblleft.ss05" horiz-adv-x="523" 
d="M225 754v-287h-187l169 287h18zM459 754v-287h-187l169 287h18z" />
    <glyph glyph-name="quotedblright.ss05" horiz-adv-x="523" 
d="M251 739l-169 -288h-18v288h187zM486 739l-170 -288h-18v288h188z" />
    <glyph glyph-name="quoteleft.ss05" horiz-adv-x="289" 
d="M225 740v-288h-187l169 288h18z" />
    <glyph glyph-name="quoteright.ss05" horiz-adv-x="289" 
d="M251 739l-169 -288h-18v288h187z" />
    <glyph glyph-name="quotesinglbase.ss05" horiz-adv-x="289" 
d="M251 148l-169 -288h-18v288h187z" />
    <glyph glyph-name="space.frac" horiz-adv-x="600" 
 />
    <glyph glyph-name="divide.ss05" horiz-adv-x="571" 
d="M285 644l113 -113l-113 -112l-112 112zM541 379v-141h-511v141h511zM285 199l113 -113l-113 -112l-112 112z" />
    <glyph glyph-name="ampersand.ss08" horiz-adv-x="727" 
d="M613 -1l-68 89q-89 -103 -238 -103q-125 0 -201 72t-76 188q0 176 192 268l-156 205v21h589v-142h-306l379 -501zM317 121q91 0 148 73l-161 211q-116 -55 -116 -160q0 -52 34.5 -88t94.5 -36z" />
    <glyph glyph-name="uni030C.alt" horiz-adv-x="0" 
d="M-50 739l-30 -164h-98l1 164h127z" />
    <glyph glyph-name="uni0338.case" horiz-adv-x="0" 
d="M-133 737l83 -70l-570 -665l-82 70z" />
    <glyph glyph-name="uni0337.case" horiz-adv-x="0" 
d="M-50 654v-162l-241 -196v163z" />
    <glyph glyph-name="uni0336.case" horiz-adv-x="0" 
d="M-50 371v-122h-494v122h494z" />
    <glyph glyph-name="uni0335.case" horiz-adv-x="0" 
d="M-50 371v-122h-358v122h358z" />
    <glyph glyph-name="uni0307.i" horiz-adv-x="0" 
d="M-141 586q-40 0 -65.5 23.5t-25.5 60.5t25.5 60.5t65.5 23.5t65.5 -23.5t25.5 -60.5t-25.5 -60.5t-65.5 -23.5z" />
    <glyph glyph-name="uni0307.i.ss05" horiz-adv-x="0" 
d="M-156 781l106 -105l-106 -106l-105 106z" />
    </font>
</defs>
</svg>
