<?xml version="1.0" encoding="UTF-8"?>
<svg width="29px" height="28px" viewBox="0 0 29 28" version="1.1" xmlns="http://www.w3.org/2000/svg" xmlns:xlink="http://www.w3.org/1999/xlink">
    <!-- Generator: Sketch 49.3 (51167) - http://www.bohemiancoding.com/sketch -->
    <title>4A</title>
    <desc>Created with Sketch.</desc>
    <defs></defs>
    <g id="Page-1" stroke="none" stroke-width="1" fill="none" fill-rule="evenodd">
        <g id="FREE100icons" transform="translate(-791.000000, -206.000000)" fill="#FFFFFF">
            <g id="A" transform="translate(357.000000, 197.000000)">
                <path d="M461.836,11.645 C462.422,11.06 462.422,10.109 461.836,9.524 C461.25,8.938 460.301,8.938 459.715,9.524 L448.463,20.776 L437.211,9.524 C436.625,8.938 435.676,8.938 435.09,9.524 C434.504,10.109 434.504,11.06 435.09,11.645 L446.342,22.897 L435.09,34.149 C434.504,34.734 434.504,35.685 435.09,36.27 C435.383,36.563 435.767,36.709 436.151,36.709 C436.535,36.709 436.918,36.563 437.211,36.27 L448.463,25.018 L459.715,36.27 C460.008,36.563 460.392,36.709 460.776,36.709 C461.16,36.709 461.543,36.563 461.836,36.27 C462.422,35.685 462.422,34.734 461.836,34.149 L450.584,22.897 L461.836,11.645 Z" id="4A"></path>
            </g>
        </g>
    </g>
</svg>