<?xml version="1.0" encoding="UTF-8"?>
<svg width="30px" height="36px" viewBox="0 0 30 36" version="1.1" xmlns="http://www.w3.org/2000/svg" xmlns:xlink="http://www.w3.org/1999/xlink">
    <!-- Generator: Sketch 49 (51002) - http://www.bohemiancoding.com/sketch -->
    <title>placeholder</title>
    <desc>Created with Sketch.</desc>
    <defs></defs>
    <g id="Page-1" stroke="none" stroke-width="1" fill="none" fill-rule="evenodd">
        <g id="User-Interface-Icons-White-Dark" transform="translate(-513.000000, -4905.000000)" fill="#419BF7" fill-rule="nonzero">
            <path d="M527.781052,4905 C535.813471,4905 542.348571,4911.52537 542.363323,4919.53846 C542.363323,4920.46645 542.274811,4921.39444 542.097788,4922.30033 C542.07566,4922.44026 542.046156,4922.58756 542.001901,4922.76432 C541.780622,4923.75123 541.448704,4924.7234 541.020898,4925.64403 C539.530954,4929.15712 536.248653,4934.62193 529.130853,4940.52128 C528.754679,4940.83061 528.282617,4941 527.795804,4941 C527.308991,4941 526.836929,4940.83061 526.460755,4940.52128 C519.335579,4934.61457 516.053278,4929.15712 514.555958,4925.61457 C514.135528,4924.71604 513.80361,4923.75123 513.582331,4922.75696 C513.501196,4922.44026 513.479068,4922.27087 513.479068,4922.27087 C513.220909,4920.93044 513.154526,4919.52373 513.287293,4918.12439 C513.980633,4910.89935 519.99204,4905.25777 527.264735,4905.00736 C527.434382,4905 527.611405,4905 527.781052,4905 Z M527.781052,4912.17349 C523.621011,4912.17349 520.242822,4915.55401 520.242822,4919.70049 C520.242822,4923.84697 523.621011,4927.23486 527.781052,4927.23486 C531.941093,4927.23486 535.319282,4923.85434 535.319282,4919.70786 C535.319282,4915.56137 531.941093,4912.17349 527.781052,4912.17349 Z" id="placeholder"></path>
        </g>
    </g>
</svg>