<?xml version="1.0" standalone="no"?>
<!DOCTYPE svg PUBLIC "-//W3C//DTD SVG 20010904//EN"
 "http://www.w3.org/TR/2001/REC-SVG-20010904/DTD/svg10.dtd">
<svg version="1.0" xmlns="http://www.w3.org/2000/svg"
 width="842.000000pt" height="842.000000pt" viewBox="0 0 842.000000 842.000000"
 preserveAspectRatio="xMidYMid meet">
<metadata>
Created by potrace 1.11, written by Peter Selinger 2001-2013
</metadata>
<g transform="translate(0.000000,842.000000) scale(0.100000,-0.100000)"
fill="#000000" stroke="none">
<path d="M2961 6652 c-10 -15 -33 -72 -50 -127 -17 -55 -43 -128 -57 -163 -31
-77 -137 -306 -150 -324 -6 -7 -23 -38 -38 -68 -16 -30 -39 -69 -52 -87 -13
-17 -24 -34 -24 -38 0 -5 -66 -103 -180 -269 -19 -28 -48 -65 -65 -82 -16 -18
-41 -46 -55 -64 -14 -17 -36 -44 -50 -60 -14 -15 -54 -60 -90 -101 -214 -241
-461 -457 -710 -621 l-110 -72 2 -430 3 -431 813 -1 c461 -1 813 2 813 7 8 57
-36 119 -86 119 -11 0 -26 4 -33 9 -22 13 22 113 68 155 43 39 54 64 20 46
-16 -9 -20 -8 -20 5 0 8 -4 15 -10 15 -14 0 -12 27 4 63 19 42 53 145 60 182
4 17 9 41 12 55 4 23 9 57 18 148 2 18 7 36 10 39 11 11 2388 9 2402 -2 7 -6
15 -46 19 -90 4 -44 9 -83 11 -86 2 -3 6 -19 8 -36 5 -24 25 -92 51 -173 23
-70 110 -241 164 -321 33 -50 38 -64 31 -88 -4 -15 -5 -33 -1 -38 4 -7 246
-11 699 -12 652 -1 692 0 693 17 6 77 4 830 -2 843 -4 8 -47 39 -96 69 -48 29
-91 58 -95 64 -5 7 -8 7 -8 1 0 -6 -3 -5 -8 1 -4 6 -43 40 -87 74 -44 35 -87
69 -95 77 -8 7 -44 39 -80 70 -67 59 -342 332 -395 393 -17 19 -53 62 -80 95
-28 33 -52 62 -55 65 -29 29 -204 278 -256 363 -16 27 -39 65 -51 85 -37 61
-149 283 -177 352 -15 36 -31 74 -36 85 -5 11 -28 76 -51 145 -23 70 -51 135
-63 148 l-22 23 -26 -21 c-22 -17 -32 -37 -43 -90 -3 -15 -37 -127 -42 -140
-3 -8 -7 -19 -8 -25 -10 -40 -72 -215 -100 -280 -7 -16 -25 -58 -39 -93 -37
-87 -102 -222 -154 -317 -51 -94 -181 -304 -199 -323 -7 -7 -13 -17 -13 -22 0
-5 -6 -15 -13 -22 -7 -7 -37 -44 -66 -83 -110 -142 -235 -275 -381 -404 -124
-109 -129 -111 -188 -64 -145 117 -300 273 -421 423 -25 30 -49 60 -55 65 -6
6 -15 18 -21 27 -5 9 -44 68 -85 130 -91 138 -97 148 -110 173 -6 11 -26 47
-45 80 -52 89 -140 271 -192 398 -42 104 -130 350 -137 386 -6 35 -39 138 -52
162 -19 39 -50 43 -73 11z"/>
<path d="M4028 4329 c-10 -5 -18 -17 -18 -24 0 -18 -20 -20 -20 -2 0 6 -6 3
-12 -7 -10 -17 -6 -24 25 -51 l37 -32 -5 -134 c-9 -224 -14 -271 -40 -332
l-15 -36 123 1 c67 0 125 2 129 4 3 2 -2 27 -12 54 -10 28 -16 50 -14 50 3 0
0 10 -7 22 -15 27 -14 91 2 116 6 10 34 34 62 53 42 29 47 35 29 37 -12 2 -27
12 -32 23 -11 20 -54 26 -78 10 -8 -4 -16 -26 -19 -49 -6 -41 -26 -60 -47 -43
-7 6 -11 56 -10 147 0 122 -2 140 -20 167 -24 36 -35 40 -58 26z"/>
<path d="M4524 4193 c-37 -48 -71 -121 -79 -170 -4 -21 -8 -45 -10 -53 -2 -8
-4 -51 -4 -94 -1 -81 -8 -97 -15 -35 -2 19 -4 37 -5 41 0 4 -11 16 -23 28 -51
47 -128 7 -133 -70 -4 -60 8 -86 47 -110 40 -24 110 -27 129 -4 11 14 13 14
21 -1 8 -14 41 -15 269 -15 291 1 293 2 283 68 -16 109 -39 141 -106 146 -18
2 -35 4 -38 5 -3 0 -4 19 -2 41 3 30 1 40 -11 40 -20 0 -37 22 -43 57 -3 15
-12 36 -21 45 -15 17 -17 16 -38 -12 -18 -24 -22 -40 -18 -73 5 -45 7 -93 4
-142 -1 -27 -5 -23 -36 38 -19 38 -39 75 -44 81 -6 7 -13 31 -15 53 -5 52 -12
63 -41 63 -39 0 -51 -34 -28 -82 8 -15 14 -31 14 -35 1 -5 7 -19 14 -33 41
-77 50 -147 24 -189 -18 -30 -51 -41 -64 -22 -13 22 -27 124 -30 221 -4 117 8
155 50 166 39 10 50 39 25 64 -29 29 -44 25 -76 -17z"/>
<path d="M3359 4123 c-8 -85 -6 -119 7 -135 9 -9 13 -22 9 -28 -3 -6 5 -24 19
-41 30 -35 31 -42 12 -58 -10 -9 -19 -4 -40 23 -32 43 -76 128 -76 149 0 26
-50 31 -72 8 -10 -12 -25 -21 -32 -21 -8 0 -18 -6 -24 -13 -9 -10 -4 -16 23
-26 19 -7 51 -32 70 -56 29 -35 37 -54 40 -94 2 -28 0 -51 -4 -51 -5 0 -27 14
-50 30 -36 26 -41 35 -39 63 3 44 -11 97 -26 97 -24 0 -34 -21 -26 -51 8 -28
7 -29 -29 -35 -28 -4 -43 -14 -55 -35 -9 -16 -15 -29 -12 -29 2 0 -2 -22 -9
-49 -11 -43 -11 -50 2 -55 8 -3 138 -6 289 -6 252 0 297 4 264 25 -5 3 -9 23
-8 44 1 24 -6 49 -19 67 -13 19 -21 48 -22 85 -2 55 -1 57 33 77 28 17 33 25
29 44 -3 13 -10 28 -14 34 -5 6 -6 14 -2 17 14 15 -24 5 -43 -11 -30 -24 -46
-59 -49 -104 -1 -21 -4 -41 -7 -43 -10 -11 -67 66 -83 111 -9 27 -21 54 -27
61 -12 14 -28 17 -29 6z"/>
<path d="M3918 4112 c-19 -20 -34 -82 -20 -82 16 0 30 -45 26 -90 -8 -112 -13
-147 -22 -170 -9 -24 -10 -24 -31 22 -16 32 -31 50 -51 57 -35 12 -79 5 -102
-16 -18 -16 -35 -60 -32 -80 1 -7 2 -20 3 -28 1 -14 19 -16 116 -14 164 2 164
2 169 204 2 61 4 115 6 120 5 19 0 31 -24 63 -22 30 -24 31 -38 14z"/>
<path d="M5278 4098 c-9 -18 -19 -46 -22 -61 -6 -26 -62 -95 -70 -86 -2 2 -7
20 -10 39 -4 19 -8 41 -9 47 -3 14 -57 73 -66 73 -3 0 -14 -7 -24 -14 -17 -13
-17 -17 -3 -49 8 -19 24 -38 35 -42 12 -3 21 -14 22 -23 4 -65 -2 -106 -16
-129 -10 -14 -18 -44 -20 -67 -1 -23 -5 -49 -9 -58 -8 -17 7 -18 240 -18 137
0 260 3 273 7 22 5 23 10 18 55 -9 74 -26 101 -70 111 -32 8 -36 12 -33 32 3
13 -1 26 -7 29 -8 3 -8 5 1 5 17 1 5 21 -13 21 -18 0 -33 -48 -28 -86 5 -33
-20 -69 -64 -92 -30 -17 -30 -17 -23 36 12 81 35 120 99 159 20 12 30 23 24
23 -7 0 -22 9 -32 19 -21 21 -31 24 -68 22 -17 -1 -24 -9 -29 -38 -7 -40 -33
-90 -70 -135 -18 -23 -24 -25 -34 -13 -9 10 -6 24 14 62 14 26 26 55 26 63 0
9 5 21 12 28 9 9 9 15 1 23 -7 7 -8 20 -3 33 13 34 12 38 -2 47 -20 13 -22 12
-40 -23z"/>
<path d="M1114 3661 c-2 -2 2 -11 8 -19 7 -8 13 -19 14 -26 1 -6 16 -53 33
-104 31 -93 58 -200 66 -257 3 -16 7 -40 9 -53 8 -38 18 -152 20 -231 3 -98
-17 -246 -48 -352 -25 -86 -81 -215 -97 -225 -47 -28 17 -29 3101 -28 1710 0
3112 3 3116 6 3 4 -6 24 -19 45 -26 41 -67 131 -70 154 -2 8 -5 19 -8 24 -6 9
-19 60 -35 135 -22 105 -23 367 0 476 2 12 7 37 10 55 3 19 8 46 11 60 9 45
62 222 84 278 11 30 18 57 15 60 -6 7 -6203 8 -6210 2z"/>
<path d="M438 3192 l-47 -3 23 -47 c12 -26 28 -58 36 -72 8 -14 15 -31 16 -38
1 -7 8 -19 14 -27 7 -8 35 -59 62 -112 81 -158 149 -287 159 -299 21 -26 11
-64 -42 -152 -29 -51 -65 -113 -80 -138 -14 -24 -32 -53 -40 -62 -7 -10 -15
-25 -17 -33 -3 -14 -89 -157 -141 -234 l-28 -41 701 2 c386 0 708 2 716 3 8 0
-12 15 -45 32 -33 17 -66 36 -74 42 -8 7 -24 17 -35 22 -12 6 -88 48 -169 95
-81 47 -155 90 -165 95 -10 6 -68 39 -130 74 l-112 64 17 26 c119 182 162 346
167 630 2 113 0 137 -14 151 -14 14 -59 16 -365 19 -192 1 -351 3 -354 4 -3 1
-27 1 -53 -1z"/>
<path d="M7231 3175 c-13 -16 -3 -364 12 -410 3 -11 8 -31 11 -45 8 -43 15
-71 22 -93 13 -47 59 -144 86 -184 47 -70 44 -79 -47 -134 -44 -26 -86 -48
-92 -49 -7 0 -13 -3 -13 -7 0 -5 -10 -13 -23 -18 -34 -17 -111 -59 -117 -66
-3 -3 -36 -22 -75 -44 -68 -37 -205 -116 -235 -135 -8 -6 -30 -18 -47 -27 -18
-9 -33 -20 -33 -23 0 -4 315 -7 700 -7 387 0 700 4 700 9 0 5 -52 95 -115 200
-63 105 -115 194 -115 198 0 4 -7 13 -15 20 -8 7 -15 21 -15 31 0 11 -4 19 -9
19 -9 0 -31 37 -66 108 l-16 33 78 152 c43 84 80 154 83 157 3 3 28 50 55 105
28 54 64 125 82 157 18 32 29 59 25 59 -4 1 -188 2 -410 3 -262 1 -406 -2
-411 -9z"/>
<path d="M1857 2344 c-2 -3 -131 -6 -286 -8 -156 -2 -284 -6 -286 -8 -3 -2 36
-29 85 -59 49 -29 125 -75 167 -102 43 -26 102 -62 131 -80 30 -17 70 -42 90
-55 21 -12 44 -25 52 -29 8 -4 40 -24 70 -45 30 -21 58 -38 61 -38 9 0 9 393
1 407 -7 11 -77 24 -85 17z"/>
<path d="M6523 2342 l-23 -3 0 -210 c0 -115 2 -209 5 -209 3 0 35 20 72 43 38
24 73 46 79 48 5 2 48 28 95 57 46 29 158 98 249 155 91 56 163 106 160 111
-6 11 -560 14 -560 3 0 -5 -6 -5 -12 -1 -15 9 -34 11 -65 6z"/>
</g>
</svg>
