<?xml version="1.0" encoding="UTF-8" standalone="no"?><!DOCTYPE svg PUBLIC "-//W3C//DTD SVG 1.1//EN" "http://www.w3.org/Graphics/SVG/1.1/DTD/svg11.dtd"><svg width="100%" height="100%" viewBox="0 0 532 186" version="1.1" xmlns="http://www.w3.org/2000/svg" xmlns:xlink="http://www.w3.org/1999/xlink" xml:space="preserve" xmlns:serif="http://www.serif.com/" style="fill-rule:evenodd;clip-rule:evenodd;stroke-linejoin:round;stroke-miterlimit:1.41421;"><g id="header-outline"><path id="Line" d="M0,17.057l120,0l0,-2l-120,0l0,2Z" style="fill:#cdaf4a;fill-rule:nonzero;"/><path id="Line1" serif:id="Line" d="M412,17.057l120,0l0,-2l-120,0l0,2Z" style="fill:#cdaf4a;fill-rule:nonzero;"/><path id="_20YEARSOFGIGID-AGOSTINO" serif:id="20YEARSOFGIGID’AGOSTINO" d="M38.152,95.275l0,10.782l-34.726,0l0,-9.024c10.286,-16.823 16.4,-27.233 18.34,-31.23c1.94,-3.998 2.91,-7.116 2.91,-9.356c0,-1.718 -0.293,-3.001 -0.879,-3.847c-0.586,-0.847 -1.478,-1.27 -2.676,-1.27c-1.198,0 -2.09,0.469 -2.676,1.406c-0.586,0.938 -0.879,2.8 -0.879,5.586l0,6.016l-14.14,0l0,-2.305c0,-3.541 0.182,-6.334 0.547,-8.379c0.364,-2.044 1.263,-4.056 2.695,-6.035c1.432,-1.979 3.294,-3.476 5.586,-4.492c2.292,-1.016 5.039,-1.523 8.242,-1.523c6.276,0 11.022,1.555 14.238,4.667c3.217,3.112 4.825,7.051 4.825,11.817c0,3.62 -0.905,7.448 -2.715,11.484c-1.81,4.037 -7.142,12.604 -15.996,25.703l17.304,0Zm43.36,-31.054l0,21.093c0,4.792 -0.261,8.282 -0.782,10.469c-0.52,2.188 -1.601,4.232 -3.242,6.133c-1.64,1.901 -3.619,3.268 -5.937,4.102c-2.318,0.833 -4.909,1.25 -7.774,1.25c-3.776,0 -6.914,-0.437 -9.414,-1.309c-2.5,-0.872 -4.492,-2.233 -5.976,-4.082c-1.485,-1.849 -2.539,-3.796 -3.164,-5.84c-0.625,-2.044 -0.938,-5.293 -0.938,-9.746l0,-22.07c0,-5.808 0.501,-10.157 1.504,-13.047c1.003,-2.891 2.995,-5.208 5.977,-6.953c2.981,-1.745 6.595,-2.617 10.839,-2.617c3.464,0 6.563,0.605 9.297,1.816c2.735,1.211 4.779,2.689 6.133,4.434c1.354,1.744 2.272,3.71 2.754,5.898c0.482,2.187 0.723,5.677 0.723,10.469Zm-15.782,-5.313c0,-3.359 -0.162,-5.462 -0.488,-6.308c-0.325,-0.847 -1.087,-1.27 -2.285,-1.27c-1.172,0 -1.947,0.449 -2.324,1.348c-0.378,0.898 -0.567,2.975 -0.567,6.23l0,30.86c0,3.671 0.176,5.885 0.528,6.64c0.351,0.755 1.113,1.133 2.285,1.133c1.172,0 1.94,-0.443 2.305,-1.328c0.364,-0.886 0.546,-2.878 0.546,-5.977l0,-31.328Zm71.055,-16.094l-11.992,40.352l0,22.891l-15.234,0l0,-22.891l-11.563,-40.352l15.117,0c2.37,12.318 3.698,20.612 3.985,24.883c0.911,-6.745 2.435,-15.039 4.57,-24.883l15.117,0Zm2.813,0l27.422,0l0,12.657l-10.977,0l0,11.992l10.273,0l0,12.031l-10.273,0l0,13.906l12.07,0l0,12.657l-28.515,0l0,-63.243Zm61.64,0l9.414,63.243l-16.836,0l-0.82,-11.368l-5.898,0l-0.977,11.368l-17.031,0l8.359,-63.243l23.789,0Zm-8.711,40.665c-0.833,-7.162 -1.666,-16.003 -2.5,-26.524c-1.666,12.083 -2.708,20.925 -3.125,26.524l5.625,0Zm20.938,-40.665l11.64,0c7.761,0 13.015,0.3 15.762,0.899c2.748,0.599 4.987,2.129 6.719,4.59c1.732,2.461 2.598,6.386 2.598,11.777c0,4.922 -0.612,8.229 -1.836,9.922c-1.224,1.693 -3.633,2.708 -7.227,3.047c3.255,0.807 5.443,1.888 6.563,3.242c1.119,1.354 1.816,2.598 2.089,3.73c0.274,1.133 0.411,4.252 0.411,9.356l0,16.68l-15.274,0l0,-21.016c0,-3.385 -0.267,-5.482 -0.801,-6.289c-0.533,-0.807 -1.933,-1.211 -4.199,-1.211l0,28.516l-16.445,0l0,-63.243Zm16.445,10.821l0,14.062c1.849,0 3.145,-0.254 3.887,-0.761c0.742,-0.508 1.113,-2.155 1.113,-4.942l0,-3.476c0,-2.006 -0.358,-3.321 -1.074,-3.946c-0.716,-0.625 -2.025,-0.937 -3.926,-0.937Zm61.485,8.32l-15.274,0l0,-4.687c0,-2.188 -0.195,-3.581 -0.586,-4.18c-0.39,-0.599 -1.042,-0.899 -1.953,-0.899c-0.99,0 -1.738,0.404 -2.246,1.211c-0.508,0.808 -0.762,2.032 -0.762,3.672c0,2.11 0.287,3.698 0.86,4.766c0.546,1.068 2.096,2.357 4.648,3.867c7.318,4.349 11.927,7.917 13.828,10.703c1.901,2.787 2.852,7.279 2.852,13.477c0,4.505 -0.528,7.825 -1.582,9.961c-1.055,2.135 -3.093,3.925 -6.114,5.371c-3.02,1.445 -6.536,2.168 -10.546,2.168c-4.402,0 -8.158,-0.834 -11.27,-2.5c-3.112,-1.667 -5.15,-3.789 -6.113,-6.367c-0.964,-2.579 -1.446,-6.237 -1.446,-10.977l0,-4.141l15.274,0l0,7.696c0,2.37 0.215,3.893 0.644,4.57c0.43,0.677 1.192,1.016 2.286,1.016c1.093,0 1.907,-0.43 2.441,-1.289c0.534,-0.86 0.801,-2.136 0.801,-3.829c0,-3.724 -0.508,-6.158 -1.524,-7.304c-1.041,-1.146 -3.606,-3.06 -7.695,-5.742c-4.089,-2.709 -6.797,-4.675 -8.125,-5.899c-1.328,-1.224 -2.428,-2.917 -3.301,-5.078c-0.872,-2.161 -1.308,-4.922 -1.308,-8.281c0,-4.844 0.618,-8.386 1.855,-10.625c1.237,-2.24 3.236,-3.991 5.996,-5.254c2.761,-1.263 6.094,-1.895 10,-1.895c4.271,0 7.91,0.69 10.918,2.071c3.008,1.38 5,3.118 5.977,5.214c0.976,2.097 1.465,5.658 1.465,10.684l0,2.5Zm58.203,17.891c0,6.354 -0.15,10.853 -0.45,13.496c-0.299,2.643 -1.237,5.058 -2.812,7.246c-1.576,2.187 -3.704,3.867 -6.387,5.039c-2.682,1.172 -5.807,1.758 -9.375,1.758c-3.385,0 -6.426,-0.554 -9.121,-1.66c-2.695,-1.107 -4.863,-2.767 -6.504,-4.981c-1.64,-2.213 -2.617,-4.622 -2.929,-7.226c-0.313,-2.605 -0.469,-7.162 -0.469,-13.672l0,-10.821c0,-6.354 0.15,-10.852 0.449,-13.496c0.299,-2.643 1.237,-5.058 2.813,-7.246c1.575,-2.187 3.704,-3.867 6.386,-5.039c2.683,-1.172 5.807,-1.758 9.375,-1.758c3.386,0 6.426,0.554 9.121,1.66c2.696,1.107 4.864,2.767 6.504,4.981c1.641,2.214 2.617,4.622 2.93,7.227c0.312,2.604 0.469,7.161 0.469,13.671l0,10.821Zm-16.446,-20.782c0,-2.942 -0.162,-4.824 -0.488,-5.644c-0.325,-0.82 -0.996,-1.231 -2.012,-1.231c-0.859,0 -1.517,0.332 -1.972,0.997c-0.456,0.664 -0.684,2.623 -0.684,5.878l0,29.532c0,3.672 0.15,5.937 0.449,6.797c0.3,0.859 0.996,1.289 2.09,1.289c1.12,0 1.836,-0.495 2.149,-1.485c0.312,-0.989 0.468,-3.346 0.468,-7.07l0,-29.063Zm22.578,-16.25l27.852,0l0,12.657l-11.406,0l0,11.992l10.156,0l0,12.031l-10.156,0l0,26.563l-16.446,0l0,-63.243Zm83.672,23.282l-16.445,0l0,-5.742c0,-3.62 -0.156,-5.886 -0.469,-6.797c-0.312,-0.912 -1.054,-1.368 -2.226,-1.368c-1.016,0 -1.706,0.391 -2.071,1.172c-0.364,0.782 -0.546,2.787 -0.546,6.016l0,30.352c0,2.838 0.182,4.707 0.546,5.605c0.365,0.898 1.094,1.348 2.188,1.348c1.198,0 2.012,-0.508 2.441,-1.524c0.43,-1.015 0.645,-2.995 0.645,-5.937l0,-7.5l-3.32,0l0,-9.61l19.257,0l0,33.946l-10.351,0l-1.524,-4.532c-1.119,1.954 -2.532,3.418 -4.238,4.395c-1.706,0.976 -3.717,1.465 -6.035,1.465c-2.761,0 -5.345,-0.671 -7.754,-2.012c-2.409,-1.341 -4.238,-3.001 -5.488,-4.98c-1.25,-1.98 -2.032,-4.056 -2.344,-6.231c-0.313,-2.174 -0.469,-5.436 -0.469,-9.785l0,-18.789c0,-6.042 0.326,-10.43 0.977,-13.164c0.651,-2.735 2.519,-5.241 5.605,-7.52c3.086,-2.278 7.077,-3.418 11.973,-3.418c4.818,0 8.815,0.99 11.992,2.969c3.177,1.979 5.247,4.329 6.211,7.051c0.964,2.721 1.445,6.673 1.445,11.855l0,2.735Zm22.813,-23.282l0,63.243l-16.445,0l0,-63.243l16.445,0Zm44.336,23.282l-16.446,0l0,-5.742c0,-3.62 -0.156,-5.886 -0.468,-6.797c-0.313,-0.912 -1.055,-1.368 -2.227,-1.368c-1.015,0 -1.706,0.391 -2.07,1.172c-0.365,0.782 -0.547,2.787 -0.547,6.016l0,30.352c0,2.838 0.182,4.707 0.547,5.605c0.364,0.898 1.094,1.348 2.187,1.348c1.198,0 2.012,-0.508 2.442,-1.524c0.429,-1.015 0.644,-2.995 0.644,-5.937l0,-7.5l-3.32,0l0,-9.61l19.258,0l0,33.946l-10.352,0l-1.523,-4.532c-1.12,1.954 -2.533,3.418 -4.238,4.395c-1.706,0.976 -3.718,1.465 -6.036,1.465c-2.76,0 -5.345,-0.671 -7.754,-2.012c-2.408,-1.341 -4.238,-3.001 -5.488,-4.98c-1.25,-1.98 -2.031,-4.056 -2.344,-6.231c-0.312,-2.174 -0.468,-5.436 -0.468,-9.785l0,-18.789c0,-6.042 0.325,-10.43 0.976,-13.164c0.651,-2.735 2.52,-5.241 5.606,-7.52c3.086,-2.278 7.076,-3.418 11.972,-3.418c4.818,0 8.815,0.99 11.993,2.969c3.177,1.979 5.247,4.329 6.21,7.051c0.964,2.721 1.446,6.673 1.446,11.855l0,2.735Zm22.812,-23.282l0,63.243l-16.445,0l0,-63.243l16.445,0Zm-446.289,78l12.305,0c7.943,0 13.314,0.365 16.113,1.094c2.8,0.729 4.929,1.927 6.387,3.594c1.458,1.667 2.37,3.522 2.734,5.566c0.365,2.045 0.547,6.062 0.547,12.051l0,22.149c0,5.677 -0.267,9.472 -0.801,11.386c-0.533,1.914 -1.464,3.412 -2.793,4.492c-1.328,1.081 -2.968,1.836 -4.921,2.266c-1.954,0.43 -4.896,0.645 -8.829,0.645l-20.742,0l0,-63.243Zm16.446,10.821l0,41.601c2.369,0 3.828,-0.475 4.375,-1.425c0.546,-0.951 0.82,-3.536 0.82,-7.754l0,-24.571c0,-2.864 -0.091,-4.7 -0.274,-5.507c-0.182,-0.808 -0.599,-1.4 -1.25,-1.778c-0.651,-0.377 -1.875,-0.566 -3.671,-0.566Zm36.484,-10.821l0,5.665c0,2.942 -0.352,5.371 -1.055,7.285c-0.703,1.914 -1.92,3.528 -3.652,4.843c-1.732,1.316 -3.692,2.207 -5.879,2.676l0,-4.57c1.562,-0.859 2.448,-2.031 2.656,-3.516l-2.656,0l0,-12.383l10.586,0Zm33.125,0l9.414,63.243l-16.836,0l-0.82,-11.368l-5.899,0l-0.976,11.368l-17.032,0l8.36,-63.243l23.789,0Zm-8.711,40.665c-0.833,-7.162 -1.667,-16.003 -2.5,-26.524c-1.667,12.083 -2.708,20.925 -3.125,26.524l5.625,0Zm58.672,-17.383l-16.445,0l0,-5.742c0,-3.62 -0.157,-5.886 -0.469,-6.797c-0.313,-0.912 -1.055,-1.368 -2.227,-1.368c-1.015,0 -1.706,0.391 -2.07,1.172c-0.365,0.782 -0.547,2.787 -0.547,6.016l0,30.352c0,2.838 0.182,4.707 0.547,5.605c0.364,0.898 1.094,1.348 2.187,1.348c1.198,0 2.012,-0.508 2.442,-1.524c0.43,-1.015 0.644,-2.995 0.644,-5.937l0,-7.5l-3.32,0l0,-9.61l19.258,0l0,33.946l-10.352,0l-1.523,-4.532c-1.12,1.954 -2.533,3.418 -4.238,4.395c-1.706,0.976 -3.718,1.465 -6.036,1.465c-2.76,0 -5.345,-0.671 -7.753,-2.012c-2.409,-1.341 -4.239,-3.001 -5.489,-4.98c-1.25,-1.98 -2.031,-4.056 -2.344,-6.231c-0.312,-2.174 -0.468,-5.436 -0.468,-9.785l0,-18.789c0,-6.042 0.325,-10.43 0.976,-13.164c0.651,-2.735 2.52,-5.241 5.606,-7.52c3.086,-2.278 7.077,-3.418 11.972,-3.418c4.818,0 8.815,0.99 11.993,2.969c3.177,1.979 5.247,4.329 6.211,7.051c0.963,2.721 1.445,6.673 1.445,11.855l0,2.735Zm43.945,13.75c0,6.354 -0.15,10.853 -0.449,13.496c-0.3,2.643 -1.237,5.058 -2.813,7.246c-1.575,2.187 -3.704,3.867 -6.386,5.039c-2.683,1.172 -5.808,1.758 -9.375,1.758c-3.386,0 -6.426,-0.554 -9.121,-1.66c-2.696,-1.107 -4.864,-2.767 -6.504,-4.981c-1.641,-2.213 -2.617,-4.622 -2.93,-7.226c-0.312,-2.605 -0.469,-7.162 -0.469,-13.672l0,-10.821c0,-6.354 0.15,-10.852 0.45,-13.496c0.299,-2.643 1.236,-5.058 2.812,-7.246c1.576,-2.187 3.704,-3.867 6.387,-5.039c2.682,-1.172 5.807,-1.758 9.375,-1.758c3.385,0 6.425,0.554 9.121,1.66c2.695,1.107 4.863,2.767 6.504,4.981c1.64,2.214 2.617,4.622 2.929,7.227c0.313,2.604 0.469,7.161 0.469,13.671l0,10.821Zm-16.445,-20.782c0,-2.942 -0.163,-4.824 -0.488,-5.644c-0.326,-0.82 -0.997,-1.231 -2.012,-1.231c-0.86,0 -1.517,0.332 -1.973,0.997c-0.456,0.664 -0.683,2.623 -0.683,5.878l0,29.532c0,3.672 0.149,5.937 0.449,6.797c0.299,0.859 0.996,1.289 2.09,1.289c1.119,0 1.836,-0.495 2.148,-1.485c0.313,-0.989 0.469,-3.346 0.469,-7.07l0,-29.063Zm57.422,2.891l-15.274,0l0,-4.687c0,-2.188 -0.195,-3.581 -0.586,-4.18c-0.39,-0.599 -1.041,-0.899 -1.953,-0.899c-0.989,0 -1.738,0.404 -2.246,1.211c-0.508,0.808 -0.762,2.032 -0.762,3.672c0,2.11 0.287,3.698 0.86,4.766c0.547,1.068 2.096,2.357 4.648,3.867c7.318,4.349 11.927,7.917 13.828,10.703c1.901,2.787 2.852,7.279 2.852,13.477c0,4.505 -0.527,7.825 -1.582,9.961c-1.055,2.135 -3.093,3.925 -6.113,5.371c-3.021,1.445 -6.537,2.168 -10.547,2.168c-4.401,0 -8.158,-0.834 -11.27,-2.5c-3.112,-1.667 -5.15,-3.789 -6.113,-6.367c-0.964,-2.579 -1.445,-6.237 -1.445,-10.977l0,-4.141l15.273,0l0,7.696c0,2.37 0.215,3.893 0.645,4.57c0.429,0.677 1.191,1.016 2.285,1.016c1.093,0 1.907,-0.43 2.441,-1.289c0.534,-0.86 0.801,-2.136 0.801,-3.829c0,-3.724 -0.508,-6.158 -1.524,-7.304c-1.041,-1.146 -3.606,-3.06 -7.695,-5.742c-4.088,-2.709 -6.797,-4.675 -8.125,-5.899c-1.328,-1.224 -2.428,-2.917 -3.301,-5.078c-0.872,-2.161 -1.308,-4.922 -1.308,-8.281c0,-4.844 0.618,-8.386 1.855,-10.625c1.237,-2.24 3.236,-3.991 5.996,-5.254c2.761,-1.263 6.094,-1.895 10,-1.895c4.271,0 7.91,0.69 10.918,2.071c3.008,1.38 5,3.118 5.977,5.214c0.976,2.097 1.465,5.658 1.465,10.684l0,2.5Zm39.648,-19.141l0,12.657l-9.765,0l0,50.586l-16.446,0l0,-50.586l-9.726,0l0,-12.657l35.937,0Zm20.195,0l0,63.243l-16.445,0l0,-63.243l16.445,0Zm43.321,0l0,63.243l-14.414,0l-8.555,-28.75l0,28.75l-13.75,0l0,-63.243l13.75,0l9.219,28.477l0,-28.477l13.75,0Zm44.179,37.032c0,6.354 -0.149,10.853 -0.449,13.496c-0.299,2.643 -1.237,5.058 -2.812,7.246c-1.576,2.187 -3.705,3.867 -6.387,5.039c-2.682,1.172 -5.807,1.758 -9.375,1.758c-3.385,0 -6.426,-0.554 -9.121,-1.66c-2.695,-1.107 -4.863,-2.767 -6.504,-4.981c-1.641,-2.213 -2.617,-4.622 -2.93,-7.226c-0.312,-2.605 -0.468,-7.162 -0.468,-13.672l0,-10.821c0,-6.354 0.149,-10.852 0.449,-13.496c0.299,-2.643 1.237,-5.058 2.812,-7.246c1.576,-2.187 3.705,-3.867 6.387,-5.039c2.682,-1.172 5.807,-1.758 9.375,-1.758c3.385,0 6.426,0.554 9.121,1.66c2.695,1.107 4.863,2.767 6.504,4.981c1.641,2.214 2.617,4.622 2.93,7.227c0.312,2.604 0.468,7.161 0.468,13.671l0,10.821Zm-16.445,-20.782c0,-2.942 -0.163,-4.824 -0.488,-5.644c-0.326,-0.82 -0.996,-1.231 -2.012,-1.231c-0.859,0 -1.517,0.332 -1.972,0.997c-0.456,0.664 -0.684,2.623 -0.684,5.878l0,29.532c0,3.672 0.15,5.937 0.449,6.797c0.3,0.859 0.996,1.289 2.09,1.289c1.12,0 1.836,-0.495 2.148,-1.485c0.313,-0.989 0.469,-3.346 0.469,-7.07l0,-29.063Z" style="fill:#fff;fill-rule:nonzero;"/><path id="L-AMOURTOUJOURS" serif:id="L’AMOURTOUJOURS" d="M138.303,0.598l0,22.763l4.5,0l0,5.696l-11.901,0l0,-28.459l7.401,0Zm10.213,0l0,2.548c0,1.325 -0.159,2.417 -0.475,3.279c-0.316,0.861 -0.864,1.588 -1.644,2.179c-0.779,0.592 -1.661,0.994 -2.645,1.205l0,-2.057c0.703,-0.387 1.102,-0.914 1.195,-1.582l-1.195,0l0,-5.572l4.764,0Zm14.906,0l4.236,28.459l-7.576,0l-0.369,-5.116l-2.654,0l-0.44,5.116l-7.664,0l3.762,-28.459l10.705,0Zm-3.92,18.298c-0.375,-3.222 -0.75,-7.201 -1.125,-11.935c-0.75,5.437 -1.219,9.416 -1.406,11.935l2.531,0Zm32.256,-18.298l0,28.459l-6.469,0l0,-19.213l-2.584,19.213l-4.588,0l-2.724,-18.774l0,18.774l-6.469,0l0,-28.459l9.58,0c0.281,1.711 0.58,3.726 0.896,6.047l1.02,7.242l1.687,-13.289l9.651,0Zm19.881,16.664c0,2.859 -0.068,4.884 -0.202,6.073c-0.135,1.189 -0.557,2.276 -1.266,3.261c-0.709,0.984 -1.667,1.74 -2.874,2.267c-1.207,0.528 -2.613,0.791 -4.219,0.791c-1.523,0 -2.891,-0.249 -4.104,-0.747c-1.213,-0.498 -2.189,-1.245 -2.927,-2.241c-0.738,-0.996 -1.178,-2.08 -1.318,-3.252c-0.141,-1.172 -0.211,-3.223 -0.211,-6.152l0,-4.869c0,-2.86 0.067,-4.884 0.202,-6.074c0.134,-1.189 0.556,-2.276 1.265,-3.26c0.709,-0.985 1.667,-1.741 2.874,-2.268c1.207,-0.527 2.614,-0.791 4.219,-0.791c1.524,0 2.892,0.249 4.105,0.747c1.213,0.498 2.188,1.245 2.926,2.241c0.739,0.996 1.178,2.08 1.319,3.252c0.14,1.172 0.211,3.223 0.211,6.153l0,4.869Zm-7.401,-9.352c0,-1.324 -0.073,-2.171 -0.219,-2.54c-0.147,-0.369 -0.449,-0.554 -0.906,-0.554c-0.386,0 -0.682,0.15 -0.887,0.449c-0.205,0.298 -0.308,1.18 -0.308,2.645l0,13.289c0,1.653 0.067,2.672 0.202,3.059c0.135,0.387 0.448,0.58 0.941,0.58c0.503,0 0.826,-0.223 0.966,-0.668c0.141,-0.445 0.211,-1.506 0.211,-3.182l0,-13.078Zm26.983,-7.312l0,19.019c0,2.156 -0.071,3.671 -0.211,4.544c-0.141,0.873 -0.557,1.77 -1.248,2.69c-0.692,0.92 -1.603,1.617 -2.734,2.091c-1.131,0.475 -2.464,0.712 -3.999,0.712c-1.699,0 -3.199,-0.281 -4.5,-0.843c-1.3,-0.563 -2.273,-1.295 -2.918,-2.198c-0.644,-0.902 -1.025,-1.854 -1.142,-2.856c-0.117,-1.002 -0.176,-3.109 -0.176,-6.319l0,-16.84l7.4,0l0,21.34c0,1.242 0.068,2.036 0.203,2.381c0.134,0.346 0.407,0.519 0.817,0.519c0.469,0 0.77,-0.191 0.905,-0.571c0.135,-0.381 0.202,-1.281 0.202,-2.699l0,-20.97l7.401,0Zm2.865,0l5.238,0c3.492,0 5.857,0.134 7.093,0.404c1.236,0.269 2.244,0.958 3.023,2.065c0.78,1.108 1.169,2.874 1.169,5.3c0,2.215 -0.275,3.703 -0.826,4.465c-0.551,0.762 -1.635,1.219 -3.252,1.371c1.465,0.363 2.449,0.85 2.953,1.459c0.504,0.609 0.818,1.169 0.941,1.679c0.123,0.51 0.184,1.913 0.184,4.21l0,7.506l-6.873,0l0,-9.457c0,-1.524 -0.12,-2.467 -0.36,-2.83c-0.24,-0.364 -0.87,-0.545 -1.89,-0.545l0,12.832l-7.4,0l0,-28.459Zm7.4,4.869l0,6.328c0.832,0 1.415,-0.114 1.749,-0.343c0.334,-0.228 0.501,-0.97 0.501,-2.223l0,-1.565c0,-0.902 -0.161,-1.494 -0.483,-1.775c-0.322,-0.282 -0.911,-0.422 -1.767,-0.422Zm33.241,-4.869l0,5.695l-4.395,0l0,22.764l-7.4,0l0,-22.764l-4.377,0l0,-5.695l16.172,0Zm18.597,16.664c0,2.859 -0.067,4.884 -0.202,6.073c-0.135,1.189 -0.557,2.276 -1.266,3.261c-0.709,0.984 -1.667,1.74 -2.874,2.267c-1.207,0.528 -2.613,0.791 -4.218,0.791c-1.524,0 -2.892,-0.249 -4.105,-0.747c-1.213,-0.498 -2.188,-1.245 -2.927,-2.241c-0.738,-0.996 -1.177,-2.08 -1.318,-3.252c-0.141,-1.172 -0.211,-3.223 -0.211,-6.152l0,-4.869c0,-2.86 0.068,-4.884 0.202,-6.074c0.135,-1.189 0.557,-2.276 1.266,-3.26c0.709,-0.985 1.667,-1.741 2.874,-2.268c1.207,-0.527 2.613,-0.791 4.219,-0.791c1.523,0 2.891,0.249 4.104,0.747c1.213,0.498 2.189,1.245 2.927,2.241c0.738,0.996 1.178,2.08 1.318,3.252c0.141,1.172 0.211,3.223 0.211,6.153l0,4.869Zm-7.4,-9.352c0,-1.324 -0.073,-2.171 -0.22,-2.54c-0.146,-0.369 -0.448,-0.554 -0.905,-0.554c-0.387,0 -0.683,0.15 -0.888,0.449c-0.205,0.298 -0.307,1.18 -0.307,2.645l0,13.289c0,1.653 0.067,2.672 0.202,3.059c0.134,0.387 0.448,0.58 0.94,0.58c0.504,0 0.826,-0.223 0.967,-0.668c0.141,-0.445 0.211,-1.506 0.211,-3.182l0,-13.078Zm26.982,-7.312l0,19.019c0,2.156 -0.07,3.671 -0.211,4.544c-0.14,0.873 -0.556,1.77 -1.248,2.69c-0.691,0.92 -1.602,1.617 -2.733,2.091c-1.131,0.475 -2.464,0.712 -3.999,0.712c-1.699,0 -3.199,-0.281 -4.5,-0.843c-1.301,-0.563 -2.274,-1.295 -2.918,-2.198c-0.645,-0.902 -1.026,-1.854 -1.143,-2.856c-0.117,-1.002 -0.175,-3.109 -0.175,-6.319l0,-16.84l7.4,0l0,21.34c0,1.242 0.067,2.036 0.202,2.381c0.135,0.346 0.407,0.519 0.817,0.519c0.469,0 0.771,-0.191 0.906,-0.571c0.134,-0.381 0.202,-1.281 0.202,-2.699l0,-20.97l7.4,0Zm11.918,0l0,19.019c0,2.848 -0.029,4.679 -0.088,5.493c-0.058,0.815 -0.325,1.55 -0.799,2.206c-0.475,0.657 -1.12,1.111 -1.934,1.363c-0.815,0.252 -2.042,0.378 -3.683,0.378l-3.709,0l0,-4.975c0.446,0.035 0.768,0.053 0.967,0.053c0.527,0 0.943,-0.129 1.248,-0.387c0.305,-0.258 0.481,-0.574 0.528,-0.949c0.046,-0.375 0.07,-1.102 0.07,-2.18l0,-20.021l7.4,0Zm19.776,16.664c0,2.859 -0.068,4.884 -0.203,6.073c-0.134,1.189 -0.556,2.276 -1.265,3.261c-0.709,0.984 -1.667,1.74 -2.874,2.267c-1.207,0.528 -2.613,0.791 -4.219,0.791c-1.523,0 -2.892,-0.249 -4.104,-0.747c-1.213,-0.498 -2.189,-1.245 -2.927,-2.241c-0.738,-0.996 -1.178,-2.08 -1.319,-3.252c-0.14,-1.172 -0.21,-3.223 -0.21,-6.152l0,-4.869c0,-2.86 0.067,-4.884 0.202,-6.074c0.134,-1.189 0.556,-2.276 1.265,-3.26c0.709,-0.985 1.667,-1.741 2.874,-2.268c1.207,-0.527 2.614,-0.791 4.219,-0.791c1.524,0 2.892,0.249 4.105,0.747c1.212,0.498 2.188,1.245 2.926,2.241c0.739,0.996 1.178,2.08 1.319,3.252c0.14,1.172 0.211,3.223 0.211,6.153l0,4.869Zm-7.401,-9.352c0,-1.324 -0.073,-2.171 -0.22,-2.54c-0.146,-0.369 -0.448,-0.554 -0.905,-0.554c-0.387,0 -0.682,0.15 -0.887,0.449c-0.206,0.298 -0.308,1.18 -0.308,2.645l0,13.289c0,1.653 0.067,2.672 0.202,3.059c0.135,0.387 0.448,0.58 0.94,0.58c0.504,0 0.827,-0.223 0.967,-0.668c0.141,-0.445 0.211,-1.506 0.211,-3.182l0,-13.078Zm26.983,-7.312l0,19.019c0,2.156 -0.071,3.671 -0.211,4.544c-0.141,0.873 -0.557,1.77 -1.248,2.69c-0.692,0.92 -1.603,1.617 -2.734,2.091c-1.131,0.475 -2.464,0.712 -3.999,0.712c-1.699,0 -3.199,-0.281 -4.5,-0.843c-1.301,-0.563 -2.273,-1.295 -2.918,-2.198c-0.644,-0.902 -1.025,-1.854 -1.142,-2.856c-0.118,-1.002 -0.176,-3.109 -0.176,-6.319l0,-16.84l7.4,0l0,21.34c0,1.242 0.068,2.036 0.202,2.381c0.135,0.346 0.408,0.519 0.818,0.519c0.469,0 0.77,-0.191 0.905,-0.571c0.135,-0.381 0.202,-1.281 0.202,-2.699l0,-20.97l7.401,0Zm2.865,0l5.238,0c3.492,0 5.857,0.134 7.093,0.404c1.236,0.269 2.244,0.958 3.023,2.065c0.78,1.108 1.169,2.874 1.169,5.3c0,2.215 -0.275,3.703 -0.826,4.465c-0.551,0.762 -1.635,1.219 -3.252,1.371c1.465,0.363 2.449,0.85 2.953,1.459c0.504,0.609 0.818,1.169 0.941,1.679c0.123,0.51 0.184,1.913 0.184,4.21l0,7.506l-6.873,0l0,-9.457c0,-1.524 -0.12,-2.467 -0.36,-2.83c-0.24,-0.364 -0.87,-0.545 -1.89,-0.545l0,12.832l-7.4,0l0,-28.459Zm7.4,4.869l0,6.328c0.832,0 1.415,-0.114 1.749,-0.343c0.334,-0.228 0.501,-0.97 0.501,-2.223l0,-1.565c0,-0.902 -0.161,-1.494 -0.483,-1.775c-0.322,-0.282 -0.911,-0.422 -1.767,-0.422Zm27.668,3.744l-6.873,0l0,-2.109c0,-0.985 -0.088,-1.612 -0.263,-1.881c-0.176,-0.27 -0.469,-0.405 -0.879,-0.405c-0.446,0 -0.783,0.182 -1.011,0.545c-0.229,0.364 -0.343,0.914 -0.343,1.653c0,0.949 0.129,1.664 0.387,2.144c0.246,0.481 0.943,1.061 2.092,1.74c3.293,1.957 5.367,3.563 6.222,4.817c0.856,1.254 1.283,3.275 1.283,6.064c0,2.028 -0.237,3.522 -0.711,4.483c-0.475,0.961 -1.392,1.766 -2.751,2.417c-1.36,0.65 -2.942,0.975 -4.747,0.975c-1.98,0 -3.67,-0.375 -5.071,-1.125c-1.4,-0.75 -2.317,-1.705 -2.751,-2.865c-0.433,-1.16 -0.65,-2.807 -0.65,-4.939l0,-1.864l6.873,0l0,3.463c0,1.067 0.097,1.752 0.29,2.057c0.193,0.305 0.536,0.457 1.028,0.457c0.492,0 0.859,-0.193 1.099,-0.58c0.24,-0.387 0.36,-0.961 0.36,-1.723c0,-1.676 -0.228,-2.771 -0.685,-3.287c-0.469,-0.516 -1.623,-1.377 -3.463,-2.584c-1.84,-1.219 -3.059,-2.103 -3.656,-2.654c-0.598,-0.551 -1.093,-1.313 -1.486,-2.285c-0.392,-0.973 -0.589,-2.215 -0.589,-3.727c0,-2.18 0.279,-3.773 0.835,-4.781c0.557,-1.008 1.456,-1.796 2.699,-2.364c1.242,-0.569 2.742,-0.853 4.5,-0.853c1.921,0 3.559,0.311 4.913,0.932c1.353,0.621 2.25,1.403 2.689,2.346c0.44,0.944 0.659,2.546 0.659,4.808l0,1.125Z" style="fill:#ceb040;fill-rule:nonzero;"/></g></svg>