<?xml version="1.0" encoding="UTF-8" standalone="no"?><!DOCTYPE svg PUBLIC "-//W3C//DTD SVG 1.1//EN" "http://www.w3.org/Graphics/SVG/1.1/DTD/svg11.dtd"><svg width="100%" height="100%" viewBox="0 0 490 490" version="1.1" xmlns="http://www.w3.org/2000/svg" xmlns:xlink="http://www.w3.org/1999/xlink" xml:space="preserve" xmlns:serif="http://www.serif.com/" style="fill-rule:evenodd;clip-rule:evenodd;stroke-linejoin:round;stroke-miterlimit:1.41421;"><path d="M52.8,311.3c-12.8,-12.8 -12.8,-33.4 0,-46.2c6.4,-6.4 14.7,-9.6 23.1,-9.6c8.4,0 16.7,3.2 23.1,9.6l113.3,113.4l0,-345.8c0,-18 14.6,-32.7 32.7,-32.7c18.1,0 32.7,14.6 32.7,32.7l0,345.8l113.3,-113.4c12.8,-12.8 33.4,-12.8 46.2,0c12.8,12.8 12.8,33.4 0,46.2l-169.1,169.1c-6.1,6.2 -14.4,9.6 -23.1,9.6c-8.7,0 -17,-3.4 -23.1,-9.6l-169.1,-169.1Z" style="fill:#212529;fill-rule:nonzero;"/></svg>