<?xml version="1.0" standalone="no"?>
<!DOCTYPE svg PUBLIC "-//W3C//DTD SVG 20010904//EN"
 "http://www.w3.org/TR/2001/REC-SVG-20010904/DTD/svg10.dtd">
<svg version="1.0" xmlns="http://www.w3.org/2000/svg"
 width="372.000000pt" height="372.000000pt" viewBox="0 0 372.000000 372.000000"
 preserveAspectRatio="xMidYMid meet">
<metadata>
Created by potrace 1.11, written by Peter Selinger 2001-2013
</metadata>
<g transform="translate(0.000000,372.000000) scale(0.100000,-0.100000)"
fill="#000000" stroke="none">
<path d="M2850 3666 c-25 -7 -78 -27 -117 -45 -119 -55 -113 -26 -113 -583 0
-257 3 -473 6 -482 11 -28 59 -17 143 33 111 67 176 135 194 203 22 81 18 814
-4 845 -23 33 -57 42 -109 29z"/>
<path d="M755 3645 l-25 -28 0 -409 c1 -393 2 -410 21 -446 28 -50 83 -107
144 -147 77 -51 542 -275 559 -269 8 3 16 11 19 17 2 7 4 136 3 287 -1 243 -3
279 -18 302 -14 22 -160 103 -269 149 -38 17 -44 -4 -46 -163 -2 -198 -1 -188
-15 -188 -40 1 -41 10 -42 264 0 135 3 248 6 251 3 4 82 -33 176 -81 211 -109
206 -110 200 46 -3 58 -10 116 -17 130 -9 16 -46 42 -110 73 -53 27 -177 89
-276 139 -213 108 -265 120 -310 73z"/>
<path d="M2450 3470 c-58 -27 -136 -63 -175 -81 -315 -144 -367 -182 -392
-282 -9 -39 -9 -771 0 -810 5 -21 21 -47 36 -58 33 -26 92 -21 171 14 125 56
482 238 498 254 15 15 17 49 19 303 2 222 0 291 -10 305 -13 16 -19 15 -108
-26 -52 -24 -111 -53 -131 -66 -21 -13 -42 -23 -47 -23 -24 0 -36 -70 -37
-220 -1 -85 -2 -162 -3 -171 -1 -14 -39 -39 -60 -39 -9 0 -11 484 -2 498 5 7
127 68 326 163 55 26 72 69 73 178 1 87 -7 111 -37 110 -9 0 -63 -22 -121 -49z"/>
<path d="M1507 3327 c-9 -25 -6 -979 4 -1004 11 -30 139 -92 208 -100 41 -5
51 -2 77 20 l29 25 3 416 c3 410 2 415 -19 462 -25 52 -101 115 -201 165 -63
32 -93 36 -101 16z"/>
<path d="M609 3079 c-38 -41 -79 -110 -102 -174 -25 -67 -33 -207 -17 -276 27
-116 111 -241 238 -360 42 -39 69 -69 60 -66 -38 13 -44 -19 -43 -270 0 -131
4 -244 9 -252 7 -10 26 -12 85 -7 42 3 85 8 96 10 11 2 47 7 80 10 33 4 74 9
90 11 17 3 48 7 70 10 22 3 44 10 50 16 5 5 11 53 11 105 1 52 3 97 5 99 5 5
100 -36 129 -55 22 -15 22 -21 22 -154 0 -75 -2 -139 -4 -141 -4 -5 -77 -13
-173 -20 -219 -15 -315 -25 -343 -36 -60 -22 -92 -45 -114 -83 -23 -41 -23
-44 -23 -361 0 -176 3 -331 6 -345 18 -69 67 -149 130 -213 72 -73 46 -59 779
-415 134 -65 163 -73 184 -52 13 13 17 675 5 708 -6 15 -35 28 -111 52 -57 17
-145 44 -197 61 -52 16 -102 29 -112 29 -28 0 -43 -37 -49 -117 l-5 -72 -62
32 c-35 17 -63 38 -64 46 -6 108 -2 271 6 272 6 0 19 2 30 3 11 2 56 6 100 10
44 4 94 10 110 12 17 2 55 6 85 9 30 3 74 7 96 10 23 2 63 14 89 26 73 35 81
61 85 282 5 403 5 398 -13 487 -6 28 -41 95 -71 135 -67 90 -115 123 -346 236
-124 61 -232 114 -241 119 -9 5 -80 41 -156 79 -113 57 -150 82 -192 126 -75
79 -118 178 -125 290 -1 11 4 48 10 83 11 57 10 65 -8 87 -37 47 -55 50 -89
14z"/>
<path d="M3056 3089 c-50 -30 -57 -46 -47 -107 20 -116 11 -183 -38 -282 -29
-58 -85 -122 -137 -158 -28 -19 -246 -129 -616 -311 -192 -95 -287 -193 -329
-341 -10 -35 -13 -249 -14 -925 -1 -484 2 -888 7 -897 19 -39 15 -40 488 189
107 52 232 113 278 135 140 67 221 140 273 245 54 108 55 121 53 848 -1 369
-2 678 -3 688 0 9 -7 17 -15 17 -30 0 -26 20 11 54 77 69 90 82 138 141 105
129 151 284 126 423 -14 77 -60 182 -110 250 -34 45 -37 47 -65 31z m-571
-1722 c-1 -314 -4 -577 -8 -584 -10 -17 -114 -66 -125 -59 -14 8 -10 1142 4
1156 14 14 105 59 119 60 7 0 10 -197 10 -573z"/>
</g>
</svg>
