<?xml version="1.0" encoding="UTF-8" standalone="no"?><!DOCTYPE svg PUBLIC "-//W3C//DTD SVG 1.1//EN" "http://www.w3.org/Graphics/SVG/1.1/DTD/svg11.dtd"><svg width="100%" height="100%" viewBox="0 0 57 57" version="1.1" xmlns="http://www.w3.org/2000/svg" xmlns:xlink="http://www.w3.org/1999/xlink" xml:space="preserve" xmlns:serif="http://www.serif.com/" style="fill-rule:evenodd;clip-rule:evenodd;stroke-linejoin:round;stroke-miterlimit:2;"><path d="M55.146,51.887l-13.558,-14.101c3.486,-4.144 5.396,-9.358 5.396,-14.786c0,-12.682 -10.318,-23 -23,-23c-12.682,0 -23,10.318 -23,23c0,12.682 10.318,23 23,23c4.761,0 9.298,-1.436 13.177,-4.162l13.661,14.208c0.571,0.593 1.339,0.92 2.162,0.92c0.779,0 1.518,-0.297 2.079,-0.837c1.192,-1.147 1.23,-3.049 0.083,-4.242Zm-31.162,-45.887c9.374,0 17,7.626 17,17c0,9.374 -7.626,17 -17,17c-9.374,0 -17,-7.626 -17,-17c0,-9.374 7.626,-17 17,-17Z" style="fill:#fff;fill-rule:nonzero;"/></svg>